<svg width="24" height="24" viewBox="0 0 24 24" fill="none" xmlns="http://www.w3.org/2000/svg">
<path d="M9 12L11 14L15.5 9.49999M7.33377 3.81868C8.1376 3.75453 8.90071 3.43844 9.51447 2.9154C10.9467 1.69484 13.0533 1.69484 14.4855 2.9154C15.0993 3.43844 15.8624 3.75453 16.6662 3.81868C18.5421 3.96837 20.0316 5.45793 20.1813 7.33375C20.2455 8.13759 20.5615 8.9007 21.0846 9.51445C22.3051 10.9467 22.3051 13.0533 21.0846 14.4855C20.5615 15.0993 20.2455 15.8624 20.1813 16.6662C20.0316 18.542 18.5421 20.0316 16.6662 20.1813C15.8624 20.2454 15.0993 20.5615 14.4855 21.0846C13.0533 22.3051 10.9467 22.3051 9.51447 21.0846C8.90072 20.5615 8.1376 20.2454 7.33377 20.1813C5.45795 20.0316 3.96839 18.542 3.8187 16.6662C3.75455 15.8624 3.43846 15.0993 2.91542 14.4855C1.69486 13.0533 1.69486 10.9467 2.91542 9.51445C3.43846 8.9007 3.75455 8.13759 3.8187 7.33375C3.96839 5.45793 5.45795 3.96837 7.33377 3.81868Z" stroke="#3BCF3B" stroke-width="1.8" stroke-linecap="round" stroke-linejoin="round"/>
</svg>
