<svg width="43" height="43" viewBox="0 0 43 43" fill="none" xmlns="http://www.w3.org/2000/svg">
<mask id="mask0_273_120" style="mask-type:luminance" maskUnits="userSpaceOnUse" x="0" y="0" width="43" height="43">
<path d="M42.9964 0.45752H0.909424V42.5425H42.9964V0.45752Z" fill="white"/>
</mask>
<g mask="url(#mask0_273_120)">
<path d="M21.9514 0.45752C26.1135 0.45752 30.1821 1.69181 33.6426 4.00429C37.1031 6.31677 39.8001 9.60355 41.3925 13.4489C42.9848 17.2943 43.4011 21.5256 42.5885 25.6076C41.776 29.6895 39.7711 33.4388 36.8275 36.3813C33.884 39.3237 30.1339 41.3272 26.0516 42.1382C21.9693 42.9492 17.7382 42.5313 13.8935 40.9375C10.0487 39.3437 6.76291 36.6454 4.45175 33.184C2.14059 29.7226 0.907843 25.6536 0.909425 21.4915C0.914724 15.9132 3.1336 10.565 7.07882 6.62126C11.024 2.67754 16.3731 0.460696 21.9514 0.45752ZM41.0864 21.5045C41.0874 17.7204 39.9662 14.0209 37.8647 10.874C35.7632 7.727 32.7756 5.27389 29.2799 3.82485C25.7842 2.3758 21.9373 1.9959 18.2257 2.73318C14.514 3.47046 11.1044 5.29181 8.42789 7.96691C5.75139 10.642 3.92826 14.0507 3.18904 17.762C2.44982 21.4732 2.82771 25.3203 4.27493 28.8168C5.72214 32.3133 8.17369 35.3021 11.3195 37.4053C14.4654 39.5084 18.1643 40.6315 21.9484 40.6325C27.0208 40.6272 31.884 38.6106 35.4717 35.0248C39.0593 31.4391 41.0785 26.5769 41.0864 21.5045Z" fill="#EDEAFD"/>
<path d="M24.1004 20.2056L30.7944 12.4236H29.5064C29.2064 12.4236 28.9174 12.4236 28.6344 12.4236C28.5013 12.4164 28.3685 12.441 28.2468 12.4952C28.1251 12.5495 28.018 12.6319 27.9344 12.7356C26.6797 14.2023 25.4224 15.6663 24.1624 17.1276L23.4454 17.9616L22.9454 18.5386L22.6274 18.0756C21.4094 16.2956 20.1897 14.5153 18.9684 12.7346C18.9056 12.6332 18.8169 12.5502 18.7114 12.4944C18.606 12.4385 18.4876 12.4116 18.3684 12.4166C17.1997 12.4199 16.0307 12.4199 14.8614 12.4166H13.6614C13.6184 12.4166 13.5754 12.4166 13.5244 12.4226L12.7244 12.4656L19.5774 22.4406L12.5774 30.5796H13.8294C14.1984 30.5796 14.5474 30.5796 14.8984 30.5746C14.9907 30.5679 15.0807 30.5424 15.1629 30.4998C15.2451 30.4571 15.3177 30.3982 15.3764 30.3266C16.6971 28.7933 18.0164 27.2599 19.3344 25.7266L20.7274 24.1086L20.9154 24.3816C22.2661 26.3469 23.6161 28.3136 24.9654 30.2816C25.0239 30.3752 25.1058 30.452 25.2029 30.5046C25.2999 30.5572 25.409 30.5837 25.5194 30.5816C26.6801 30.5816 27.8407 30.5816 29.0014 30.5816H30.3004C30.3476 30.5809 30.3947 30.5769 30.4414 30.5696L31.1654 30.4866L24.1004 20.2056ZM17.6004 14.3756C18.4004 15.5089 19.1967 16.6459 19.9894 17.7866L27.6074 28.6866C27.1764 28.6866 26.7454 28.6866 26.3074 28.6866C23.5954 24.8039 20.8824 20.9219 18.1684 17.0406L16.3004 14.3666C16.7394 14.3666 17.1654 14.3666 17.5934 14.3716" fill="#EDEAFD"/>
</g>
</svg>
