<svg width="570" height="320" viewBox="0 0 570 320" fill="none" xmlns="http://www.w3.org/2000/svg">
<rect width="570" height="320" rx="16" fill="#E6E6F1"/>
<rect x="76" y="34" width="417" height="251" rx="16" fill="white"/>
<path d="M361.713 111.144C361.222 111.144 360.742 111.107 360.273 111.032C359.803 110.957 359.361 110.845 358.945 110.696C358.529 110.536 358.155 110.344 357.825 110.12C357.665 110.003 357.553 109.869 357.489 109.72C357.435 109.571 357.419 109.427 357.441 109.288C357.473 109.139 357.537 109.011 357.633 108.904C357.729 108.797 357.846 108.733 357.985 108.712C358.123 108.68 358.278 108.723 358.449 108.84C358.929 109.149 359.435 109.379 359.969 109.528C360.502 109.667 361.083 109.736 361.713 109.736C362.619 109.736 363.286 109.576 363.713 109.256C364.15 108.925 364.369 108.499 364.369 107.976C364.369 107.549 364.214 107.213 363.905 106.968C363.595 106.712 363.078 106.509 362.353 106.36L360.641 106.008C359.627 105.795 358.87 105.443 358.369 104.952C357.878 104.461 357.633 103.8 357.633 102.968C357.633 102.467 357.734 102.008 357.937 101.592C358.15 101.176 358.443 100.819 358.817 100.52C359.19 100.211 359.638 99.976 360.161 99.816C360.683 99.656 361.254 99.576 361.873 99.576C362.534 99.576 363.153 99.6613 363.729 99.832C364.315 100.003 364.838 100.264 365.297 100.616C365.435 100.712 365.526 100.835 365.569 100.984C365.622 101.123 365.633 101.261 365.601 101.4C365.579 101.539 365.521 101.656 365.425 101.752C365.329 101.848 365.206 101.907 365.057 101.928C364.907 101.939 364.742 101.885 364.561 101.768C364.145 101.491 363.718 101.293 363.281 101.176C362.854 101.048 362.379 100.984 361.857 100.984C361.334 100.984 360.875 101.064 360.481 101.224C360.097 101.384 359.798 101.608 359.585 101.896C359.382 102.184 359.281 102.525 359.281 102.92C359.281 103.368 359.425 103.725 359.713 103.992C360.001 104.259 360.481 104.461 361.153 104.6L362.849 104.952C363.915 105.176 364.71 105.523 365.233 105.992C365.755 106.461 366.017 107.085 366.017 107.864C366.017 108.365 365.915 108.819 365.713 109.224C365.51 109.619 365.222 109.96 364.849 110.248C364.475 110.536 364.022 110.76 363.489 110.92C362.966 111.069 362.374 111.144 361.713 111.144ZM368.738 111.112C368.471 111.112 368.263 111.037 368.114 110.888C367.975 110.739 367.906 110.531 367.906 110.264V100.568C367.906 100.291 367.98 100.083 368.13 99.944C368.279 99.7947 368.487 99.72 368.754 99.72H372.578C373.794 99.72 374.732 100.008 375.394 100.584C376.055 101.16 376.386 101.976 376.386 103.032C376.386 103.715 376.236 104.301 375.938 104.792C375.639 105.283 375.202 105.656 374.626 105.912C374.06 106.168 373.378 106.296 372.578 106.296L372.722 106.072H373.138C373.564 106.072 373.932 106.179 374.242 106.392C374.562 106.605 374.85 106.947 375.106 107.416L376.482 109.976C376.588 110.168 376.636 110.355 376.626 110.536C376.626 110.707 376.562 110.845 376.434 110.952C376.316 111.059 376.146 111.112 375.922 111.112C375.687 111.112 375.495 111.064 375.346 110.968C375.207 110.861 375.079 110.707 374.962 110.504L373.282 107.4C373.058 106.984 372.802 106.707 372.514 106.568C372.226 106.419 371.847 106.344 371.378 106.344H369.57V110.264C369.57 110.531 369.5 110.739 369.362 110.888C369.223 111.037 369.015 111.112 368.738 111.112ZM369.57 105.096H372.306C373.116 105.096 373.73 104.925 374.146 104.584C374.562 104.243 374.77 103.736 374.77 103.064C374.77 102.403 374.562 101.901 374.146 101.56C373.73 101.219 373.116 101.048 372.306 101.048H369.57V105.096ZM384.121 111C383.897 111 383.721 110.936 383.593 110.808C383.465 110.68 383.401 110.509 383.401 110.296C383.401 110.072 383.465 109.901 383.593 109.784C383.721 109.667 383.897 109.608 384.121 109.608H386.073V101.096H386.905L384.569 102.584C384.398 102.68 384.238 102.717 384.089 102.696C383.95 102.675 383.827 102.616 383.721 102.52C383.625 102.424 383.555 102.307 383.513 102.168C383.481 102.029 383.491 101.885 383.545 101.736C383.609 101.587 383.721 101.464 383.881 101.368L386.089 99.976C386.27 99.8693 386.441 99.784 386.601 99.72C386.771 99.6453 386.931 99.608 387.081 99.608C387.262 99.608 387.411 99.6613 387.529 99.768C387.657 99.864 387.721 100.029 387.721 100.264V109.608H389.513C389.747 109.608 389.929 109.667 390.057 109.784C390.185 109.901 390.249 110.072 390.249 110.296C390.249 110.52 390.185 110.696 390.057 110.824C389.929 110.941 389.747 111 389.513 111H384.121ZM395.202 111.144C394.733 111.144 394.242 111.064 393.73 110.904C393.229 110.733 392.77 110.483 392.354 110.152C392.216 110.056 392.125 109.939 392.082 109.8C392.05 109.651 392.05 109.512 392.082 109.384C392.114 109.245 392.178 109.128 392.274 109.032C392.37 108.925 392.488 108.867 392.626 108.856C392.776 108.835 392.93 108.877 393.09 108.984C393.453 109.251 393.81 109.443 394.162 109.56C394.525 109.677 394.882 109.736 395.234 109.736C395.896 109.736 396.456 109.576 396.914 109.256C397.373 108.936 397.72 108.456 397.954 107.816C398.189 107.176 398.306 106.381 398.306 105.432V104.072H398.482C398.408 104.637 398.226 105.133 397.938 105.56C397.661 105.987 397.298 106.312 396.85 106.536C396.402 106.76 395.906 106.872 395.362 106.872C394.712 106.872 394.13 106.717 393.618 106.408C393.106 106.099 392.706 105.672 392.418 105.128C392.13 104.584 391.986 103.971 391.986 103.288C391.986 102.563 392.141 101.923 392.45 101.368C392.76 100.803 393.186 100.365 393.73 100.056C394.285 99.736 394.92 99.576 395.634 99.576C396.552 99.576 397.325 99.7947 397.954 100.232C398.584 100.659 399.064 101.288 399.394 102.12C399.736 102.952 399.906 103.949 399.906 105.112C399.906 106.083 399.8 106.941 399.586 107.688C399.373 108.435 399.064 109.064 398.658 109.576C398.253 110.088 397.757 110.477 397.17 110.744C396.594 111.011 395.938 111.144 395.202 111.144ZM395.746 105.512C396.173 105.512 396.552 105.416 396.882 105.224C397.213 105.032 397.469 104.76 397.65 104.408C397.842 104.056 397.938 103.656 397.938 103.208C397.938 102.749 397.842 102.349 397.65 102.008C397.469 101.656 397.213 101.384 396.882 101.192C396.552 101 396.173 100.904 395.746 100.904C395.309 100.904 394.925 101 394.594 101.192C394.274 101.384 394.018 101.656 393.826 102.008C393.645 102.349 393.554 102.749 393.554 103.208C393.554 103.656 393.645 104.056 393.826 104.408C394.018 104.76 394.274 105.032 394.594 105.224C394.925 105.416 395.309 105.512 395.746 105.512ZM405.628 111.144C404.316 111.144 403.313 110.648 402.62 109.656C401.937 108.653 401.596 107.219 401.596 105.352C401.596 104.083 401.751 103.021 402.06 102.168C402.369 101.315 402.823 100.669 403.42 100.232C404.017 99.7947 404.753 99.576 405.628 99.576C406.951 99.576 407.953 100.067 408.636 101.048C409.319 102.019 409.66 103.448 409.66 105.336C409.66 106.584 409.505 107.64 409.196 108.504C408.887 109.368 408.433 110.024 407.836 110.472C407.239 110.92 406.503 111.144 405.628 111.144ZM405.628 109.768C406.449 109.768 407.052 109.411 407.436 108.696C407.831 107.971 408.028 106.851 408.028 105.336C408.028 103.811 407.831 102.701 407.436 102.008C407.052 101.304 406.449 100.952 405.628 100.952C404.817 100.952 404.215 101.304 403.82 102.008C403.425 102.701 403.228 103.811 403.228 105.336C403.228 106.851 403.425 107.971 403.82 108.696C404.215 109.411 404.817 109.768 405.628 109.768ZM415.222 111.144C413.91 111.144 412.907 110.648 412.214 109.656C411.531 108.653 411.19 107.219 411.19 105.352C411.19 104.083 411.345 103.021 411.654 102.168C411.963 101.315 412.417 100.669 413.014 100.232C413.611 99.7947 414.347 99.576 415.222 99.576C416.545 99.576 417.547 100.067 418.23 101.048C418.913 102.019 419.254 103.448 419.254 105.336C419.254 106.584 419.099 107.64 418.79 108.504C418.481 109.368 418.027 110.024 417.43 110.472C416.833 110.92 416.097 111.144 415.222 111.144ZM415.222 109.768C416.043 109.768 416.646 109.411 417.03 108.696C417.425 107.971 417.622 106.851 417.622 105.336C417.622 103.811 417.425 102.701 417.03 102.008C416.646 101.304 416.043 100.952 415.222 100.952C414.411 100.952 413.809 101.304 413.414 102.008C413.019 102.701 412.822 103.811 412.822 105.336C412.822 106.851 413.019 107.971 413.414 108.696C413.809 109.411 414.411 109.768 415.222 109.768ZM421.936 111.064C421.626 111.064 421.376 110.968 421.184 110.776C420.992 110.584 420.896 110.339 420.896 110.04C420.896 109.741 420.992 109.501 421.184 109.32C421.376 109.128 421.626 109.032 421.936 109.032C422.245 109.032 422.49 109.128 422.672 109.32C422.853 109.501 422.944 109.741 422.944 110.04C422.944 110.339 422.853 110.584 422.672 110.776C422.49 110.968 422.245 111.064 421.936 111.064ZM428.613 111.144C427.301 111.144 426.298 110.648 425.605 109.656C424.922 108.653 424.581 107.219 424.581 105.352C424.581 104.083 424.735 103.021 425.045 102.168C425.354 101.315 425.807 100.669 426.405 100.232C427.002 99.7947 427.738 99.576 428.613 99.576C429.935 99.576 430.938 100.067 431.621 101.048C432.303 102.019 432.645 103.448 432.645 105.336C432.645 106.584 432.49 107.64 432.181 108.504C431.871 109.368 431.418 110.024 430.821 110.472C430.223 110.92 429.487 111.144 428.613 111.144ZM428.613 109.768C429.434 109.768 430.037 109.411 430.421 108.696C430.815 107.971 431.013 106.851 431.013 105.336C431.013 103.811 430.815 102.701 430.421 102.008C430.037 101.304 429.434 100.952 428.613 100.952C427.802 100.952 427.199 101.304 426.805 102.008C426.41 102.701 426.213 103.811 426.213 105.336C426.213 106.851 426.41 107.971 426.805 108.696C427.199 109.411 427.802 109.768 428.613 109.768ZM438.206 111.144C436.894 111.144 435.892 110.648 435.198 109.656C434.516 108.653 434.174 107.219 434.174 105.352C434.174 104.083 434.329 103.021 434.638 102.168C434.948 101.315 435.401 100.669 435.998 100.232C436.596 99.7947 437.332 99.576 438.206 99.576C439.529 99.576 440.532 100.067 441.214 101.048C441.897 102.019 442.238 103.448 442.238 105.336C442.238 106.584 442.084 107.64 441.774 108.504C441.465 109.368 441.012 110.024 440.414 110.472C439.817 110.92 439.081 111.144 438.206 111.144ZM438.206 109.768C439.028 109.768 439.63 109.411 440.014 108.696C440.409 107.971 440.606 106.851 440.606 105.336C440.606 103.811 440.409 102.701 440.014 102.008C439.63 101.304 439.028 100.952 438.206 100.952C437.396 100.952 436.793 101.304 436.398 102.008C436.004 102.701 435.806 103.811 435.806 105.336C435.806 106.851 436.004 107.971 436.398 108.696C436.793 109.411 437.396 109.768 438.206 109.768Z" fill="#8F8CA7"/>
<path d="M124.072 111.144C123.581 111.144 123.101 111.107 122.632 111.032C122.163 110.957 121.72 110.845 121.304 110.696C120.888 110.536 120.515 110.344 120.184 110.12C120.024 110.003 119.912 109.869 119.848 109.72C119.795 109.571 119.779 109.427 119.8 109.288C119.832 109.139 119.896 109.011 119.992 108.904C120.088 108.797 120.205 108.733 120.344 108.712C120.483 108.68 120.637 108.723 120.808 108.84C121.288 109.149 121.795 109.379 122.328 109.528C122.861 109.667 123.443 109.736 124.072 109.736C124.979 109.736 125.645 109.576 126.072 109.256C126.509 108.925 126.728 108.499 126.728 107.976C126.728 107.549 126.573 107.213 126.264 106.968C125.955 106.712 125.437 106.509 124.712 106.36L123 106.008C121.987 105.795 121.229 105.443 120.728 104.952C120.237 104.461 119.992 103.8 119.992 102.968C119.992 102.467 120.093 102.008 120.296 101.592C120.509 101.176 120.803 100.819 121.176 100.52C121.549 100.211 121.997 99.976 122.52 99.816C123.043 99.656 123.613 99.576 124.232 99.576C124.893 99.576 125.512 99.6613 126.088 99.832C126.675 100.003 127.197 100.264 127.656 100.616C127.795 100.712 127.885 100.835 127.928 100.984C127.981 101.123 127.992 101.261 127.96 101.4C127.939 101.539 127.88 101.656 127.784 101.752C127.688 101.848 127.565 101.907 127.416 101.928C127.267 101.939 127.101 101.885 126.92 101.768C126.504 101.491 126.077 101.293 125.64 101.176C125.213 101.048 124.739 100.984 124.216 100.984C123.693 100.984 123.235 101.064 122.84 101.224C122.456 101.384 122.157 101.608 121.944 101.896C121.741 102.184 121.64 102.525 121.64 102.92C121.64 103.368 121.784 103.725 122.072 103.992C122.36 104.259 122.84 104.461 123.512 104.6L125.208 104.952C126.275 105.176 127.069 105.523 127.592 105.992C128.115 106.461 128.376 107.085 128.376 107.864C128.376 108.365 128.275 108.819 128.072 109.224C127.869 109.619 127.581 109.96 127.208 110.248C126.835 110.536 126.381 110.76 125.848 110.92C125.325 111.069 124.733 111.144 124.072 111.144ZM132.873 111.144C132.244 111.144 131.716 111.027 131.289 110.792C130.873 110.557 130.558 110.211 130.345 109.752C130.142 109.283 130.041 108.696 130.041 107.992V103.896C130.041 103.619 130.11 103.416 130.249 103.288C130.388 103.149 130.585 103.08 130.841 103.08C131.097 103.08 131.294 103.149 131.433 103.288C131.582 103.416 131.657 103.619 131.657 103.896V108.008C131.657 108.637 131.785 109.101 132.041 109.4C132.297 109.699 132.702 109.848 133.257 109.848C133.865 109.848 134.356 109.645 134.729 109.24C135.113 108.824 135.305 108.28 135.305 107.608V103.896C135.305 103.619 135.374 103.416 135.513 103.288C135.652 103.149 135.854 103.08 136.121 103.08C136.377 103.08 136.574 103.149 136.713 103.288C136.852 103.416 136.921 103.619 136.921 103.896V110.296C136.921 110.84 136.66 111.112 136.137 111.112C135.892 111.112 135.7 111.043 135.561 110.904C135.422 110.755 135.353 110.552 135.353 110.296V108.936L135.561 109.288C135.348 109.885 135.006 110.344 134.537 110.664C134.068 110.984 133.513 111.144 132.873 111.144ZM143.391 111.144C142.708 111.144 142.116 110.973 141.615 110.632C141.113 110.28 140.777 109.816 140.607 109.24L140.783 108.952V110.296C140.783 110.552 140.713 110.755 140.575 110.904C140.436 111.043 140.244 111.112 139.999 111.112C139.743 111.112 139.545 111.043 139.407 110.904C139.268 110.755 139.199 110.552 139.199 110.296V100.424C139.199 100.157 139.268 99.9547 139.407 99.816C139.545 99.6773 139.743 99.608 139.999 99.608C140.255 99.608 140.452 99.6773 140.591 99.816C140.74 99.9547 140.815 100.157 140.815 100.424V104.904H140.623C140.793 104.339 141.129 103.891 141.631 103.56C142.132 103.219 142.719 103.048 143.391 103.048C144.095 103.048 144.703 103.213 145.215 103.544C145.727 103.875 146.121 104.339 146.399 104.936C146.687 105.533 146.831 106.253 146.831 107.096C146.831 107.917 146.687 108.637 146.399 109.256C146.121 109.864 145.721 110.333 145.199 110.664C144.687 110.984 144.084 111.144 143.391 111.144ZM142.991 109.896C143.439 109.896 143.828 109.789 144.159 109.576C144.489 109.363 144.745 109.048 144.927 108.632C145.108 108.216 145.199 107.704 145.199 107.096C145.199 106.179 144.996 105.485 144.591 105.016C144.196 104.547 143.663 104.312 142.991 104.312C142.553 104.312 142.164 104.419 141.823 104.632C141.492 104.835 141.236 105.144 141.055 105.56C140.873 105.976 140.783 106.488 140.783 107.096C140.783 108.003 140.985 108.696 141.391 109.176C141.796 109.656 142.329 109.896 142.991 109.896ZM151.902 111.144C151.262 111.144 150.723 111.032 150.286 110.808C149.848 110.584 149.523 110.253 149.31 109.816C149.096 109.379 148.99 108.845 148.99 108.216V104.44H148.03C147.816 104.44 147.651 104.387 147.534 104.28C147.416 104.163 147.357 104.008 147.357 103.816C147.357 103.613 147.416 103.459 147.534 103.352C147.651 103.245 147.816 103.192 148.03 103.192H148.99V101.544C148.99 101.277 149.059 101.075 149.198 100.936C149.347 100.797 149.55 100.728 149.806 100.728C150.062 100.728 150.259 100.797 150.398 100.936C150.536 101.075 150.606 101.277 150.606 101.544V103.192H152.478C152.691 103.192 152.856 103.245 152.974 103.352C153.091 103.459 153.15 103.613 153.15 103.816C153.15 104.008 153.091 104.163 152.974 104.28C152.856 104.387 152.691 104.44 152.478 104.44H150.606V108.088C150.606 108.653 150.723 109.08 150.958 109.368C151.203 109.656 151.598 109.8 152.141 109.8C152.334 109.8 152.499 109.784 152.638 109.752C152.787 109.709 152.91 109.683 153.006 109.672C153.123 109.672 153.219 109.715 153.294 109.8C153.368 109.875 153.406 110.024 153.406 110.248C153.406 110.408 153.374 110.557 153.31 110.696C153.256 110.835 153.155 110.925 153.006 110.968C152.878 111.011 152.702 111.048 152.478 111.08C152.264 111.123 152.072 111.144 151.902 111.144ZM157.731 111.144C156.942 111.144 156.259 110.979 155.683 110.648C155.118 110.317 154.675 109.848 154.355 109.24C154.035 108.632 153.875 107.917 153.875 107.096C153.875 106.467 153.966 105.907 154.147 105.416C154.328 104.925 154.584 104.504 154.915 104.152C155.256 103.789 155.662 103.517 156.131 103.336C156.611 103.144 157.144 103.048 157.731 103.048C158.51 103.048 159.182 103.213 159.747 103.544C160.323 103.875 160.771 104.344 161.091 104.952C161.411 105.549 161.571 106.264 161.571 107.096C161.571 107.715 161.48 108.275 161.299 108.776C161.118 109.277 160.856 109.704 160.515 110.056C160.184 110.408 159.779 110.68 159.299 110.872C158.83 111.053 158.307 111.144 157.731 111.144ZM157.731 109.896C158.168 109.896 158.552 109.789 158.883 109.576C159.214 109.363 159.47 109.048 159.651 108.632C159.843 108.216 159.939 107.704 159.939 107.096C159.939 106.179 159.736 105.485 159.331 105.016C158.926 104.547 158.392 104.312 157.731 104.312C157.283 104.312 156.894 104.419 156.563 104.632C156.232 104.835 155.971 105.144 155.779 105.56C155.598 105.976 155.507 106.488 155.507 107.096C155.507 108.003 155.71 108.696 156.115 109.176C156.52 109.656 157.059 109.896 157.731 109.896ZM166.636 111.144C165.996 111.144 165.457 111.032 165.02 110.808C164.583 110.584 164.257 110.253 164.044 109.816C163.831 109.379 163.724 108.845 163.724 108.216V104.44H162.764C162.551 104.44 162.385 104.387 162.268 104.28C162.151 104.163 162.092 104.008 162.092 103.816C162.092 103.613 162.151 103.459 162.268 103.352C162.385 103.245 162.551 103.192 162.764 103.192H163.724V101.544C163.724 101.277 163.793 101.075 163.932 100.936C164.081 100.797 164.284 100.728 164.54 100.728C164.796 100.728 164.993 100.797 165.132 100.936C165.271 101.075 165.34 101.277 165.34 101.544V103.192H167.212C167.425 103.192 167.591 103.245 167.708 103.352C167.825 103.459 167.884 103.613 167.884 103.816C167.884 104.008 167.825 104.163 167.708 104.28C167.591 104.387 167.425 104.44 167.212 104.44H165.34V108.088C165.34 108.653 165.457 109.08 165.692 109.368C165.937 109.656 166.332 109.8 166.876 109.8C167.068 109.8 167.233 109.784 167.372 109.752C167.521 109.709 167.644 109.683 167.74 109.672C167.857 109.672 167.953 109.715 168.028 109.8C168.103 109.875 168.14 110.024 168.14 110.248C168.14 110.408 168.108 110.557 168.044 110.696C167.991 110.835 167.889 110.925 167.74 110.968C167.612 111.011 167.436 111.048 167.212 111.08C166.999 111.123 166.807 111.144 166.636 111.144ZM171.648 111.144C171.104 111.144 170.613 111.037 170.176 110.824C169.749 110.611 169.413 110.323 169.168 109.96C168.922 109.597 168.8 109.187 168.8 108.728C168.8 108.152 168.944 107.699 169.232 107.368C169.53 107.027 170.016 106.787 170.688 106.648C171.37 106.499 172.288 106.424 173.44 106.424H174.192V107.416H173.456C172.688 107.416 172.08 107.453 171.632 107.528C171.184 107.603 170.864 107.731 170.672 107.912C170.49 108.083 170.4 108.323 170.4 108.632C170.4 109.037 170.538 109.368 170.816 109.624C171.093 109.869 171.477 109.992 171.968 109.992C172.362 109.992 172.709 109.901 173.008 109.72C173.306 109.528 173.541 109.272 173.712 108.952C173.893 108.632 173.984 108.264 173.984 107.848V106.008C173.984 105.4 173.856 104.963 173.6 104.696C173.344 104.429 172.922 104.296 172.336 104.296C171.994 104.296 171.637 104.339 171.264 104.424C170.901 104.509 170.522 104.653 170.128 104.856C169.946 104.941 169.792 104.968 169.664 104.936C169.536 104.904 169.434 104.835 169.36 104.728C169.285 104.611 169.242 104.488 169.232 104.36C169.232 104.221 169.264 104.088 169.328 103.96C169.402 103.832 169.525 103.736 169.696 103.672C170.165 103.448 170.629 103.288 171.088 103.192C171.546 103.096 171.978 103.048 172.384 103.048C173.098 103.048 173.685 103.16 174.144 103.384C174.613 103.608 174.96 103.949 175.184 104.408C175.408 104.867 175.52 105.459 175.52 106.184V110.296C175.52 110.552 175.456 110.755 175.328 110.904C175.2 111.043 175.013 111.112 174.768 111.112C174.533 111.112 174.346 111.043 174.208 110.904C174.069 110.755 174 110.552 174 110.296V109.256H174.144C174.058 109.651 173.898 109.992 173.664 110.28C173.44 110.557 173.157 110.771 172.816 110.92C172.474 111.069 172.085 111.144 171.648 111.144ZM180.257 111.144C179.425 111.144 178.796 110.904 178.369 110.424C177.953 109.933 177.745 109.229 177.745 108.312V100.424C177.745 100.157 177.815 99.9547 177.953 99.816C178.092 99.6773 178.289 99.608 178.545 99.608C178.801 99.608 178.999 99.6773 179.137 99.816C179.287 99.9547 179.361 100.157 179.361 100.424V108.216C179.361 108.749 179.468 109.149 179.681 109.416C179.905 109.672 180.225 109.8 180.641 109.8C180.737 109.8 180.823 109.8 180.897 109.8C180.972 109.789 181.047 109.779 181.121 109.768C181.249 109.757 181.34 109.795 181.393 109.88C181.447 109.955 181.473 110.115 181.473 110.36C181.473 110.584 181.425 110.76 181.329 110.888C181.233 111.005 181.079 111.08 180.865 111.112C180.769 111.123 180.668 111.128 180.561 111.128C180.455 111.139 180.353 111.144 180.257 111.144Z" fill="#8F8CA7"/>
<path d="M124.6 162.112C124.365 162.112 124.168 162.059 124.008 161.952C123.859 161.835 123.736 161.664 123.64 161.44L119.336 151.696C119.251 151.472 119.229 151.28 119.272 151.12C119.315 150.96 119.4 150.837 119.528 150.752C119.667 150.656 119.832 150.608 120.024 150.608C120.269 150.608 120.456 150.661 120.584 150.768C120.712 150.875 120.819 151.035 120.904 151.248L124.936 160.592H124.344L128.344 151.232C128.44 151.029 128.552 150.875 128.68 150.768C128.819 150.661 129.005 150.608 129.24 150.608C129.432 150.608 129.587 150.656 129.704 150.752C129.832 150.837 129.912 150.96 129.944 151.12C129.976 151.28 129.944 151.472 129.848 151.696L125.56 161.44C125.464 161.664 125.341 161.835 125.192 161.952C125.043 162.059 124.845 162.112 124.6 162.112ZM130.545 162.112C130.332 162.112 130.161 162.064 130.033 161.968C129.905 161.872 129.83 161.744 129.809 161.584C129.788 161.424 129.82 161.243 129.905 161.04L134.241 151.312C134.348 151.056 134.481 150.875 134.641 150.768C134.812 150.661 134.998 150.608 135.201 150.608C135.393 150.608 135.569 150.661 135.729 150.768C135.9 150.875 136.038 151.056 136.145 151.312L140.481 161.04C140.577 161.243 140.614 161.429 140.593 161.6C140.572 161.76 140.502 161.888 140.385 161.984C140.268 162.069 140.102 162.112 139.889 162.112C139.654 162.112 139.468 162.053 139.329 161.936C139.19 161.819 139.068 161.637 138.961 161.392L137.841 158.8L138.593 159.248H131.777L132.513 158.8L131.409 161.392C131.302 161.648 131.185 161.835 131.057 161.952C130.929 162.059 130.758 162.112 130.545 162.112ZM135.169 152.56L132.753 158.288L132.353 157.904H138.001L137.633 158.288L135.201 152.56H135.169ZM144.74 162.112C144.473 162.112 144.265 162.037 144.116 161.888C143.977 161.739 143.908 161.531 143.908 161.264V152.112H140.516C140.292 152.112 140.116 152.053 139.988 151.936C139.86 151.808 139.796 151.632 139.796 151.408C139.796 151.184 139.86 151.013 139.988 150.896C140.116 150.779 140.292 150.72 140.516 150.72H148.948C149.182 150.72 149.364 150.779 149.492 150.896C149.62 151.013 149.684 151.184 149.684 151.408C149.684 151.632 149.62 151.808 149.492 151.936C149.364 152.053 149.182 152.112 148.948 152.112H145.556V161.264C145.556 161.531 145.486 161.739 145.348 161.888C145.22 162.037 145.017 162.112 144.74 162.112ZM156.682 164.624C155.669 164.624 154.741 164.459 153.898 164.128C153.055 163.808 152.33 163.339 151.722 162.72C151.125 162.112 150.661 161.387 150.33 160.544C150.01 159.691 149.85 158.731 149.85 157.664C149.85 156.608 150.015 155.648 150.346 154.784C150.687 153.909 151.173 153.157 151.802 152.528C152.431 151.899 153.178 151.419 154.042 151.088C154.917 150.747 155.877 150.576 156.922 150.576C158.17 150.576 159.263 150.827 160.202 151.328C161.141 151.819 161.866 152.507 162.378 153.392C162.901 154.277 163.162 155.317 163.162 156.512C163.162 157.44 163.034 158.245 162.778 158.928C162.522 159.6 162.165 160.123 161.706 160.496C161.247 160.869 160.709 161.056 160.09 161.056C159.45 161.056 158.959 160.875 158.618 160.512C158.277 160.149 158.111 159.648 158.122 159.008L158.522 158.992C158.255 159.664 157.877 160.176 157.386 160.528C156.895 160.88 156.373 161.056 155.818 161.056C154.975 161.056 154.319 160.795 153.85 160.272C153.391 159.749 153.162 159.029 153.162 158.112C153.162 157.333 153.311 156.64 153.61 156.032C153.909 155.413 154.319 154.928 154.842 154.576C155.365 154.224 155.957 154.048 156.618 154.048C157.183 154.048 157.647 154.192 158.01 154.48C158.383 154.768 158.629 155.179 158.746 155.712H158.522L158.698 154.736C158.762 154.341 158.997 154.144 159.402 154.144C159.605 154.144 159.754 154.203 159.85 154.32C159.957 154.437 159.989 154.608 159.946 154.832L159.354 158.208C159.322 158.368 159.295 158.517 159.274 158.656C159.263 158.784 159.258 158.907 159.258 159.024C159.258 159.365 159.333 159.621 159.482 159.792C159.642 159.963 159.871 160.048 160.17 160.048C160.554 160.048 160.89 159.904 161.178 159.616C161.466 159.317 161.69 158.901 161.85 158.368C162.01 157.835 162.09 157.216 162.09 156.512C162.09 155.509 161.877 154.645 161.45 153.92C161.023 153.184 160.421 152.619 159.642 152.224C158.874 151.829 157.962 151.632 156.906 151.632C155.733 151.632 154.703 151.883 153.818 152.384C152.943 152.875 152.261 153.573 151.77 154.48C151.279 155.387 151.034 156.448 151.034 157.664C151.034 158.891 151.263 159.947 151.722 160.832C152.191 161.717 152.847 162.395 153.69 162.864C154.543 163.333 155.541 163.568 156.682 163.568C157.429 163.568 158.106 163.472 158.714 163.28C159.322 163.088 159.855 162.811 160.314 162.448C160.474 162.32 160.623 162.267 160.762 162.288C160.911 162.32 161.023 162.395 161.098 162.512C161.183 162.629 161.215 162.757 161.194 162.896C161.173 163.045 161.082 163.184 160.922 163.312C160.431 163.717 159.823 164.037 159.098 164.272C158.383 164.507 157.578 164.624 156.682 164.624ZM156.026 159.984C156.463 159.984 156.853 159.851 157.194 159.584C157.546 159.307 157.818 158.933 158.01 158.464C158.213 157.984 158.314 157.44 158.314 156.832C158.314 156.267 158.186 155.845 157.93 155.568C157.685 155.28 157.306 155.136 156.794 155.136C156.357 155.136 155.962 155.264 155.61 155.52C155.258 155.776 154.981 156.128 154.778 156.576C154.586 157.013 154.49 157.52 154.49 158.096C154.49 158.704 154.623 159.173 154.89 159.504C155.157 159.824 155.535 159.984 156.026 159.984ZM166.574 162C166.35 162 166.174 161.936 166.046 161.808C165.918 161.68 165.854 161.509 165.854 161.296C165.854 161.072 165.918 160.901 166.046 160.784C166.174 160.667 166.35 160.608 166.574 160.608H168.526V152.096H169.358L167.022 153.584C166.851 153.68 166.691 153.717 166.542 153.696C166.403 153.675 166.28 153.616 166.174 153.52C166.078 153.424 166.008 153.307 165.966 153.168C165.934 153.029 165.944 152.885 165.998 152.736C166.062 152.587 166.174 152.464 166.334 152.368L168.542 150.976C168.723 150.869 168.894 150.784 169.054 150.72C169.224 150.645 169.384 150.608 169.534 150.608C169.715 150.608 169.864 150.661 169.982 150.768C170.11 150.864 170.174 151.029 170.174 151.264V160.608H171.966C172.2 160.608 172.382 160.667 172.51 160.784C172.638 160.901 172.702 161.072 172.702 161.296C172.702 161.52 172.638 161.696 172.51 161.824C172.382 161.941 172.2 162 171.966 162H166.574ZM178.488 162.144C177.634 162.144 176.898 162.021 176.28 161.776C175.672 161.531 175.202 161.173 174.872 160.704C174.552 160.224 174.392 159.653 174.392 158.992C174.392 158.459 174.498 157.989 174.712 157.584C174.925 157.168 175.224 156.832 175.608 156.576C175.992 156.32 176.434 156.16 176.936 156.096V156.384C176.242 156.235 175.688 155.909 175.272 155.408C174.866 154.896 174.664 154.288 174.664 153.584C174.664 152.955 174.818 152.416 175.128 151.968C175.448 151.509 175.896 151.163 176.472 150.928C177.048 150.693 177.72 150.576 178.488 150.576C179.266 150.576 179.944 150.693 180.52 150.928C181.096 151.163 181.538 151.509 181.848 151.968C182.168 152.416 182.328 152.955 182.328 153.584C182.328 154.053 182.232 154.485 182.04 154.88C181.858 155.264 181.597 155.589 181.256 155.856C180.914 156.112 180.514 156.283 180.056 156.368V156.096C180.813 156.203 181.421 156.517 181.88 157.04C182.349 157.552 182.584 158.203 182.584 158.992C182.584 159.653 182.418 160.224 182.088 160.704C181.768 161.173 181.304 161.531 180.696 161.776C180.088 162.021 179.352 162.144 178.488 162.144ZM178.488 160.832C179.33 160.832 179.965 160.672 180.392 160.352C180.818 160.021 181.032 159.531 181.032 158.88C181.032 158.229 180.818 157.744 180.392 157.424C179.965 157.104 179.33 156.944 178.488 156.944C177.656 156.944 177.021 157.104 176.584 157.424C176.157 157.744 175.944 158.229 175.944 158.88C175.944 159.531 176.157 160.021 176.584 160.352C177.021 160.672 177.656 160.832 178.488 160.832ZM178.488 155.632C178.968 155.632 179.373 155.557 179.704 155.408C180.045 155.248 180.306 155.029 180.488 154.752C180.669 154.464 180.76 154.128 180.76 153.744C180.76 153.168 180.557 152.715 180.152 152.384C179.757 152.053 179.202 151.888 178.488 151.888C177.773 151.888 177.218 152.053 176.824 152.384C176.429 152.715 176.232 153.168 176.232 153.744C176.232 154.331 176.429 154.795 176.824 155.136C177.218 155.467 177.773 155.632 178.488 155.632ZM188.289 161.952C188.204 162.112 188.092 162.219 187.953 162.272C187.825 162.325 187.697 162.336 187.569 162.304C187.441 162.272 187.335 162.208 187.249 162.112C187.164 162.016 187.111 161.899 187.089 161.76C187.079 161.621 187.116 161.472 187.201 161.312L193.249 150.8C193.335 150.629 193.441 150.517 193.569 150.464C193.708 150.411 193.836 150.4 193.953 150.432C194.081 150.464 194.188 150.528 194.273 150.624C194.369 150.72 194.428 150.837 194.449 150.976C194.471 151.115 194.433 151.264 194.337 151.424L188.289 161.952ZM186.865 157.472C185.991 157.472 185.308 157.168 184.817 156.56C184.327 155.941 184.081 155.093 184.081 154.016C184.081 153.291 184.193 152.672 184.417 152.16C184.641 151.648 184.961 151.259 185.377 150.992C185.793 150.715 186.289 150.576 186.865 150.576C187.729 150.576 188.407 150.88 188.897 151.488C189.399 152.096 189.649 152.939 189.649 154.016C189.649 154.731 189.537 155.349 189.313 155.872C189.1 156.384 188.785 156.779 188.369 157.056C187.953 157.333 187.452 157.472 186.865 157.472ZM186.865 156.336C187.164 156.336 187.42 156.251 187.633 156.08C187.847 155.909 188.007 155.653 188.113 155.312C188.231 154.971 188.289 154.539 188.289 154.016C188.289 153.237 188.161 152.656 187.905 152.272C187.66 151.888 187.313 151.696 186.865 151.696C186.567 151.696 186.311 151.781 186.097 151.952C185.884 152.123 185.719 152.379 185.601 152.72C185.495 153.061 185.441 153.493 185.441 154.016C185.441 154.805 185.564 155.392 185.809 155.776C186.065 156.149 186.417 156.336 186.865 156.336ZM194.689 162.144C193.825 162.144 193.148 161.84 192.657 161.232C192.167 160.624 191.921 159.776 191.921 158.688C191.921 157.973 192.028 157.36 192.241 156.848C192.465 156.336 192.785 155.941 193.201 155.664C193.617 155.387 194.113 155.248 194.689 155.248C195.564 155.248 196.247 155.557 196.737 156.176C197.228 156.784 197.473 157.621 197.473 158.688C197.473 159.413 197.361 160.037 197.137 160.56C196.924 161.072 196.609 161.467 196.193 161.744C195.777 162.011 195.276 162.144 194.689 162.144ZM194.689 161.024C194.988 161.024 195.244 160.939 195.457 160.768C195.671 160.597 195.831 160.341 195.937 160C196.055 159.648 196.113 159.211 196.113 158.688C196.113 157.92 195.985 157.344 195.729 156.96C195.484 156.576 195.137 156.384 194.689 156.384C194.401 156.384 194.145 156.469 193.921 156.64C193.708 156.811 193.543 157.067 193.425 157.408C193.319 157.749 193.265 158.176 193.265 158.688C193.265 159.477 193.393 160.064 193.649 160.448C193.905 160.832 194.252 161.024 194.689 161.024Z" fill="#8F8CA7"/>
<path d="M123.912 204.08C123.592 204.08 123.336 203.989 123.144 203.808C122.963 203.616 122.872 203.365 122.872 203.056V194.416H119.96C119.32 194.416 119 194.133 119 193.568C119 193.003 119.32 192.72 119.96 192.72H127.848C128.488 192.72 128.808 193.003 128.808 193.568C128.808 194.133 128.488 194.416 127.848 194.416H124.936V203.056C124.936 203.365 124.84 203.616 124.648 203.808C124.467 203.989 124.221 204.08 123.912 204.08ZM132.171 204.128C131.371 204.128 130.667 203.963 130.059 203.632C129.461 203.301 128.997 202.827 128.667 202.208C128.336 201.589 128.171 200.869 128.171 200.048C128.171 199.227 128.336 198.512 128.667 197.904C128.997 197.285 129.461 196.811 130.059 196.48C130.667 196.149 131.371 195.984 132.171 195.984C132.971 195.984 133.669 196.149 134.267 196.48C134.875 196.811 135.339 197.285 135.659 197.904C135.989 198.512 136.155 199.227 136.155 200.048C136.155 200.869 135.989 201.589 135.659 202.208C135.339 202.827 134.875 203.301 134.267 203.632C133.669 203.963 132.971 204.128 132.171 204.128ZM132.155 202.576C132.805 202.576 133.301 202.363 133.643 201.936C133.984 201.509 134.155 200.88 134.155 200.048C134.155 199.227 133.984 198.603 133.643 198.176C133.301 197.739 132.811 197.52 132.171 197.52C131.531 197.52 131.035 197.739 130.683 198.176C130.341 198.603 130.171 199.227 130.171 200.048C130.171 200.88 130.341 201.509 130.683 201.936C131.024 202.363 131.515 202.576 132.155 202.576ZM141.823 202.608C142.356 202.64 142.623 202.88 142.623 203.328C142.623 203.584 142.516 203.781 142.303 203.92C142.1 204.048 141.807 204.101 141.423 204.08L140.991 204.048C139.199 203.92 138.303 202.96 138.303 201.168V197.68H137.503C137.215 197.68 136.991 197.616 136.831 197.488C136.681 197.36 136.607 197.173 136.607 196.928C136.607 196.683 136.681 196.496 136.831 196.368C136.991 196.24 137.215 196.176 137.503 196.176H138.303V194.704C138.303 194.416 138.393 194.187 138.575 194.016C138.756 193.845 139.001 193.76 139.311 193.76C139.609 193.76 139.849 193.845 140.031 194.016C140.212 194.187 140.303 194.416 140.303 194.704V196.176H141.663C141.951 196.176 142.169 196.24 142.319 196.368C142.479 196.496 142.559 196.683 142.559 196.928C142.559 197.173 142.479 197.36 142.319 197.488C142.169 197.616 141.951 197.68 141.663 197.68H140.303V201.312C140.303 202.101 140.665 202.523 141.391 202.576L141.823 202.608ZM147.057 195.984C148.145 195.984 148.95 196.256 149.473 196.8C150.006 197.333 150.273 198.149 150.273 199.248V203.152C150.273 203.44 150.188 203.669 150.017 203.84C149.846 204 149.612 204.08 149.313 204.08C149.036 204.08 148.806 203.995 148.625 203.824C148.454 203.653 148.369 203.429 148.369 203.152V202.8C148.188 203.216 147.9 203.541 147.505 203.776C147.121 204.011 146.673 204.128 146.161 204.128C145.638 204.128 145.164 204.021 144.737 203.808C144.31 203.595 143.974 203.301 143.729 202.928C143.484 202.555 143.361 202.139 143.361 201.68C143.361 201.104 143.505 200.651 143.793 200.32C144.092 199.989 144.572 199.749 145.233 199.6C145.894 199.451 146.806 199.376 147.969 199.376H148.369V199.008C148.369 198.485 148.257 198.107 148.033 197.872C147.809 197.627 147.446 197.504 146.945 197.504C146.636 197.504 146.321 197.552 146.001 197.648C145.681 197.733 145.302 197.861 144.865 198.032C144.588 198.171 144.385 198.24 144.257 198.24C144.065 198.24 143.905 198.171 143.777 198.032C143.66 197.893 143.601 197.712 143.601 197.488C143.601 197.307 143.644 197.152 143.729 197.024C143.825 196.885 143.98 196.757 144.193 196.64C144.566 196.437 145.009 196.277 145.521 196.16C146.044 196.043 146.556 195.984 147.057 195.984ZM146.561 202.688C147.094 202.688 147.526 202.512 147.857 202.16C148.198 201.797 148.369 201.333 148.369 200.768V200.432H148.081C147.366 200.432 146.812 200.464 146.417 200.528C146.022 200.592 145.74 200.704 145.569 200.864C145.398 201.024 145.313 201.243 145.313 201.52C145.313 201.861 145.43 202.144 145.665 202.368C145.91 202.581 146.209 202.688 146.561 202.688ZM153.298 204.096C153.01 204.096 152.77 204.016 152.578 203.856C152.396 203.685 152.306 203.445 152.306 203.136V193.584C152.306 193.275 152.396 193.04 152.578 192.88C152.77 192.72 153.01 192.64 153.298 192.64C153.586 192.64 153.826 192.72 154.018 192.88C154.21 193.04 154.306 193.275 154.306 193.584V203.136C154.306 203.445 154.21 203.685 154.018 203.856C153.826 204.016 153.586 204.096 153.298 204.096Z" fill="#1E1E1E"/>
<path d="M380.9 162.144C380.409 162.144 379.929 162.107 379.46 162.032C378.991 161.957 378.548 161.845 378.132 161.696C377.716 161.536 377.343 161.344 377.012 161.12C376.852 161.003 376.74 160.869 376.676 160.72C376.623 160.571 376.607 160.427 376.628 160.288C376.66 160.139 376.724 160.011 376.82 159.904C376.916 159.797 377.033 159.733 377.172 159.712C377.311 159.68 377.465 159.723 377.636 159.84C378.116 160.149 378.623 160.379 379.156 160.528C379.689 160.667 380.271 160.736 380.9 160.736C381.807 160.736 382.473 160.576 382.9 160.256C383.337 159.925 383.556 159.499 383.556 158.976C383.556 158.549 383.401 158.213 383.092 157.968C382.783 157.712 382.265 157.509 381.54 157.36L379.828 157.008C378.815 156.795 378.057 156.443 377.556 155.952C377.065 155.461 376.82 154.8 376.82 153.968C376.82 153.467 376.921 153.008 377.124 152.592C377.337 152.176 377.631 151.819 378.004 151.52C378.377 151.211 378.825 150.976 379.348 150.816C379.871 150.656 380.441 150.576 381.06 150.576C381.721 150.576 382.34 150.661 382.916 150.832C383.503 151.003 384.025 151.264 384.484 151.616C384.623 151.712 384.713 151.835 384.756 151.984C384.809 152.123 384.82 152.261 384.788 152.4C384.767 152.539 384.708 152.656 384.612 152.752C384.516 152.848 384.393 152.907 384.244 152.928C384.095 152.939 383.929 152.885 383.748 152.768C383.332 152.491 382.905 152.293 382.468 152.176C382.041 152.048 381.567 151.984 381.044 151.984C380.521 151.984 380.063 152.064 379.668 152.224C379.284 152.384 378.985 152.608 378.772 152.896C378.569 153.184 378.468 153.525 378.468 153.92C378.468 154.368 378.612 154.725 378.9 154.992C379.188 155.259 379.668 155.461 380.34 155.6L382.036 155.952C383.103 156.176 383.897 156.523 384.42 156.992C384.943 157.461 385.204 158.085 385.204 158.864C385.204 159.365 385.103 159.819 384.9 160.224C384.697 160.619 384.409 160.96 384.036 161.248C383.663 161.536 383.209 161.76 382.676 161.92C382.153 162.069 381.561 162.144 380.9 162.144ZM387.925 162.112C387.659 162.112 387.451 162.037 387.301 161.888C387.163 161.739 387.093 161.531 387.093 161.264V151.568C387.093 151.291 387.168 151.083 387.317 150.944C387.467 150.795 387.675 150.72 387.941 150.72H391.765C392.981 150.72 393.92 151.008 394.581 151.584C395.243 152.16 395.573 152.976 395.573 154.032C395.573 154.715 395.424 155.301 395.125 155.792C394.827 156.283 394.389 156.656 393.813 156.912C393.248 157.168 392.565 157.296 391.765 157.296L391.909 157.072H392.325C392.752 157.072 393.12 157.179 393.429 157.392C393.749 157.605 394.037 157.947 394.293 158.416L395.669 160.976C395.776 161.168 395.824 161.355 395.813 161.536C395.813 161.707 395.749 161.845 395.621 161.952C395.504 162.059 395.333 162.112 395.109 162.112C394.875 162.112 394.683 162.064 394.533 161.968C394.395 161.861 394.267 161.707 394.149 161.504L392.469 158.4C392.245 157.984 391.989 157.707 391.701 157.568C391.413 157.419 391.035 157.344 390.565 157.344H388.757V161.264C388.757 161.531 388.688 161.739 388.549 161.888C388.411 162.037 388.203 162.112 387.925 162.112ZM388.757 156.096H391.493C392.304 156.096 392.917 155.925 393.333 155.584C393.749 155.243 393.957 154.736 393.957 154.064C393.957 153.403 393.749 152.901 393.333 152.56C392.917 152.219 392.304 152.048 391.493 152.048H388.757V156.096ZM405.804 162.144C405.217 162.144 404.625 162.064 404.028 161.904C403.431 161.733 402.887 161.472 402.396 161.12C402.236 161.024 402.129 160.901 402.076 160.752C402.023 160.603 402.012 160.459 402.044 160.32C402.076 160.171 402.14 160.048 402.236 159.952C402.343 159.856 402.471 159.803 402.62 159.792C402.769 159.771 402.929 159.813 403.1 159.92C403.516 160.187 403.943 160.389 404.38 160.528C404.828 160.667 405.292 160.736 405.772 160.736C406.263 160.736 406.684 160.645 407.036 160.464C407.388 160.283 407.655 160.032 407.836 159.712C408.028 159.381 408.124 158.997 408.124 158.56C408.124 157.888 407.927 157.339 407.532 156.912C407.137 156.485 406.588 156.272 405.884 156.272C405.479 156.272 405.1 156.347 404.748 156.496C404.396 156.635 404.06 156.869 403.74 157.2C403.665 157.285 403.564 157.365 403.436 157.44C403.319 157.504 403.185 157.536 403.036 157.536C402.812 157.536 402.641 157.477 402.524 157.36C402.407 157.243 402.348 157.083 402.348 156.88V151.456C402.348 151.221 402.412 151.04 402.54 150.912C402.668 150.784 402.849 150.72 403.084 150.72H408.444C408.679 150.72 408.86 150.779 408.988 150.896C409.116 151.013 409.18 151.184 409.18 151.408C409.18 151.632 409.116 151.808 408.988 151.936C408.86 152.053 408.679 152.112 408.444 152.112H403.964V156.176H403.516C403.804 155.771 404.183 155.456 404.652 155.232C405.132 155.008 405.66 154.896 406.236 154.896C406.951 154.896 407.569 155.045 408.092 155.344C408.615 155.643 409.02 156.064 409.308 156.608C409.596 157.141 409.74 157.765 409.74 158.48C409.74 159.205 409.58 159.845 409.26 160.4C408.94 160.944 408.487 161.371 407.9 161.68C407.313 161.989 406.615 162.144 405.804 162.144ZM413.142 162.112C412.95 162.112 412.785 162.069 412.646 161.984C412.518 161.888 412.438 161.76 412.406 161.6C412.385 161.429 412.422 161.243 412.518 161.04L417.526 151.488V152.112H412.022C411.787 152.112 411.606 152.053 411.478 151.936C411.35 151.808 411.286 151.637 411.286 151.424C411.286 151.2 411.35 151.029 411.478 150.912C411.606 150.784 411.787 150.72 412.022 150.72H418.31C418.545 150.72 418.731 150.784 418.87 150.912C419.019 151.029 419.094 151.2 419.094 151.424C419.094 151.616 419.067 151.781 419.014 151.92C418.971 152.059 418.907 152.213 418.822 152.384L414.07 161.568C413.974 161.76 413.851 161.899 413.702 161.984C413.553 162.069 413.366 162.112 413.142 162.112ZM421.936 162.064C421.626 162.064 421.376 161.968 421.184 161.776C420.992 161.584 420.896 161.339 420.896 161.04C420.896 160.741 420.992 160.501 421.184 160.32C421.376 160.128 421.626 160.032 421.936 160.032C422.245 160.032 422.49 160.128 422.672 160.32C422.853 160.501 422.944 160.741 422.944 161.04C422.944 161.339 422.853 161.584 422.672 161.776C422.49 161.968 422.245 162.064 421.936 162.064ZM428.613 162.144C427.301 162.144 426.298 161.648 425.605 160.656C424.922 159.653 424.581 158.219 424.581 156.352C424.581 155.083 424.735 154.021 425.045 153.168C425.354 152.315 425.807 151.669 426.405 151.232C427.002 150.795 427.738 150.576 428.613 150.576C429.935 150.576 430.938 151.067 431.621 152.048C432.303 153.019 432.645 154.448 432.645 156.336C432.645 157.584 432.49 158.64 432.181 159.504C431.871 160.368 431.418 161.024 430.821 161.472C430.223 161.92 429.487 162.144 428.613 162.144ZM428.613 160.768C429.434 160.768 430.037 160.411 430.421 159.696C430.815 158.971 431.013 157.851 431.013 156.336C431.013 154.811 430.815 153.701 430.421 153.008C430.037 152.304 429.434 151.952 428.613 151.952C427.802 151.952 427.199 152.304 426.805 153.008C426.41 153.701 426.213 154.811 426.213 156.336C426.213 157.851 426.41 158.971 426.805 159.696C427.199 160.411 427.802 160.768 428.613 160.768ZM438.206 162.144C436.894 162.144 435.892 161.648 435.198 160.656C434.516 159.653 434.174 158.219 434.174 156.352C434.174 155.083 434.329 154.021 434.638 153.168C434.948 152.315 435.401 151.669 435.998 151.232C436.596 150.795 437.332 150.576 438.206 150.576C439.529 150.576 440.532 151.067 441.214 152.048C441.897 153.019 442.238 154.448 442.238 156.336C442.238 157.584 442.084 158.64 441.774 159.504C441.465 160.368 441.012 161.024 440.414 161.472C439.817 161.92 439.081 162.144 438.206 162.144ZM438.206 160.768C439.028 160.768 439.63 160.411 440.014 159.696C440.409 158.971 440.606 157.851 440.606 156.336C440.606 154.811 440.409 153.701 440.014 153.008C439.63 152.304 439.028 151.952 438.206 151.952C437.396 151.952 436.793 152.304 436.398 153.008C436.004 153.701 435.806 154.811 435.806 156.336C435.806 157.851 436.004 158.971 436.398 159.696C436.793 160.411 437.396 160.768 438.206 160.768Z" fill="#8F8CA7"/>
<path d="M360.917 204.144C360.096 204.144 359.317 204.037 358.581 203.824C357.856 203.6 357.264 203.301 356.805 202.928C356.56 202.747 356.437 202.491 356.437 202.16C356.437 201.936 356.501 201.744 356.629 201.584C356.768 201.413 356.928 201.328 357.109 201.328C357.301 201.328 357.52 201.403 357.765 201.552C358.224 201.883 358.704 202.123 359.205 202.272C359.706 202.421 360.261 202.496 360.869 202.496C361.648 202.496 362.245 202.363 362.661 202.096C363.077 201.819 363.285 201.419 363.285 200.896C363.285 200.491 363.088 200.181 362.693 199.968C362.309 199.744 361.664 199.531 360.757 199.328C359.818 199.125 359.056 198.891 358.469 198.624C357.882 198.357 357.44 198.016 357.141 197.6C356.842 197.184 356.693 196.656 356.693 196.016C356.693 195.355 356.88 194.763 357.253 194.24C357.626 193.717 358.144 193.312 358.805 193.024C359.477 192.725 360.229 192.576 361.061 192.576C362.586 192.576 363.829 192.981 364.789 193.792C364.928 193.909 365.024 194.027 365.077 194.144C365.141 194.251 365.173 194.389 365.173 194.56C365.173 194.784 365.104 194.981 364.965 195.152C364.837 195.312 364.682 195.392 364.501 195.392C364.394 195.392 364.293 195.376 364.197 195.344C364.112 195.312 363.994 195.253 363.845 195.168C363.408 194.848 362.981 194.613 362.565 194.464C362.16 194.304 361.658 194.224 361.061 194.224C360.336 194.224 359.76 194.373 359.333 194.672C358.917 194.96 358.709 195.365 358.709 195.888C358.709 196.325 358.896 196.661 359.269 196.896C359.642 197.131 360.277 197.349 361.173 197.552C362.122 197.765 362.89 198.005 363.477 198.272C364.074 198.528 364.528 198.859 364.837 199.264C365.157 199.669 365.317 200.176 365.317 200.784C365.317 201.445 365.13 202.032 364.757 202.544C364.394 203.045 363.877 203.44 363.205 203.728C362.544 204.005 361.781 204.144 360.917 204.144ZM376.24 202.704C376.368 202.896 376.432 203.083 376.432 203.264C376.432 203.509 376.331 203.712 376.128 203.872C375.936 204.032 375.707 204.112 375.44 204.112C375.269 204.112 375.104 204.075 374.944 204C374.795 203.915 374.667 203.792 374.56 203.632L372.432 200.4C372.219 200.059 371.989 199.819 371.744 199.68C371.509 199.541 371.2 199.472 370.816 199.472H369.248V203.056C369.248 203.376 369.157 203.632 368.976 203.824C368.795 204.005 368.549 204.096 368.24 204.096C367.931 204.096 367.68 204.005 367.488 203.824C367.307 203.632 367.216 203.376 367.216 203.056V193.696C367.216 193.387 367.301 193.147 367.472 192.976C367.653 192.805 367.899 192.72 368.208 192.72H372.208C373.488 192.72 374.459 193.008 375.12 193.584C375.792 194.149 376.128 194.971 376.128 196.048C376.128 196.923 375.877 197.643 375.376 198.208C374.885 198.763 374.187 199.12 373.28 199.28C373.589 199.355 373.861 199.488 374.096 199.68C374.331 199.872 374.56 200.139 374.784 200.48L376.24 202.704ZM371.92 197.888C372.699 197.888 373.269 197.744 373.632 197.456C373.995 197.157 374.176 196.704 374.176 196.096C374.176 195.477 373.995 195.029 373.632 194.752C373.269 194.464 372.699 194.32 371.92 194.32H369.232V197.888H371.92ZM389.485 202.336C390.125 202.336 390.445 202.608 390.445 203.152C390.445 203.717 390.125 204 389.485 204H384.077C383.426 204 383.101 203.717 383.101 203.152C383.101 202.608 383.426 202.336 384.077 202.336H385.741V195.04L384.205 195.984C384.055 196.069 383.922 196.112 383.805 196.112C383.581 196.112 383.389 196.016 383.229 195.824C383.079 195.632 383.005 195.419 383.005 195.184C383.005 194.875 383.143 194.635 383.421 194.464L385.901 192.928C386.221 192.736 386.525 192.64 386.813 192.64C387.111 192.64 387.351 192.731 387.533 192.912C387.714 193.093 387.805 193.344 387.805 193.664V202.336H389.485ZM395.495 192.576C396.924 192.576 398.023 193.061 398.791 194.032C399.569 194.992 399.959 196.368 399.959 198.16C399.959 199.387 399.777 200.453 399.415 201.36C399.052 202.256 398.529 202.944 397.847 203.424C397.175 203.904 396.38 204.144 395.463 204.144C394.855 204.144 394.241 204.037 393.623 203.824C393.015 203.6 392.497 203.301 392.071 202.928C391.932 202.811 391.831 202.699 391.767 202.592C391.713 202.475 391.687 202.336 391.687 202.176C391.687 201.941 391.751 201.744 391.879 201.584C392.017 201.413 392.177 201.328 392.359 201.328C392.465 201.328 392.567 201.349 392.663 201.392C392.759 201.424 392.876 201.483 393.015 201.568C393.9 202.187 394.689 202.496 395.383 202.496C396.161 202.496 396.775 202.139 397.223 201.424C397.671 200.699 397.905 199.685 397.927 198.384C397.681 198.864 397.313 199.248 396.823 199.536C396.332 199.813 395.783 199.952 395.174 199.952C394.503 199.952 393.905 199.803 393.383 199.504C392.86 199.195 392.449 198.768 392.151 198.224C391.863 197.669 391.719 197.04 391.719 196.336C391.719 195.611 391.879 194.965 392.199 194.4C392.529 193.824 392.977 193.376 393.543 193.056C394.119 192.736 394.769 192.576 395.495 192.576ZM395.607 198.32C396.204 198.32 396.684 198.133 397.047 197.76C397.42 197.376 397.607 196.88 397.607 196.272C397.607 195.653 397.42 195.157 397.047 194.784C396.684 194.4 396.204 194.208 395.607 194.208C395.02 194.208 394.551 194.4 394.199 194.784C393.847 195.157 393.671 195.653 393.671 196.272C393.671 196.891 393.847 197.387 394.199 197.76C394.551 198.133 395.02 198.32 395.607 198.32ZM406.048 196.784C406.752 196.784 407.371 196.939 407.904 197.248C408.448 197.547 408.87 197.968 409.168 198.512C409.467 199.056 409.616 199.68 409.616 200.384C409.616 201.12 409.446 201.771 409.104 202.336C408.774 202.901 408.299 203.344 407.68 203.664C407.072 203.973 406.368 204.128 405.568 204.128C404.907 204.128 404.256 204.021 403.616 203.808C402.987 203.584 402.448 203.285 402 202.912C401.755 202.699 401.632 202.448 401.632 202.16C401.632 201.925 401.696 201.728 401.824 201.568C401.963 201.397 402.123 201.312 402.304 201.312C402.411 201.312 402.512 201.333 402.608 201.376C402.704 201.408 402.816 201.467 402.944 201.552C403.371 201.851 403.787 202.08 404.192 202.24C404.598 202.4 405.03 202.48 405.488 202.48C406.192 202.48 406.731 202.304 407.104 201.952C407.478 201.6 407.664 201.099 407.664 200.448C407.664 199.819 407.472 199.323 407.088 198.96C406.715 198.587 406.198 198.4 405.536 198.4C405.12 198.4 404.747 198.459 404.416 198.576C404.096 198.693 403.766 198.891 403.424 199.168C403.222 199.307 403.014 199.376 402.8 199.376C402.587 199.376 402.406 199.312 402.256 199.184C402.107 199.056 402.032 198.885 402.032 198.672V193.68C402.032 193.381 402.118 193.147 402.288 192.976C402.459 192.805 402.699 192.72 403.008 192.72H408.336C408.976 192.72 409.296 192.987 409.296 193.52C409.296 194.053 408.976 194.32 408.336 194.32H404.048V197.36C404.592 196.976 405.259 196.784 406.048 196.784ZM418.298 192.72C418.575 192.72 418.789 192.8 418.938 192.96C419.087 193.109 419.162 193.307 419.162 193.552C419.162 193.797 419.087 194.053 418.938 194.32L413.834 203.584C413.621 203.947 413.327 204.128 412.954 204.128C412.698 204.128 412.469 204.043 412.266 203.872C412.074 203.691 411.978 203.472 411.978 203.216C411.978 203.035 412.031 202.853 412.138 202.672L416.73 194.384H411.898C411.258 194.384 410.938 194.112 410.938 193.568C410.938 193.003 411.258 192.72 411.898 192.72H418.298ZM421.828 204.096C421.486 204.096 421.204 203.984 420.98 203.76C420.756 203.525 420.644 203.237 420.644 202.896C420.644 202.555 420.756 202.272 420.98 202.048C421.204 201.813 421.486 201.696 421.828 201.696C422.169 201.696 422.452 201.813 422.676 202.048C422.9 202.272 423.012 202.555 423.012 202.896C423.012 203.237 422.9 203.525 422.676 203.76C422.452 203.984 422.169 204.096 421.828 204.096ZM428.613 204.144C427.279 204.144 426.261 203.653 425.557 202.672C424.853 201.68 424.501 200.24 424.501 198.352C424.501 196.475 424.853 195.045 425.557 194.064C426.261 193.072 427.279 192.576 428.613 192.576C429.946 192.576 430.965 193.072 431.669 194.064C432.373 195.045 432.725 196.475 432.725 198.352C432.725 200.229 432.373 201.664 431.669 202.656C430.965 203.648 429.946 204.144 428.613 204.144ZM428.613 202.528C429.338 202.528 429.866 202.197 430.197 201.536C430.527 200.864 430.693 199.803 430.693 198.352C430.693 196.891 430.527 195.835 430.197 195.184C429.866 194.523 429.338 194.192 428.613 194.192C427.887 194.192 427.359 194.523 427.029 195.184C426.698 195.845 426.533 196.901 426.533 198.352C426.533 199.803 426.698 200.864 427.029 201.536C427.359 202.197 427.887 202.528 428.613 202.528ZM438.206 204.144C436.873 204.144 435.854 203.653 435.15 202.672C434.446 201.68 434.094 200.24 434.094 198.352C434.094 196.475 434.446 195.045 435.15 194.064C435.854 193.072 436.873 192.576 438.206 192.576C439.54 192.576 440.558 193.072 441.262 194.064C441.966 195.045 442.318 196.475 442.318 198.352C442.318 200.229 441.966 201.664 441.262 202.656C440.558 203.648 439.54 204.144 438.206 204.144ZM438.206 202.528C438.932 202.528 439.46 202.197 439.79 201.536C440.121 200.864 440.286 199.803 440.286 198.352C440.286 196.891 440.121 195.835 439.79 195.184C439.46 194.523 438.932 194.192 438.206 194.192C437.481 194.192 436.953 194.523 436.622 195.184C436.292 195.845 436.126 196.901 436.126 198.352C436.126 199.803 436.292 200.864 436.622 201.536C436.953 202.197 437.481 202.528 438.206 202.528Z" fill="#1E1E1E"/>
<path d="M333.904 82.144C333.328 82.144 332.872 81.976 332.536 81.64C332.2 81.304 332.032 80.848 332.032 80.272V66.832C332.032 66.272 332.184 65.84 332.488 65.536C332.792 65.232 333.224 65.08 333.784 65.08H339.808C341.648 65.08 343.08 65.544 344.104 66.472C345.128 67.4 345.64 68.696 345.64 70.36C345.64 72.024 345.128 73.32 344.104 74.248C343.08 75.176 341.648 75.64 339.808 75.64H335.776V80.272C335.776 80.848 335.608 81.304 335.272 81.64C334.936 81.976 334.48 82.144 333.904 82.144ZM339.328 72.808C341.2 72.808 342.136 72 342.136 70.384C342.136 68.752 341.2 67.936 339.328 67.936H335.776V72.808H339.328ZM354.572 69.976C355.052 69.944 355.428 70.056 355.7 70.312C355.988 70.552 356.132 70.92 356.132 71.416C356.132 71.944 356.004 72.336 355.748 72.592C355.492 72.848 355.036 73.008 354.38 73.072L353.66 73.144C352.78 73.24 352.14 73.528 351.74 74.008C351.356 74.488 351.164 75.104 351.164 75.856V80.44C351.164 81 350.988 81.424 350.636 81.712C350.3 82 349.876 82.144 349.364 82.144C348.836 82.144 348.396 82 348.044 81.712C347.708 81.424 347.54 81 347.54 80.44V71.632C347.54 71.104 347.716 70.696 348.068 70.408C348.42 70.12 348.844 69.976 349.34 69.976C349.82 69.976 350.22 70.12 350.54 70.408C350.86 70.68 351.02 71.064 351.02 71.56V72.208C351.308 71.52 351.74 70.992 352.316 70.624C352.908 70.256 353.548 70.048 354.236 70L354.572 69.976ZM358.997 82.144C358.469 82.144 358.029 82 357.677 81.712C357.341 81.424 357.173 81 357.173 80.44V71.68C357.173 71.12 357.349 70.696 357.701 70.408C358.053 70.12 358.485 69.976 358.997 69.976C359.509 69.976 359.933 70.12 360.269 70.408C360.621 70.696 360.797 71.12 360.797 71.68V80.44C360.797 81 360.621 81.424 360.269 81.712C359.933 82 359.509 82.144 358.997 82.144ZM358.997 68.056C358.357 68.056 357.853 67.896 357.485 67.576C357.117 67.24 356.933 66.792 356.933 66.232C356.933 65.672 357.117 65.232 357.485 64.912C357.853 64.592 358.357 64.432 358.997 64.432C359.621 64.432 360.117 64.6 360.485 64.936C360.869 65.256 361.061 65.688 361.061 66.232C361.061 66.792 360.877 67.24 360.509 67.576C360.141 67.896 359.637 68.056 358.997 68.056ZM369.02 82.192C367.804 82.192 366.74 81.944 365.828 81.448C364.916 80.952 364.212 80.248 363.716 79.336C363.236 78.424 362.996 77.352 362.996 76.12C362.996 74.888 363.252 73.808 363.764 72.88C364.292 71.936 365.028 71.208 365.972 70.696C366.916 70.184 368.004 69.928 369.236 69.928C369.876 69.928 370.516 70.016 371.156 70.192C371.812 70.368 372.396 70.616 372.908 70.936C373.404 71.24 373.652 71.688 373.652 72.28C373.652 72.696 373.556 73.04 373.364 73.312C373.172 73.568 372.916 73.696 372.596 73.696C372.388 73.696 372.188 73.664 371.996 73.6C371.82 73.52 371.58 73.408 371.276 73.264C370.94 73.088 370.636 72.952 370.364 72.856C370.108 72.76 369.812 72.712 369.476 72.712C368.58 72.712 367.892 73 367.412 73.576C366.948 74.136 366.716 74.96 366.716 76.048C366.716 77.136 366.948 77.968 367.412 78.544C367.892 79.12 368.58 79.408 369.476 79.408C369.812 79.408 370.108 79.368 370.364 79.288C370.62 79.192 370.932 79.048 371.3 78.856C371.604 78.712 371.844 78.608 372.02 78.544C372.196 78.464 372.388 78.424 372.596 78.424C372.9 78.424 373.148 78.56 373.34 78.832C373.548 79.104 373.652 79.448 373.652 79.864C373.652 80.456 373.404 80.896 372.908 81.184C372.396 81.504 371.804 81.752 371.132 81.928C370.46 82.104 369.756 82.192 369.02 82.192ZM384.887 78.496C385.207 78.496 385.463 78.624 385.655 78.88C385.863 79.136 385.967 79.464 385.967 79.864C385.967 80.136 385.887 80.392 385.727 80.632C385.567 80.856 385.343 81.048 385.055 81.208C384.511 81.496 383.879 81.736 383.159 81.928C382.439 82.104 381.775 82.192 381.167 82.192C379.887 82.192 378.767 81.944 377.807 81.448C376.863 80.952 376.135 80.248 375.623 79.336C375.111 78.408 374.855 77.32 374.855 76.072C374.855 74.872 375.103 73.808 375.599 72.88C376.095 71.952 376.783 71.232 377.663 70.72C378.543 70.192 379.543 69.928 380.663 69.928C381.735 69.928 382.671 70.168 383.471 70.648C384.287 71.112 384.919 71.784 385.367 72.664C385.815 73.528 386.039 74.544 386.039 75.712C386.039 76.064 385.951 76.336 385.775 76.528C385.615 76.704 385.383 76.792 385.079 76.792H378.359C378.471 77.736 378.759 78.424 379.223 78.856C379.687 79.272 380.351 79.48 381.215 79.48C381.679 79.48 382.095 79.424 382.463 79.312C382.831 79.2 383.239 79.048 383.687 78.856C383.911 78.76 384.127 78.68 384.335 78.616C384.543 78.536 384.727 78.496 384.887 78.496ZM380.759 72.424C380.071 72.424 379.519 72.648 379.103 73.096C378.687 73.528 378.439 74.16 378.359 74.992H382.991C382.943 74.144 382.727 73.504 382.343 73.072C381.975 72.64 381.447 72.424 380.759 72.424ZM398.579 85.24C396.803 82.392 395.915 79.208 395.915 75.688C395.915 72.136 396.803 68.936 398.579 66.088C398.803 65.72 399.067 65.448 399.371 65.272C399.691 65.08 400.003 64.984 400.307 64.984C400.627 64.984 400.891 65.088 401.099 65.296C401.323 65.488 401.435 65.752 401.435 66.088C401.435 66.296 401.387 66.536 401.291 66.808C400.715 68.264 400.291 69.712 400.019 71.152C399.763 72.592 399.635 74.104 399.635 75.688C399.635 77.272 399.763 78.776 400.019 80.2C400.291 81.624 400.715 83.064 401.291 84.52C401.387 84.792 401.435 85.032 401.435 85.24C401.435 85.576 401.323 85.84 401.099 86.032C400.891 86.24 400.627 86.344 400.307 86.344C400.003 86.344 399.691 86.248 399.371 86.056C399.067 85.88 398.803 85.608 398.579 85.24ZM410.315 82.216C409.051 82.216 407.875 82.072 406.787 81.784C405.699 81.48 404.811 81.056 404.123 80.512C403.883 80.336 403.707 80.152 403.595 79.96C403.499 79.752 403.451 79.496 403.451 79.192C403.451 78.792 403.571 78.44 403.811 78.136C404.067 77.832 404.355 77.68 404.675 77.68C404.851 77.68 405.019 77.712 405.179 77.776C405.355 77.824 405.563 77.92 405.803 78.064C406.491 78.496 407.187 78.816 407.891 79.024C408.595 79.216 409.371 79.312 410.219 79.312C411.275 79.312 412.083 79.136 412.643 78.784C413.203 78.432 413.483 77.928 413.483 77.272C413.483 76.776 413.219 76.376 412.691 76.072C412.179 75.768 411.259 75.48 409.931 75.208C408.443 74.904 407.251 74.536 406.355 74.104C405.475 73.672 404.827 73.136 404.411 72.496C404.011 71.856 403.811 71.08 403.811 70.168C403.811 69.16 404.099 68.256 404.675 67.456C405.267 66.64 406.075 66.008 407.099 65.56C408.139 65.096 409.307 64.864 410.603 64.864C412.875 64.864 414.747 65.432 416.219 66.568C416.459 66.76 416.627 66.96 416.723 67.168C416.835 67.36 416.891 67.6 416.891 67.888C416.891 68.288 416.763 68.64 416.507 68.944C416.267 69.248 415.987 69.4 415.667 69.4C415.491 69.4 415.323 69.376 415.163 69.328C415.019 69.28 414.811 69.176 414.539 69.016C413.883 68.6 413.275 68.288 412.715 68.08C412.171 67.872 411.475 67.768 410.627 67.768C409.651 67.768 408.883 67.96 408.323 68.344C407.763 68.712 407.483 69.224 407.483 69.88C407.483 70.264 407.587 70.584 407.795 70.84C408.019 71.08 408.379 71.296 408.875 71.488C409.387 71.68 410.107 71.88 411.035 72.088C413.211 72.568 414.771 73.184 415.715 73.936C416.675 74.688 417.155 75.72 417.155 77.032C417.155 78.056 416.867 78.96 416.291 79.744C415.731 80.528 414.931 81.136 413.891 81.568C412.867 82 411.675 82.216 410.315 82.216ZM433.724 79.624C433.964 79.976 434.084 80.32 434.084 80.656C434.084 81.104 433.9 81.472 433.532 81.76C433.18 82.048 432.764 82.192 432.284 82.192C431.98 82.192 431.684 82.12 431.396 81.976C431.108 81.832 430.868 81.608 430.676 81.304L427.508 76.6C427.236 76.184 426.948 75.888 426.644 75.712C426.34 75.52 425.956 75.424 425.492 75.424H423.548V80.272C423.548 80.848 423.38 81.304 423.044 81.64C422.724 81.976 422.284 82.144 421.724 82.144C421.148 82.144 420.692 81.976 420.356 81.64C420.02 81.304 419.852 80.848 419.852 80.272V66.832C419.852 66.272 420.004 65.84 420.308 65.536C420.612 65.232 421.044 65.08 421.604 65.08H427.628C429.612 65.08 431.108 65.52 432.116 66.4C433.14 67.264 433.652 68.52 433.652 70.168C433.652 71.464 433.292 72.544 432.572 73.408C431.852 74.272 430.836 74.84 429.524 75.112C430.004 75.208 430.428 75.4 430.796 75.688C431.18 75.96 431.548 76.36 431.9 76.888L433.724 79.624ZM427.076 72.592C428.148 72.592 428.924 72.408 429.404 72.04C429.884 71.656 430.124 71.064 430.124 70.264C430.124 69.448 429.884 68.856 429.404 68.488C428.924 68.12 428.148 67.936 427.076 67.936H423.5V72.592H427.076ZM438.96 85.24C438.736 85.608 438.464 85.88 438.144 86.056C437.84 86.248 437.536 86.344 437.232 86.344C436.912 86.344 436.64 86.24 436.416 86.032C436.208 85.84 436.104 85.576 436.104 85.24C436.104 85.032 436.152 84.792 436.248 84.52C436.824 83.064 437.24 81.624 437.496 80.2C437.768 78.776 437.904 77.272 437.904 75.688C437.904 74.104 437.768 72.592 437.496 71.152C437.24 69.712 436.824 68.264 436.248 66.808C436.152 66.536 436.104 66.296 436.104 66.088C436.104 65.752 436.208 65.488 436.416 65.296C436.64 65.088 436.912 64.984 437.232 64.984C437.536 64.984 437.84 65.08 438.144 65.272C438.464 65.448 438.736 65.72 438.96 66.088C440.72 68.904 441.6 72.104 441.6 75.688C441.6 79.24 440.72 82.424 438.96 85.24Z" fill="#333333"/>
<path d="M119 134H449" stroke="#D4D2DF" stroke-dasharray="2 2"/>
<path d="M119 179H449" stroke="#D4D2DF" stroke-dasharray="2 2"/>
<rect x="119" y="231" width="159" height="38" rx="19" fill="#1E1E1E"/>
<path d="M156.072 255.144C155.581 255.144 155.101 255.107 154.632 255.032C154.163 254.957 153.72 254.845 153.304 254.696C152.888 254.536 152.515 254.344 152.184 254.12C152.024 254.003 151.912 253.869 151.848 253.72C151.795 253.571 151.779 253.427 151.8 253.288C151.832 253.139 151.896 253.011 151.992 252.904C152.088 252.797 152.205 252.733 152.344 252.712C152.483 252.68 152.637 252.723 152.808 252.84C153.288 253.149 153.795 253.379 154.328 253.528C154.861 253.667 155.443 253.736 156.072 253.736C156.979 253.736 157.645 253.576 158.072 253.256C158.509 252.925 158.728 252.499 158.728 251.976C158.728 251.549 158.573 251.213 158.264 250.968C157.955 250.712 157.437 250.509 156.712 250.36L155 250.008C153.987 249.795 153.229 249.443 152.728 248.952C152.237 248.461 151.992 247.8 151.992 246.968C151.992 246.467 152.093 246.008 152.296 245.592C152.509 245.176 152.803 244.819 153.176 244.52C153.549 244.211 153.997 243.976 154.52 243.816C155.043 243.656 155.613 243.576 156.232 243.576C156.893 243.576 157.512 243.661 158.088 243.832C158.675 244.003 159.197 244.264 159.656 244.616C159.795 244.712 159.885 244.835 159.928 244.984C159.981 245.123 159.992 245.261 159.96 245.4C159.939 245.539 159.88 245.656 159.784 245.752C159.688 245.848 159.565 245.907 159.416 245.928C159.267 245.939 159.101 245.885 158.92 245.768C158.504 245.491 158.077 245.293 157.64 245.176C157.213 245.048 156.739 244.984 156.216 244.984C155.693 244.984 155.235 245.064 154.84 245.224C154.456 245.384 154.157 245.608 153.944 245.896C153.741 246.184 153.64 246.525 153.64 246.92C153.64 247.368 153.784 247.725 154.072 247.992C154.36 248.259 154.84 248.461 155.512 248.6L157.208 248.952C158.275 249.176 159.069 249.523 159.592 249.992C160.115 250.461 160.376 251.085 160.376 251.864C160.376 252.365 160.275 252.819 160.072 253.224C159.869 253.619 159.581 253.96 159.208 254.248C158.835 254.536 158.381 254.76 157.848 254.92C157.325 255.069 156.733 255.144 156.072 255.144ZM164.585 255.144C164.041 255.144 163.55 255.037 163.113 254.824C162.686 254.611 162.35 254.323 162.105 253.96C161.86 253.597 161.737 253.187 161.737 252.728C161.737 252.152 161.881 251.699 162.169 251.368C162.468 251.027 162.953 250.787 163.625 250.648C164.308 250.499 165.225 250.424 166.377 250.424H167.129V251.416H166.393C165.625 251.416 165.017 251.453 164.569 251.528C164.121 251.603 163.801 251.731 163.609 251.912C163.428 252.083 163.337 252.323 163.337 252.632C163.337 253.037 163.476 253.368 163.753 253.624C164.03 253.869 164.414 253.992 164.905 253.992C165.3 253.992 165.646 253.901 165.945 253.72C166.244 253.528 166.478 253.272 166.649 252.952C166.83 252.632 166.921 252.264 166.921 251.848V250.008C166.921 249.4 166.793 248.963 166.537 248.696C166.281 248.429 165.86 248.296 165.273 248.296C164.932 248.296 164.574 248.339 164.201 248.424C163.838 248.509 163.46 248.653 163.065 248.856C162.884 248.941 162.729 248.968 162.601 248.936C162.473 248.904 162.372 248.835 162.297 248.728C162.222 248.611 162.18 248.488 162.169 248.36C162.169 248.221 162.201 248.088 162.265 247.96C162.34 247.832 162.462 247.736 162.633 247.672C163.102 247.448 163.566 247.288 164.025 247.192C164.484 247.096 164.916 247.048 165.321 247.048C166.036 247.048 166.622 247.16 167.081 247.384C167.55 247.608 167.897 247.949 168.121 248.408C168.345 248.867 168.457 249.459 168.457 250.184V254.296C168.457 254.552 168.393 254.755 168.265 254.904C168.137 255.043 167.95 255.112 167.705 255.112C167.47 255.112 167.284 255.043 167.145 254.904C167.006 254.755 166.937 254.552 166.937 254.296V253.256H167.081C166.996 253.651 166.836 253.992 166.601 254.28C166.377 254.557 166.094 254.771 165.753 254.92C165.412 255.069 165.022 255.144 164.585 255.144ZM173.629 255.112C173.405 255.112 173.207 255.053 173.037 254.936C172.877 254.819 172.743 254.637 172.637 254.392L169.965 248.184C169.879 247.992 169.847 247.811 169.869 247.64C169.89 247.469 169.97 247.336 170.109 247.24C170.247 247.133 170.434 247.08 170.669 247.08C170.871 247.08 171.031 247.128 171.149 247.224C171.266 247.32 171.373 247.485 171.469 247.72L173.885 253.672H173.437L175.901 247.72C175.997 247.485 176.103 247.32 176.221 247.224C176.349 247.128 176.525 247.08 176.749 247.08C176.941 247.08 177.09 247.133 177.197 247.24C177.314 247.336 177.383 247.469 177.405 247.64C177.437 247.8 177.41 247.976 177.325 248.168L174.621 254.392C174.525 254.637 174.391 254.819 174.221 254.936C174.05 255.053 173.853 255.112 173.629 255.112ZM182.441 255.144C181.587 255.144 180.851 254.984 180.233 254.664C179.625 254.333 179.15 253.869 178.809 253.272C178.478 252.664 178.313 251.944 178.313 251.112C178.313 250.301 178.478 249.592 178.809 248.984C179.139 248.376 179.593 247.901 180.169 247.56C180.745 247.219 181.401 247.048 182.137 247.048C182.681 247.048 183.166 247.139 183.593 247.32C184.019 247.491 184.382 247.747 184.681 248.088C184.99 248.419 185.219 248.824 185.369 249.304C185.529 249.784 185.609 250.323 185.609 250.92C185.609 251.101 185.555 251.24 185.449 251.336C185.342 251.421 185.182 251.464 184.969 251.464H179.593V250.472H184.521L184.249 250.696C184.249 250.163 184.169 249.709 184.009 249.336C183.859 248.963 183.63 248.68 183.321 248.488C183.022 248.285 182.649 248.184 182.201 248.184C181.699 248.184 181.273 248.301 180.921 248.536C180.579 248.771 180.318 249.096 180.137 249.512C179.955 249.928 179.865 250.413 179.865 250.968V251.064C179.865 252.003 180.083 252.712 180.521 253.192C180.969 253.661 181.614 253.896 182.457 253.896C182.777 253.896 183.113 253.853 183.465 253.768C183.827 253.683 184.169 253.539 184.489 253.336C184.67 253.229 184.83 253.181 184.969 253.192C185.118 253.203 185.235 253.251 185.321 253.336C185.417 253.421 185.475 253.528 185.497 253.656C185.518 253.784 185.497 253.917 185.433 254.056C185.369 254.184 185.257 254.301 185.097 254.408C184.734 254.653 184.313 254.84 183.833 254.968C183.353 255.085 182.889 255.144 182.441 255.144ZM194.085 255.144C193.541 255.144 193.05 255.037 192.613 254.824C192.186 254.611 191.85 254.323 191.605 253.96C191.36 253.597 191.237 253.187 191.237 252.728C191.237 252.152 191.381 251.699 191.669 251.368C191.968 251.027 192.453 250.787 193.125 250.648C193.808 250.499 194.725 250.424 195.877 250.424H196.629V251.416H195.893C195.125 251.416 194.517 251.453 194.069 251.528C193.621 251.603 193.301 251.731 193.109 251.912C192.928 252.083 192.837 252.323 192.837 252.632C192.837 253.037 192.976 253.368 193.253 253.624C193.53 253.869 193.914 253.992 194.405 253.992C194.8 253.992 195.146 253.901 195.445 253.72C195.744 253.528 195.978 253.272 196.149 252.952C196.33 252.632 196.421 252.264 196.421 251.848V250.008C196.421 249.4 196.293 248.963 196.037 248.696C195.781 248.429 195.36 248.296 194.773 248.296C194.432 248.296 194.074 248.339 193.701 248.424C193.338 248.509 192.96 248.653 192.565 248.856C192.384 248.941 192.229 248.968 192.101 248.936C191.973 248.904 191.872 248.835 191.797 248.728C191.722 248.611 191.68 248.488 191.669 248.36C191.669 248.221 191.701 248.088 191.765 247.96C191.84 247.832 191.962 247.736 192.133 247.672C192.602 247.448 193.066 247.288 193.525 247.192C193.984 247.096 194.416 247.048 194.821 247.048C195.536 247.048 196.122 247.16 196.581 247.384C197.05 247.608 197.397 247.949 197.621 248.408C197.845 248.867 197.957 249.459 197.957 250.184V254.296C197.957 254.552 197.893 254.755 197.765 254.904C197.637 255.043 197.45 255.112 197.205 255.112C196.97 255.112 196.784 255.043 196.645 254.904C196.506 254.755 196.437 254.552 196.437 254.296V253.256H196.581C196.496 253.651 196.336 253.992 196.101 254.28C195.877 254.557 195.594 254.771 195.253 254.92C194.912 255.069 194.522 255.144 194.085 255.144ZM202.919 255.144C202.45 255.144 201.964 255.091 201.463 254.984C200.972 254.877 200.519 254.696 200.103 254.44C199.964 254.344 199.868 254.237 199.815 254.12C199.762 254.003 199.74 253.885 199.751 253.768C199.772 253.64 199.82 253.533 199.895 253.448C199.98 253.352 200.082 253.293 200.199 253.272C200.327 253.251 200.46 253.277 200.599 253.352C201.015 253.587 201.415 253.752 201.799 253.848C202.183 253.933 202.562 253.976 202.935 253.976C203.5 253.976 203.927 253.875 204.215 253.672C204.503 253.469 204.647 253.197 204.647 252.856C204.647 252.579 204.551 252.365 204.359 252.216C204.167 252.056 203.879 251.933 203.495 251.848L201.975 251.544C201.314 251.405 200.812 251.16 200.471 250.808C200.13 250.456 199.959 250.008 199.959 249.464C199.959 248.973 200.092 248.547 200.359 248.184C200.626 247.821 200.999 247.544 201.479 247.352C201.959 247.149 202.514 247.048 203.143 247.048C203.612 247.048 204.055 247.107 204.471 247.224C204.887 247.341 205.271 247.517 205.623 247.752C205.762 247.827 205.852 247.928 205.895 248.056C205.938 248.173 205.943 248.291 205.911 248.408C205.89 248.525 205.836 248.632 205.751 248.728C205.666 248.813 205.559 248.867 205.431 248.888C205.314 248.899 205.18 248.867 205.031 248.792C204.711 248.589 204.391 248.445 204.071 248.36C203.762 248.275 203.452 248.232 203.143 248.232C202.578 248.232 202.151 248.339 201.863 248.552C201.586 248.755 201.447 249.032 201.447 249.384C201.447 249.651 201.532 249.869 201.703 250.04C201.874 250.211 202.14 250.333 202.503 250.408L204.023 250.712C204.716 250.851 205.239 251.085 205.591 251.416C205.954 251.747 206.135 252.195 206.135 252.76C206.135 253.496 205.842 254.077 205.255 254.504C204.668 254.931 203.89 255.144 202.919 255.144ZM215.128 255.144C214.445 255.144 213.842 254.984 213.32 254.664C212.808 254.333 212.408 253.864 212.12 253.256C211.832 252.637 211.688 251.917 211.688 251.096C211.688 250.253 211.832 249.533 212.12 248.936C212.408 248.339 212.808 247.875 213.32 247.544C213.842 247.213 214.445 247.048 215.128 247.048C215.81 247.048 216.397 247.219 216.888 247.56C217.389 247.891 217.725 248.339 217.896 248.904H217.72V244.424C217.72 244.157 217.789 243.955 217.928 243.816C218.066 243.677 218.264 243.608 218.52 243.608C218.776 243.608 218.973 243.677 219.112 243.816C219.261 243.955 219.336 244.157 219.336 244.424V254.296C219.336 254.552 219.266 254.755 219.128 254.904C218.989 255.043 218.792 255.112 218.536 255.112C218.28 255.112 218.082 255.043 217.944 254.904C217.805 254.755 217.736 254.552 217.736 254.296V252.888L217.912 253.24C217.741 253.816 217.405 254.28 216.904 254.632C216.413 254.973 215.821 255.144 215.128 255.144ZM215.544 253.896C215.981 253.896 216.365 253.789 216.696 253.576C217.026 253.363 217.282 253.048 217.464 252.632C217.656 252.216 217.752 251.704 217.752 251.096C217.752 250.179 217.549 249.485 217.144 249.016C216.738 248.547 216.205 248.312 215.544 248.312C215.096 248.312 214.706 248.419 214.376 248.632C214.045 248.835 213.784 249.144 213.592 249.56C213.41 249.976 213.32 250.488 213.32 251.096C213.32 252.003 213.522 252.696 213.928 253.176C214.333 253.656 214.872 253.896 215.544 253.896ZM222.421 255.112C222.154 255.112 221.951 255.043 221.813 254.904C221.674 254.755 221.605 254.552 221.605 254.296V247.896C221.605 247.629 221.674 247.427 221.813 247.288C221.951 247.149 222.143 247.08 222.389 247.08C222.645 247.08 222.837 247.149 222.965 247.288C223.103 247.427 223.173 247.629 223.173 247.896V249.064H223.013C223.183 248.424 223.498 247.939 223.957 247.608C224.415 247.277 225.002 247.085 225.717 247.032C225.909 247.021 226.058 247.069 226.165 247.176C226.282 247.283 226.346 247.448 226.357 247.672C226.378 247.896 226.33 248.077 226.213 248.216C226.095 248.344 225.914 248.419 225.669 248.44L225.365 248.472C224.671 248.536 224.143 248.755 223.781 249.128C223.418 249.501 223.237 250.013 223.237 250.664V254.296C223.237 254.552 223.167 254.755 223.029 254.904C222.901 255.043 222.698 255.112 222.421 255.112ZM229.991 255.144C229.447 255.144 228.957 255.037 228.519 254.824C228.093 254.611 227.757 254.323 227.511 253.96C227.266 253.597 227.143 253.187 227.143 252.728C227.143 252.152 227.287 251.699 227.575 251.368C227.874 251.027 228.359 250.787 229.031 250.648C229.714 250.499 230.631 250.424 231.783 250.424H232.535V251.416H231.799C231.031 251.416 230.423 251.453 229.975 251.528C229.527 251.603 229.207 251.731 229.015 251.912C228.834 252.083 228.743 252.323 228.743 252.632C228.743 253.037 228.882 253.368 229.159 253.624C229.437 253.869 229.821 253.992 230.311 253.992C230.706 253.992 231.053 253.901 231.351 253.72C231.65 253.528 231.885 253.272 232.055 252.952C232.237 252.632 232.327 252.264 232.327 251.848V250.008C232.327 249.4 232.199 248.963 231.943 248.696C231.687 248.429 231.266 248.296 230.679 248.296C230.338 248.296 229.981 248.339 229.607 248.424C229.245 248.509 228.866 248.653 228.471 248.856C228.29 248.941 228.135 248.968 228.007 248.936C227.879 248.904 227.778 248.835 227.703 248.728C227.629 248.611 227.586 248.488 227.575 248.36C227.575 248.221 227.607 248.088 227.671 247.96C227.746 247.832 227.869 247.736 228.039 247.672C228.509 247.448 228.973 247.288 229.431 247.192C229.89 247.096 230.322 247.048 230.727 247.048C231.442 247.048 232.029 247.16 232.487 247.384C232.957 247.608 233.303 247.949 233.527 248.408C233.751 248.867 233.863 249.459 233.863 250.184V254.296C233.863 254.552 233.799 254.755 233.671 254.904C233.543 255.043 233.357 255.112 233.111 255.112C232.877 255.112 232.69 255.043 232.551 254.904C232.413 254.755 232.343 254.552 232.343 254.296V253.256H232.487C232.402 253.651 232.242 253.992 232.007 254.28C231.783 254.557 231.501 254.771 231.159 254.92C230.818 255.069 230.429 255.144 229.991 255.144ZM237.369 255.112C237.113 255.112 236.91 255.043 236.761 254.904C236.622 254.755 236.553 254.552 236.553 254.296V248.44H235.657C235.454 248.44 235.294 248.387 235.177 248.28C235.06 248.163 235.001 248.008 235.001 247.816C235.001 247.613 235.06 247.459 235.177 247.352C235.294 247.245 235.454 247.192 235.657 247.192H237.017L236.553 247.624V247.048C236.553 245.992 236.814 245.197 237.337 244.664C237.86 244.12 238.622 243.8 239.625 243.704L240.121 243.672C240.302 243.651 240.446 243.677 240.553 243.752C240.66 243.827 240.729 243.923 240.761 244.04C240.793 244.157 240.793 244.28 240.761 244.408C240.74 244.525 240.686 244.632 240.601 244.728C240.516 244.824 240.409 244.877 240.281 244.888L239.977 244.904C239.348 244.957 238.889 245.139 238.601 245.448C238.313 245.747 238.169 246.205 238.169 246.824V247.448L237.945 247.192H239.721C239.945 247.192 240.11 247.245 240.217 247.352C240.334 247.459 240.393 247.613 240.393 247.816C240.393 248.008 240.334 248.163 240.217 248.28C240.11 248.387 239.945 248.44 239.721 248.44H238.169V254.296C238.169 254.84 237.902 255.112 237.369 255.112ZM244.558 255.144C243.918 255.144 243.379 255.032 242.942 254.808C242.504 254.584 242.179 254.253 241.966 253.816C241.752 253.379 241.646 252.845 241.646 252.216V248.44H240.686C240.472 248.44 240.307 248.387 240.19 248.28C240.072 248.163 240.014 248.008 240.014 247.816C240.014 247.613 240.072 247.459 240.19 247.352C240.307 247.245 240.472 247.192 240.686 247.192H241.646V245.544C241.646 245.277 241.715 245.075 241.854 244.936C242.003 244.797 242.206 244.728 242.462 244.728C242.718 244.728 242.915 244.797 243.054 244.936C243.192 245.075 243.262 245.277 243.262 245.544V247.192H245.134C245.347 247.192 245.512 247.245 245.63 247.352C245.747 247.459 245.806 247.613 245.806 247.816C245.806 248.008 245.747 248.163 245.63 248.28C245.512 248.387 245.347 248.44 245.134 248.44H243.262V252.088C243.262 252.653 243.379 253.08 243.614 253.368C243.859 253.656 244.254 253.8 244.798 253.8C244.99 253.8 245.155 253.784 245.294 253.752C245.443 253.709 245.566 253.683 245.662 253.672C245.779 253.672 245.875 253.715 245.95 253.8C246.024 253.875 246.062 254.024 246.062 254.248C246.062 254.408 246.03 254.557 245.966 254.696C245.912 254.835 245.811 254.925 245.662 254.968C245.534 255.011 245.358 255.048 245.134 255.08C244.92 255.123 244.728 255.144 244.558 255.144Z" fill="#9DFF9D"/>
<rect x="290" y="231" width="159" height="38" rx="19" fill="#C5FFC5"/>
<path d="M328.572 255.144C328.081 255.144 327.601 255.107 327.132 255.032C326.663 254.957 326.22 254.845 325.804 254.696C325.388 254.536 325.015 254.344 324.684 254.12C324.524 254.003 324.412 253.869 324.348 253.72C324.295 253.571 324.279 253.427 324.3 253.288C324.332 253.139 324.396 253.011 324.492 252.904C324.588 252.797 324.705 252.733 324.844 252.712C324.983 252.68 325.137 252.723 325.308 252.84C325.788 253.149 326.295 253.379 326.828 253.528C327.361 253.667 327.943 253.736 328.572 253.736C329.479 253.736 330.145 253.576 330.572 253.256C331.009 252.925 331.228 252.499 331.228 251.976C331.228 251.549 331.073 251.213 330.764 250.968C330.455 250.712 329.937 250.509 329.212 250.36L327.5 250.008C326.487 249.795 325.729 249.443 325.228 248.952C324.737 248.461 324.492 247.8 324.492 246.968C324.492 246.467 324.593 246.008 324.796 245.592C325.009 245.176 325.303 244.819 325.676 244.52C326.049 244.211 326.497 243.976 327.02 243.816C327.543 243.656 328.113 243.576 328.732 243.576C329.393 243.576 330.012 243.661 330.588 243.832C331.175 244.003 331.697 244.264 332.156 244.616C332.295 244.712 332.385 244.835 332.428 244.984C332.481 245.123 332.492 245.261 332.46 245.4C332.439 245.539 332.38 245.656 332.284 245.752C332.188 245.848 332.065 245.907 331.916 245.928C331.767 245.939 331.601 245.885 331.42 245.768C331.004 245.491 330.577 245.293 330.14 245.176C329.713 245.048 329.239 244.984 328.716 244.984C328.193 244.984 327.735 245.064 327.34 245.224C326.956 245.384 326.657 245.608 326.444 245.896C326.241 246.184 326.14 246.525 326.14 246.92C326.14 247.368 326.284 247.725 326.572 247.992C326.86 248.259 327.34 248.461 328.012 248.6L329.708 248.952C330.775 249.176 331.569 249.523 332.092 249.992C332.615 250.461 332.876 251.085 332.876 251.864C332.876 252.365 332.775 252.819 332.572 253.224C332.369 253.619 332.081 253.96 331.708 254.248C331.335 254.536 330.881 254.76 330.348 254.92C329.825 255.069 329.233 255.144 328.572 255.144ZM338.253 255.144C337.4 255.144 336.664 254.984 336.045 254.664C335.437 254.333 334.962 253.869 334.621 253.272C334.29 252.664 334.125 251.944 334.125 251.112C334.125 250.301 334.29 249.592 334.621 248.984C334.952 248.376 335.405 247.901 335.981 247.56C336.557 247.219 337.213 247.048 337.949 247.048C338.493 247.048 338.978 247.139 339.405 247.32C339.832 247.491 340.194 247.747 340.493 248.088C340.802 248.419 341.032 248.824 341.181 249.304C341.341 249.784 341.421 250.323 341.421 250.92C341.421 251.101 341.368 251.24 341.261 251.336C341.154 251.421 340.994 251.464 340.781 251.464H335.405V250.472H340.333L340.061 250.696C340.061 250.163 339.981 249.709 339.821 249.336C339.672 248.963 339.442 248.68 339.133 248.488C338.834 248.285 338.461 248.184 338.013 248.184C337.512 248.184 337.085 248.301 336.733 248.536C336.392 248.771 336.13 249.096 335.949 249.512C335.768 249.928 335.677 250.413 335.677 250.968V251.064C335.677 252.003 335.896 252.712 336.333 253.192C336.781 253.661 337.426 253.896 338.269 253.896C338.589 253.896 338.925 253.853 339.277 253.768C339.64 253.683 339.981 253.539 340.301 253.336C340.482 253.229 340.642 253.181 340.781 253.192C340.93 253.203 341.048 253.251 341.133 253.336C341.229 253.421 341.288 253.528 341.309 253.656C341.33 253.784 341.309 253.917 341.245 254.056C341.181 254.184 341.069 254.301 340.909 254.408C340.546 254.653 340.125 254.84 339.645 254.968C339.165 255.085 338.701 255.144 338.253 255.144ZM343.983 255.112C343.727 255.112 343.53 255.043 343.391 254.904C343.252 254.755 343.183 254.552 343.183 254.296V247.896C343.183 247.629 343.252 247.427 343.391 247.288C343.53 247.149 343.722 247.08 343.967 247.08C344.223 247.08 344.415 247.149 344.543 247.288C344.682 247.427 344.751 247.629 344.751 247.896V249.144L344.575 248.856C344.81 248.259 345.178 247.811 345.679 247.512C346.18 247.203 346.756 247.048 347.407 247.048C348.026 247.048 348.538 247.165 348.943 247.4C349.359 247.624 349.668 247.971 349.871 248.44C350.074 248.899 350.175 249.48 350.175 250.184V254.296C350.175 254.552 350.106 254.755 349.967 254.904C349.828 255.043 349.631 255.112 349.375 255.112C349.108 255.112 348.906 255.043 348.767 254.904C348.628 254.755 348.559 254.552 348.559 254.296V250.28C348.559 249.608 348.426 249.117 348.159 248.808C347.903 248.499 347.498 248.344 346.943 248.344C346.292 248.344 345.77 248.547 345.375 248.952C344.991 249.357 344.799 249.901 344.799 250.584V254.296C344.799 254.84 344.527 255.112 343.983 255.112ZM355.378 255.144C354.695 255.144 354.092 254.984 353.57 254.664C353.058 254.333 352.658 253.864 352.37 253.256C352.082 252.637 351.938 251.917 351.938 251.096C351.938 250.253 352.082 249.533 352.37 248.936C352.658 248.339 353.058 247.875 353.57 247.544C354.092 247.213 354.695 247.048 355.378 247.048C356.06 247.048 356.647 247.219 357.138 247.56C357.639 247.891 357.975 248.339 358.146 248.904H357.97V244.424C357.97 244.157 358.039 243.955 358.178 243.816C358.316 243.677 358.514 243.608 358.77 243.608C359.026 243.608 359.223 243.677 359.362 243.816C359.511 243.955 359.586 244.157 359.586 244.424V254.296C359.586 254.552 359.516 254.755 359.378 254.904C359.239 255.043 359.042 255.112 358.786 255.112C358.53 255.112 358.332 255.043 358.194 254.904C358.055 254.755 357.986 254.552 357.986 254.296V252.888L358.162 253.24C357.991 253.816 357.655 254.28 357.154 254.632C356.663 254.973 356.071 255.144 355.378 255.144ZM355.794 253.896C356.231 253.896 356.615 253.789 356.946 253.576C357.276 253.363 357.532 253.048 357.714 252.632C357.906 252.216 358.002 251.704 358.002 251.096C358.002 250.179 357.799 249.485 357.394 249.016C356.988 248.547 356.455 248.312 355.794 248.312C355.346 248.312 354.956 248.419 354.626 248.632C354.295 248.835 354.034 249.144 353.842 249.56C353.66 249.976 353.57 250.488 353.57 251.096C353.57 252.003 353.772 252.696 354.178 253.176C354.583 253.656 355.122 253.896 355.794 253.896ZM367.082 255.112C366.815 255.112 366.607 255.037 366.458 254.888C366.319 254.739 366.25 254.531 366.25 254.264V244.456C366.25 244.179 366.319 243.971 366.458 243.832C366.607 243.683 366.815 243.608 367.082 243.608C367.348 243.608 367.551 243.683 367.69 243.832C367.839 243.971 367.914 244.179 367.914 244.456V254.264C367.914 254.531 367.844 254.739 367.706 254.888C367.567 255.037 367.359 255.112 367.082 255.112ZM371.155 255.112C370.899 255.112 370.701 255.043 370.563 254.904C370.424 254.755 370.355 254.552 370.355 254.296V247.896C370.355 247.629 370.424 247.427 370.563 247.288C370.701 247.149 370.893 247.08 371.139 247.08C371.395 247.08 371.587 247.149 371.715 247.288C371.853 247.427 371.923 247.629 371.923 247.896V249.144L371.747 248.856C371.981 248.259 372.349 247.811 372.851 247.512C373.352 247.203 373.928 247.048 374.579 247.048C375.197 247.048 375.709 247.165 376.115 247.4C376.531 247.624 376.84 247.971 377.043 248.44C377.245 248.899 377.347 249.48 377.347 250.184V254.296C377.347 254.552 377.277 254.755 377.139 254.904C377 255.043 376.803 255.112 376.547 255.112C376.28 255.112 376.077 255.043 375.939 254.904C375.8 254.755 375.731 254.552 375.731 254.296V250.28C375.731 249.608 375.597 249.117 375.331 248.808C375.075 248.499 374.669 248.344 374.115 248.344C373.464 248.344 372.941 248.547 372.547 248.952C372.163 249.357 371.971 249.901 371.971 250.584V254.296C371.971 254.84 371.699 255.112 371.155 255.112ZM382.519 255.112C382.295 255.112 382.098 255.053 381.927 254.936C381.767 254.819 381.634 254.637 381.527 254.392L378.855 248.184C378.77 247.992 378.738 247.811 378.759 247.64C378.781 247.469 378.861 247.336 378.999 247.24C379.138 247.133 379.325 247.08 379.559 247.08C379.762 247.08 379.922 247.128 380.039 247.224C380.157 247.32 380.263 247.485 380.359 247.72L382.775 253.672H382.327L384.791 247.72C384.887 247.485 384.994 247.32 385.111 247.224C385.239 247.128 385.415 247.08 385.639 247.08C385.831 247.08 385.981 247.133 386.087 247.24C386.205 247.336 386.274 247.469 386.295 247.64C386.327 247.8 386.301 247.976 386.215 248.168L383.511 254.392C383.415 254.637 383.282 254.819 383.111 254.936C382.941 255.053 382.743 255.112 382.519 255.112ZM391.059 255.144C390.27 255.144 389.587 254.979 389.011 254.648C388.446 254.317 388.003 253.848 387.683 253.24C387.363 252.632 387.203 251.917 387.203 251.096C387.203 250.467 387.294 249.907 387.475 249.416C387.657 248.925 387.913 248.504 388.243 248.152C388.585 247.789 388.99 247.517 389.459 247.336C389.939 247.144 390.473 247.048 391.059 247.048C391.838 247.048 392.51 247.213 393.075 247.544C393.651 247.875 394.099 248.344 394.419 248.952C394.739 249.549 394.899 250.264 394.899 251.096C394.899 251.715 394.809 252.275 394.627 252.776C394.446 253.277 394.185 253.704 393.843 254.056C393.513 254.408 393.107 254.68 392.627 254.872C392.158 255.053 391.635 255.144 391.059 255.144ZM391.059 253.896C391.497 253.896 391.881 253.789 392.211 253.576C392.542 253.363 392.798 253.048 392.979 252.632C393.171 252.216 393.267 251.704 393.267 251.096C393.267 250.179 393.065 249.485 392.659 249.016C392.254 248.547 391.721 248.312 391.059 248.312C390.611 248.312 390.222 248.419 389.891 248.632C389.561 248.835 389.299 249.144 389.107 249.56C388.926 249.976 388.835 250.488 388.835 251.096C388.835 252.003 389.038 252.696 389.443 253.176C389.849 253.656 390.387 253.896 391.059 253.896ZM397.514 255.096C397.258 255.096 397.061 255.021 396.922 254.872C396.783 254.712 396.714 254.493 396.714 254.216V247.976C396.714 247.699 396.783 247.485 396.922 247.336C397.061 247.187 397.258 247.112 397.514 247.112C397.77 247.112 397.967 247.187 398.106 247.336C398.255 247.485 398.33 247.699 398.33 247.976V254.216C398.33 254.493 398.261 254.712 398.122 254.872C397.983 255.021 397.781 255.096 397.514 255.096ZM397.514 245.448C397.194 245.448 396.943 245.368 396.762 245.208C396.591 245.048 396.506 244.824 396.506 244.536C396.506 244.237 396.591 244.013 396.762 243.864C396.943 243.704 397.194 243.624 397.514 243.624C397.834 243.624 398.079 243.704 398.25 243.864C398.431 244.013 398.522 244.237 398.522 244.536C398.522 244.824 398.431 245.048 398.25 245.208C398.079 245.368 397.834 245.448 397.514 245.448ZM404.045 255.144C403.245 255.144 402.551 254.979 401.965 254.648C401.389 254.307 400.941 253.832 400.621 253.224C400.301 252.605 400.141 251.88 400.141 251.048C400.141 250.429 400.231 249.875 400.413 249.384C400.594 248.883 400.85 248.461 401.181 248.12C401.522 247.779 401.933 247.517 402.413 247.336C402.903 247.144 403.447 247.048 404.045 247.048C404.418 247.048 404.807 247.107 405.213 247.224C405.629 247.331 406.013 247.512 406.365 247.768C406.503 247.853 406.589 247.96 406.621 248.088C406.663 248.205 406.669 248.328 406.637 248.456C406.615 248.584 406.557 248.696 406.461 248.792C406.375 248.877 406.269 248.931 406.141 248.952C406.013 248.963 405.874 248.925 405.725 248.84C405.469 248.659 405.207 248.531 404.941 248.456C404.674 248.371 404.418 248.328 404.173 248.328C403.789 248.328 403.447 248.392 403.149 248.52C402.861 248.637 402.615 248.813 402.413 249.048C402.21 249.272 402.055 249.555 401.949 249.896C401.853 250.237 401.805 250.627 401.805 251.064C401.805 251.939 402.007 252.627 402.413 253.128C402.829 253.619 403.415 253.864 404.173 253.864C404.418 253.864 404.674 253.827 404.941 253.752C405.207 253.677 405.469 253.549 405.725 253.368C405.874 253.283 406.013 253.251 406.141 253.272C406.269 253.293 406.37 253.352 406.445 253.448C406.53 253.533 406.583 253.64 406.605 253.768C406.637 253.885 406.631 254.008 406.589 254.136C406.546 254.264 406.455 254.371 406.317 254.456C405.975 254.701 405.602 254.877 405.197 254.984C404.802 255.091 404.418 255.144 404.045 255.144ZM411.581 255.144C410.728 255.144 409.992 254.984 409.373 254.664C408.765 254.333 408.291 253.869 407.949 253.272C407.619 252.664 407.453 251.944 407.453 251.112C407.453 250.301 407.619 249.592 407.949 248.984C408.28 248.376 408.733 247.901 409.309 247.56C409.885 247.219 410.541 247.048 411.277 247.048C411.821 247.048 412.307 247.139 412.733 247.32C413.16 247.491 413.523 247.747 413.821 248.088C414.131 248.419 414.36 248.824 414.509 249.304C414.669 249.784 414.749 250.323 414.749 250.92C414.749 251.101 414.696 251.24 414.589 251.336C414.483 251.421 414.323 251.464 414.109 251.464H408.733V250.472H413.661L413.389 250.696C413.389 250.163 413.309 249.709 413.149 249.336C413 248.963 412.771 248.68 412.461 248.488C412.163 248.285 411.789 248.184 411.341 248.184C410.84 248.184 410.413 248.301 410.061 248.536C409.72 248.771 409.459 249.096 409.277 249.512C409.096 249.928 409.005 250.413 409.005 250.968V251.064C409.005 252.003 409.224 252.712 409.661 253.192C410.109 253.661 410.755 253.896 411.597 253.896C411.917 253.896 412.253 253.853 412.605 253.768C412.968 253.683 413.309 253.539 413.629 253.336C413.811 253.229 413.971 253.181 414.109 253.192C414.259 253.203 414.376 253.251 414.461 253.336C414.557 253.421 414.616 253.528 414.637 253.656C414.659 253.784 414.637 253.917 414.573 254.056C414.509 254.184 414.397 254.301 414.237 254.408C413.875 254.653 413.453 254.84 412.973 254.968C412.493 255.085 412.029 255.144 411.581 255.144Z" fill="#1E1E1E"/>
</svg>
