<svg width="68" height="68" viewBox="0 0 68 68" fill="none" xmlns="http://www.w3.org/2000/svg">
<path d="M24.0833 41.5556C24.0833 45.2069 27.0432 48.1667 30.6944 48.1667H36.8333C40.7453 48.1667 43.9166 44.9954 43.9166 41.0834C43.9166 37.1714 40.7453 34.0001 36.8333 34.0001H31.1666C27.2546 34.0001 24.0833 30.8288 24.0833 26.9167C24.0833 23.0047 27.2546 19.8334 31.1666 19.8334H37.3055C40.9567 19.8334 43.9166 22.7933 43.9166 26.4445M34 15.5834V19.8334M34 48.1667V52.4167M62.3333 34.0001C62.3333 49.6481 49.648 62.3334 34 62.3334C18.3519 62.3334 5.66663 49.6481 5.66663 34.0001C5.66663 18.352 18.3519 5.66675 34 5.66675C49.648 5.66675 62.3333 18.352 62.3333 34.0001Z" stroke="#8379CD" stroke-width="4" stroke-linecap="round" stroke-linejoin="round"/>
</svg>
