<svg width="77" height="72" viewBox="0 0 77 72" fill="none" xmlns="http://www.w3.org/2000/svg">
<g clip-path="url(#clip0_142_1997)">
<path d="M1 11H71V56L61 49L60 61H1V11Z" fill="#DDFFDD"/>
<path d="M71.9466 64.0953C72.4254 65.1618 72.9073 66.1222 73.2988 67.122C73.9884 68.8763 73.1843 70.8456 71.5069 71.6485C69.7903 72.4666 67.7514 71.8212 66.8419 70.1306C66.4504 69.4004 66.1312 68.6309 65.7758 67.8825C65.6704 67.6583 65.556 67.4402 65.4114 67.1463C64.7549 67.6886 64.1225 68.1703 63.5382 68.7036C62.6077 69.5519 61.5837 69.9579 60.3821 69.3944C59.1684 68.8248 58.8733 67.7613 58.9155 66.504C58.9606 65.1769 58.9245 63.8468 58.9245 62.4258H57.8855C41.0448 62.4258 24.201 62.4198 7.36028 62.4319C4.33064 62.4319 1.96956 61.2624 0.680604 58.4508C0.225855 57.46 0.036126 56.2663 0.0331145 55.1634C-0.0120592 41.1264 -1.28844e-05 27.0863 -1.28844e-05 13.0493C-1.28844e-05 11.0345 -0.00904762 9.01666 -1.28844e-05 7.00185C0.0240797 2.94799 2.95133 0.00605959 6.99588 0.00302979C26.3934 0 45.794 0 65.1916 0C69.4138 0 72.3049 2.91769 72.308 7.1897C72.314 23.1173 72.314 39.0449 72.2959 54.9726C72.2959 55.6179 72.4736 56.036 72.9795 56.4299C73.9884 57.2176 74.9401 58.0781 75.9219 58.9022C76.7802 59.6263 77.2018 60.5141 76.9066 61.6411C76.6145 62.7561 75.8616 63.3711 74.7383 63.5681C73.8348 63.7256 72.9344 63.9044 71.9466 64.0922V64.0953ZM69.7722 11.5526H2.48755C2.48755 11.8435 2.48755 12.0707 2.48755 12.2949C2.48755 26.6076 2.48454 40.9234 2.49056 55.2362C2.49056 58.1326 4.26438 59.8929 7.13441 59.8929C24.1016 59.8929 41.0659 59.8929 58.0331 59.8929H58.9215C58.9215 59.5445 58.9215 59.2749 58.9215 59.0052C58.9215 56.0815 58.8823 53.1577 58.9486 50.237C58.9637 49.5826 59.2076 48.8221 59.6021 48.31C60.4664 47.186 62.0325 47.1587 63.216 48.1464C65.2398 49.8371 67.2425 51.5519 69.2572 53.2547C69.3988 53.3728 69.5584 53.4698 69.7692 53.6213V11.5526H69.7722ZM2.52369 8.89547H69.718C69.718 7.86837 69.8625 6.86551 69.6879 5.92022C69.2873 3.72665 67.5165 2.50261 64.9627 2.49958C45.7669 2.49958 26.5711 2.49958 7.37534 2.49958C7.026 2.49958 6.67364 2.5117 6.3243 2.54806C4.28847 2.75408 2.70137 4.34472 2.53272 6.40195C2.46647 7.20182 2.52068 8.01077 2.52068 8.89547H2.52369ZM61.4783 67.022C62.6468 66.0919 63.74 65.2133 64.8423 64.3437C65.8301 63.5651 66.586 63.7347 67.119 64.8648C67.7002 66.0919 68.2604 67.325 68.8356 68.5551C69.2211 69.3762 69.7933 69.6731 70.4167 69.3913C71.0401 69.1096 71.1907 68.4673 70.8112 67.6371C70.2601 66.4252 69.6909 65.2193 69.1398 64.0074C68.5796 62.7743 68.947 62.0805 70.248 61.8472C71.6364 61.5987 73.0187 61.3382 74.5757 61.0503C70.1667 57.3116 65.8963 53.694 61.4723 49.9431V67.022H61.4783Z" fill="#3D3362"/>
<path d="M28.7966 42.3362C28.9833 43.0058 29.1128 43.5693 29.2965 44.1116C29.5013 44.7146 29.9681 44.9418 30.5855 44.9388C32.0642 44.9327 33.5429 44.9388 35.0216 44.9388C39.9334 44.9388 44.8423 44.9388 49.7542 44.9388C50.0282 44.9388 50.3143 44.9145 50.5764 44.9782C51.2058 45.1297 51.5882 45.5387 51.5822 46.2083C51.5762 46.8385 51.2238 47.2444 50.6245 47.399C50.3866 47.4596 50.1276 47.4626 49.8807 47.4626C43.5413 47.4656 37.2019 47.4687 30.8656 47.4626C28.6129 47.4626 27.339 46.4658 26.7518 44.2601C24.8545 37.1431 22.9481 30.0261 21.078 22.9001C20.8671 22.0972 20.4907 21.7396 19.6685 21.8154C19.2228 21.8548 18.7651 21.8396 18.3163 21.8093C17.6146 21.7578 17.1478 21.2488 17.1539 20.5792C17.1569 19.9097 17.6297 19.3885 18.3314 19.3613C19.0813 19.331 19.8402 19.2976 20.5841 19.3794C21.9634 19.5309 22.8698 20.3338 23.2975 21.6518C23.5203 22.3456 23.7342 23.0485 23.8606 23.7636C23.9661 24.3604 24.2341 24.5059 24.8153 24.5028C33.7356 24.4846 42.6529 24.4877 51.5732 24.4907C51.8743 24.4907 52.1755 24.4846 52.4736 24.5028C54.1993 24.6058 55.5153 26.2419 55.0937 27.9265C54.1812 31.5865 53.2295 35.2374 52.2026 38.864C51.5913 41.0213 49.6638 42.3301 47.36 42.3332C41.5235 42.3422 35.6841 42.3332 29.8477 42.3332H28.8057L28.7966 42.3362ZM40.0388 27.0206V32.1561C41.4663 32.1561 42.8607 32.1652 44.255 32.1379C44.3785 32.1379 44.5893 31.9046 44.6074 31.7592C44.8333 30.1988 45.029 28.6324 45.2368 27.0175H40.0358L40.0388 27.0206ZM37.5031 27.0297H32.275C32.5099 28.7688 32.7358 30.4442 32.9677 32.1621C34.3771 32.1621 35.7022 32.1773 37.0243 32.144C37.1869 32.1409 37.479 31.8895 37.482 31.7501C37.5151 30.1958 37.5031 28.6385 37.5031 27.0297ZM29.7603 27.0509H24.743C25.1857 28.7112 25.5983 30.2837 26.035 31.8531C26.0711 31.9803 26.2669 32.144 26.3904 32.147C27.7094 32.1682 29.0255 32.1591 30.4379 32.1591C30.206 30.4139 29.9892 28.7779 29.7603 27.0509ZM47.0799 32.1621C48.4652 32.1621 49.7361 32.1803 51.007 32.1409C51.1937 32.1349 51.4828 31.8834 51.537 31.6925C51.9165 30.3927 52.2448 29.0808 52.5941 27.772C52.7236 27.2811 52.6122 26.9812 52.046 26.9812C50.7721 26.9812 49.4982 26.966 48.2243 26.9994C48.0466 27.0024 47.7455 27.2236 47.7214 27.3781C47.4835 28.9354 47.2937 30.5018 47.0769 32.1652L47.0799 32.1621ZM40.0479 39.8124C40.8249 39.8124 41.5687 39.8124 42.3126 39.8124C43.5112 39.8124 43.5262 39.8124 43.6979 38.6217C43.8846 37.3219 44.0412 36.016 44.2129 34.689H40.0509V39.8124H40.0479ZM37.47 34.692H33.311C33.5429 36.422 33.7687 38.0975 33.9916 39.7639H37.47V34.692ZM31.4769 39.8124C31.236 38.0339 31.0101 36.3766 30.7843 34.689H26.7819C27.2095 36.3008 27.6161 37.8763 28.0588 39.4458C28.1009 39.6003 28.3539 39.7912 28.5165 39.7972C29.4622 39.8305 30.4078 39.8124 31.4799 39.8124H31.4769ZM46.7396 34.6829C46.5137 36.3766 46.2879 38.0521 46.059 39.773C47.363 39.8578 48.7513 40.0669 49.4259 38.7944C50.0825 37.5552 50.3655 36.113 50.8414 34.6829H46.7396Z" fill="#3D3362"/>
<path d="M34.1628 48.1827C35.798 48.1736 37.1382 49.5098 37.1352 51.1428C37.1322 52.7668 35.7649 54.1302 34.1567 54.1151C32.5606 54.0999 31.2566 52.788 31.2415 51.1731C31.2235 49.5067 32.5094 48.1888 34.1628 48.1797V48.1827ZM34.2109 50.5187C33.9911 50.7793 33.7622 50.9368 33.7622 51.0883C33.7622 51.2307 34.0092 51.467 34.1597 51.4791C34.2983 51.4882 34.5543 51.267 34.5753 51.1216C34.5964 50.9732 34.3886 50.7944 34.2109 50.5187Z" fill="#3D3362"/>
<path d="M48.2271 51.1148C48.2422 52.7358 46.887 54.1113 45.2758 54.1143C43.6646 54.1173 42.3094 52.7479 42.3184 51.1239C42.3274 49.512 43.6224 48.2032 45.2306 48.182C46.8659 48.1577 48.2151 49.4787 48.2271 51.1178V51.1148ZM45.9112 51.1512C45.6131 50.927 45.4474 50.7088 45.2938 50.7179C45.1342 50.727 44.9836 50.9542 44.8301 51.0875C44.9686 51.2299 45.0951 51.4602 45.2517 51.4875C45.4053 51.5117 45.592 51.3269 45.9082 51.1542L45.9112 51.1512Z" fill="#3D3362"/>
<path d="M13.5435 4.55408C15.5462 4.55408 17.5489 4.55105 19.5516 4.55408C20.4732 4.55408 21.0122 4.97522 21.0423 5.69025C21.0725 6.42043 20.5003 6.91126 19.5576 6.91429C15.501 6.92035 11.4445 6.92338 7.38786 6.91429C6.47234 6.91429 5.94531 6.45982 5.94531 5.7357C5.94531 5.00855 6.47836 4.56014 7.38183 4.55711C9.43573 4.55105 11.4896 4.55711 13.5405 4.55711L13.5435 4.55408Z" fill="#3D3362"/>
<path d="M61.2292 5.70007C61.2442 6.39995 60.7292 6.95137 60.0396 6.97258C59.3469 6.99076 58.8018 6.47266 58.7807 5.77278C58.7627 5.06684 59.2686 4.52451 59.9673 4.50633C60.672 4.48815 61.2111 5.00018 61.2261 5.70007H61.2292Z" fill="#3D3362"/>
<path d="M54.9153 4.50336C55.611 4.52154 56.1259 5.0669 56.1049 5.76678C56.0868 6.46061 55.5357 6.98476 54.846 6.96658C54.1534 6.9484 53.6414 6.40001 53.6565 5.6971C53.6715 4.99419 54.2106 4.48518 54.9123 4.50033L54.9153 4.50336Z" fill="#3D3362"/>
<path d="M65.1076 6.97223C64.4179 6.96314 63.8939 6.41778 63.9029 5.71789C63.912 5.01801 64.445 4.49689 65.1467 4.50598C65.8454 4.51507 66.3604 5.05134 66.3514 5.75425C66.3423 6.45413 65.8033 6.98132 65.1106 6.97223H65.1076Z" fill="#3D3362"/>
</g>
<defs>
<clipPath id="clip0_142_1997">
<rect width="77" height="72" fill="white"/>
</clipPath>
</defs>
</svg>
