<svg width="73" height="72" viewBox="0 0 73 72" fill="none" xmlns="http://www.w3.org/2000/svg">
<g clip-path="url(#clip0_142_2021)">
<path d="M6 7H47V65H35.5V50.5L38 50L37 45.5L15.5 46L14.5 50L16.5 50.5V65H6V7Z" fill="#DDFFDD"/>
<path d="M4.31369 7.75503C1.73904 7.37258 0.506429 5.94563 0.499992 3.39704C0.499992 2.77998 0.493555 2.16614 0.499992 1.54908C0.519302 0.462795 0.97952 0.0160693 2.08662 0C2.14133 0 2.19282 0 2.24753 0C18.2329 0 34.2182 0 50.2035 0C51.5134 0 51.9253 0.417801 51.9286 1.72905C51.9286 2.26577 51.9286 2.79927 51.9286 3.33598C51.9286 5.94563 50.7346 7.34045 48.1116 7.76146V18.2708C49.8077 18.6982 51.5295 19.1385 53.2577 19.566C59.173 21.0347 65.0882 22.5002 71.0035 23.9689C72.2393 24.2743 72.4968 24.5989 72.5 25.8523C72.5 27.3242 72.5096 28.7961 72.5 30.2713C72.4903 31.454 71.8274 31.9554 70.6656 31.6854C70.0155 31.5343 69.3686 31.3769 68.6799 31.2097V64.1453C69.2978 64.351 69.9286 64.4828 70.4821 64.7656C71.512 65.2927 72.2361 66.1604 72.3745 67.3078C72.5193 68.4937 72.5032 69.7085 72.4582 70.9073C72.4324 71.5244 71.9561 71.8939 71.3285 71.9743C71.0646 72.0096 70.7943 71.9904 70.5272 71.9904C47.8477 71.9904 25.1683 71.9904 2.49212 71.9904C0.844351 71.9904 0.512865 71.6593 0.509647 70.0331C0.509647 69.551 0.509647 69.069 0.509647 68.5869C0.509647 66.0383 1.7487 64.6113 4.32012 64.2353V7.75503H4.31369ZM45.4405 64.2578V7.78396H6.98166V64.2193H15.8899V51.4281C15.5649 51.4281 15.2752 51.4281 14.9888 51.4281C13.8238 51.4153 13.37 50.9814 13.3604 49.8405C13.3539 49.037 13.3378 48.2335 13.3668 47.4301C13.4376 45.4118 15.0628 43.7341 17.0807 43.7245C23.1858 43.6924 29.291 43.6924 35.3961 43.7245C37.311 43.7341 38.9234 45.325 39.0521 47.2308C39.1165 48.1918 39.0939 49.1591 39.065 50.1201C39.0392 50.9171 38.5372 51.3799 37.7262 51.4185C37.3368 51.4378 36.9473 51.4217 36.5708 51.4217V64.2546H45.4437L45.4405 64.2578ZM48.131 26.0901V64.2385H66.0248V30.5638C60.058 29.0725 54.1202 27.5877 48.131 26.0901ZM69.8449 69.4032C70.0895 67.7159 69.9125 66.8289 67.753 66.8321C46.8919 66.8707 26.0276 66.8546 5.16332 66.8546C4.86724 66.8546 4.57115 66.8385 4.2815 66.8675C3.6475 66.9317 3.21946 67.2885 3.1197 67.9055C3.04246 68.3876 3.1036 68.8922 3.1036 69.4H69.8449V69.4032ZM49.3507 2.63536H3.11326C2.98131 4.85935 3.23877 5.14217 5.37251 5.14217C19.3239 5.14217 33.2785 5.14217 47.2298 5.14217C47.4712 5.14217 47.7126 5.1486 47.9539 5.14217C48.8486 5.1036 49.3153 4.63117 49.3507 3.72807C49.3636 3.38419 49.3507 3.03709 49.3507 2.63858V2.63536ZM18.5611 51.4667V64.216H24.8883V51.4667H18.5611ZM33.8706 64.2385V51.4892H27.5434V64.2385H33.8706ZM48.1181 20.9447V23.4322C55.385 25.2384 62.6101 27.035 69.8899 28.8444V26.3633C62.6423 24.5603 55.3979 22.7573 48.1181 20.9447ZM15.935 48.7863H36.4968C36.4968 48.5871 36.4968 48.4521 36.4968 48.3203C36.5129 46.6234 36.1846 46.2859 34.5111 46.2859C31.2445 46.2859 27.9779 46.2859 24.7081 46.2859C22.2976 46.2859 19.8871 46.2795 17.4766 46.2859C16.4177 46.2892 15.9543 46.752 15.935 47.7932C15.9286 48.1114 15.935 48.4296 15.935 48.7831V48.7863Z" fill="#3D3362"/>
<path d="M18.5072 16.7998C18.5072 17.9761 18.5169 19.1523 18.5072 20.3286C18.4976 21.3763 18.0309 21.852 16.9914 21.8584C15.4144 21.8713 13.8375 21.8713 12.2605 21.8584C11.2757 21.8488 10.7994 21.3635 10.7929 20.3608C10.7833 17.9279 10.7833 15.4982 10.7929 13.0653C10.7962 12.0658 11.2725 11.5837 12.2669 11.5773C13.8697 11.5644 15.4756 11.5612 17.0783 11.5773C18.0148 11.5869 18.4944 12.0786 18.504 13.0299C18.5201 14.2866 18.5072 15.5432 18.5072 16.7998ZM13.4191 14.1837V19.2198H15.8875V14.1837H13.4191Z" fill="#3D3362"/>
<path d="M22.3551 16.6532C22.3551 15.4513 22.3454 14.2493 22.3583 13.0441C22.3712 12.051 22.8475 11.5786 23.8484 11.5721C25.4254 11.5593 27.0023 11.5593 28.5793 11.5721C29.5802 11.5786 30.0662 12.0542 30.0694 13.0441C30.0823 15.5027 30.0823 17.9613 30.0694 20.4199C30.0629 21.3615 29.5673 21.8436 28.6211 21.8533C27.0184 21.8693 25.4125 21.8693 23.8098 21.8533C22.8346 21.8436 22.368 21.3487 22.3583 20.3395C22.3454 19.1118 22.3583 17.8809 22.3583 16.65L22.3551 16.6532ZM27.4626 14.1914H24.9845V19.2243H27.4626V14.1914Z" fill="#3D3362"/>
<path d="M41.642 16.715C41.642 17.917 41.6516 19.1189 41.642 20.3241C41.6323 21.3751 41.1689 21.8507 40.1294 21.8572C38.5524 21.87 36.9755 21.87 35.3985 21.8572C34.4105 21.8475 33.9341 21.3654 33.9277 20.3659C33.9181 17.933 33.9181 15.5034 33.9277 13.0705C33.9309 12.0677 34.4072 11.5857 35.3953 11.5792C36.998 11.5664 38.6039 11.5632 40.2066 11.5792C41.1464 11.5889 41.6259 12.0806 41.6356 13.0287C41.6517 14.2564 41.6388 15.4873 41.6388 16.7182L41.642 16.715ZM36.5571 14.1825V19.2186H39.0255V14.1825H36.5571Z" fill="#3D3362"/>
<path d="M10.7861 30.7907C10.7861 29.5887 10.7764 28.3867 10.7893 27.1815C10.8021 26.1916 11.2785 25.7192 12.2794 25.7128C13.8563 25.6999 15.4333 25.6999 17.0103 25.7128C18.0079 25.7224 18.4939 26.1948 18.4971 27.1879C18.51 29.6208 18.51 32.0505 18.4971 34.4834C18.4939 35.5215 18.0144 35.9875 16.9652 35.9971C15.414 36.0067 13.866 36.0067 12.3148 35.9971C11.2656 35.9907 10.7957 35.5215 10.7861 34.4802C10.7732 33.2525 10.7861 32.0216 10.7861 30.7907ZM13.4315 28.3063V33.3714H15.871V28.3063H13.4315Z" fill="#3D3362"/>
<path d="M30.0761 30.8871C30.0761 32.0633 30.0825 33.2396 30.0761 34.4159C30.0696 35.5215 29.6126 35.9907 28.5281 35.9971C26.9768 36.0067 25.4288 36.0067 23.8776 35.9971C22.8349 35.9907 22.365 35.5182 22.3618 34.4673C22.3521 32.0633 22.3521 29.6562 22.3618 27.2522C22.365 26.1948 22.8284 25.7224 23.868 25.7128C25.4449 25.6999 27.0219 25.6999 28.5989 25.7128C29.5901 25.7224 30.0632 26.2013 30.0761 27.2008C30.089 28.4285 30.0793 29.6594 30.0793 30.8903L30.0761 30.8871ZM24.9751 28.3224V33.3714H27.4435V28.3224H24.9751Z" fill="#3D3362"/>
<path d="M41.6427 30.9343C41.6427 32.1363 41.6556 33.3383 41.6395 34.5435C41.6266 35.4948 41.1503 35.9865 40.2106 35.9994C38.5821 36.0154 36.9504 36.0187 35.3188 35.9994C34.4273 35.9897 33.9349 35.4916 33.9285 34.5917C33.9124 32.1074 33.9124 29.6199 33.9285 27.1356C33.9349 26.2325 34.4209 25.7343 35.3123 25.7247C36.9698 25.7054 38.6272 25.7022 40.2846 25.7247C41.131 25.7375 41.6202 26.2357 41.6331 27.0906C41.6556 28.3729 41.6395 29.6552 41.6395 30.9375L41.6427 30.9343ZM36.5449 28.3279V33.3736H39.0102V28.3279H36.5449Z" fill="#3D3362"/>
<path d="M57.0714 41.1443C55.4398 41.1443 53.8113 41.1507 52.1796 41.1443C51.1272 41.1379 50.6509 40.6719 50.6445 39.6338C50.6316 38.0558 50.6316 36.4778 50.6445 34.903C50.6541 33.9131 51.1337 33.4343 52.1346 33.4311C55.4237 33.4214 58.7096 33.4214 61.9987 33.4311C62.9996 33.4311 63.4855 33.9099 63.4952 34.8966C63.5113 36.5003 63.5113 38.104 63.4952 39.7077C63.4855 40.6462 62.9931 41.1315 62.0437 41.1379C60.3863 41.154 58.7289 41.1411 57.0714 41.1411V41.1443ZM53.261 36.0375V38.5186H60.8626V36.0375H53.261Z" fill="#3D3362"/>
<path d="M57.127 43.7088C58.7297 43.7088 60.3356 43.7024 61.9383 43.7088C63.0326 43.7153 63.4896 44.1781 63.496 45.2772C63.5056 46.8006 63.5056 48.3239 63.496 49.8473C63.4896 50.9497 63.0326 51.4157 61.9416 51.4189C58.6814 51.4253 55.418 51.4285 52.1579 51.4189C51.1152 51.4189 50.6485 50.94 50.6421 49.8891C50.6324 48.34 50.6324 46.7877 50.6421 45.2386C50.6485 44.1877 51.1152 43.7153 52.1547 43.7088C53.8121 43.696 55.4695 43.7088 57.127 43.7088ZM60.8924 46.3506H53.2618V48.8028H60.8924V46.3506Z" fill="#3D3362"/>
<path d="M57.09 53.9937C58.6927 53.9937 60.2986 53.9873 61.9013 53.9937C63.0438 54.0001 63.4912 54.4533 63.4976 55.6071C63.5041 57.1304 63.5073 58.6538 63.4976 60.1772C63.4912 61.2249 63.0213 61.7037 61.9818 61.707C58.6927 61.7166 55.4068 61.7166 52.1177 61.707C51.1264 61.7037 50.6534 61.2152 50.6469 60.2157C50.634 58.6377 50.634 57.0597 50.6469 55.4849C50.6566 54.4854 51.1297 54.0066 52.1209 53.9969C53.7783 53.9841 55.4358 53.9937 57.0932 53.9937H57.09ZM53.257 56.6034V59.0877H60.8651V56.6034H53.257Z" fill="#3D3362"/>
</g>
<defs>
<clipPath id="clip0_142_2021">
<rect width="72" height="72" fill="white" transform="translate(0.5)"/>
</clipPath>
</defs>
</svg>
