<svg width="43" height="43" viewBox="0 0 43 43" fill="none" xmlns="http://www.w3.org/2000/svg">
<g clip-path="url(#clip0_142_2117)">
<mask id="mask0_142_2117" style="mask-type:luminance" maskUnits="userSpaceOnUse" x="0" y="0" width="43" height="43">
<path d="M42.9095 0.45752H0.829468V42.5425H42.9095V0.45752Z" fill="white"/>
</mask>
<g mask="url(#mask0_142_2117)">
<path d="M21.8625 42.5426C17.7 42.5418 13.6313 41.3065 10.1709 38.993C6.71061 36.6796 4.0141 33.3918 2.42252 29.5457C0.830943 25.6995 0.415786 21.4677 1.22957 17.3856C2.04334 13.3034 4.0495 9.55432 6.99428 6.61248C9.93905 3.67064 13.6902 1.66823 17.7731 0.858525C21.8561 0.0488216 26.0874 0.468203 29.932 2.06362C33.7766 3.65904 37.0616 6.35882 39.3717 9.82148C41.6817 13.2841 42.9129 17.3541 42.9095 21.5166C42.9023 27.0944 40.6819 32.4415 36.7358 36.3837C32.7897 40.3259 27.4404 42.541 21.8625 42.5426ZM40.9995 21.5156C41.0021 17.7321 39.8827 14.0329 37.7829 10.8856C35.6832 7.73835 32.6973 5.28438 29.2029 3.83401C25.7085 2.38364 21.8625 2.00202 18.1513 2.73739C14.44 3.47276 11.0301 5.2921 8.3528 7.96536C5.67548 10.6386 3.85097 14.0457 3.10998 17.7559C2.36898 21.466 2.74478 25.3126 4.18985 28.8092C5.63492 32.3058 8.08436 35.2954 11.2284 37.3999C14.3725 39.5044 18.0701 40.6294 21.8535 40.6326C26.9255 40.6299 31.7894 38.6159 35.3786 35.0322C38.9678 31.4484 40.9892 26.5875 40.9995 21.5156Z" fill="#EDEAFD"/>
<path d="M19.9685 21.4968H18.0685V18.6328H19.9625C19.9625 18.4488 19.9555 18.2918 19.9625 18.1328C19.9754 17.2054 20.0348 16.2792 20.1405 15.3578C20.2158 14.8297 20.4493 14.3369 20.8103 13.9442C21.1712 13.5515 21.6427 13.2773 22.1625 13.1578C23.6308 12.8719 25.1301 12.7792 26.6225 12.8818V15.7638C26.1595 15.7638 25.6995 15.7638 25.2405 15.7638C23.9655 15.7698 23.7775 15.9638 23.7765 17.2438C23.7765 17.6808 23.7765 18.1168 23.7765 18.6078H26.6525L26.3255 21.4888H23.7845V30.0888H19.9685V21.4968Z" fill="#EDEAFD"/>
</g>
</g>
<defs>
<clipPath id="clip0_142_2117">
<rect width="42.08" height="42.085" fill="white" transform="translate(0.829468 0.45752)"/>
</clipPath>
</defs>
</svg>
