<svg width="30" height="30" viewBox="0 0 30 30" fill="none" xmlns="http://www.w3.org/2000/svg">
<path d="M17.5 2.83691V8.00009C17.5 8.70016 17.5 9.05019 17.6362 9.31758C17.7561 9.55278 17.9473 9.74401 18.1825 9.86385C18.4499 10.0001 18.7999 10.0001 19.5 10.0001H24.6632M17.5 21.25H10M20 16.25H10M25 12.4853V21.5C25 23.6002 25 24.6503 24.5913 25.4525C24.2317 26.1581 23.6581 26.7317 22.9525 27.0913C22.1503 27.5 21.1002 27.5 19 27.5H11C8.8998 27.5 7.8497 27.5 7.04754 27.0913C6.34193 26.7317 5.76825 26.1581 5.40873 25.4525C5 24.6503 5 23.6002 5 21.5V8.5C5 6.3998 5 5.3497 5.40873 4.54754C5.76825 3.84193 6.34193 3.26825 7.04754 2.90873C7.8497 2.5 8.8998 2.5 11 2.5H15.0147C15.9319 2.5 16.3905 2.5 16.8221 2.60361C17.2048 2.69548 17.5705 2.84699 17.9061 3.0526C18.2845 3.28451 18.6088 3.60879 19.2574 4.25736L23.2426 8.24264C23.8912 8.89121 24.2155 9.21549 24.4474 9.59393C24.653 9.92945 24.8045 10.2952 24.8964 10.6779C25 11.1095 25 11.5681 25 12.4853Z" stroke="#333333" stroke-width="3" stroke-linecap="round" stroke-linejoin="round"/>
</svg>
