<svg width="25" height="24" viewBox="0 0 25 24" fill="none" xmlns="http://www.w3.org/2000/svg">
<g clip-path="url(#clip0_143_4090)">
<path d="M12.218 8.56113C9.91673 8.56113 7.61489 8.56113 5.31365 8.56113C5.18393 8.56113 5.05302 8.5629 4.9239 8.55111C4.49452 8.50925 4.2441 8.2139 4.25011 7.7635C4.25611 7.33078 4.50713 7.04899 4.92811 7.01008C5.04761 6.99888 5.16772 7.00006 5.28783 7.00006C9.93115 7.00006 14.5739 7.00006 19.2172 7.00006C19.3271 7.00006 19.4376 6.99888 19.5469 7.00713C19.9889 7.04191 20.2453 7.32135 20.2501 7.76762C20.2549 8.22922 19.9961 8.51868 19.5427 8.55346C19.4232 8.56231 19.3025 8.56054 19.183 8.56054C16.8613 8.56054 14.5396 8.56054 12.2186 8.56054L12.218 8.56113Z" fill="black"/>
<path d="M12.2812 11.7199C13.8522 11.7199 15.4226 11.7164 16.9936 11.7217C17.6128 11.724 17.9208 12.0777 17.8362 12.6631C17.7893 12.9862 17.5587 13.2208 17.2302 13.2639C17.0921 13.2822 16.951 13.2804 16.8111 13.2804C13.7694 13.281 10.7283 13.281 7.68656 13.2804C7.59648 13.2804 7.5064 13.2816 7.41632 13.2774C6.91728 13.2521 6.64644 12.9697 6.65244 12.4839C6.65845 12.017 6.93049 11.7293 7.41872 11.7258C8.76932 11.7152 10.1199 11.7205 11.4705 11.7199C11.7408 11.7199 12.011 11.7199 12.2806 11.7199H12.2812Z" fill="black"/>
<path d="M12.2191 17.9981C11.4288 17.9981 10.6391 18.0063 9.8488 17.9951C9.29571 17.9875 9.01286 17.6591 9.0597 17.1156C9.09273 16.7347 9.34075 16.4865 9.72929 16.4476C9.78875 16.4417 9.8488 16.4388 9.90885 16.4388C11.469 16.4388 13.0292 16.4352 14.5894 16.44C15.1491 16.4417 15.438 16.7082 15.444 17.204C15.45 17.6886 15.1779 17.9857 14.6795 17.9934C13.8598 18.0057 13.0394 17.9969 12.2191 17.9969V17.9981Z" fill="black"/>
</g>
<defs>
<clipPath id="clip0_143_4090">
<rect width="16" height="11" fill="white" transform="translate(4.25 7)"/>
</clipPath>
</defs>
</svg>
