<svg width="106" height="106" viewBox="0 0 106 106" fill="none" xmlns="http://www.w3.org/2000/svg">
<rect width="106" height="106" rx="53" fill="#C1FFC1"/>
<g clip-path="url(#clip0_97_1803)">
<path d="M34.5276 45.1303C34.5276 43.0345 34.4845 41.0121 34.5437 38.9923C34.5814 37.6693 34.6648 36.3307 34.9071 35.0313C36.3092 27.5415 43.1288 21.6104 50.9065 21.0524C60.334 20.3765 68.3432 26.263 70.1463 35.2435C70.3885 36.4538 70.4396 37.7086 70.4719 38.9451C70.5231 40.9859 70.4854 43.0267 70.4854 45.1329C71.1528 45.1329 71.753 45.1329 72.3504 45.1329C74.49 45.1434 75.9729 46.5738 75.9917 48.667C76.0051 50.1052 75.9944 51.5434 75.9944 52.9817C75.9944 62.3498 75.9944 71.718 75.9944 81.0861C75.9944 83.6535 74.6165 85.0026 71.9898 85.0026C58.983 85.0026 45.9789 85.0026 32.972 85.0026C30.3911 85.0026 28.9971 83.643 28.9971 81.1228C28.9971 70.4029 28.9971 59.6855 28.9971 48.9656C28.9971 46.4821 30.3858 45.1329 32.9371 45.1329C33.4269 45.1329 33.9167 45.1329 34.5222 45.1329L34.5276 45.1303ZM52.4755 83.2133C58.9668 83.2133 65.4581 83.2133 71.9494 83.2133C73.653 83.2133 74.1643 82.7234 74.1643 81.0861C74.1643 70.3898 74.1643 59.6934 74.1643 48.997C74.1643 47.4252 73.6046 46.8829 71.9817 46.8803C69.2313 46.8803 66.4808 46.8803 63.7304 46.8803C53.4821 46.8803 43.2338 46.8803 32.9855 46.8803C31.403 46.8803 30.8271 47.4331 30.8271 48.9525C30.8271 59.6934 30.8271 70.4317 30.8271 81.1726C30.8271 82.6842 31.3734 83.2107 32.929 83.2107C39.4418 83.2107 45.9573 83.2107 52.4702 83.2107L52.4755 83.2133ZM63.6469 45.1041C63.6469 43.0712 63.6685 41.1143 63.6389 39.1547C63.6254 38.2431 63.6146 37.3157 63.4316 36.4276C62.2529 30.6825 57.0103 27.0332 51.0061 27.7301C46.1054 28.2986 41.8989 32.3618 41.5033 37.1428C41.288 39.7389 41.4145 42.3613 41.3876 44.9731C41.3876 45.0098 41.4306 45.0439 41.4683 45.1041H63.6496H63.6469ZM68.7307 45.1303C68.6526 42.1334 68.8007 39.1966 68.4616 36.3149C67.4846 27.9842 59.384 21.8514 50.8581 22.8024C42.4775 23.7376 36.4061 30.3236 36.3603 38.5365C36.3496 40.5196 36.3603 42.5001 36.3603 44.4832C36.3603 44.6902 36.3603 44.8945 36.3603 45.0858H39.5737C39.5737 44.8055 39.5737 44.5697 39.5737 44.3339C39.5737 42.3298 39.5548 40.3257 39.5818 38.3216C39.6733 31.4422 45.2334 26.0115 52.306 25.8753C59.2656 25.7443 65.1002 31.0205 65.4124 37.7925C65.512 39.9668 65.4447 42.1491 65.4528 44.3261C65.4528 44.5802 65.4528 44.8369 65.4528 45.1303C65.7649 45.1303 65.9883 45.1303 66.209 45.1303C66.9895 45.1303 67.7699 45.1303 68.728 45.1303H68.7307Z" fill="#3D3362"/>
<path d="M52.4756 83.2133C45.9627 83.2133 39.4472 83.2133 32.9344 83.2133C31.3788 83.2133 30.8325 82.6842 30.8325 81.1752C30.8325 70.4343 30.8325 59.696 30.8325 48.9551C30.8325 47.4357 31.4084 46.8829 32.9909 46.8829C43.2392 46.8829 53.4875 46.8829 63.7357 46.8829C66.4862 46.8829 69.2367 46.8829 71.9871 46.8829C73.6073 46.8829 74.167 47.4278 74.1697 48.9997C74.1697 59.696 74.1697 70.3924 74.1697 81.0887C74.1697 82.7261 73.6584 83.216 71.9548 83.216C65.4635 83.216 58.9722 83.216 52.4809 83.216L52.4756 83.2133ZM49.2003 68.962C49.2003 69.7689 49.1842 70.5732 49.2084 71.38C49.2218 71.7887 49.2514 72.2131 49.3699 72.6034C49.8408 74.1412 51.3345 75.0346 53.0138 74.825C54.5801 74.6285 55.7858 73.3003 55.8208 71.642C55.8585 69.8999 55.845 68.1578 55.8208 66.4156C55.8154 65.965 55.9419 65.6716 56.3106 65.3704C58.8135 63.3348 59.1149 59.6882 57.0103 57.299C54.8681 54.8705 51.1784 54.5614 48.7105 56.6074C46.1888 58.6953 45.7932 62.3786 48.0727 64.6945C49.0442 65.6795 49.3214 66.6252 49.203 67.8513C49.168 68.218 49.1976 68.59 49.1976 68.962H49.2003Z" fill="#E1DDFC"/>
<path d="M68.7311 45.1303C67.773 45.1303 66.9926 45.1303 66.2121 45.1303C65.9887 45.1303 65.7681 45.1303 65.4559 45.1303C65.4559 44.8343 65.4559 44.5802 65.4559 44.3261C65.4478 42.1491 65.5151 39.9669 65.4155 37.7925C65.1033 31.0205 59.2687 25.7443 52.3091 25.8753C45.2365 26.0089 39.6737 31.4396 39.5849 38.3217C39.558 40.3258 39.5795 42.3299 39.5768 44.3339C39.5768 44.5697 39.5768 44.8055 39.5768 45.0858H36.3635C36.3635 44.8946 36.3635 44.6902 36.3635 44.4833C36.3635 42.5001 36.3554 40.5196 36.3635 38.5365C36.4092 30.3263 42.4807 23.7376 50.8612 22.8024C59.3871 21.8514 67.4878 27.9842 68.4647 36.315C68.8038 39.1967 68.6558 42.1334 68.7338 45.1303H68.7311Z" fill="#F6FFF6"/>
<path d="M49.2006 68.962C49.2006 68.5926 49.171 68.218 49.206 67.8513C49.3244 66.6252 49.0472 65.6821 48.0757 64.6945C45.7935 62.3813 46.1918 58.6979 48.7135 56.6074C51.1814 54.5614 54.8738 54.8705 57.0133 57.299C59.1179 59.6882 58.8165 63.3322 56.3136 65.3704C55.9449 65.6716 55.8184 65.9624 55.8238 66.4156C55.848 68.1578 55.8615 69.8999 55.8238 71.642C55.7888 73.3003 54.5831 74.6285 53.0168 74.825C51.3375 75.0346 49.8438 74.1412 49.3729 72.6034C49.2544 72.2131 49.2248 71.7913 49.2114 71.38C49.1872 70.5758 49.2033 69.7689 49.2033 68.962H49.2006ZM51.0199 68.4564H51.0172C51.0172 69.4598 51.0118 70.4605 51.0172 71.4639C51.0253 72.4594 51.6362 73.1169 52.5243 73.1064C53.3882 73.096 53.9857 72.4567 53.991 71.4953C53.9991 69.5331 54.0126 67.5736 53.9776 65.6114C53.9668 65.0141 54.174 64.6499 54.6908 64.3356C57.2636 62.7716 57.2044 59.0909 54.5966 57.5767C52.675 56.4633 50.1883 57.0632 49.0176 58.9232C47.8496 60.7806 48.4363 63.2196 50.3525 64.3539C50.8234 64.6316 51.0495 64.9669 51.0307 65.5171C50.9957 66.4969 51.0199 67.4766 51.0199 68.459V68.4564Z" fill="#3D3362"/>
<path d="M51.0196 68.4564C51.0196 67.4766 50.9954 66.4942 51.0304 65.5145C51.0492 64.9643 50.8231 64.6316 50.3522 64.3513C48.436 63.217 47.8493 60.778 49.0173 58.9206C50.188 57.0606 52.6747 56.4607 54.5963 57.5741C57.2041 59.0856 57.266 62.7664 54.6905 64.333C54.1737 64.6473 53.9665 65.0115 53.9773 65.6088C54.0123 67.5683 54.0015 69.5305 53.9907 71.4927C53.9853 72.4541 53.3879 73.0933 52.524 73.1038C51.6359 73.1143 51.025 72.4567 51.0169 71.4613C51.0088 70.4579 51.0169 69.4572 51.0169 68.4538H51.0196V68.4564Z" fill="white"/>
</g>
<defs>
<clipPath id="clip0_97_1803">
<rect width="47" height="64" fill="white" transform="translate(29 21)"/>
</clipPath>
</defs>
</svg>
