<svg width="78" height="72" viewBox="0 0 78 72" fill="none" xmlns="http://www.w3.org/2000/svg">
<g clip-path="url(#clip0_142_2011)">
<path d="M4.5 31.5H32.5C32.9 34.3 35 35 36 35H41.5C44.3 35 45 32.6667 45 31.5H73L73.5 55.5L72 58.5L70 61.5L65.5 63H51.5V51.5L39 43L26.5 51.5V63H12.5L7.5 61L5 57L4.5 31.5Z" fill="#E1DDFC"/>
<path d="M6.01522 33.0049C6.01522 33.1316 6.01522 33.4239 6.01522 33.7194C6.01522 40.7018 6.01522 47.6842 6.01522 54.6667C6.01522 58.7327 8.59352 61.2886 12.6791 61.2918C14.6291 61.2918 16.5791 61.2886 18.5291 61.2918C19.5838 61.2951 20.147 61.753 20.1438 62.5746C20.1405 63.3898 19.561 63.8574 18.5193 63.8607C16.4879 63.8672 14.4565 63.8704 12.4252 63.8607C7.23275 63.8315 3.45971 60.0772 3.44669 54.8777C3.42716 47.353 3.43367 39.8315 3.4532 32.3067C3.4532 31.5727 3.29694 31.0142 2.76956 30.4361C-0.104981 27.2956 -0.830941 22.5054 1.01163 18.9589C2.33984 16.4031 4.37449 14.9676 7.3825 15.0131C11.1197 15.0715 14.857 15.0228 18.5942 15.0228C18.8839 15.0228 19.1737 15.0228 19.561 15.0228C19.561 13.6068 19.5643 12.2883 19.561 10.9665C19.5513 8.95624 19.9126 7.03039 20.9641 5.28966C22.9988 1.92836 25.9905 0.090201 29.9263 0.0512294C36.18 -0.00722793 42.4402 -0.0429519 48.6938 0.0999439C53.7951 0.220106 58.0923 4.64013 58.3462 9.74541C58.4178 11.1776 58.3852 12.6131 58.4015 14.0453C58.4015 14.3376 58.4015 14.6266 58.4015 15.0163C58.7857 15.0163 59.0754 15.0163 59.3651 15.0163C62.9949 15.0163 66.6247 15.0196 70.2513 15.0228C74.3303 15.0228 77.0909 17.3027 77.8169 21.3557C78.4452 24.8631 77.4327 27.9386 75.1019 30.5822C74.6917 31.0499 74.5289 31.4851 74.5289 32.0891C74.5452 39.6658 74.5484 47.2458 74.5354 54.8225C74.5257 58.9763 72.1687 62.2888 68.4087 63.4353C67.6665 63.6626 66.8721 63.8152 66.1006 63.8315C63.7469 63.8867 61.39 63.8704 59.0331 63.8542C58.1443 63.8477 57.5877 63.2891 57.6137 62.5259C57.6365 61.792 58.1769 61.3016 59.0363 61.2951C61.2565 61.2821 63.4767 61.3016 65.7002 61.2853C69.2649 61.2561 71.9408 58.6483 71.9571 55.0823C71.9929 47.8564 71.9701 40.6304 71.9669 33.4044C71.9669 33.2193 71.9376 33.0374 71.9376 33.0342C69.4895 33.0796 67.0903 33.1576 64.6943 33.1673C58.7629 33.1868 52.8315 33.1836 46.9001 33.1608C46.3109 33.1608 46.0179 33.307 45.7575 33.8753C45.0543 35.4114 43.8172 36.389 42.1146 36.4767C40.0637 36.5806 37.9998 36.5838 35.9456 36.4832C34.2105 36.3987 32.9539 35.4114 32.2409 33.8428C31.9935 33.2972 31.7136 33.1608 31.1601 33.1608C24.7958 33.1771 18.4314 33.1836 12.0671 33.1608C10.0747 33.1543 8.08241 33.0569 6.02173 33.0017L6.01522 33.0049ZM39.0187 17.6047C28.4874 17.6047 17.9561 17.6307 7.42482 17.5819C5.38367 17.5722 4.10103 18.5173 3.25462 20.2223C1.92966 22.8918 2.63934 26.7013 4.85629 28.9357C5.90779 29.9976 7.15787 30.6049 8.68792 30.6017C16.2145 30.5952 23.741 30.5952 31.2643 30.6082C31.7298 30.6082 31.9675 30.4815 32.1661 30.0269C32.9701 28.1887 34.4123 27.2339 36.4209 27.2014C38.1267 27.1722 39.8326 27.1787 41.5384 27.2014C43.5893 27.2242 45.0347 28.1985 45.8486 30.0691C46.0309 30.488 46.2555 30.6147 46.695 30.6147C54.2476 30.6017 61.8002 30.6082 69.3528 30.6017C70.4043 30.6017 71.3809 30.3321 72.2371 29.6826C74.6461 27.851 75.5934 25.3503 75.3753 22.4274C75.1409 19.2934 73.2267 17.6112 70.1243 17.6112C59.7558 17.6112 49.3873 17.6112 39.0187 17.6112V17.6047ZM51.2266 14.9936C51.2266 13.6328 51.2298 12.3403 51.2266 11.051C51.2266 10.645 51.2363 10.2326 51.1712 9.83634C50.9271 8.37816 49.6184 7.21875 48.0916 7.21226C42.03 7.18628 35.9651 7.18303 29.9035 7.21226C28.1684 7.21875 26.8499 8.56652 26.7686 10.3105C26.7262 11.2296 26.7523 12.1487 26.749 13.0677C26.749 13.701 26.749 14.3343 26.749 14.9936H51.2298H51.2266ZM55.8363 14.9708C55.8363 13.5224 55.8558 12.1227 55.833 10.7229C55.7484 5.97491 52.5027 2.65258 47.7465 2.59737C41.8998 2.53242 36.053 2.54541 30.2063 2.59737C26.6579 2.62985 23.8745 4.55894 22.6863 7.65394C21.7747 10.0312 22.2533 12.4994 22.1328 14.9644H24.1772C24.1772 13.4899 24.1642 12.061 24.1772 10.6353C24.2163 7.0856 26.6774 4.63039 30.2258 4.62389C36.0726 4.6109 41.9193 4.6109 47.766 4.63364C48.4334 4.63364 49.1236 4.72132 49.7584 4.91618C52.1446 5.65664 53.7365 7.80982 53.7886 10.33C53.8211 11.8629 53.7951 13.3957 53.7951 14.9676H55.8363V14.9708ZM39.022 33.9857C39.8326 33.9857 40.6432 34.0085 41.4538 33.9825C42.8341 33.937 43.5991 33.1316 43.5828 31.7806C43.5666 30.5432 42.7853 29.7865 41.4473 29.7703C39.8261 29.7508 38.2049 29.7508 36.5837 29.7703C35.2001 29.7865 34.4156 30.5465 34.409 31.8261C34.4025 33.1576 35.1871 33.9468 36.5902 33.9825C37.4008 34.0052 38.2114 33.9857 39.022 33.9825V33.9857Z" fill="#3D3362"/>
<path d="M52.7786 53.4046C52.7558 53.8138 52.7265 54.0736 52.7265 54.3302C52.7265 59.036 52.7396 63.7418 52.7103 68.4509C52.707 69.1849 52.8926 69.5161 53.6543 69.3959C53.8399 69.3667 54.032 69.3862 54.2208 69.4024C54.9695 69.4674 55.4448 69.948 55.4546 70.6463C55.4644 71.3445 55.0184 71.8804 54.2598 71.9291C53.2344 71.994 52.2057 71.9973 51.177 71.9973C43.0026 72.0005 34.8282 72.0005 26.6506 71.9973C25.7586 71.9973 24.8634 71.9746 23.9714 71.9551C22.9231 71.9323 22.3697 71.4712 22.3827 70.6365C22.3957 69.8311 22.9264 69.4057 23.9421 69.3895C24.1602 69.3862 24.4076 69.4544 24.5834 69.37C24.795 69.2693 25.0977 69.042 25.101 68.8666C25.1205 63.81 25.1108 58.7502 25.101 53.6936C25.101 53.6482 25.0522 53.606 24.9675 53.4631C24.5704 53.7229 24.1765 53.9794 23.7793 54.236C22.8938 54.8076 22.1776 54.7491 21.7154 54.0704C21.2596 53.3949 21.4777 52.6771 22.3437 52.1023C26.6929 49.2152 31.0454 46.3378 35.3979 43.4539C36.2541 42.8855 37.1233 42.3334 37.9632 41.7456C38.598 41.3007 39.1872 41.2974 39.8351 41.7261C45.06 45.1978 50.298 48.6566 55.5262 52.125C56.3596 52.6771 56.5614 53.3689 56.1415 54.0379C55.702 54.7361 54.9598 54.8206 54.0873 54.262C53.6869 54.0054 53.2897 53.7424 52.7754 53.4046H52.7786ZM50.0962 69.2725C50.1189 69.016 50.1548 68.8049 50.1548 68.5938C50.1548 63.1572 50.1482 57.7207 50.171 52.2874C50.171 51.7321 49.9041 51.4755 49.4972 51.206C46.1766 49.0203 42.8593 46.8314 39.5616 44.6133C39.083 44.2917 38.751 44.2982 38.2855 44.6133C34.9845 46.8282 31.6737 49.0268 28.3467 51.2027C27.8518 51.5275 27.6891 51.8847 27.6923 52.4563C27.7118 57.7824 27.7021 63.1118 27.7053 68.4379C27.7053 68.701 27.7346 68.964 27.7509 69.2628H33.8125C33.8125 68.9088 33.8125 68.6165 33.8125 68.321C33.8125 65.265 33.8125 62.2089 33.8125 59.1529C33.8125 57.7759 34.2097 57.3862 35.6063 57.383C37.8525 57.383 40.0987 57.3765 42.345 57.383C43.6276 57.3862 44.0248 57.7954 44.0248 59.0945C44.0248 62.2057 44.0248 65.3137 44.0248 68.4249C44.0248 68.7074 44.0248 68.99 44.0248 69.2725H50.0962ZM41.4042 60.0038H36.4429V69.2401H41.4042V60.0038Z" fill="#3D3362"/>
</g>
<defs>
<clipPath id="clip0_142_2011">
<rect width="78" height="72" fill="white"/>
</clipPath>
</defs>
</svg>
