<svg width="20" height="20" viewBox="0 0 20 20" fill="none" xmlns="http://www.w3.org/2000/svg">
<g clip-path="url(#clip0_158_865)">
<path d="M1.6665 10.0003H18.3332M1.6665 10.0003C1.6665 14.6027 5.39746 18.3337 9.99984 18.3337M1.6665 10.0003C1.6665 5.39795 5.39746 1.66699 9.99984 1.66699M18.3332 10.0003C18.3332 14.6027 14.6022 18.3337 9.99984 18.3337M18.3332 10.0003C18.3332 5.39795 14.6022 1.66699 9.99984 1.66699M9.99984 1.66699C12.0842 3.94895 13.2688 6.91035 13.3332 10.0003C13.2688 13.0903 12.0842 16.0517 9.99984 18.3337M9.99984 1.66699C7.91544 3.94895 6.73088 6.91035 6.6665 10.0003C6.73088 13.0903 7.91544 16.0517 9.99984 18.3337" stroke="#312D51" stroke-width="1.5" stroke-linecap="round" stroke-linejoin="round"/>
</g>
<defs>
<clipPath id="clip0_158_865">
<rect width="20" height="20" fill="white"/>
</clipPath>
</defs>
</svg>
