<svg width="20" height="20" viewBox="0 0 20 20" fill="none" xmlns="http://www.w3.org/2000/svg">
<g clip-path="url(#clip0_158_860)">
<path d="M7.61339 7.6139L4.10728 4.10779M4.10728 15.8929L7.63981 12.3604M12.3841 12.3868L15.8902 15.8929M15.8902 4.10779L12.3571 7.64084M18.3332 10.0003C18.3332 14.6027 14.6022 18.3337 9.99984 18.3337C5.39746 18.3337 1.6665 14.6027 1.6665 10.0003C1.6665 5.39795 5.39746 1.66699 9.99984 1.66699C14.6022 1.66699 18.3332 5.39795 18.3332 10.0003ZM13.3332 10.0003C13.3332 11.8413 11.8408 13.3337 9.99984 13.3337C8.15889 13.3337 6.6665 11.8413 6.6665 10.0003C6.6665 8.15938 8.15889 6.66699 9.99984 6.66699C11.8408 6.66699 13.3332 8.15938 13.3332 10.0003Z" stroke="#312D51" stroke-width="1.5" stroke-linecap="round" stroke-linejoin="round"/>
</g>
<defs>
<clipPath id="clip0_158_860">
<rect width="20" height="20" fill="white"/>
</clipPath>
</defs>
</svg>
