<svg width="43" height="43" viewBox="0 0 43 43" fill="none" xmlns="http://www.w3.org/2000/svg">
<g clip-path="url(#clip0_142_2120)">
<mask id="mask0_142_2120" style="mask-type:luminance" maskUnits="userSpaceOnUse" x="0" y="0" width="43" height="43">
<path d="M42.1705 0.45752H0.0834961V42.5425H42.1705V0.45752Z" fill="white"/>
</mask>
<g mask="url(#mask0_142_2120)">
<path d="M21.1255 0.45752C25.2876 0.45752 29.3561 1.69181 32.8166 4.00429C36.2771 6.31677 38.9741 9.60355 40.5665 13.4489C42.1589 17.2943 42.5751 21.5256 41.7626 25.6076C40.95 29.6895 38.9452 33.4388 36.0016 36.3813C33.058 39.3237 29.308 41.3272 25.2257 42.1382C21.1434 42.9492 16.9123 42.5313 13.0675 40.9375C9.22275 39.3437 5.93699 36.6454 3.62582 33.184C1.31466 29.7226 0.0819152 25.6536 0.0834976 21.4915C0.0887958 15.9132 2.30767 10.565 6.25289 6.62126C10.1981 2.67754 15.5472 0.460696 21.1255 0.45752ZM40.2605 21.5045C40.2615 17.7204 39.1403 14.0209 37.0388 10.874C34.9372 7.727 31.9497 5.27389 28.454 3.82485C24.9583 2.3758 21.1114 1.9959 17.3997 2.73318C13.6881 3.47046 10.2785 5.29181 7.60196 7.96691C4.92546 10.642 3.10233 14.0507 2.36311 17.762C1.62389 21.4732 2.00178 25.3203 3.449 28.8168C4.89622 32.3133 7.34776 35.3021 10.4936 37.4053C13.6395 39.5084 17.3383 40.6315 21.1225 40.6325C26.1949 40.6272 31.0581 38.6106 34.6457 35.0248C38.2334 31.4391 40.2526 26.5769 40.2605 21.5045Z" fill="#EDEAFD"/>
<path d="M11.4785 21.4917C11.4785 19.9277 11.4645 18.3637 11.4785 16.7997C11.4473 15.8436 11.7048 14.9003 12.2175 14.0927C12.7301 13.285 13.4741 12.6505 14.3525 12.2717C14.9695 11.9831 15.6444 11.8394 16.3255 11.8517C19.5255 11.8517 22.7195 11.8447 25.9165 11.8517C26.5573 11.8489 27.1922 11.9734 27.7844 12.218C28.3766 12.4626 28.9144 12.8224 29.3664 13.2764C29.8185 13.7305 30.1758 14.2699 30.4177 14.8632C30.6596 15.4566 30.7812 16.092 30.7755 16.7327C30.7755 19.9114 30.7755 23.0897 30.7755 26.2677C30.7856 27.2996 30.4651 28.3077 29.8611 29.1444C29.2571 29.9811 28.4011 30.6025 27.4185 30.9177C26.9278 31.077 26.4144 31.1557 25.8985 31.1507C22.7198 31.1507 19.5415 31.1507 16.3635 31.1507C15.3318 31.1615 14.3237 30.8418 13.4866 30.2385C12.6496 29.6352 12.0276 28.7799 11.7115 27.7977C11.5476 27.2884 11.4682 26.7557 11.4765 26.2207C11.4765 24.6441 11.4765 23.0674 11.4765 21.4907M21.1255 29.5307V29.5387C22.6955 29.5387 24.2665 29.5497 25.8365 29.5307C26.225 29.5329 26.6115 29.4752 26.9825 29.3597C27.6322 29.1481 28.1958 28.7316 28.589 28.1728C28.9822 27.6139 29.1837 26.9427 29.1635 26.2597C29.1675 23.0877 29.1675 19.9157 29.1635 16.7437C29.1665 16.4928 29.1417 16.2423 29.0895 15.9967C28.9364 15.2673 28.5324 14.6147 27.9476 14.1526C27.3629 13.6905 26.6346 13.4481 25.8895 13.4677C22.7175 13.4617 19.5455 13.4637 16.3735 13.4737C15.9976 13.4726 15.6239 13.5314 15.2665 13.6477C14.6199 13.8606 14.0592 14.2765 13.6679 14.8336C13.2765 15.3907 13.0754 16.0592 13.0945 16.7397C13.0898 19.9184 13.0898 23.0967 13.0945 26.2747C13.0965 26.4692 13.1112 26.6632 13.1385 26.8557C13.2538 27.5715 13.6099 28.2266 14.1479 28.7126C14.686 29.1986 15.3737 29.4865 16.0975 29.5287C17.7745 29.5527 19.4515 29.5347 21.1285 29.5347" fill="#EDEAFD"/>
<path d="M21.1235 16.6753C22.0785 16.6734 23.0125 16.9548 23.8074 17.4841C24.6024 18.0133 25.2223 18.7665 25.5889 19.6483C25.9554 20.5302 26.0521 21.5009 25.8665 22.4377C25.681 23.3745 25.2217 24.2352 24.5467 24.9107C23.8717 25.5863 23.0114 26.0463 22.0748 26.2326C21.1382 26.4189 20.1673 26.3231 19.2852 25.9573C18.4031 25.5915 17.6493 24.9721 17.1194 24.1776C16.5895 23.3832 16.3073 22.4493 16.3085 21.4943C16.3124 20.2173 16.8214 18.9937 17.7242 18.0905C18.627 17.1873 19.8504 16.6778 21.1275 16.6733M21.1345 24.7103C21.77 24.7103 22.3913 24.5218 22.9196 24.1686C23.4479 23.8154 23.8596 23.3134 24.1025 22.7261C24.3455 22.1389 24.4087 21.4927 24.2843 20.8695C24.1599 20.2463 23.8534 19.674 23.4036 19.225C22.9538 18.776 22.3809 18.4706 21.7574 18.3473C21.134 18.2241 20.4879 18.2885 19.9011 18.5326C19.3143 18.7766 18.8131 19.1892 18.4609 19.7182C18.1087 20.2472 17.9213 20.8688 17.9225 21.5043C17.9225 21.9259 18.0056 22.3433 18.1671 22.7326C18.3286 23.122 18.5653 23.4757 18.8636 23.7735C19.162 24.0712 19.5161 24.3073 19.9058 24.468C20.2954 24.6288 20.7129 24.7111 21.1345 24.7103Z" fill="#EDEAFD"/>
<path d="M26.3515 17.4734C26.0323 17.472 25.7268 17.3438 25.5021 17.117C25.2775 16.8903 25.1521 16.5836 25.1535 16.2644C25.155 15.9452 25.2832 15.6397 25.5099 15.415C25.7366 15.1904 26.0433 15.065 26.3625 15.0664C26.6817 15.0679 26.9872 15.1961 27.2119 15.4228C27.4366 15.6495 27.562 15.9562 27.5605 16.2754C27.5591 16.5946 27.4309 16.9001 27.2041 17.1248C26.9774 17.3495 26.6707 17.4749 26.3515 17.4734Z" fill="#EDEAFD"/>
</g>
</g>
<defs>
<clipPath id="clip0_142_2120">
<rect width="42.087" height="42.085" fill="white" transform="translate(0.0834961 0.45752)"/>
</clipPath>
</defs>
</svg>
