<svg width="148" height="74" viewBox="0 0 148 74" fill="none" xmlns="http://www.w3.org/2000/svg">
<g clip-path="url(#clip0_142_1773)">
<path d="M75.4819 4.41504e-05C89.989 0.159898 105.601 2.27796 120.506 8.26018C127.905 11.2298 134.813 15.0294 140.474 20.7626C144.344 24.6821 147.159 29.1764 147.857 34.7775C148.419 39.2872 147.304 43.4157 145.054 47.2799C142.31 51.9894 138.384 55.5738 133.93 58.6141C125.633 64.2797 116.398 67.818 106.678 70.0867C82.0286 75.8414 57.5302 75.3834 33.3064 67.7842C25.0158 65.1835 17.2437 61.47 10.4933 55.8874C7.54555 53.4496 4.94662 50.6921 3.02057 47.3659C-1.0445 40.357 -0.992025 33.3449 3.12243 26.3851C5.40035 22.5302 8.53944 19.4407 12.0983 16.7632C20.3179 10.5781 29.6982 6.8922 39.5506 4.27921C50.3229 1.42643 62.2342 -0.00917818 75.4819 4.41504e-05ZM74.0158 69.475C82.5286 69.5057 90.9551 68.7064 99.2859 66.9634C108.7 64.996 117.738 62.0141 125.902 56.8065C130.229 54.046 134.09 50.769 136.754 46.3023C140.443 40.1141 140.446 33.886 136.785 27.6824C134.8 24.3163 132.066 21.6264 128.976 19.2809C122.926 14.6912 116.102 11.6202 108.876 9.45908C88.7636 3.44305 68.4074 2.94504 47.9061 7.17195C38.5876 9.09326 29.692 12.1981 21.6637 17.4272C17.8024 19.9418 14.3608 22.9175 11.7896 26.7909C9.85433 29.7083 8.62895 32.8746 8.53018 36.4067C8.36658 42.2844 11.0026 46.9694 14.9503 51.0457C19.4506 55.6937 24.9417 58.8939 30.8402 61.4177C44.6219 67.3139 59.1352 69.3889 74.0158 69.478V69.475Z" fill="white"/>
<path d="M26.8008 20.4699V18.2781C29.6003 18.2781 32.3104 18.2781 35.0204 18.2781C37.6235 18.2781 38.925 19.5743 38.925 22.1668C38.925 24.6231 38.9188 27.0823 38.9281 29.5386C38.9281 30.0857 38.9867 30.6299 39.0423 31.6382C39.7028 30.8573 40.1133 30.4393 40.4436 29.9689C42.9345 26.3937 45.4285 22.8247 47.8731 19.2188C48.4534 18.3642 49.117 17.9891 50.1603 18.0106C52.8827 18.0629 55.6081 18.0229 58.3336 18.0352C58.775 18.0352 59.2195 18.1152 59.9479 18.1859C59.5806 18.8991 59.3676 19.4401 59.0528 19.9135C55.8427 24.7306 52.645 29.5601 49.367 34.3311C48.6756 35.3394 48.654 36.0219 49.3824 37.024C53.2592 42.3791 57.0681 47.7834 60.8616 53.1969C61.2134 53.698 61.3029 54.3804 61.5128 54.9768C60.8986 55.1275 60.2874 55.4011 59.6701 55.4133C56.9971 55.4625 54.3241 55.4041 51.6511 55.4472C50.5708 55.4656 49.8454 55.0875 49.2127 54.1898C46.1971 49.9199 43.1259 45.6899 40.0609 41.4538C39.7244 40.9896 39.317 40.5777 38.9435 40.1442C38.8139 40.1903 38.6873 40.2334 38.5577 40.2795C38.5176 40.8052 38.4404 41.3308 38.4373 41.8596C38.4281 45.9051 38.391 49.9507 38.4558 53.9931C38.4774 55.2719 38.0391 55.7208 36.7675 55.6808C34.5605 55.6101 32.3443 55.5978 30.1374 55.6839C28.7577 55.7392 28.2793 55.3303 28.2885 53.8732C28.3503 43.2768 28.3194 32.6772 28.3225 22.0808C28.3225 21.1216 28.4274 20.0887 26.8039 20.473L26.8008 20.4699Z" fill="white"/>
<path d="M104.191 31.4073C103.383 33.8758 102.571 36.3443 101.768 38.8159C100.126 43.8789 98.4564 48.9297 96.8822 54.0143C96.4933 55.2685 95.8636 55.7174 94.5704 55.6835C91.7585 55.6067 88.9435 55.6589 85.8105 55.6589C86.0822 54.5738 86.2211 53.793 86.4742 53.049C89.9127 42.9229 93.3666 32.7999 96.8143 22.6768C97.5273 20.5833 97.444 20.4512 95.1784 20.1099V18.1579C95.5828 18.1148 95.9779 18.0318 96.3729 18.0318C100.487 18.0226 104.602 18.0318 108.716 18.0195C109.522 18.0195 110.167 18.0533 110.494 19.0432C114.464 30.9861 118.473 42.9168 122.467 54.8535C122.51 54.9857 122.473 55.1456 122.473 55.4929C121.915 55.5483 121.381 55.6436 120.847 55.6497C118.686 55.6682 116.522 55.5882 114.368 55.6835C113.001 55.745 112.368 55.2316 111.96 53.9344C109.75 46.9069 107.457 39.9041 105.188 32.8921C105.022 32.3756 104.815 31.8745 104.63 31.3642L104.194 31.4042L104.191 31.4073Z" fill="white"/>
<path d="M66.9015 20.1608V18.3932C67.488 18.3532 68.0343 18.2886 68.5776 18.2886C71.4018 18.2794 74.2291 18.3593 77.0503 18.2548C78.5874 18.1964 79.0936 18.6575 79.0844 20.2315C79.0165 29.131 79.0504 38.0337 79.0504 46.9332C79.0504 49.3372 79.0134 51.7411 79.0628 54.1451C79.0875 55.2579 78.6893 55.7036 77.5442 55.676C75.2354 55.6206 72.9173 55.5838 70.6116 55.6883C69.1455 55.7559 68.6732 55.2948 68.6825 53.7946C68.7411 43.3088 68.6979 32.82 68.7319 22.3342C68.735 21.043 68.5621 20.0747 66.8984 20.1577L66.9015 20.1608Z" fill="white"/>
</g>
<defs>
<clipPath id="clip0_142_1773">
<rect width="148" height="74" fill="white"/>
</clipPath>
</defs>
</svg>
