<svg width="106" height="106" viewBox="0 0 106 106" fill="none" xmlns="http://www.w3.org/2000/svg">
<rect width="106" height="106" rx="53" fill="#C1FFC1"/>
<g clip-path="url(#clip0_142_1318)">
<path d="M21 33.5L59.5 33L79 44V74.5L78.5 77L76 78.5H22L19.5 77L18.5 74.5V38L19 35L21 33.5Z" fill="#E1DDFC"/>
<path d="M56.5 25.5C63.7 24.7 69.1667 20.8333 71 19C77.8 23.8 83.8333 25.3333 86 25.5C86 28.8333 85.9 36.6 85.5 41C83 50.5 75.5 54 71 56C59.8 51.2 56.6667 42 56.5 38V25.5Z" fill="white"/>
<path d="M23.1351 79C20.055 79 19.1252 78.395 18 75.6078V35.9148C18.0805 35.7396 18.1544 35.5611 18.2267 35.3891C18.4107 34.9494 18.5848 34.5328 18.8296 34.184C19.5885 33.0979 20.6809 32.5226 21.9885 32.521C26.4993 32.5127 31.2763 32.5094 37.0192 32.5094C41.4643 32.5094 45.9078 32.5111 50.353 32.5144H50.7423C51.0955 32.5144 51.3846 32.6152 51.5587 32.7987C51.6951 32.9425 51.7608 33.1326 51.7509 33.3641C51.7246 34.0187 51.1333 34.1559 50.6421 34.1559C45.4364 34.1576 40.2307 34.1576 35.0266 34.1576H22.8723C20.4542 34.1576 19.6378 34.9676 19.6378 37.3696C19.6378 49.677 19.6378 61.9845 19.6378 74.2919C19.6378 76.4691 20.5232 77.3568 22.6932 77.3568H75.2875C77.4066 77.3568 78.3101 76.4559 78.3101 74.3415C78.3101 71.6254 78.3101 68.9094 78.3101 66.195V59.0122C78.3101 58.9394 78.3101 58.8683 78.3068 58.7956C78.3019 58.6088 78.2986 58.4336 78.3282 58.2881C78.4514 57.6748 78.8276 57.5954 79.1003 57.5888H79.1348C79.4107 57.5888 79.7935 57.6616 79.9298 58.298C79.9561 58.4203 79.9528 58.5757 79.9479 58.7394C79.9479 58.8039 79.9446 58.8683 79.9446 58.9328V61.672C79.9462 65.9503 79.9479 70.2302 79.9446 74.5085C79.943 77.3221 78.274 79.0017 75.483 79.0017C66.4383 79.0017 57.392 79.0017 48.3473 79.0017H23.1351V79Z" fill="#3D3362"/>
<path d="M71.1954 57.1342C71.0607 57.1342 70.944 57.1144 70.8734 57.0797C65.7991 54.5454 61.9355 51.3764 59.0591 47.3924C56.8069 44.273 56.1679 40.651 55.864 37.8457C55.4566 34.0981 55.4435 30.1471 55.8213 25.7696C55.9281 24.5282 55.9675 24.4868 57.2143 24.2868C62.4053 23.4503 67.0262 21.336 70.9506 18H71.5715C75.5255 21.3459 80.1464 23.4586 85.3094 24.2818C86.6055 24.4885 86.6318 24.5149 86.732 25.7382C87.1903 31.3588 87.0622 36.0421 86.3279 40.4807C85.6692 44.4664 83.6322 48.0123 80.1004 51.3235C77.6758 53.5966 74.9621 55.4861 72.0364 56.9392C71.7966 57.0582 71.4664 57.1359 71.1954 57.1359V57.1342ZM71.2578 20.192C70.9933 20.192 70.7387 20.2879 70.4561 20.4962C66.8685 23.1296 62.8028 24.9001 58.3708 25.7597C57.6858 25.892 57.3622 26.2639 57.3228 26.9632C57.0616 31.4911 57.1207 34.9444 57.5149 38.1598C57.8106 40.5717 58.3396 43.377 60.0102 45.898C62.3987 49.5018 65.7892 52.4443 70.6796 55.1604C70.8241 55.2414 70.9999 55.2811 71.2003 55.2811C71.473 55.2811 71.7884 55.2017 72.0233 55.0744C74.6253 53.6643 76.9432 52.0046 78.9128 50.1415C80.7789 48.376 83.0557 45.9162 84.1004 42.5537C85.2585 38.8293 85.3029 35.0717 85.1928 31.8862C85.1928 31.4349 85.1928 30.9852 85.1895 30.5339C85.1862 29.39 85.183 28.2063 85.201 27.0442C85.2175 26.0804 84.5899 25.8457 84.1168 25.7531C79.7013 24.8852 75.6586 23.1247 72.1005 20.5227C71.8771 20.359 71.6011 20.192 71.2578 20.192Z" fill="#3D3362"/>
<path d="M38.3395 71.0964C35.5091 71.0964 32.6689 71.0898 29.896 71.075C27.703 71.0634 25.9651 69.2929 25.855 66.9554C25.6267 62.158 28.3782 58.1112 32.8628 56.6449L33.6168 56.3986L33.0632 55.8266C31.3301 54.0379 30.4316 51.9104 30.4677 49.6721C30.5005 47.561 31.4073 45.4417 32.8923 44.0035C34.3954 42.5471 36.3863 41.7454 38.4972 41.7454C40.4175 41.7454 42.2721 42.4248 43.721 43.6613C45.3144 45.0202 46.3773 47.2172 46.4955 49.396C46.6204 51.7054 45.73 53.9387 43.9231 55.8564L43.3842 56.4267L44.1284 56.6697C46.2081 57.3475 47.8228 58.4633 49.0664 60.0817C50.6713 62.1696 51.3415 64.6592 51.0606 67.4811C50.8585 69.5194 49.1534 71.0634 47.0951 71.0733C44.158 71.0882 41.2142 71.0948 38.3412 71.0948L38.3395 71.0964ZM40.912 69.4417C41.7153 69.4417 42.5202 69.4417 43.3235 69.4417C44.5013 69.4417 45.6791 69.4417 46.8569 69.4351C48.2631 69.4285 49.2799 68.5622 49.4475 67.2265C50.006 62.7713 46.9588 58.665 42.6549 58.0715C41.3949 57.898 40.1284 57.8765 39.1642 57.8765C38.673 57.8765 38.1818 57.8831 37.6906 57.8897C37.2044 57.8963 36.7182 57.9029 36.2336 57.9029H36.1137C33.5905 57.9029 31.4303 58.7394 29.8681 60.3231C28.3043 61.9068 27.4878 64.0872 27.5043 66.6264C27.5174 68.4614 28.4866 69.4351 30.3116 69.4384C31.404 69.44 32.4964 69.4417 33.5888 69.4417H38.5021C39.3054 69.44 40.1087 69.4417 40.912 69.4417ZM38.5104 43.3886C34.9785 43.3886 32.1005 46.2716 32.094 49.8175C32.0907 51.5235 32.7543 53.1353 33.9617 54.3537C35.1691 55.5737 36.7675 56.2448 38.4627 56.2482C41.9847 56.2482 44.8578 53.385 44.8742 49.8638C44.8906 46.3146 42.0537 43.4101 38.5498 43.3886H38.5104Z" fill="#3D3362"/>
<path d="M64.6985 71.0882C62.6238 71.0882 60.5474 71.0882 58.4727 71.0849C58.0505 71.0849 57.7154 70.9807 57.5314 70.7939C57.4016 70.6617 57.3392 70.4865 57.3409 70.2583C57.3441 69.7194 57.7302 69.445 58.4891 69.4417C59.3564 69.44 60.2221 69.4384 61.0895 69.4384H64.7149H68.3354C69.2044 69.4384 70.0718 69.4384 70.9408 69.4417C71.3662 69.4417 71.7013 69.5458 71.8853 69.7343C72.0135 69.8649 72.0759 70.0401 72.0742 70.2682C72.0709 70.8105 71.6849 71.0849 70.926 71.0865C68.8513 71.0882 66.7749 71.0898 64.7002 71.0898L64.6985 71.0882Z" fill="#3D3362"/>
<path d="M62.084 63.1764C60.8552 63.1764 59.6265 63.1747 58.3994 63.1698C58.0035 63.1698 57.3398 63.0606 57.3398 62.3498C57.3398 61.6803 57.9164 61.5348 58.401 61.5299C58.8922 61.5266 59.385 61.5249 59.8762 61.5249C60.2441 61.5249 61.716 61.5282 62.084 61.5282C62.4519 61.5282 63.9353 61.5249 64.3049 61.5249C64.7928 61.5249 65.279 61.5249 65.7653 61.5299C66.1628 61.5332 66.8281 61.6439 66.8281 62.3498C66.8281 63.0871 66.0872 63.1698 65.7685 63.1698C64.5398 63.1747 63.3111 63.1764 62.084 63.1764Z" fill="#3D3362"/>
<path d="M69.7373 43.4067C69.5171 43.4067 69.2116 43.1968 68.7434 42.7257L67.7923 41.7685C66.2941 40.2625 64.796 38.7565 63.3011 37.2489C62.488 36.4273 62.8543 36.0405 63.0301 35.8537C63.1894 35.685 63.3586 35.604 63.5492 35.604C63.8235 35.604 64.1488 35.7793 64.4625 36.0967C65.6026 37.2456 66.7393 38.3995 67.8958 39.5748L69.7126 41.418C69.7126 41.418 75.835 35.2651 77.8095 33.2831C77.8604 33.2318 77.9097 33.1806 77.9606 33.1277C78.0937 32.9888 78.2185 32.8599 78.3499 32.7607C78.5405 32.6168 78.7212 32.5441 78.8871 32.5441C79.0645 32.5441 79.2419 32.6301 79.416 32.8003C79.6214 33.002 79.853 33.3343 79.4867 33.8898C79.421 33.9889 79.3175 34.0914 79.2074 34.1989C79.1729 34.2319 79.1401 34.265 79.1072 34.2981L78.9972 34.4088C76.2358 37.1894 73.4744 39.9683 70.7097 42.7455C70.2563 43.2018 69.9574 43.4051 69.7405 43.4051L69.7373 43.4067Z" fill="#3D3362"/>
</g>
<defs>
<clipPath id="clip0_142_1318">
<rect width="69" height="61" fill="white" transform="translate(18 18)"/>
</clipPath>
</defs>
</svg>
