<svg width="110" height="72" viewBox="0 0 110 72" fill="none" xmlns="http://www.w3.org/2000/svg">
<g clip-path="url(#clip0_142_1759)">
<path d="M0.000330628 62.0462C0.0423204 61.9006 0.104809 61.7573 0.123324 61.6087C0.56868 58.0465 3.19817 54.9767 6.69357 54.252C10.0336 53.5597 12.7824 54.6542 14.9583 57.2649C15.3484 57.7333 15.6572 58.2581 15.9512 58.8391C15.073 59.4951 14.1902 60.1438 13.2589 60.7702C13.1894 60.6236 13.1378 60.5149 13.0863 60.4063C12.3992 58.964 11.3072 57.9942 9.76147 57.5944C7.10586 56.9077 4.37157 58.4859 3.54103 61.162C2.6437 64.0535 4.30246 67.1477 7.16835 67.9283C9.43381 68.5453 11.8606 67.4502 12.9702 65.3092C13.041 65.1726 13.1107 65.035 13.2007 64.8598C14.1029 65.5078 14.987 66.1428 15.8867 66.7892C15.8503 66.8801 15.8282 66.9641 15.7865 67.0367C14.4154 69.4412 12.3966 70.9192 9.66393 71.3769C9.48175 71.4076 9.30322 71.4582 9.12269 71.4995H7.80051C7.54427 71.4492 7.28837 71.3956 7.03147 71.3493C3.57971 70.7309 0.763751 67.8457 0.190772 64.3447C0.141178 64.0422 0.0641419 63.744 0 63.4438C0 62.9777 0 62.5116 0 62.0459L0.000330628 62.0462Z" fill="white"/>
<path d="M110.001 71.1667C109.87 71.1584 109.738 71.1431 109.608 71.1431C105.763 71.1417 101.918 71.1421 98.0729 71.1421C97.9311 71.1421 97.7896 71.1421 97.657 71.1421C97.575 70.8819 97.5591 54.5929 97.6349 54.2188H100.885C100.885 56.488 100.885 58.7372 100.885 60.9867C100.885 63.2363 100.885 65.4849 100.885 67.7714H110.001V71.1667Z" fill="white"/>
<path d="M83.6013 34.5939C85.971 35.8243 88.3049 37.0361 90.655 38.2565C90.5974 38.3714 90.564 38.4517 90.5194 38.525C86.6815 44.8352 81.1997 48.8432 74.0125 50.4424C71.8383 50.9262 69.6283 51.0575 67.4085 50.9132C63.7286 50.674 60.2633 49.6738 57.04 47.8574C56.8112 47.7285 56.6475 47.7221 56.4131 47.8544C53.7823 49.3383 50.9713 50.3158 47.9831 50.7066C40.6716 51.6628 34.1483 49.7804 28.4476 45.0668C26.2479 43.248 24.444 41.0767 22.9797 38.6193C22.9288 38.5336 22.8792 38.447 22.8316 38.3597C22.822 38.3417 22.8233 38.3178 22.813 38.2565C25.1331 37.0227 27.4782 35.8127 29.8442 34.6053C32.3781 38.6406 35.897 41.3109 40.5007 42.4637C43.8569 43.3043 47.2815 42.9685 50.0148 42.0226C46.0648 37.3129 44.0004 31.8866 43.9977 25.7283C43.9947 19.581 46.0317 14.1517 49.9325 9.42667C47.4148 8.38851 42.7569 7.92008 38.4637 9.60125C34.6836 11.0815 31.7741 13.6003 29.6785 17.1222C27.3238 15.8948 24.9823 14.6747 22.6094 13.438C22.8243 13.0765 23.0167 12.7324 23.2283 12.4005C26.9971 6.49545 32.2604 2.70765 39.0522 1.09944C41.1332 0.606683 43.2502 0.44976 45.384 0.524723C49.3179 0.662988 53.0047 1.69448 56.4293 3.65218C56.6552 3.78145 56.8086 3.76746 57.0231 3.64452C59.5855 2.17591 62.3297 1.23837 65.2429 0.782929C66.9939 0.509064 68.7545 0.439099 70.5154 0.551044C75.327 0.857226 79.6963 2.44044 83.6086 5.28071C86.575 7.43432 88.9483 10.1287 90.7657 13.3221C90.7819 13.3507 90.7932 13.3824 90.8213 13.445C88.4794 14.6658 86.1369 15.8868 83.7789 17.1162C81.0072 12.5774 77.0731 9.70919 71.8555 8.74534C69.0349 8.22426 66.2463 8.45548 63.4826 9.38802C67.4138 14.1513 69.4557 19.5897 69.4478 25.747C69.4399 31.8943 67.383 37.3129 63.4119 42.0403C67.269 43.2587 71.0596 43.2826 74.8222 41.8877C78.5745 40.4967 81.4665 38.0319 83.601 34.5943L83.6013 34.5939ZM56.7243 13.9401C50.3597 20.226 50.3702 31.129 56.7216 37.6184C63.0161 31.2056 63.1434 20.3033 56.7243 13.9401Z" fill="white"/>
<path d="M70.8847 64.2454V54.2203H74.1232V71.1197C74.0207 71.1283 73.9258 71.143 73.831 71.1433C73.17 71.1453 72.5088 71.137 71.8478 71.1487C71.629 71.1523 71.4904 71.0887 71.3572 70.9008C69.5949 68.4203 67.8221 65.9479 66.0523 63.4725C64.9132 61.8792 63.7759 60.2854 62.6365 58.6925C62.586 58.6218 62.5274 58.5572 62.4408 58.4942C62.3998 59.8866 62.4091 61.2755 62.4074 62.6642C62.4058 64.0732 62.4071 65.4825 62.4071 66.8914C62.4071 68.3004 62.4071 69.6857 62.4071 71.076C62.1545 71.161 59.4741 71.1743 59.1289 71.095V54.219C59.2529 54.2127 59.3597 54.202 59.4668 54.202C60.7668 54.201 62.0669 54.208 63.3666 54.1954C63.6059 54.193 63.7415 54.2773 63.8757 54.4682C66.0986 57.626 68.3283 60.7788 70.5571 63.9326C70.6381 64.0472 70.7221 64.1594 70.8047 64.2731C70.8315 64.2641 70.8579 64.2547 70.8847 64.2457V64.2454Z" fill="white"/>
<path d="M56.4843 71.1248C56.3335 71.1328 56.237 71.1424 56.1408 71.1424C55.0613 71.1434 53.9818 71.1364 52.9026 71.1488C52.6814 71.1511 52.571 71.0838 52.4817 70.8779C52.0989 69.9943 51.6975 69.1188 51.3024 68.2405C51.2346 68.0896 51.1628 67.9403 51.0904 67.7841H42.3962C41.9013 68.8909 41.4017 70.0087 40.9031 71.1234H37.0096C39.4963 65.4679 41.9668 59.849 44.4504 54.2001C44.5688 54.2001 44.6872 54.2001 44.8055 54.2001C46.0831 54.2001 47.361 54.2088 48.6385 54.1935C48.9099 54.1901 49.0405 54.2741 49.1513 54.5256C51.0296 58.7905 52.9185 63.0508 54.8054 67.312C55.3162 68.4658 55.8277 69.6195 56.3382 70.7736C56.3821 70.8732 56.4225 70.9748 56.4846 71.1248H56.4843ZM43.8834 64.3641H49.7243C48.7304 62.1262 47.7597 59.917 46.7714 57.7157C46.7473 57.7181 46.7232 57.7204 46.699 57.723C45.764 59.9286 44.829 62.1342 43.8834 64.3641Z" fill="white"/>
<path d="M80.1005 54.2191H91.7938V57.6321C91.0879 57.6364 90.387 57.6334 89.6861 57.6341C88.9812 57.6347 88.2763 57.6341 87.5714 57.6341H85.4897C84.7878 57.6341 84.0856 57.6341 83.3635 57.6341V60.9904C83.7311 61.0134 84.1018 60.9981 84.4711 61.0007C84.8344 61.0034 85.1981 61.0014 85.5615 61.0014H91.0998C91.1775 61.2643 91.2036 63.6694 91.1398 64.3764C90.7775 64.3984 90.4072 64.3837 90.0382 64.3864C89.6748 64.3891 89.3111 64.3871 88.9478 64.3871H83.4091C83.3281 64.6479 83.2993 66.9961 83.3611 67.7151C83.3697 67.7244 83.3767 67.7328 83.3846 67.7401C83.3926 67.7478 83.4005 67.7564 83.4104 67.7607C83.42 67.7651 83.4319 67.7651 83.4428 67.7661C83.4646 67.7681 83.4868 67.7704 83.5086 67.7711C83.5417 67.7721 83.5747 67.7721 83.6078 67.7721C86.6919 67.7727 89.7757 67.7734 92.8598 67.7741C92.8816 67.7741 92.9034 67.7787 92.9249 67.7821C92.9355 67.7837 92.9457 67.7877 92.956 67.7907C93.0208 68.0203 93.0406 70.6577 92.9775 71.1198H80.1134C80.0443 70.8702 80.0311 54.5892 80.1015 54.2188L80.1005 54.2191Z" fill="white"/>
<path d="M34.3613 71.1254H31.1295V63.7234H22.6244V71.0771C22.3569 71.1577 19.7436 71.1687 19.3984 71.0948V54.2217H22.6088C22.6277 54.6139 22.6151 55.0087 22.6174 55.4028C22.6197 55.8023 22.6181 56.2014 22.6181 56.6009V59.0304C22.6181 59.4292 22.6181 59.828 22.6181 60.2708C23.3303 60.3197 24.0295 60.2861 24.7272 60.2921C25.443 60.2984 26.1588 60.2938 26.8746 60.2941C27.5795 60.2941 28.2844 60.2941 28.989 60.2941H31.1245V54.2188H34.361V71.1251L34.3613 71.1254Z" fill="white"/>
</g>
<defs>
<clipPath id="clip0_142_1759">
<rect width="110" height="71" fill="white" transform="translate(0 0.5)"/>
</clipPath>
</defs>
</svg>
