<svg width="89" height="60" viewBox="0 0 89 60" fill="none" xmlns="http://www.w3.org/2000/svg">
<g clip-path="url(#clip0_142_1748)">
<path d="M15.3292 35.1573C15.8782 31.4358 16.4453 27.7188 16.9764 23.9973C18.0385 16.5857 19.1052 9.174 20.1268 1.75339C20.2753 0.679887 20.4734 0 21.8236 0C43.3321 0.0447294 64.8406 0.0492023 86.3536 0.0670941C86.4886 0.0670941 86.6282 0.156553 87.1007 0.326525C86.4526 3.42627 85.8721 6.59311 85.0439 9.69733C84.9224 10.1491 83.6307 10.5338 82.8746 10.5382C75.9302 10.6009 68.9812 10.574 62.0367 10.574C51.6538 10.574 41.2753 10.6098 30.8923 10.5382C29.1956 10.5248 28.453 10.8782 28.138 12.7255C25.6041 27.5578 22.9082 42.3677 20.3564 57.1955C20.0818 58.7968 19.5057 59.3648 17.917 59.2083C16.7334 59.0875 15.5272 59.1859 14.3345 59.1859C10.1939 59.1859 10.2074 59.1859 9.52334 55.2363C6.49441 37.7113 3.44748 20.1819 0.409558 2.65245C0.274539 1.86969 0.166523 1.08692 0 0.0357835C3.04243 0.0357835 5.86882 -0.0402565 8.68172 0.111823C9.12728 0.134188 9.80238 1.12718 9.89689 1.74445C11.2741 10.6859 12.5658 19.6362 13.8844 28.5821C14.2085 30.7783 14.5415 32.97 14.8701 35.1662C15.0231 35.1662 15.1761 35.1618 15.3292 35.1573Z" fill="white"/>
<path d="M30.4648 53.1573C30.1542 55.1254 29.8572 57.013 29.5376 59.0303H22.9082C25.5501 43.8983 28.1604 28.9676 30.7753 14.0057H38.4354C40.7442 27.25 43.053 40.4855 45.3574 53.7254C45.4834 53.7164 45.6094 53.7075 45.7399 53.6985V13.9386C48.0082 13.9386 50.074 13.8267 52.1083 14.0191C52.6214 14.0683 53.2515 15.0166 53.4765 15.6696C55.4478 21.4218 57.338 27.2008 59.2598 32.9709C59.5163 33.7358 59.7999 34.4962 60.4705 35.2387V14.0772H67.2529V59.1734C65.3042 59.1734 63.3869 59.2986 61.5056 59.0929C60.9836 59.0347 60.3715 58.0552 60.1419 57.3842C57.8556 50.6435 55.6413 43.8759 53.409 37.1218C53.319 36.8534 53.211 36.5895 52.7294 36.3435V59.1734C48.4583 59.1734 44.4617 59.2092 40.4742 59.1108C40.1006 59.1018 39.5605 58.2788 39.421 57.751C39.034 56.2615 38.8224 54.7273 38.5299 53.1618H30.4648V53.1573ZM34.8529 28.0328C34.6909 28.0373 34.5288 28.0417 34.3668 28.0462C33.5927 33.0962 32.8141 38.1416 32.0265 43.2632H37.2112C36.4056 38.0611 35.6315 33.047 34.8529 28.0283V28.0328Z" fill="white"/>
<path d="M87.948 26.5683H81.8181C81.5841 25.9824 81.3771 25.2891 81.044 24.6539C80.2834 23.2002 79.1358 22.1804 77.439 22.9408C75.7603 23.6922 75.1797 25.3785 76.0348 26.8635C76.7999 28.1875 78.1186 29.3728 79.4643 30.1601C87.966 35.134 91.2515 44.3438 87.3944 53.1331C86.6923 54.7299 85.6617 56.291 84.4375 57.5255C81.008 60.9876 75.4947 60.7863 72.2813 57.1408C69.3874 53.8577 68.5233 49.8589 68.4062 45.4307H74.9187C75.3957 46.4863 75.7288 47.5643 76.3274 48.4723C77.1285 49.6845 78.2176 50.7714 79.8604 49.9797C81.4806 49.1969 82.5742 47.7343 81.8676 46.0032C81.2601 44.5137 80.0674 43.1808 78.8927 42.0178C77.7991 40.9354 76.3094 40.251 75.1212 39.2491C68.7483 33.8816 67.0561 24.9849 70.9671 17.6359C72.1553 15.3994 73.78 13.5565 76.3004 12.8409C79.2438 12.0089 81.9802 12.4696 84.0549 14.885C86.9038 18.2039 87.7635 22.1893 87.948 26.5728V26.5683Z" fill="white"/>
</g>
<defs>
<clipPath id="clip0_142_1748">
<rect width="89" height="60" fill="white"/>
</clipPath>
</defs>
</svg>
