<svg width="244" height="44" viewBox="0 0 244 44" fill="none" xmlns="http://www.w3.org/2000/svg">
<g clip-path="url(#clip0_142_1754)">
<path d="M42.1965 2.93327C43.0074 2.81695 46.6389 2.79868 47.6095 2.89093C47.8317 3.13561 47.7397 3.44626 47.7405 3.72971C47.7481 5.98665 47.745 8.24404 47.745 10.501C47.745 11.986 47.745 13.471 47.745 14.9556C47.745 15.2497 47.745 15.5443 47.745 15.8269C47.6122 15.8897 47.5356 15.9579 47.4586 15.9584C45.809 15.9646 44.1595 15.9628 42.4555 15.9628C42.3913 15.7338 42.3041 15.5185 42.2722 15.2952C42.0655 13.8276 41.3906 12.6037 40.3739 11.555C39.4984 10.6516 38.4632 9.97507 37.3479 9.41574C35.7023 8.58989 33.958 8.05373 32.1708 7.64905C28.4029 6.79601 24.5833 6.58877 20.7406 6.79334C18.9153 6.8905 17.1002 7.12359 15.3347 7.64237C14.5686 7.86744 13.8241 8.14643 13.1288 8.54443C12.6127 8.83992 12.1413 9.19424 11.7638 9.66176C11.3429 10.1828 11.0946 10.7679 11.0587 11.4494C11.0247 12.0939 11.2575 12.6055 11.7284 13.0236C12.1555 13.4028 12.6508 13.6805 13.1859 13.8445C14.0861 14.1204 14.9943 14.3887 15.9167 14.5692C17.8274 14.9427 19.7656 15.1258 21.7011 15.3282C24.9551 15.6682 28.213 15.9882 31.4564 16.4134C34.5851 16.8235 37.6771 17.4483 40.6634 18.5157C42.1394 19.0434 43.5628 19.6852 44.8862 20.536C46.0117 21.2598 47.031 22.107 47.8707 23.1615C49.1843 24.8119 49.8925 26.6976 50.0301 28.8025C50.1102 30.0233 50.0642 31.2351 49.7482 32.4264C49.2719 34.2238 48.3327 35.7418 47.0218 37.037C45.9821 38.0643 44.7933 38.8835 43.5111 39.5707C41.522 40.6372 39.4099 41.3668 37.2297 41.9186C33.9845 42.74 30.685 43.1411 27.346 43.248C25.9243 43.2935 24.5169 43.1139 23.1218 42.8821C18.9021 42.1811 14.7456 41.1957 10.6502 39.9522C10.0027 39.7557 9.35739 39.5618 8.76254 39.2115C8.2925 38.9352 7.74943 38.9565 7.16077 38.9664C7.12226 39.1843 7.06605 39.375 7.05897 39.5676C7.0395 40.1251 7.0395 40.6831 7.03153 41.291C6.45704 41.3886 5.92946 41.3343 5.40719 41.3432C4.87651 41.3521 4.34539 41.345 3.81471 41.345C3.31325 41.345 2.81178 41.353 2.31076 41.3427C1.78805 41.332 1.26003 41.394 0.713859 41.2901C0.689516 41.1391 0.655436 41.0272 0.655436 40.9149C0.652781 36.1358 0.653223 31.3563 0.653223 26.5469C0.863458 26.5015 1.02943 26.4355 1.19585 26.4351C2.87685 26.4275 4.55784 26.4297 6.23928 26.4324C6.35524 26.4324 6.4712 26.4587 6.63363 26.4783C6.68232 26.6699 6.75933 26.8616 6.77704 27.0586C6.93637 28.8221 7.71535 30.2853 8.9055 31.5511C9.78583 32.487 10.8189 33.2219 11.9347 33.8423C13.9117 34.9418 16.034 35.6469 18.2267 36.1447C22.1083 37.0254 26.0412 37.2906 30.0051 37.0267C31.8344 36.9051 33.6247 36.5365 35.3305 35.8229C36.2896 35.4218 37.1836 34.9129 37.9781 34.2341C38.5225 33.7692 38.9784 33.23 39.3497 32.6149C39.5808 32.2325 39.6135 31.8457 39.4847 31.4214C39.2971 30.8028 38.9372 30.3107 38.4552 29.898C37.9095 29.4309 37.2815 29.1087 36.6246 28.8346C35.4487 28.3439 34.2191 28.0391 32.9763 27.7873C30.9523 27.3768 28.9061 27.1156 26.8573 26.8678C23.5215 26.464 20.1825 26.0799 16.8559 25.6074C14.0246 25.2054 11.223 24.63 8.50893 23.6897C7.11164 23.2056 5.7595 22.6231 4.50119 21.8361C3.59518 21.2691 2.76177 20.6109 2.05317 19.8024C0.484593 18.0103 -0.12708 15.9013 0.0216333 13.545C0.187608 10.9159 1.36891 8.78465 3.22561 6.99612C4.69062 5.58509 6.40083 4.54397 8.22744 3.68247C10.6436 2.5433 13.1819 1.78252 15.7897 1.26151C18.6321 0.693713 21.5037 0.403573 24.4062 0.52881C26.9472 0.638448 29.4501 1.0302 31.9211 1.61984C34.332 2.19522 36.6981 2.92213 38.9868 3.8857C39.6104 4.14821 40.2093 4.47177 40.8271 4.74854C41.0369 4.84258 41.275 4.94331 41.4941 4.93127C42.0438 4.90141 42.2231 4.62776 42.201 4.21595C42.1788 3.80325 42.1961 3.38832 42.1961 2.93327H42.1965Z" fill="white"/>
<path d="M165.75 27.1874V11.5787C165.75 11.5194 165.75 11.4597 165.75 11.4004C165.739 10.2799 165.214 9.62656 164.122 9.42378C163.777 9.3596 163.418 9.35381 163.065 9.35202C161.679 9.34445 160.293 9.35202 158.907 9.34623C158.618 9.34489 158.315 9.40328 158.055 9.22812C157.96 8.38534 157.971 4.75435 158.075 4.01942C158.228 3.99446 158.395 3.9548 158.563 3.94321C158.768 3.92939 158.975 3.93875 159.182 3.93875C165.907 3.93875 172.632 3.93875 179.357 3.93964C179.705 3.93964 180.054 3.9539 180.425 3.96193C180.628 4.59301 180.517 5.18711 180.536 5.76873C180.555 6.33252 180.545 6.8972 180.54 7.46143C180.534 8.05018 180.568 8.64205 180.512 9.18311C180.179 9.41308 179.876 9.34445 179.588 9.34578C178.232 9.35247 176.875 9.344 175.518 9.35113C175.195 9.35292 174.868 9.36673 174.551 9.42333C173.944 9.53163 173.547 9.90824 173.38 10.5019C173.301 10.7849 173.263 11.084 173.241 11.3781C173.216 11.703 173.229 12.031 173.229 12.3577C173.229 21.7728 173.229 31.1878 173.229 40.6034V41.6939C173.045 41.7425 172.91 41.8085 172.776 41.8089C170.328 41.8165 167.88 41.8103 165.432 41.8232C165.076 41.825 164.819 41.6855 164.567 41.4582C163.537 40.5245 162.498 39.6006 161.462 38.6727C153.087 31.1727 144.712 23.6732 136.336 16.1741C136.119 15.9798 135.893 15.7957 135.688 15.621C135.455 15.6999 135.496 15.867 135.495 16.0039C135.489 16.5681 135.491 17.1323 135.491 17.6966C135.491 23.4289 135.491 29.1609 135.492 34.8933C135.492 35.1901 135.484 35.4882 135.507 35.7837C135.555 36.401 135.764 36.6105 136.394 36.6698C136.657 36.6947 136.924 36.6867 137.19 36.6871C138.841 36.6885 140.493 36.6867 142.145 36.6894C142.375 36.6894 142.606 36.7103 142.863 36.7228C143.014 37.156 142.932 37.5723 142.946 37.9774C142.961 38.3928 142.95 38.809 142.95 39.2249C142.95 39.6407 142.96 40.057 142.946 40.4723C142.933 40.8824 143.01 41.2995 142.88 41.7136C142.568 41.8874 142.237 41.8138 141.921 41.8143C137.88 41.8201 133.84 41.8183 129.799 41.8183C127.055 41.8183 124.313 41.8205 121.569 41.8152C121.253 41.8147 120.926 41.87 120.618 41.7416C120.58 41.6347 120.525 41.554 120.525 41.4729C120.519 39.9883 120.519 38.5033 120.525 37.0183C120.525 36.9363 120.577 36.8547 120.623 36.7201C120.904 36.7099 121.192 36.6903 121.48 36.6898C122.955 36.6867 124.43 36.6934 125.905 36.6862C127.139 36.6805 127.487 36.3342 127.488 35.0974C127.491 26.9298 127.491 18.7617 127.488 10.5941C127.487 9.37743 127.217 9.08952 126.004 8.96918C125.77 8.94601 125.532 8.95046 125.297 8.95046C123.999 8.94868 122.701 8.9518 121.403 8.94779C121.114 8.9469 120.826 8.92372 120.488 8.90901C120.379 8.34433 120.44 7.81263 120.43 7.28717C120.42 6.7528 120.428 6.21798 120.428 5.68316V4.05195C120.645 4.00783 120.809 3.94945 120.974 3.94544C121.505 3.93251 122.036 3.93964 122.567 3.93964C127.935 3.93964 133.303 3.93964 138.671 3.93964C138.877 3.93964 139.086 3.96014 139.29 3.93563C139.77 3.87858 140.125 4.07424 140.474 4.39558C142.325 6.09809 144.193 7.78144 146.055 9.47191C152.321 15.1588 158.586 20.8462 164.854 26.53C165.089 26.743 165.294 27.0047 165.752 27.1887L165.75 27.1874Z" fill="white"/>
<path d="M85.8912 0.523883C91.7849 0.585833 97.0483 1.57347 102.026 3.90216C105.185 5.37961 108.032 7.30763 110.435 9.86719C112.364 11.9222 113.877 14.2456 114.747 16.9455C116.165 21.3453 115.783 25.6159 113.677 29.7193C112.187 32.6216 110.04 34.9654 107.476 36.9358C104.391 39.3055 100.941 40.9354 97.2329 42.0406C94.8508 42.7511 92.4161 43.1812 89.9477 43.4263C89.479 43.4731 89.0054 43.4807 88.534 43.4829C87.2066 43.49 85.8784 43.5225 84.5528 43.4793C77.6018 43.2538 71.2067 41.2923 65.5347 37.1698C62.9956 35.3246 60.8852 33.0606 59.3308 30.3018C57.8446 27.6642 57.0616 24.8359 57.1116 21.7937C57.1546 19.1954 57.8101 16.7503 58.9971 14.447C60.4639 11.6013 62.5445 9.28157 65.043 7.3268C68.1071 4.92902 71.5475 3.27063 75.2494 2.15018C77.9399 1.33592 80.6894 0.828731 83.4972 0.660262C84.4386 0.603661 85.3805 0.552407 85.8908 0.523438L85.8912 0.523883ZM86.2852 7.43866C82.9524 7.36557 79.7214 8.33538 77.3216 9.63945C74.5607 11.1401 72.3021 13.1835 70.8353 16.006C68.779 19.9637 68.7635 23.9709 70.7472 27.9646C71.74 29.9626 73.1877 31.5961 74.9449 32.946C77.6075 34.9922 80.6247 36.1541 83.9434 36.557C87.4744 36.9857 90.8798 36.524 94.1386 35.088C97.0673 33.7977 99.4906 31.8697 101.257 29.1599C102.722 26.915 103.463 24.4402 103.395 21.7558C103.326 19.0077 102.428 16.5266 100.809 14.3138C99.4237 12.4196 97.6865 10.927 95.6466 9.79321C92.7754 8.19766 89.695 7.41995 86.2847 7.43866H86.2852Z" fill="white"/>
<path d="M211.614 3.95492C211.76 4.69386 211.792 8.10913 211.674 9.25231C211.501 9.28975 211.31 9.36329 211.117 9.36685C210.351 9.38111 209.584 9.37443 208.817 9.37398C208.67 9.37398 208.522 9.35437 208.376 9.36373C207.806 9.40028 207.564 9.7127 207.727 10.2533C207.802 10.502 207.94 10.7418 208.094 10.9539C208.336 11.2891 208.603 11.6095 208.881 11.9157C211.467 14.7654 214.058 17.6107 216.645 20.459C216.744 20.5687 216.819 20.701 216.891 20.8022C217.296 20.7033 217.438 20.422 217.626 20.2143C219.755 17.8687 221.875 15.5159 224.001 13.1672C224.656 12.443 225.319 11.725 225.978 11.0038C226.118 10.851 226.267 10.7057 226.394 10.5426C226.743 10.0929 226.597 9.59816 226.057 9.4346C225.864 9.37666 225.65 9.37844 225.445 9.37666C224.679 9.37042 223.912 9.37933 223.145 9.37086C222.915 9.36819 222.687 9.32852 222.473 9.30713C222.318 8.59003 222.311 4.79369 222.462 3.99681C222.676 3.97854 222.903 3.94422 223.132 3.9411C230.661 3.83636 243.165 3.89742 243.916 4.04272C243.941 4.11492 243.992 4.19558 243.992 4.2767C243.999 5.82099 244.001 7.36484 244 8.90913C244 9.02189 243.96 9.1342 243.928 9.30758C243.627 9.32184 243.338 9.34635 243.05 9.34724C241.546 9.35125 240.041 9.36641 238.538 9.33966C238.022 9.33031 237.664 9.50635 237.314 9.8834C231.836 15.7829 226.342 21.6686 220.859 27.5641C220.15 28.3267 220.25 28.0205 220.247 29.1258C220.241 31.175 220.244 33.2238 220.246 35.2731C220.246 35.5107 220.245 35.7486 220.263 35.9853C220.294 36.3873 220.514 36.6525 220.902 36.7349C221.128 36.7831 221.367 36.7777 221.6 36.7777C223.488 36.7777 225.375 36.7724 227.263 36.7724C227.377 36.7724 227.491 36.8022 227.661 36.8254C227.819 37.3482 227.722 37.8804 227.738 38.4009C227.755 38.9054 227.742 39.4104 227.742 39.9153V41.5416C227.518 41.5831 227.352 41.6299 227.184 41.641C226.949 41.6566 226.712 41.6464 226.476 41.6464C218.573 41.6464 210.669 41.6464 202.765 41.6464H201.723C201.656 41.5234 201.58 41.4481 201.58 41.3727C201.573 39.8904 201.575 38.4085 201.575 36.9573C201.82 36.7029 202.099 36.7702 202.356 36.7688C203.86 36.7626 205.364 36.767 206.868 36.7639C207.133 36.7635 207.4 36.7635 207.663 36.7305C208.148 36.669 208.407 36.4283 208.501 35.9528C208.541 35.7513 208.542 35.5401 208.542 35.3328C208.545 33.0166 208.536 30.6999 208.55 28.3837C208.552 27.9697 208.43 27.6568 208.149 27.3515C206.806 25.8928 205.483 24.4145 204.152 22.9446C200.257 18.6446 196.362 14.3438 192.463 10.047C191.749 9.26033 191.973 9.35393 190.876 9.34992C189.253 9.34457 187.631 9.34992 186.01 9.3468C185.719 9.34635 185.428 9.32585 185.113 9.31337C185.069 9.17164 185.008 9.06468 185.008 8.95771C185.002 7.41387 185.003 5.86957 185.008 4.32572C185.008 4.24015 185.046 4.15414 185.069 4.05609C185.147 4.02266 185.225 3.95893 185.304 3.95893C194.061 3.95447 202.817 3.95492 211.615 3.95492H211.614Z" fill="white"/>
</g>
<defs>
<clipPath id="clip0_142_1754">
<rect width="244" height="43" fill="white" transform="translate(0 0.5)"/>
</clipPath>
</defs>
</svg>
