<svg width="71" height="62" viewBox="0 0 71 62" fill="none" xmlns="http://www.w3.org/2000/svg">
<g clip-path="url(#clip0_142_1752)">
<path d="M35.5428 21.1937C35.619 20.9545 35.6981 20.7167 35.7699 20.4761C37.2088 15.6659 38.9251 10.974 41.652 6.71575C42.8206 4.88997 44.1747 3.22127 45.8982 1.884C49.2733 -0.735779 53.0812 -0.617615 56.2967 2.20247C58.4759 4.11326 60.0355 6.48807 61.3623 9.02859C64.0762 14.2235 65.7652 19.7844 67.1164 25.4606C68.4489 31.0561 69.3574 36.7279 69.9468 42.4459C70.2989 45.8727 70.5217 49.3153 70.7172 52.7564C70.8754 55.529 70.8897 58.3101 71.0019 61.087C71.0292 61.7571 70.8567 62.0121 70.1379 61.9991C67.746 61.9574 65.3541 61.9689 62.9622 61.9934C62.3786 61.9991 62.1802 61.8262 62.1745 61.221C62.1472 57.7712 62.1601 54.3171 62.0048 50.8716C61.8151 46.6393 61.5032 42.4113 61.1912 38.1862C60.76 32.3573 59.9939 26.5687 58.8798 20.8306C58.1309 16.9715 57.234 13.1499 55.7174 9.50557C55.0807 7.97664 54.3662 6.48375 53.1703 5.29058C51.7702 3.89423 50.2594 3.86685 48.8091 5.22429C47.6677 6.29209 46.9418 7.64521 46.3093 9.04877C44.6347 12.7623 43.6831 16.6948 42.8839 20.6663C41.8345 25.8799 41.0727 31.1425 40.7191 36.4469C40.3382 42.1793 40.1139 47.9218 39.8307 53.6614C39.7775 54.7378 39.7603 55.8172 39.7517 56.8936C39.7488 57.3518 39.5691 57.5305 39.1091 57.5291C36.6209 57.5176 34.1341 57.5132 31.6459 57.532C31.0968 57.5363 31.0379 57.2553 31.0321 56.8115C31.0005 54.3675 31.0149 51.9221 30.8898 49.4824C30.6512 44.8207 30.3896 40.159 30.0259 35.5074C29.553 29.4637 28.6661 23.4734 27.2818 17.5681C26.4883 14.1831 25.5698 10.827 23.8779 7.75761C23.3863 6.86562 22.7797 5.99956 22.0725 5.27329C20.6566 3.81929 19.0926 3.87261 17.6868 5.33957C16.2278 6.86129 15.4329 8.77065 14.7242 10.7103C13.1143 15.114 12.1282 19.6806 11.4497 24.3034C10.7885 28.7994 10.2351 33.3156 9.76502 37.8361C9.43728 41.0006 9.2691 44.1867 9.13973 47.367C8.95142 51.9855 8.84936 56.6083 8.74156 61.2296C8.72718 61.855 8.48425 61.9847 7.92652 61.9804C5.55904 61.9588 3.19012 61.9516 0.822639 61.9833C0.195911 61.9919 -0.021144 61.806 0.00616754 61.1691C0.211723 56.5521 0.316657 51.9307 0.595522 47.3194C0.995134 40.7167 1.93666 34.1773 3.32812 27.71C4.70663 21.3018 6.48907 15.0218 9.50915 9.16117C10.7669 6.72151 12.2417 4.43317 14.2585 2.53822C17.8205 -0.810712 22.0638 -0.839533 25.6891 2.44744C28.2765 4.79343 30.1265 7.68123 31.482 10.8443C32.8361 14.0073 33.9199 17.2857 35.1202 20.515C35.2021 20.734 35.2726 20.9574 35.3488 21.1793C35.4135 21.1851 35.4796 21.1894 35.5443 21.1951L35.5428 21.1937Z" fill="white"/>
</g>
<defs>
<clipPath id="clip0_142_1752">
<rect width="71" height="62" fill="white"/>
</clipPath>
</defs>
</svg>
