<svg width="110" height="74" viewBox="0 0 110 74" fill="none" xmlns="http://www.w3.org/2000/svg">
<g clip-path="url(#clip0_142_1769)">
<path d="M78.6728 50.0624C79.2986 48.4649 79.9254 46.8684 80.5513 45.271C85.5084 32.6243 91.1339 20.2786 97.0831 8.07902C97.5816 7.05675 98.1038 6.04244 98.6773 5.0609C99.4186 3.79326 100.513 3.0124 101.961 2.64482C102.956 2.39249 103.882 1.87788 104.864 1.55799C105.907 1.21822 106.962 0.853627 108.04 0.708583C109.496 0.512872 110.171 1.25498 109.965 2.74715C109.788 4.01977 109.481 5.27549 109.217 6.53519C107.251 15.9114 105.224 25.2757 103.328 34.6658C100.826 47.0532 98.4276 59.4605 95.9845 71.8598C95.8542 72.5194 95.7209 73.197 94.9461 73.3966C94.1544 73.6003 93.419 73.3519 92.9472 72.737C91.8249 71.2756 90.4469 70.1143 88.9583 69.0731C87.8676 68.3102 87.4757 67.3594 87.7166 66.0053C88.9909 58.8495 90.1369 51.6698 91.4656 44.5249C93.042 36.0477 94.7585 27.5964 96.4129 19.1342C96.4346 19.0239 96.4405 18.9106 96.3695 18.7626C96.2856 18.9275 96.1997 19.0915 96.1187 19.2584C91.0372 29.8078 86.4255 40.565 82.1 51.4463C80.3064 55.9566 78.6156 60.5076 76.8605 65.0337C76.672 65.5195 76.4272 66.0063 76.1073 66.4117C75.5684 67.0932 74.8182 67.117 74.1618 66.5428C73.9782 66.3819 73.7946 66.1981 73.6761 65.9875C72.9634 64.7208 71.9615 63.6936 70.9902 62.6375C70.5569 62.1656 70.1552 61.659 69.783 61.1364C69.1049 60.1867 68.9558 59.0661 68.8403 57.9425C68.4998 54.6253 68.5334 51.3002 68.7782 47.9851C69.1355 43.14 69.6014 38.3029 70.011 33.4608C70.3279 29.7065 70.6299 25.9503 70.935 22.195C70.9498 22.0082 70.9369 21.8195 70.8363 21.6049C70.779 21.7638 70.7139 21.9208 70.6635 22.0827C67.2156 33.1508 63.7529 44.2139 60.3316 55.2899C59.1135 59.234 58.004 63.2127 56.8274 67.1697C56.6546 67.7518 56.4602 68.3539 56.1364 68.8556C55.8156 69.3533 55.3813 69.8351 54.8868 70.148C53.8207 70.8236 52.6796 70.306 52.3479 69.0831C52.1268 68.2694 52.2729 67.4747 52.496 66.6888C54.2205 60.6208 55.8817 54.5329 57.6862 48.4888C61.678 35.1159 65.8781 21.8086 70.5786 8.66714C70.8511 7.90516 71.1423 7.15014 71.4226 6.39114C71.8036 5.36192 72.5025 4.63074 73.4827 4.16382C73.6603 4.07937 73.842 3.9999 74.0246 3.92638C75.6582 3.27964 77.2761 2.58919 78.9324 2.00703C79.804 1.70005 80.7339 1.4805 81.6519 1.40698C82.7238 1.32154 83.3447 1.96133 83.2885 3.04717C83.1513 5.70268 83.0624 8.3701 82.7377 11.0057C81.9134 17.7125 80.9648 24.4044 80.0765 31.1033C79.266 37.218 78.656 43.3506 78.5474 49.5249C78.5445 49.6998 78.5474 49.8756 78.5474 50.0505C78.5889 50.0544 78.6304 50.0584 78.6728 50.0614V50.0624Z" fill="white"/>
<path d="M18.8851 32.0657C19.9235 31.8481 20.8642 31.6425 21.8088 31.4547C25.1285 30.796 28.4471 30.1364 31.7706 29.4976C32.127 29.429 32.2938 29.2731 32.427 28.9482C35.7437 20.8158 39.0702 12.6874 42.3967 4.55892C42.8251 3.51181 43.5516 2.88991 44.6907 2.60678C46.1042 2.2551 47.4684 1.70174 48.8582 1.24972C49.6232 1.00136 50.3873 0.736104 51.17 0.561256C52.3111 0.304945 53.0001 0.89307 52.8599 2.06237C52.7592 2.90581 52.5539 3.76018 52.2489 4.55196C50.1128 10.0984 47.9412 15.632 45.7755 21.1675C44.9819 23.1971 44.1755 25.2218 43.3759 27.2494C43.3167 27.4004 43.2693 27.5564 43.1854 27.8028C43.4667 27.7849 43.6859 27.7779 43.903 27.7571C45.0145 27.6478 46.125 27.4859 47.2384 27.4431C47.8642 27.4193 48.5197 27.5166 49.1208 27.6955C49.8167 27.9031 50.1227 28.4654 50.0773 29.1966C50.026 30.0311 49.7131 30.7593 48.9875 31.2083C47.5385 32.1054 46.4023 33.3284 45.5298 34.7559C44.1054 37.0836 42.0068 38.3433 39.4463 38.9533C39.0208 39.0546 38.7908 39.2513 38.6329 39.6735C34.6628 50.3184 30.8921 61.0348 27.3484 71.8307C27.2359 72.1734 27.1096 72.5261 26.9131 72.8231C26.3367 73.6894 25.1354 73.7411 24.5234 72.9026C23.707 71.783 22.7051 70.87 21.647 69.9938C21.0685 69.5149 20.5424 68.9566 20.0637 68.3744C19.5356 67.7327 19.3727 66.9945 19.6392 66.1471C21.2699 60.9653 22.8443 55.7655 24.5026 50.5926C25.4098 47.7632 26.4433 44.9746 27.4205 42.1671C27.4777 42.0022 27.534 41.8383 27.6199 41.5919C27.3563 41.6376 27.1836 41.6605 27.0128 41.6982C22.8729 42.6072 18.735 43.5232 14.5922 44.4203C14.221 44.5007 14.0463 44.6716 13.919 45.0223C11.241 52.3937 8.55807 59.7642 5.85047 67.1247C5.57408 67.8747 5.20293 68.6129 4.7469 69.2656C4.44188 69.7027 3.95327 70.0703 3.46861 70.3087C2.3986 70.8352 1.40952 70.2878 1.15485 69.1165C0.972241 68.2741 1.15485 67.4724 1.43124 66.6866C3.12608 61.8564 4.81303 57.0242 6.53157 52.202C7.29064 50.071 8.11684 47.9649 8.91145 45.8469C8.97364 45.68 9.02596 45.5101 9.09407 45.3104C8.98845 45.2707 8.91935 45.2299 8.84631 45.22C7.46733 45.0273 6.33908 44.3627 5.40529 43.3473C4.94826 42.8496 4.49124 42.3489 4.07271 41.8194C3.52388 41.125 2.86944 40.6114 2.00573 40.3819C1.02357 40.1206 0.480668 39.3954 0.120378 38.5013C-0.126396 37.8873 -0.00300927 37.4283 0.576416 37.1075C1.0749 36.8313 1.61484 36.6018 2.16367 36.4508C5.79026 35.4484 9.4208 34.4639 13.0582 33.5012C13.4916 33.387 13.7107 33.1863 13.8716 32.777C17.5535 23.4375 21.2482 14.104 24.9399 4.76853C25.3278 3.788 25.8086 2.84918 26.6772 2.22927C27.155 1.88752 27.7393 1.60736 28.3109 1.50901C29.2269 1.35205 29.8458 1.93818 29.9504 2.87203C30.0422 3.68964 29.7964 4.44069 29.5013 5.18181C27.9259 9.13973 26.3446 13.0947 24.777 17.0556C22.8818 21.846 20.9975 26.6404 19.1091 31.4328C19.0391 31.6097 18.9818 31.7915 18.8841 32.0677L18.8851 32.0657Z" fill="white"/>
<path d="M47.0358 54.589C47.3448 54.2959 47.56 54.0426 47.8216 53.8558C48.1917 53.5915 48.5718 53.3034 48.9933 53.1564C49.8955 52.8415 50.6812 53.3948 50.5983 54.3496C50.542 54.9993 50.2972 55.6679 49.9912 56.25C49.6171 56.9604 49.1038 57.5982 48.6231 58.2469C48.4454 58.4863 48.3931 58.687 48.5086 58.9661C48.709 59.4539 48.9015 59.9487 49.0535 60.4523C49.1571 60.7951 49.2489 61.1617 49.239 61.5153C49.2134 62.4849 48.3151 62.9996 47.4968 62.484C47.1434 62.2614 46.8937 61.8571 46.6311 61.5094C46.4989 61.3345 46.4426 61.1021 46.333 60.8497C45.954 61.1309 45.6213 61.3912 45.2749 61.6306C44.1269 62.4224 42.8821 62.8774 41.4686 62.6528C39.6198 62.3588 38.2329 60.7921 38.0414 58.8171C37.844 56.7855 38.5271 55.043 39.8024 53.5151C40.6365 52.5156 41.5081 51.547 42.3935 50.5943C42.6837 50.2824 42.7765 50.026 42.6472 49.5969C42.3679 48.666 42.0974 47.7222 41.9513 46.7645C41.4884 43.7375 44.3292 41.3413 47.1711 42.3228C49.0041 42.9556 49.8886 44.6465 49.3052 46.5023C49.1295 47.0616 48.8649 47.6139 48.5372 48.0987C47.8354 49.1359 47.0605 50.1214 46.3311 51.1397C46.2185 51.2967 46.0951 51.5421 46.1396 51.7C46.4011 52.6349 46.7111 53.5568 47.0378 54.588L47.0358 54.589ZM44.0025 54.0158C43.5494 54.6585 43.1575 55.1642 42.8249 55.7066C42.6137 56.0523 42.4389 56.4388 42.3392 56.8312C42.1714 57.4919 42.5988 57.923 43.2148 57.6737C43.7498 57.4571 44.2226 57.0796 44.7112 56.7547C44.7774 56.711 44.8188 56.5431 44.7932 56.4577C44.5553 55.6887 44.2996 54.9248 44.0035 54.0158H44.0025ZM44.9738 47.76C45.0271 47.7838 45.0804 47.8087 45.1337 47.8325C45.5325 47.2831 45.9846 46.7645 46.3133 46.1754C46.6055 45.6539 46.3725 45.1015 45.9115 44.9296C45.4052 44.7409 44.8919 45.0498 44.7251 45.6628C44.5247 46.4009 44.7517 47.0814 44.9738 47.76Z" fill="white"/>
</g>
<defs>
<clipPath id="clip0_142_1769">
<rect width="110" height="73" fill="white" transform="translate(0 0.5)"/>
</clipPath>
</defs>
</svg>
