<svg width="30" height="30" viewBox="0 0 30 30" fill="none" xmlns="http://www.w3.org/2000/svg">
<path d="M12.5 16.25C13.0368 16.9676 13.7217 17.5614 14.5082 17.9911C15.2947 18.4208 16.1644 18.6764 17.0583 18.7404C17.9522 18.8044 18.8495 18.6754 19.6892 18.3622C20.5289 18.049 21.2914 17.5588 21.925 16.925L25.675 13.175C26.8135 11.9962 27.4435 10.4174 27.4292 8.7787C27.415 7.13997 26.7577 5.57239 25.5989 4.41359C24.4401 3.25479 22.8725 2.59748 21.2338 2.58324C19.595 2.569 18.0163 3.19897 16.8375 4.33746L14.6875 6.47496M17.5 13.75C16.9632 13.0323 16.2783 12.4385 15.4918 12.0088C14.7053 11.5791 13.8356 11.3236 12.9417 11.2595C12.0478 11.1955 11.1505 11.3245 10.3108 11.6377C9.47113 11.951 8.70861 12.4411 8.07501 13.075L4.32501 16.825C3.18652 18.0037 2.55655 19.5825 2.57079 21.2212C2.58503 22.8599 3.24234 24.4275 4.40114 25.5863C5.55994 26.7451 7.12752 27.4024 8.76625 27.4167C10.405 27.4309 11.9837 26.8009 13.1625 25.6625L15.3 23.525" stroke="#333333" stroke-width="3" stroke-linecap="round" stroke-linejoin="round"/>
</svg>
