<svg width="43" height="43" viewBox="0 0 43 43" fill="none" xmlns="http://www.w3.org/2000/svg">
<g clip-path="url(#clip0_142_2119)">
<mask id="mask0_142_2119" style="mask-type:luminance" maskUnits="userSpaceOnUse" x="-1" y="0" width="44" height="43">
<path d="M42.0835 0.45752H-0.00354004V42.5425H42.0835V0.45752Z" fill="white"/>
</mask>
<g mask="url(#mask0_142_2119)">
<path d="M21.0385 0.45752C25.2005 0.45752 29.2691 1.69181 32.7296 4.00429C36.1901 6.31677 38.8871 9.60355 40.4795 13.4489C42.0719 17.2943 42.4881 21.5256 41.6756 25.6076C40.863 29.6895 38.8581 33.4388 35.9146 36.3813C32.971 39.3237 29.2209 41.3272 25.1386 42.1382C21.0564 42.9492 16.8253 42.5313 12.9805 40.9375C9.13571 39.3437 5.84995 36.6454 3.53879 33.184C1.22763 29.7226 -0.0051209 25.6536 -0.00353852 21.4915C0.00175964 15.9132 2.22063 10.565 6.16586 6.62126C10.1111 2.67754 15.4601 0.460696 21.0385 0.45752ZM40.1735 21.5045C40.1744 17.7204 39.0533 14.0209 36.9517 10.874C34.8502 7.727 31.8627 5.27389 28.367 3.82485C24.8712 2.3758 21.0243 1.9959 17.3127 2.73318C13.6011 3.47046 10.1914 5.29181 7.51492 7.96691C4.83843 10.642 3.01529 14.0507 2.27607 17.762C1.53685 21.4732 1.91474 25.3203 3.36196 28.8168C4.80918 32.3133 7.26072 35.3021 10.4066 37.4053C13.5524 39.5084 17.2513 40.6315 21.0355 40.6325C26.1078 40.6272 30.9711 38.6106 34.5587 35.0248C38.1463 31.4391 40.1655 26.5769 40.1735 21.5045Z" fill="#EDEAFD"/>
<path d="M19.1494 29.1235V18.6515H22.9274V19.9945C23.3418 19.6072 23.8015 19.2715 24.2964 18.9945C24.9775 18.6453 25.7514 18.5198 26.5079 18.6358C27.2645 18.7518 27.9652 19.1033 28.5104 19.6405C29.167 20.3918 29.5405 21.349 29.5664 22.3465C29.6284 24.5885 29.5854 26.8335 29.5854 29.1135H25.8144V28.6955C25.8144 27.0105 25.8144 25.3265 25.8144 23.6415C25.8169 23.2994 25.7921 22.9577 25.7404 22.6195C25.7296 22.3561 25.63 22.1041 25.4579 21.9044C25.2858 21.7048 25.0513 21.5691 24.7924 21.5195C24.5083 21.457 24.2115 21.4889 23.9471 21.6103C23.6827 21.7318 23.4651 21.9362 23.3274 22.1925C23.1127 22.6462 22.99 23.138 22.9664 23.6395C22.9234 25.3095 22.9504 26.9805 22.9504 28.6515C22.9504 28.7995 22.9504 28.9515 22.9504 29.1215L19.1494 29.1235Z" fill="#EDEAFD"/>
<path d="M17.1925 18.6543H13.4235V29.1353H17.1925V18.6543Z" fill="#EDEAFD"/>
<path d="M15.2835 13.8546C15.6603 13.8516 16.0296 13.9604 16.3447 14.1673C16.6597 14.3742 16.9063 14.6698 17.0533 15.0168C17.2004 15.3639 17.2413 15.7467 17.1708 16.1169C17.1003 16.4871 16.9217 16.8282 16.6574 17.0969C16.3932 17.3656 16.0552 17.55 15.6862 17.6266C15.3172 17.7033 14.9337 17.6689 14.5843 17.5277C14.2349 17.3865 13.9351 17.1448 13.723 16.8333C13.5109 16.5218 13.3958 16.1544 13.3925 15.7775C13.3894 15.5269 13.436 15.2781 13.5296 15.0455C13.6232 14.8129 13.7618 14.6011 13.9376 14.4223C14.1134 14.2436 14.3228 14.1014 14.5538 14.0039C14.7848 13.9065 15.0328 13.8557 15.2835 13.8546Z" fill="#EDEAFD"/>
</g>
</g>
<defs>
<clipPath id="clip0_142_2119">
<rect width="42.087" height="42.085" fill="white" transform="translate(-0.00354004 0.45752)"/>
</clipPath>
</defs>
</svg>
