<svg width="46" height="53" viewBox="0 0 46 53" fill="none" xmlns="http://www.w3.org/2000/svg">
<g clip-path="url(#clip0_143_3249)">
<path d="M32.903 50.5229C32.559 50.9696 32.2536 51.3842 31.9311 51.788C31.3011 52.5741 30.3378 52.5977 29.6691 51.8417C29.2799 51.4014 28.9057 50.946 28.4735 50.437C28.0349 50.9525 27.6242 51.4379 27.2113 51.9211C26.3878 52.8812 25.5191 52.8791 24.6999 51.9147C24.2978 51.44 23.8935 50.9653 23.4463 50.4391C22.9904 50.9739 22.569 51.4765 22.1389 51.9705C21.3562 52.8705 20.4747 52.8597 19.6984 51.9448C19.2834 51.4572 18.8706 50.9696 18.4212 50.4413C17.9481 50.9933 17.5138 51.5109 17.0687 52.0199C16.3462 52.8469 15.4496 52.8447 14.7335 52.0178C14.2927 51.5066 13.8562 50.989 13.3896 50.4434C12.951 50.9546 12.5446 51.4293 12.1403 51.904C11.2996 52.8898 10.4524 52.8877 9.59661 51.8911C9.19236 51.4207 8.78812 50.946 8.35592 50.4434C7.74095 51.1651 7.16254 51.846 6.58198 52.5247C6.03582 53.1604 5.57567 53.1583 5.03381 52.5247C4.45539 51.8481 3.87913 51.1694 3.26631 50.4499C2.98033 50.7763 2.73306 51.0749 2.46858 51.3584C2.00843 51.8524 1.42571 52.0092 0.86665 51.7665C0.283936 51.5131 -0.00634553 51.0534 0.00010518 50.4134C0.00010518 50.3425 0.00010518 50.2695 0.00010518 50.1986C0.00010518 35.1487 0.00010518 20.1009 0.00010518 5.05321C0.00010518 2.90967 0.941909 1.33531 2.88787 0.446103C3.48564 0.17118 4.19522 0.0208312 4.85534 0.0208312C16.3053 -0.00494278 27.7554 -0.00494278 39.2054 0.0057964C41.9555 0.00794423 44.0606 2.04624 44.0864 4.85991C44.1402 10.4357 44.1057 16.0115 44.1014 21.5873C44.1014 22.2595 43.8219 22.5194 43.1403 22.5216C40.9406 22.5259 38.7388 22.5216 36.5391 22.5216C36.3455 22.5216 36.152 22.5216 35.9263 22.5216V25.5543C36.7111 25.7605 37.5153 25.9216 38.2829 26.1858C43.2414 27.8954 46.4086 32.8097 45.955 38.0569C45.5099 43.2353 41.5083 47.5374 36.3455 48.3643C35.9779 48.4223 35.866 48.5555 35.8854 48.9099C35.9112 49.3738 35.9004 49.8399 35.8854 50.3038C35.866 50.9482 35.5349 51.4078 34.9629 51.614C34.4039 51.8159 33.8319 51.6591 33.4169 51.1801C33.2535 50.9911 33.1073 50.7892 32.8987 50.5229H32.903ZM35.7327 1.50713C35.4102 1.50713 35.2188 1.50713 35.0275 1.50713C25.0805 1.50713 15.1335 1.50713 5.18647 1.50713C2.86852 1.50713 1.50742 2.85383 1.50742 5.15631C1.50742 19.9356 1.50742 34.717 1.50742 49.4962C1.50742 49.6659 1.52247 49.8356 1.53752 50.1127C1.74395 49.8785 1.88156 49.726 2.01703 49.5693C2.82767 48.6199 3.67271 48.6156 4.4941 49.5628C4.92415 50.059 5.34774 50.5616 5.80789 51.1007C6.28094 50.5487 6.71744 50.0353 7.15609 49.5242C7.91942 48.6371 8.80317 48.6371 9.56435 49.5242C9.99225 50.0246 10.4158 50.525 10.8717 51.062C11.3469 50.5057 11.7812 49.9902 12.222 49.4812C12.9359 48.6521 13.8369 48.6543 14.5594 49.4898C15.0002 49.9988 15.4345 50.5122 15.9033 51.0599C16.3677 50.5143 16.7913 50.0139 17.2192 49.5134C17.9567 48.65 18.8469 48.6414 19.5909 49.4984C20.0317 50.0053 20.4639 50.5186 20.8961 51.0233C20.9649 50.9825 21.0036 50.9696 21.0251 50.946C21.4444 50.4585 21.8573 49.9645 22.2787 49.479C22.9883 48.665 23.8699 48.6543 24.5795 49.4576C25.0396 49.9773 25.4804 50.51 25.9556 51.0663C26.433 50.5057 26.8759 49.9709 27.3361 49.449C28.0263 48.6672 28.9014 48.6672 29.6003 49.449C29.9916 49.8871 30.3657 50.3403 30.7743 50.8193C31.0409 50.4735 31.3054 50.1792 31.5118 49.8506C32.3117 48.5791 33.5932 48.7187 34.2448 49.769C34.2555 49.7883 34.3028 49.784 34.3609 49.7948V48.6349C27.4457 47.8424 23.6376 44.0257 22.8743 37.1054C22.698 37.1054 22.4851 37.1054 22.2723 37.1054C17.7094 37.1054 13.1488 37.1054 8.586 37.1032C8.35592 37.1032 8.1151 37.0989 7.90007 37.0302C7.53023 36.9099 7.31306 36.5899 7.44422 36.2398C7.53883 35.9885 7.82696 35.7823 8.06994 35.6234C8.19681 35.5417 8.41828 35.6019 8.59675 35.6019C13.2133 35.6019 17.8277 35.6019 22.4443 35.6019C22.6507 35.6019 22.855 35.6019 23.0614 35.6019C23.0141 35.5546 22.9646 35.5095 22.9173 35.4623C23.4613 33.948 24.0053 32.436 24.5515 30.9153H24.0591C18.9243 30.9153 13.7896 30.9153 8.65481 30.9153C8.49354 30.9153 8.33227 30.9196 8.171 30.911C7.7087 30.8852 7.42702 30.6511 7.41842 30.1786C7.40982 29.7018 7.7044 29.472 8.1495 29.4161C8.30862 29.3968 8.47204 29.4097 8.63115 29.4097C14.2132 29.4097 19.7952 29.4075 25.3772 29.4161C25.7234 29.4161 25.9664 29.3259 26.2136 29.0682C27.5876 27.6334 29.2218 26.5896 31.1441 26.0655C32.1848 25.782 33.2643 25.6359 34.3824 25.4168C34.3824 25.2708 34.3824 25.0582 34.3824 24.8477C34.3824 18.3784 34.3931 11.9091 34.3738 5.43982C34.3695 4.01151 34.6641 2.71207 35.7284 1.52002L35.7327 1.50713ZM42.5554 21.0009C42.5748 20.8849 42.5941 20.8162 42.5941 20.7474C42.5941 15.4444 42.6006 10.1393 42.5898 4.83628C42.5898 3.80102 42.1899 2.91182 41.3728 2.26102C40.302 1.40833 39.1021 1.23651 37.855 1.80998C36.5391 2.41567 35.9047 3.50892 35.9004 4.93723C35.8875 10.1522 35.894 15.3671 35.8961 20.5821C35.8961 20.7174 35.922 20.8548 35.937 21.003H42.5533L42.5554 21.0009ZM34.4813 47.0176C39.9171 47.0627 44.4412 42.5974 44.4799 37.1462C44.5207 31.6262 40.1106 27.09 34.6555 27.0363C29.1014 26.9826 24.5429 31.3921 24.4956 36.8627C24.4483 42.4986 28.8434 46.9704 34.4813 47.0176Z" fill="#3D3362"/>
<path d="M35.7327 1.508C34.6684 2.7022 34.3738 3.99949 34.3781 5.42781C34.3974 11.8971 34.3867 18.3664 34.3867 24.8357C34.3867 25.0461 34.3867 25.2588 34.3867 25.4048C33.2686 25.6239 32.1891 25.77 31.1484 26.0535C29.2261 26.5754 27.5919 27.6214 26.2179 29.0562C25.9707 29.3139 25.7255 29.4062 25.3815 29.4041C19.7995 29.3955 14.2175 29.3977 8.63545 29.3977C8.47418 29.3977 8.31077 29.3848 8.1538 29.4041C7.70655 29.4599 7.41412 29.6898 7.42272 30.1666C7.43132 30.6391 7.713 30.8732 8.1753 30.899C8.33657 30.9076 8.49784 30.9033 8.6591 30.9033C13.7939 30.9033 18.9286 30.9033 24.0634 30.9033H24.5558C24.0096 32.424 23.4656 33.9382 22.9216 35.4503C22.9689 35.4975 23.0184 35.5426 23.0657 35.5899C22.8593 35.5899 22.655 35.5899 22.4486 35.5899C17.832 35.5899 13.2176 35.5899 8.60105 35.5899C8.42258 35.5899 8.2011 35.5297 8.07424 35.6114C7.82911 35.7703 7.54098 35.9765 7.44852 36.2278C7.31736 36.5779 7.53453 36.8979 7.90437 37.0182C8.11939 37.0869 8.36022 37.0912 8.5903 37.0912C13.1531 37.0955 17.7137 37.0934 22.2766 37.0934C22.4894 37.0934 22.7023 37.0934 22.8786 37.0934C23.642 44.0137 27.4479 47.8304 34.3652 48.6229V49.7828C34.3093 49.7699 34.262 49.7742 34.2491 49.757C33.5975 48.7067 32.3182 48.5671 31.5161 49.8386C31.3097 50.1672 31.0431 50.4615 30.7786 50.8073C30.37 50.3283 29.9959 49.8751 29.6046 49.437C28.9079 48.6573 28.0327 48.6573 27.3404 49.437C26.8802 49.9589 26.4373 50.4937 25.9599 51.0543C25.4847 50.498 25.0418 49.9632 24.5838 49.4456C23.8742 48.6444 22.9926 48.6552 22.283 49.467C21.8594 49.9525 21.4487 50.4465 21.0294 50.934C21.0079 50.9598 20.9692 50.9705 20.9004 51.0113C20.4682 50.5066 20.036 49.9933 19.5952 49.4864C18.8512 48.6315 17.961 48.638 17.2235 49.5014C16.7956 50.0019 16.3699 50.5044 15.9076 51.0478C15.4388 50.498 15.0045 49.9847 14.5637 49.4778C13.8412 48.6444 12.9424 48.6401 12.2263 49.4692C11.7855 49.9804 11.3512 50.4959 10.876 51.05C10.4201 50.5152 9.99655 50.0126 9.56866 49.5121C8.80962 48.6251 7.92587 48.6229 7.16039 49.5121C6.71959 50.0233 6.28309 50.5367 5.81219 51.0887C5.35204 50.5496 4.92844 50.047 4.4984 49.5508C3.67486 48.6036 2.82981 48.6079 2.02132 49.5573C1.88801 49.714 1.75039 49.8665 1.54182 50.1007C1.52892 49.8236 1.51172 49.6539 1.51172 49.4842C1.51172 34.705 1.51172 19.9236 1.51172 5.14429C1.51172 2.84181 2.87282 1.49512 5.19077 1.49512C15.1378 1.49512 25.0848 1.49512 35.0318 1.49512C35.2231 1.49512 35.4123 1.49512 35.737 1.49512L35.7327 1.508ZM18.0083 17.054C14.8453 17.054 11.6823 17.054 8.51934 17.054C8.35807 17.054 8.1925 17.0369 8.03769 17.0712C7.66785 17.1507 7.43562 17.3762 7.42057 17.7714C7.40552 18.1902 7.63129 18.4437 8.02478 18.5382C8.19465 18.579 8.37957 18.5597 8.55804 18.5597C14.8131 18.5597 21.0681 18.5597 27.3232 18.5597C27.4651 18.5597 27.6091 18.5683 27.7511 18.5532C28.2005 18.5103 28.4972 18.2031 28.4757 17.7865C28.452 17.344 28.1962 17.1099 27.7661 17.0605C27.6242 17.0433 27.4801 17.054 27.3382 17.054C24.229 17.054 21.1197 17.054 18.0083 17.054ZM17.9739 23.2377C14.8604 23.2377 11.7468 23.2377 8.63545 23.2377C8.43978 23.2377 8.23981 23.2291 8.04629 23.2591C7.65709 23.315 7.44207 23.5555 7.42272 23.9465C7.40337 24.3352 7.59474 24.6015 7.97318 24.6939C8.16025 24.7412 8.36237 24.7433 8.55804 24.7433C14.8195 24.7454 21.081 24.7454 27.3425 24.7433C27.5382 24.7433 27.7403 24.7412 27.9274 24.6939C28.3058 24.5994 28.4972 24.3331 28.4757 23.9443C28.4542 23.5555 28.237 23.315 27.8478 23.2613C27.6543 23.2334 27.4543 23.242 27.2586 23.242C24.1645 23.242 21.0681 23.242 17.9739 23.242V23.2377ZM12.6134 12.3761C13.3273 12.3761 14.0433 12.3761 14.7572 12.3761C15.5248 12.3761 16.2946 12.3825 17.0622 12.3632C17.5052 12.3524 17.7654 12.084 17.7826 11.6522C17.7998 11.2184 17.546 10.9542 17.1138 10.8876C16.9397 10.8597 16.7569 10.8683 16.5784 10.8683C14.5422 10.8683 12.5037 10.8683 10.4675 10.8683C9.71702 10.8683 8.96659 10.8511 8.21616 10.8769C7.63344 10.8962 7.2894 11.3408 7.44207 11.8391C7.57324 12.2708 7.91512 12.3782 8.32367 12.3761C9.75357 12.3718 11.1835 12.3761 12.6134 12.3761Z" fill="#F6FFF6"/>
<path d="M42.5554 21.002H35.9392C35.9241 20.8538 35.8983 20.7163 35.8983 20.581C35.8983 15.366 35.8897 10.1511 35.9026 4.93615C35.9069 3.50784 36.5412 2.41674 37.8572 1.8089C39.1043 1.23328 40.3041 1.40511 41.375 2.25995C42.1921 2.91074 42.5899 3.79994 42.592 4.8352C42.6006 10.1382 42.5963 15.4434 42.5963 20.7464C42.5963 20.8151 42.5748 20.8838 42.5576 20.9998L42.5554 21.002Z" fill="#E1DDFC"/>
<path d="M34.4812 47.0179C28.8433 46.9707 24.4482 42.501 24.4955 36.863C24.5428 31.3924 29.1013 26.9829 34.6554 27.0366C40.1105 27.0882 44.5206 31.6265 44.4798 37.1465C44.4389 42.5998 39.917 47.0652 34.4812 47.0179Z" fill="white"/>
<path d="M18.0084 17.0543C21.1176 17.0543 24.2269 17.0543 27.3383 17.0543C27.4802 17.0543 27.6264 17.0435 27.7662 17.0607C28.1962 17.1101 28.4542 17.3442 28.4757 17.7867C28.4972 18.2034 28.2005 18.5105 27.7511 18.5535C27.6092 18.5664 27.4651 18.5599 27.3232 18.5599C21.0682 18.5599 14.8131 18.5599 8.5581 18.5599C8.37963 18.5599 8.19471 18.5792 8.02484 18.5384C7.6335 18.4461 7.40557 18.1905 7.42062 17.7717C7.43568 17.3765 7.6679 17.1509 8.03774 17.0715C8.19256 17.0393 8.35813 17.0543 8.51939 17.0543C11.6824 17.0543 14.8454 17.0543 18.0084 17.0543Z" fill="#3D3362"/>
<path d="M17.9744 23.2377C21.0686 23.2377 24.1649 23.2377 27.2591 23.2377C27.4548 23.2377 27.6548 23.2313 27.8483 23.257C28.2375 23.3107 28.4547 23.5534 28.4762 23.94C28.4977 24.3288 28.3063 24.5951 27.9279 24.6896C27.7408 24.7369 27.5387 24.739 27.343 24.739C21.0815 24.7412 14.82 24.7412 8.55853 24.739C8.36286 24.739 8.16074 24.7369 7.97367 24.6896C7.59523 24.5951 7.40386 24.3309 7.42321 23.9422C7.44256 23.5513 7.65974 23.3129 8.04678 23.2549C8.2403 23.227 8.44027 23.2355 8.63594 23.2334C11.7495 23.2334 14.863 23.2334 17.9744 23.2334V23.2377Z" fill="#3D3362"/>
<path d="M12.614 12.3757C11.1841 12.3757 9.75419 12.3735 8.32429 12.3757C7.91359 12.3757 7.57385 12.2705 7.44269 11.8387C7.29217 11.3404 7.63406 10.8958 8.21677 10.8765C8.96721 10.8507 9.71764 10.8679 10.4681 10.8679C12.5043 10.8679 14.5428 10.8679 16.579 10.8679C16.7575 10.8679 16.9381 10.8593 17.1145 10.8872C17.5445 10.9538 17.8004 11.218 17.7832 11.6519C17.766 12.0814 17.5058 12.3521 17.0628 12.3628C16.2952 12.38 15.5254 12.3735 14.7578 12.3757C14.0439 12.3757 13.3279 12.3757 12.614 12.3757Z" fill="#3D3362"/>
<path d="M35.3108 41.1933C35.3 41.3393 35.2957 41.5176 35.2721 41.6916C35.214 42.1233 34.9689 42.3746 34.5238 42.3724C34.1045 42.3703 33.8013 42.1297 33.8142 41.7259C33.8293 41.1976 33.5906 41.0085 33.1347 40.8346C32.3069 40.5188 31.7672 39.8831 31.5092 39.0304C31.3565 38.5257 31.5479 38.1068 31.9693 37.9822C32.3886 37.8555 32.795 38.0381 32.9154 38.5321C33.182 39.6361 34.7238 39.8723 35.4505 39.4922C35.6849 39.3698 35.9537 39.0755 35.9752 38.8414C35.9967 38.6008 35.7903 38.24 35.5753 38.1068C35.257 37.9092 34.842 37.8641 34.4679 37.7567C34.0249 37.6279 33.5519 37.5591 33.1412 37.3615C32.2961 36.9513 31.7629 36.2833 31.793 35.291C31.8231 34.318 32.337 33.635 33.1971 33.2484C33.597 33.068 33.8271 32.9026 33.8035 32.4151C33.782 31.9597 34.098 31.6741 34.5539 31.6869C35.0097 31.6998 35.2914 31.9962 35.2721 32.4537C35.257 32.8575 35.4054 33.0336 35.7795 33.184C36.5622 33.4954 37.0783 34.1097 37.3965 34.8851C37.5986 35.3748 37.4567 35.7764 37.031 35.959C36.6375 36.1287 36.2784 35.9654 36.029 35.5058C35.4957 34.5242 34.7926 34.172 33.9561 34.565C33.6787 34.6961 33.4035 35.0311 33.324 35.3254C33.2143 35.7313 33.5927 35.9676 33.9389 36.0793C34.3432 36.2103 34.7711 36.279 35.1904 36.3542C35.8827 36.4766 36.4784 36.7666 36.945 37.2992C37.8717 38.3581 37.676 39.8788 36.4891 40.6434C36.1494 40.8625 35.7537 40.9892 35.3108 41.1933Z" fill="#3D3362"/>
</g>
<defs>
<clipPath id="clip0_143_3249">
<rect width="46" height="53" fill="white"/>
</clipPath>
</defs>
</svg>
