<svg width="21" height="20" viewBox="0 0 21 20" fill="none" xmlns="http://www.w3.org/2000/svg">
<path d="M2.16602 5.83334L8.97012 10.5962C9.52109 10.9819 9.79658 11.1747 10.0962 11.2494C10.3609 11.3154 10.6378 11.3154 10.9025 11.2494C11.2021 11.1747 11.4776 10.9819 12.0286 10.5962L18.8327 5.83334M6.16602 16.6667H14.8327C16.2328 16.6667 16.9329 16.6667 17.4677 16.3942C17.9381 16.1545 18.3205 15.7721 18.5602 15.3017C18.8327 14.7669 18.8327 14.0668 18.8327 12.6667V7.33334C18.8327 5.93321 18.8327 5.23315 18.5602 4.69837C18.3205 4.22796 17.9381 3.84551 17.4677 3.60583C16.9329 3.33334 16.2328 3.33334 14.8327 3.33334H6.16602C4.76588 3.33334 4.06582 3.33334 3.53104 3.60583C3.06063 3.84551 2.67818 4.22796 2.4385 4.69837C2.16602 5.23315 2.16602 5.93321 2.16602 7.33334V12.6667C2.16602 14.0668 2.16602 14.7669 2.4385 15.3017C2.67818 15.7721 3.06063 16.1545 3.53104 16.3942C4.06582 16.6667 4.76588 16.6667 6.16602 16.6667Z" stroke="black" stroke-width="1.5" stroke-linecap="round" stroke-linejoin="round"/>
</svg>
