<svg width="68" height="68" viewBox="0 0 68 68" fill="none" xmlns="http://www.w3.org/2000/svg">
<path d="M28.3334 42.5001L19.6201 51.3222C18.4047 52.5528 17.7971 53.1681 17.2747 53.2115C16.8216 53.2491 16.3779 53.067 16.0819 52.7217C15.7408 52.3238 15.7408 51.459 15.7408 49.7294V45.3096C15.7408 43.758 14.4701 42.6352 12.9348 42.4103V42.4103C9.21896 41.866 6.30072 38.9478 5.75643 35.232C5.66669 34.6193 5.66669 33.8882 5.66669 32.426V19.2667C5.66669 14.5063 5.66669 12.1261 6.59313 10.3078C7.40806 8.70845 8.70839 7.40812 10.3078 6.59319C12.126 5.66675 14.5062 5.66675 19.2667 5.66675H40.2334C44.9938 5.66675 47.374 5.66675 49.1923 6.59319C50.7916 7.40812 52.092 8.70845 52.9069 10.3078C53.8334 12.1261 53.8334 14.5063 53.8334 19.2667V31.1667M53.8334 62.3334L47.6669 58.0462C46.8 57.4436 46.3666 57.1423 45.8949 56.9286C45.4763 56.739 45.0361 56.601 44.5841 56.5177C44.0749 56.4239 43.547 56.4239 42.4913 56.4239H37.4C34.2264 56.4239 32.6396 56.4239 31.4274 55.8063C30.3612 55.263 29.4943 54.3961 28.951 53.3298C28.3334 52.1177 28.3334 50.5309 28.3334 47.3572V40.2334C28.3334 37.0598 28.3334 35.473 28.951 34.2608C29.4943 33.1945 30.3612 32.3277 31.4274 31.7844C32.6396 31.1667 34.2264 31.1667 37.4 31.1667H53.2667C56.4403 31.1667 58.0271 31.1667 59.2393 31.7844C60.3056 32.3277 61.1724 33.1945 61.7157 34.2608C62.3334 35.473 62.3334 37.0598 62.3334 40.2334V47.9239C62.3334 50.5642 62.3334 51.8844 61.902 52.9258C61.3269 54.3143 60.2237 55.4174 58.8352 55.9925C57.7939 56.4239 56.4737 56.4239 53.8334 56.4239V62.3334Z" stroke="#8379CD" stroke-width="4" stroke-linecap="round" stroke-linejoin="round"/>
</svg>
