<svg width="106" height="106" viewBox="0 0 106 106" fill="none" xmlns="http://www.w3.org/2000/svg">
<rect width="106" height="106" rx="53" fill="#C1FFC1"/>
<g clip-path="url(#clip0_97_1812)">
<path d="M72.2692 41.7842C73.6025 41.7842 74.819 41.7788 76.0382 41.7842C78.4467 41.8005 79.9836 43.3166 79.9918 45.7169C80.0053 50.2299 80.0026 54.743 79.9918 59.256C79.9863 61.6916 78.4494 63.1995 75.992 63.2131C74.7782 63.2185 73.5644 63.2131 72.2692 63.2131C72.2692 63.5494 72.2692 63.8125 72.2692 64.0783C72.2692 68.7731 72.2774 73.4651 72.2665 78.1599C72.2584 81.4335 70.3413 84.0019 67.3191 84.7749C66.7135 84.9295 66.07 84.9864 65.4455 84.9892C56.816 85.0027 48.1838 85.0027 39.5543 84.9973C35.6034 84.9946 32.7659 82.1739 32.7469 78.2169C32.7251 73.5221 32.7414 68.83 32.7414 64.1352C32.7414 63.8667 32.7414 63.5982 32.7414 63.2619C32.5106 63.2456 32.3151 63.2185 32.1223 63.2185C31.0145 63.2131 29.9093 63.2294 28.8014 63.2131C26.6617 63.1806 25.0596 61.7078 25.0352 59.5842C24.9863 54.8677 24.9863 50.1513 25.0352 45.4375C25.0569 43.3084 26.6508 41.8222 28.7824 41.7923C30.0668 41.7733 31.3512 41.7896 32.7414 41.7896C32.7414 41.475 32.7414 41.2174 32.7414 40.957C32.7414 36.2405 32.7306 31.524 32.7469 26.8076C32.7577 23.2546 34.9979 20.6238 38.4546 20.0705C38.8538 20.0054 39.2638 20.0081 39.6711 20.0081C48.23 20 56.7943 20 65.3559 20C69.4425 20 72.2584 22.799 72.2665 26.8835C72.2774 31.5539 72.2692 36.2242 72.2692 40.8973C72.2692 41.1631 72.2692 41.4289 72.2692 41.7842ZM52.4985 43.9566C44.7516 43.9566 37.0046 43.9566 29.2603 43.9566C27.68 43.9566 27.1939 44.4394 27.1939 46.0098C27.1939 50.3194 27.1939 54.6263 27.1939 58.936C27.1939 60.5687 27.6637 61.0461 29.2739 61.0461C44.7679 61.0461 60.2591 61.0461 75.753 61.0461C77.3307 61.0461 77.8194 60.5606 77.8194 58.9902C77.8194 54.6806 77.8194 50.3737 77.8194 46.064C77.8194 44.4286 77.3524 43.9566 75.7368 43.9566C67.9898 43.9566 60.2428 43.9566 52.4985 43.9566ZM34.9165 41.7354H70.0942V41.0248C70.0942 36.3544 70.0942 31.6813 70.0942 27.011C70.0942 23.9706 68.2912 22.1725 65.2472 22.1725C56.7535 22.1725 48.2571 22.1725 39.7634 22.1725C36.7276 22.1725 34.9219 23.976 34.9192 27.0137C34.9165 31.6624 34.9192 36.311 34.9192 40.9597C34.9192 41.2038 34.9192 41.4479 34.9192 41.7381L34.9165 41.7354ZM34.9165 63.2402C34.9165 63.5358 34.9165 63.7582 34.9165 63.9779C34.9165 68.6727 34.9137 73.3648 34.9165 78.0596C34.9192 81.0023 36.7521 82.8276 39.6982 82.8276C48.2381 82.8276 56.778 82.8276 65.3178 82.8276C68.2613 82.8276 70.0888 81.005 70.0915 78.0514C70.0969 73.3566 70.0915 68.6646 70.0915 63.9698C70.0915 63.7311 70.0698 63.4925 70.0589 63.2375H34.9165V63.2402Z" fill="#3D3362"/>
<path d="M52.4985 43.9566C60.2454 43.9566 67.9924 43.9566 75.7367 43.9566C77.3523 43.9566 77.8167 44.4286 77.8194 46.064C77.8194 50.3737 77.8194 54.6806 77.8194 58.9902C77.8194 60.5579 77.3279 61.0461 75.753 61.0461C60.259 61.0461 44.7678 61.0461 29.2738 61.0461C27.6636 61.0461 27.1938 60.5687 27.1938 58.936C27.1938 54.6263 27.1938 50.3194 27.1938 46.0098C27.1938 44.4394 27.6799 43.9566 29.2603 43.9566C37.0072 43.9566 44.7542 43.9566 52.4985 43.9566ZM56.0149 52.5C55.5125 52.8011 55.1242 53.0262 54.7441 53.2621C54.1114 53.6527 53.9023 54.2548 54.1983 54.7972C54.5187 55.3803 55.1541 55.5132 55.8411 55.1335C56.224 54.922 56.6041 54.7023 57.082 54.4311C57.082 55.0088 57.0712 55.4536 57.082 55.8984C57.1037 56.6062 57.5138 57.0619 58.1193 57.0836C58.733 57.1053 59.2109 56.6171 59.2462 55.8984C59.2679 55.4563 59.2489 55.0115 59.2489 54.4365C59.7431 54.7213 60.1205 54.9491 60.5088 55.1579C61.1551 55.5105 61.7796 55.3722 62.1 54.8162C62.4069 54.2846 62.2412 53.7042 61.6439 53.3109C61.2393 53.0424 60.8157 52.8011 60.3215 52.5C60.8048 52.2071 61.2094 51.9738 61.6004 51.7216C62.2385 51.3066 62.4177 50.7262 62.0946 50.173C61.7715 49.6224 61.1551 49.4949 60.498 49.8529C60.1124 50.0645 59.7349 50.2869 59.2489 50.5635C59.2489 49.9831 59.2679 49.5383 59.2435 49.0935C59.2055 48.3775 58.7194 47.892 58.1057 47.9218C57.4975 47.949 57.0983 48.4046 57.0793 49.1179C57.0657 49.5736 57.0793 50.0265 57.0793 50.5798C56.7453 50.3954 56.5471 50.2896 56.3543 50.1784C56.1588 50.0672 55.9714 49.9397 55.7705 49.8339C55.146 49.503 54.554 49.6305 54.2282 50.1567C53.8969 50.6937 54.0761 51.3229 54.6898 51.7108C55.0862 51.963 55.4935 52.1935 56.0122 52.5054L56.0149 52.5ZM34.4683 50.5906C33.9443 50.2842 33.5641 50.0455 33.1704 49.8339C32.5486 49.4976 31.9593 49.6251 31.6281 50.1513C31.2859 50.6964 31.4597 51.3066 32.0842 51.7026C32.4916 51.963 32.9097 52.2071 33.4012 52.5054C32.9124 52.7983 32.5296 53.0235 32.1494 53.2567C31.4787 53.669 31.2778 54.2873 31.6253 54.8406C31.9783 55.4047 32.5866 55.5024 33.2844 55.1037C33.6483 54.8949 34.0094 54.6806 34.4683 54.4121C34.4683 55.0033 34.4548 55.4698 34.4711 55.9363C34.4955 56.6117 34.9544 57.0836 35.5545 57.0809C36.1519 57.0782 36.6054 56.6035 36.6325 55.9255C36.6515 55.4617 36.6352 54.9979 36.6352 54.4446C36.923 54.5992 37.1186 54.6996 37.3086 54.8054C37.5259 54.9274 37.7322 55.0657 37.9522 55.1796C38.5686 55.5024 39.166 55.3613 39.4864 54.8271C39.8041 54.2955 39.6411 53.7042 39.0519 53.3191C38.6446 53.0506 38.221 52.8092 37.7187 52.5027C38.2237 52.1962 38.6446 51.9521 39.0519 51.6863C39.6411 51.2985 39.8014 50.71 39.4864 50.1757C39.1687 49.6387 38.5713 49.4922 37.9549 49.8204C37.5422 50.0401 37.1457 50.2869 36.7628 50.5066C36.6977 50.4523 36.6678 50.4415 36.6678 50.4279C36.6569 50.0021 36.6488 49.5736 36.6352 49.1478C36.6108 48.4155 36.179 47.9273 35.5572 47.9191C34.93 47.911 34.4846 48.3965 34.4656 49.1233C34.4548 49.5681 34.4656 50.0129 34.4656 50.5906H34.4683ZM47.9312 50.5879C47.9312 50.2191 47.9312 49.9994 47.9312 49.777C47.9312 49.5519 47.9366 49.3268 47.9285 49.1016C47.8986 48.3938 47.494 47.9381 46.8885 47.9164C46.2748 47.8947 45.7969 48.3829 45.7616 49.1016C45.7399 49.5437 45.7589 49.9885 45.7589 50.5472C45.3842 50.3411 45.1126 50.2001 44.8492 50.0455C43.8989 49.4895 43.2798 49.5302 42.9077 50.1784C42.5412 50.8212 42.8073 51.3636 43.7658 51.9304C44.0591 52.104 44.3523 52.2803 44.7162 52.4946C44.184 52.8119 43.774 53.0451 43.3748 53.3001C42.772 53.6879 42.5982 54.2629 42.9023 54.7999C43.22 55.3613 43.8473 55.5105 44.4908 55.1579C44.8791 54.9464 45.2538 54.7131 45.7616 54.4148C45.7616 55.0223 45.7372 55.4888 45.767 55.9499C45.8105 56.6252 46.2884 57.0944 46.8803 57.0782C47.4859 57.0619 47.904 56.6035 47.9285 55.8984C47.9448 55.44 47.9312 54.9816 47.9312 54.4121C48.4335 54.6969 48.8001 54.9084 49.1694 55.1145C49.87 55.5024 50.4837 55.3803 50.8095 54.7945C51.1109 54.2521 50.9045 53.65 50.2773 53.2513C49.889 53.0072 49.4898 52.7739 49.0173 52.4892C49.5278 52.1827 49.9379 51.9549 50.3316 51.6972C50.9398 51.3012 51.1136 50.6693 50.7769 50.1377C50.4456 49.6142 49.8591 49.4895 49.2319 49.8285C48.8381 50.0401 48.458 50.276 47.9339 50.5825L47.9312 50.5879ZM70.5422 54.5368C70.6562 54.5287 70.6834 54.5179 70.6996 54.526C71.0717 54.7348 71.4409 54.9518 71.8184 55.1552C72.4701 55.5105 73.081 55.3722 73.4042 54.8108C73.711 54.2792 73.5372 53.6934 72.9453 53.3082C72.538 53.0424 72.1198 52.7983 71.6337 52.4973C72.1225 52.199 72.5271 51.963 72.9208 51.708C73.5454 51.3066 73.7219 50.6991 73.3879 50.154C73.0485 49.6061 72.4538 49.4922 71.7885 49.8611C71.4002 50.0753 71.0201 50.3004 70.5449 50.5771C70.5449 49.994 70.5584 49.5275 70.5422 49.061C70.5177 48.3829 70.0588 47.9137 69.456 47.9191C68.8559 47.9246 68.4052 48.3965 68.378 49.0772C68.359 49.541 68.3753 50.0048 68.3753 50.5906C67.8838 50.3031 67.5064 50.0672 67.1181 49.8529C66.4609 49.4895 65.8554 49.617 65.5241 50.173C65.1929 50.729 65.3775 51.3148 66.0156 51.7162C66.4229 51.9711 66.8384 52.2125 67.3109 52.4973C67.0122 52.6817 66.8194 52.7983 66.6293 52.915C66.4175 53.0424 66.2003 53.1645 65.9912 53.2974C65.3857 53.6879 65.2064 54.2466 65.5078 54.7918C65.8228 55.3613 66.4446 55.5159 67.0882 55.1688C67.4955 54.9491 67.8892 54.705 68.3726 54.4202C68.3726 54.7674 68.3726 54.9898 68.3726 55.2122C68.3726 55.4373 68.3644 55.6624 68.3726 55.8875C68.4024 56.6035 68.8641 57.0971 69.4859 57.0809C70.0887 57.0646 70.5177 56.5927 70.5394 55.9038C70.553 55.4536 70.5394 55.0033 70.5394 54.5368H70.5422Z" fill="white"/>
<path d="M34.9165 41.7354C34.9165 41.4452 34.9165 41.2011 34.9165 40.957C34.9165 36.3083 34.9165 31.6596 34.9165 27.011C34.9165 23.9733 36.7249 22.1725 39.7607 22.1697C48.2544 22.1697 56.7509 22.1697 65.2446 22.1697C68.2858 22.1697 70.0888 23.9652 70.0915 27.0083C70.0942 31.6786 70.0915 36.3517 70.0915 41.0221V41.7327H34.9165V41.7354ZM51.6595 27.3907C52.9249 27.3907 54.1903 27.4124 55.4556 27.3825C56.1725 27.3663 56.5934 26.9242 56.5907 26.2977C56.5907 25.6712 56.1616 25.2372 55.4448 25.2318C52.9602 25.2155 50.4756 25.2047 47.9911 25.2508C47.6489 25.2562 47.1982 25.5193 47.0027 25.8068C46.5302 26.4929 47.0814 27.3527 48.0046 27.3825C49.2238 27.4205 50.443 27.3934 51.665 27.3934L51.6595 27.3907Z" fill="#E1DDFC"/>
<path d="M34.9165 63.2402H70.0589C70.0698 63.4924 70.0915 63.7311 70.0915 63.9725C70.0915 68.6673 70.0969 73.3593 70.0915 78.0541C70.0888 81.005 68.2613 82.8303 65.3179 82.8303C56.778 82.8303 48.2381 82.8303 39.6983 82.8303C36.7548 82.8303 34.9219 81.005 34.9165 78.0622C34.911 73.3675 34.9165 68.6754 34.9165 63.9806C34.9165 63.7582 34.9165 63.5385 34.9165 63.2429V63.2402ZM52.4741 79.7763C53.9621 79.7763 55.4502 79.7872 56.9382 79.7709C57.6904 79.7628 58.1656 79.3343 58.1764 78.7105C58.1873 78.0921 57.7121 77.6174 56.9708 77.612C53.9947 77.5958 51.0187 77.5957 48.0399 77.6202C47.7358 77.6229 47.3068 77.7693 47.1601 77.9944C46.9673 78.2874 46.8913 78.7484 46.9592 79.0983C47.0569 79.5919 47.5186 79.7709 48.0073 79.7709C49.4953 79.7736 50.9834 79.7709 52.4714 79.7709L52.4741 79.7763Z" fill="#E1DDFC"/>
<path d="M56.015 52.5C55.4963 52.1881 55.089 51.9576 54.6926 51.7053C54.0816 51.3175 53.8997 50.6883 54.231 50.1513C54.5568 49.6251 55.1488 49.4976 55.7733 49.8285C55.9715 49.9343 56.1616 50.059 56.3571 50.173C56.5499 50.2842 56.7481 50.3899 57.0821 50.5744C57.0821 50.0238 57.0712 49.5681 57.0821 49.1125C57.1038 48.4019 57.503 47.9463 58.1085 47.9164C58.7222 47.8866 59.2082 48.3748 59.2463 49.0881C59.2707 49.5329 59.2517 49.9804 59.2517 50.5581C59.7377 50.2814 60.1152 50.0563 60.5008 49.8475C61.1552 49.4895 61.7716 49.617 62.0974 50.1675C62.4205 50.7181 62.2413 51.3012 61.6032 51.7162C61.2122 51.9711 60.8076 52.2017 60.3243 52.4946C60.8157 52.7956 61.2393 53.037 61.6467 53.3055C62.244 53.7015 62.4097 54.2792 62.1028 54.8108C61.7824 55.3668 61.1579 55.5051 60.5116 55.1525C60.126 54.941 59.7459 54.7158 59.2517 54.4311C59.2517 55.0061 59.2707 55.4508 59.249 55.8929C59.2137 56.6117 58.7358 57.0999 58.1221 57.0782C57.5138 57.0565 57.1065 56.5981 57.0848 55.8929C57.0712 55.4481 57.0848 55.0006 57.0848 54.4256C56.6069 54.6969 56.2268 54.9166 55.8439 55.1281C55.1569 55.5078 54.5215 55.3776 54.2011 54.7918C53.9024 54.2494 54.1142 53.6473 54.7469 53.2567C55.127 53.0207 55.5153 52.7956 56.0177 52.4946L56.015 52.5Z" fill="#3D3362"/>
<path d="M34.4684 50.5906C34.4684 50.0129 34.4603 49.5681 34.4684 49.1233C34.4875 48.3965 34.9328 47.911 35.56 47.9191C36.1818 47.9273 36.6136 48.4155 36.638 49.1478C36.6516 49.5736 36.657 50.0021 36.6706 50.4279C36.6706 50.4415 36.7005 50.4523 36.7657 50.5066C37.1485 50.2842 37.545 50.0373 37.9577 49.8204C38.5741 49.4922 39.1742 49.6387 39.4892 50.1757C39.8042 50.71 39.644 51.2985 39.0547 51.6863C38.6474 51.9549 38.2238 52.1962 37.7215 52.5027C38.2265 52.8092 38.6474 53.0533 39.0547 53.3191C39.644 53.7069 39.8069 54.2982 39.4892 54.827C39.1688 55.3613 38.5741 55.5024 37.955 55.1796C37.735 55.0657 37.5287 54.9274 37.3114 54.8054C37.1214 54.6969 36.9259 54.5992 36.638 54.4446C36.638 54.9979 36.6516 55.4617 36.6353 55.9255C36.6082 56.6035 36.1547 57.0782 35.5573 57.0809C34.9545 57.0836 34.4956 56.6144 34.4739 55.9363C34.4576 55.4698 34.4712 55.0033 34.4712 54.4121C34.0123 54.6806 33.6511 54.8949 33.2873 55.1037C32.5894 55.5024 31.9812 55.4047 31.6282 54.8406C31.2806 54.2846 31.4815 53.669 32.1522 53.2567C32.5324 53.0235 32.918 52.7983 33.404 52.5054C32.9098 52.2044 32.4944 51.9603 32.0871 51.7026C31.4625 51.3039 31.2887 50.6964 31.6309 50.1513C31.9622 49.6251 32.5514 49.4976 33.1732 49.8339C33.5669 50.0482 33.9471 50.2842 34.4712 50.5906H34.4684Z" fill="#3D3362"/>
<path d="M47.9314 50.5879C48.4554 50.2814 48.8356 50.0482 49.2293 49.8339C49.8566 49.4949 50.4431 49.6169 50.7744 50.1431C51.1111 50.6747 50.9373 51.3093 50.329 51.7026C49.9353 51.9576 49.5253 52.1881 49.0148 52.4946C49.4873 52.7793 49.8864 53.0126 50.2747 53.2567C50.9047 53.6527 51.1083 54.2575 50.8069 54.7999C50.4811 55.3857 49.8674 55.5078 49.1669 55.12C48.7976 54.9138 48.431 54.7023 47.9286 54.4175C47.9286 54.9843 47.9422 55.4454 47.9259 55.9038C47.9015 56.6062 47.486 57.0673 46.8778 57.0836C46.2858 57.0998 45.8079 56.6333 45.7645 55.9553C45.7346 55.4942 45.759 55.0277 45.759 54.4202C45.2513 54.7186 44.8766 54.9545 44.4883 55.1633C43.8447 55.5132 43.2175 55.3668 42.8998 54.8053C42.5956 54.2683 42.7694 53.6933 43.3722 53.3055C43.7687 53.0506 44.1814 52.8173 44.7136 52.5C44.3498 52.283 44.0565 52.1094 43.7632 51.9359C42.8047 51.3663 42.5386 50.8239 42.9052 50.1838C43.2745 49.5356 43.8936 49.4976 44.8467 50.0509C45.1101 50.2055 45.3816 50.3465 45.7563 50.5526C45.7563 49.9939 45.74 49.5491 45.759 49.1071C45.7943 48.3883 46.2695 47.9001 46.8859 47.9218C47.4942 47.9435 47.8988 48.3992 47.9259 49.1071C47.9341 49.3322 47.9259 49.5573 47.9286 49.7824C47.9286 50.0021 47.9286 50.2245 47.9286 50.5933L47.9314 50.5879Z" fill="#3D3362"/>
<path d="M70.5423 54.5369C70.5423 55.0061 70.5532 55.4563 70.5423 55.9038C70.5206 56.5954 70.0916 57.0646 69.4887 57.0809C68.8669 57.0971 68.4053 56.6062 68.3754 55.8875C68.3673 55.6624 68.3754 55.4373 68.3754 55.2122C68.3754 54.9898 68.3754 54.7674 68.3754 54.4202C67.8921 54.7023 67.4984 54.9464 67.0911 55.1688C66.4475 55.5159 65.8257 55.3614 65.5107 54.7918C65.2093 54.2466 65.3885 53.6879 65.994 53.2974C66.2031 53.1645 66.4204 53.0424 66.6322 52.915C66.825 52.7983 67.015 52.6817 67.3137 52.4973C66.8412 52.2125 66.4258 51.9711 66.0185 51.7162C65.3777 51.3148 65.1957 50.729 65.527 50.173C65.8556 49.617 66.4611 49.4895 67.1209 49.8529C67.5092 50.0672 67.8867 50.3004 68.3781 50.5906C68.3781 50.0075 68.3646 49.541 68.3809 49.0772C68.408 48.3965 68.8588 47.9246 69.4589 47.9191C70.0644 47.9137 70.5206 48.3829 70.545 49.061C70.5613 49.5275 70.5477 49.994 70.5477 50.5771C71.0256 50.3031 71.4058 50.0753 71.7914 49.8611C72.4566 49.4922 73.0513 49.6061 73.3907 50.154C73.7247 50.6964 73.5482 51.3039 72.9237 51.7081C72.53 51.9603 72.1254 52.1962 71.6366 52.4973C72.1227 52.7956 72.5408 53.0424 72.9481 53.3082C73.5401 53.6934 73.7139 54.2792 73.407 54.8108C73.0839 55.3749 72.4729 55.5105 71.8212 55.1552C71.4465 54.9518 71.0772 54.7348 70.7025 54.526C70.6862 54.5179 70.6591 54.526 70.545 54.5369H70.5423Z" fill="#3D3362"/>
<path d="M51.6594 27.388C50.4402 27.388 49.2182 27.4178 47.999 27.3771C47.0758 27.3473 46.5246 26.4902 46.9971 25.8013C47.1926 25.5166 47.646 25.2535 47.9855 25.2453C50.47 25.1992 52.9546 25.2101 55.4392 25.2264C56.156 25.2318 56.5823 25.6657 56.5851 26.2922C56.5851 26.9188 56.1669 27.3608 55.45 27.3771C54.1847 27.4069 52.9193 27.3852 51.6539 27.3852L51.6594 27.388Z" fill="#3D3362"/>
<path d="M52.474 79.7763C50.986 79.7763 49.498 79.7763 48.0099 79.7763C47.5184 79.7763 47.0596 79.5973 46.9618 79.1037C46.8912 78.7539 46.9699 78.2928 47.1627 77.9999C47.3094 77.7748 47.7384 77.6283 48.0425 77.6256C51.0186 77.5985 53.9946 77.5985 56.9734 77.6175C57.7147 77.6229 58.1899 78.0975 58.179 78.7159C58.1682 79.337 57.6957 79.7682 56.9408 79.7763C55.4528 79.7926 53.9648 79.7818 52.4767 79.7791L52.474 79.7763Z" fill="#3D3362"/>
</g>
<defs>
<clipPath id="clip0_97_1812">
<rect width="55" height="65" fill="white" transform="translate(25 20)"/>
</clipPath>
</defs>
</svg>
