<svg width="68" height="68" viewBox="0 0 68 68" fill="none" xmlns="http://www.w3.org/2000/svg">
<path d="M14.1665 36.8333C14.1665 41.5038 16.0499 45.7343 19.0986 48.8069C19.3926 49.1032 19.5396 49.2514 19.6264 49.3939C19.7092 49.5298 19.7574 49.6468 19.7944 49.8017C19.8332 49.9639 19.8332 50.1486 19.8332 50.5178V57.2333C19.8332 58.0267 19.8332 58.4234 19.9876 58.7265C20.1234 58.993 20.3401 59.2098 20.6067 59.3456C20.9097 59.5 21.3064 59.5 22.0998 59.5H27.4832C28.2766 59.5 28.6733 59.5 28.9763 59.3456C29.2429 59.2098 29.4596 58.993 29.5954 58.7265C29.7498 58.4234 29.7498 58.0267 29.7498 57.2333V56.1C29.7498 55.3066 29.7498 54.9099 29.9042 54.6068C30.04 54.3403 30.2568 54.1236 30.5233 53.9877C30.8264 53.8333 31.2231 53.8333 32.0165 53.8333H35.9832C36.7766 53.8333 37.1733 53.8333 37.4763 53.9877C37.7429 54.1236 37.9596 54.3403 38.0954 54.6068C38.2498 54.9099 38.2498 55.3066 38.2498 56.1V57.2333C38.2498 58.0267 38.2498 58.4234 38.4042 58.7265C38.54 58.993 38.7568 59.2098 39.0233 59.3456C39.3264 59.5 39.7231 59.5 40.5165 59.5H45.9C46.6934 59.5 47.0901 59.5 47.3932 59.3456C47.6597 59.2098 47.8765 58.993 48.0123 58.7265C48.1667 58.4234 48.1667 58.0267 48.1667 57.2333V54.4689C48.1667 53.8964 48.1667 53.6102 48.2482 53.3804C48.3263 53.1601 48.4247 53.006 48.5916 52.8424C48.7657 52.6717 49.0606 52.5348 49.6505 52.2609C52.4334 50.9689 54.8081 48.946 56.5282 46.4388C56.8307 45.9979 56.9819 45.7775 57.1434 45.6472C57.2978 45.5227 57.4364 45.4497 57.6264 45.3928C57.8252 45.3333 58.0612 45.3333 58.5331 45.3333H60.0667C60.8601 45.3333 61.2568 45.3333 61.5598 45.1789C61.8264 45.0431 62.0431 44.8264 62.1789 44.5598C62.3334 44.2568 62.3334 43.8601 62.3334 43.0667V33.393C62.3334 32.6376 62.3334 32.2599 62.193 31.9686C62.0538 31.6795 61.8205 31.4462 61.5314 31.307C61.2401 31.1667 60.8624 31.1667 60.1071 31.1667C59.5603 31.1667 59.287 31.1667 59.0668 31.0924C58.8293 31.0124 58.6629 30.906 58.4906 30.724C58.3309 30.5553 58.2004 30.2731 57.9396 29.7088C57.1024 27.8976 55.956 26.2587 54.5679 24.8598C54.2739 24.5635 54.1269 24.4153 54.0401 24.2728C53.9573 24.1369 53.9091 24.0198 53.8721 23.865C53.8334 23.7027 53.8334 23.5181 53.8334 23.1488V20.005C53.8334 18.9848 53.8334 18.4748 53.6209 18.1319C53.4348 17.8316 53.1432 17.6117 52.8033 17.5152C52.4153 17.4051 51.9249 17.5453 50.944 17.8255L44.2217 19.7461C44.1075 19.7788 44.0504 19.7951 43.9923 19.8065C43.9407 19.8167 43.8886 19.824 43.8362 19.8284C43.7773 19.8333 43.7178 19.8333 43.599 19.8333H42.384M14.1665 36.8333C14.1665 30.3052 17.8462 24.6364 23.2446 21.7881M14.1665 36.8333H11.3334C8.20374 36.8333 5.66669 34.2963 5.66669 31.1667C5.66669 29.0692 6.80625 27.2379 8.50002 26.2581M42.5 18.4167C42.5 23.8935 38.0602 28.3333 32.5834 28.3333C27.1065 28.3333 22.6667 23.8935 22.6667 18.4167C22.6667 12.9398 27.1065 8.5 32.5834 8.5C38.0602 8.5 42.5 12.9398 42.5 18.4167Z" stroke="#8379CD" stroke-width="4" stroke-linecap="round" stroke-linejoin="round"/>
</svg>
