<svg width="570" height="320" viewBox="0 0 570 320" fill="none" xmlns="http://www.w3.org/2000/svg">
<rect width="570" height="320" rx="16" fill="#E6E6F1"/>
<rect x="76" y="38" width="417" height="244" rx="16" fill="white"/>
<path d="M102.144 74.112C101.877 74.112 101.669 74.0373 101.52 73.888C101.381 73.7387 101.312 73.5307 101.312 73.264V63.456C101.312 63.1787 101.381 62.9707 101.52 62.832C101.669 62.6827 101.877 62.608 102.144 62.608C102.411 62.608 102.613 62.6827 102.752 62.832C102.901 62.9707 102.976 63.1787 102.976 63.456V73.264C102.976 73.5307 102.907 73.7387 102.768 73.888C102.629 74.0373 102.421 74.112 102.144 74.112ZM106.217 74.112C105.961 74.112 105.764 74.0427 105.625 73.904C105.487 73.7547 105.417 73.552 105.417 73.296V66.896C105.417 66.6293 105.487 66.4267 105.625 66.288C105.764 66.1493 105.956 66.08 106.201 66.08C106.457 66.08 106.649 66.1493 106.777 66.288C106.916 66.4267 106.985 66.6293 106.985 66.896V68.144L106.809 67.856C107.044 67.2587 107.412 66.8107 107.913 66.512C108.415 66.2027 108.991 66.048 109.641 66.048C110.26 66.048 110.772 66.1653 111.177 66.4C111.593 66.624 111.903 66.9707 112.105 67.44C112.308 67.8987 112.409 68.48 112.409 69.184V73.296C112.409 73.552 112.34 73.7547 112.201 73.904C112.063 74.0427 111.865 74.112 111.609 74.112C111.343 74.112 111.14 74.0427 111.001 73.904C110.863 73.7547 110.793 73.552 110.793 73.296V69.28C110.793 68.608 110.66 68.1173 110.393 67.808C110.137 67.4987 109.732 67.344 109.177 67.344C108.527 67.344 108.004 67.5467 107.609 67.952C107.225 68.3573 107.033 68.9013 107.033 69.584V73.296C107.033 73.84 106.761 74.112 106.217 74.112ZM117.582 74.112C117.358 74.112 117.161 74.0533 116.99 73.936C116.83 73.8187 116.697 73.6373 116.59 73.392L113.918 67.184C113.833 66.992 113.801 66.8107 113.822 66.64C113.843 66.4693 113.923 66.336 114.062 66.24C114.201 66.1333 114.387 66.08 114.622 66.08C114.825 66.08 114.985 66.128 115.102 66.224C115.219 66.32 115.326 66.4853 115.422 66.72L117.838 72.672H117.39L119.854 66.72C119.95 66.4853 120.057 66.32 120.174 66.224C120.302 66.128 120.478 66.08 120.702 66.08C120.894 66.08 121.043 66.1333 121.15 66.24C121.267 66.336 121.337 66.4693 121.358 66.64C121.39 66.8 121.363 66.976 121.278 67.168L118.574 73.392C118.478 73.6373 118.345 73.8187 118.174 73.936C118.003 74.0533 117.806 74.112 117.582 74.112ZM126.122 74.144C125.332 74.144 124.65 73.9787 124.074 73.648C123.508 73.3173 123.066 72.848 122.746 72.24C122.426 71.632 122.266 70.9173 122.266 70.096C122.266 69.4667 122.356 68.9067 122.538 68.416C122.719 67.9253 122.975 67.504 123.306 67.152C123.647 66.7893 124.052 66.5173 124.522 66.336C125.002 66.144 125.535 66.048 126.122 66.048C126.9 66.048 127.572 66.2133 128.138 66.544C128.714 66.8747 129.162 67.344 129.482 67.952C129.802 68.5493 129.962 69.264 129.962 70.096C129.962 70.7147 129.871 71.2747 129.69 71.776C129.508 72.2773 129.247 72.704 128.906 73.056C128.575 73.408 128.17 73.68 127.69 73.872C127.22 74.0533 126.698 74.144 126.122 74.144ZM126.122 72.896C126.559 72.896 126.943 72.7893 127.274 72.576C127.604 72.3627 127.86 72.048 128.042 71.632C128.234 71.216 128.33 70.704 128.33 70.096C128.33 69.1787 128.127 68.4853 127.722 68.016C127.316 67.5467 126.783 67.312 126.122 67.312C125.674 67.312 125.284 67.4187 124.954 67.632C124.623 67.8347 124.362 68.144 124.17 68.56C123.988 68.976 123.898 69.488 123.898 70.096C123.898 71.0027 124.1 71.696 124.506 72.176C124.911 72.656 125.45 72.896 126.122 72.896ZM132.577 74.096C132.321 74.096 132.123 74.0213 131.985 73.872C131.846 73.712 131.777 73.4933 131.777 73.216V66.976C131.777 66.6987 131.846 66.4853 131.985 66.336C132.123 66.1867 132.321 66.112 132.577 66.112C132.833 66.112 133.03 66.1867 133.169 66.336C133.318 66.4853 133.393 66.6987 133.393 66.976V73.216C133.393 73.4933 133.323 73.712 133.185 73.872C133.046 74.0213 132.843 74.096 132.577 74.096ZM132.577 64.448C132.257 64.448 132.006 64.368 131.825 64.208C131.654 64.048 131.569 63.824 131.569 63.536C131.569 63.2373 131.654 63.0133 131.825 62.864C132.006 62.704 132.257 62.624 132.577 62.624C132.897 62.624 133.142 62.704 133.313 62.864C133.494 63.0133 133.585 63.2373 133.585 63.536C133.585 63.824 133.494 64.048 133.313 64.208C133.142 64.368 132.897 64.448 132.577 64.448ZM139.107 74.144C138.307 74.144 137.614 73.9787 137.027 73.648C136.451 73.3067 136.003 72.832 135.683 72.224C135.363 71.6053 135.203 70.88 135.203 70.048C135.203 69.4293 135.294 68.8747 135.475 68.384C135.657 67.8827 135.913 67.4613 136.243 67.12C136.585 66.7787 136.995 66.5173 137.475 66.336C137.966 66.144 138.51 66.048 139.107 66.048C139.481 66.048 139.87 66.1067 140.275 66.224C140.691 66.3307 141.075 66.512 141.427 66.768C141.566 66.8533 141.651 66.96 141.683 67.088C141.726 67.2053 141.731 67.328 141.699 67.456C141.678 67.584 141.619 67.696 141.523 67.792C141.438 67.8773 141.331 67.9307 141.203 67.952C141.075 67.9627 140.937 67.9253 140.787 67.84C140.531 67.6587 140.27 67.5307 140.003 67.456C139.737 67.3707 139.481 67.328 139.235 67.328C138.851 67.328 138.51 67.392 138.211 67.52C137.923 67.6373 137.678 67.8133 137.475 68.048C137.273 68.272 137.118 68.5547 137.011 68.896C136.915 69.2373 136.867 69.6267 136.867 70.064C136.867 70.9387 137.07 71.6267 137.475 72.128C137.891 72.6187 138.478 72.864 139.235 72.864C139.481 72.864 139.737 72.8267 140.003 72.752C140.27 72.6773 140.531 72.5493 140.787 72.368C140.937 72.2827 141.075 72.2507 141.203 72.272C141.331 72.2933 141.433 72.352 141.507 72.448C141.593 72.5333 141.646 72.64 141.667 72.768C141.699 72.8853 141.694 73.008 141.651 73.136C141.609 73.264 141.518 73.3707 141.379 73.456C141.038 73.7013 140.665 73.8773 140.259 73.984C139.865 74.0907 139.481 74.144 139.107 74.144ZM146.644 74.144C145.79 74.144 145.054 73.984 144.436 73.664C143.828 73.3333 143.353 72.8693 143.012 72.272C142.681 71.664 142.516 70.944 142.516 70.112C142.516 69.3013 142.681 68.592 143.012 67.984C143.342 67.376 143.796 66.9013 144.372 66.56C144.948 66.2187 145.604 66.048 146.34 66.048C146.884 66.048 147.369 66.1387 147.796 66.32C148.222 66.4907 148.585 66.7467 148.884 67.088C149.193 67.4187 149.422 67.824 149.572 68.304C149.732 68.784 149.812 69.3227 149.812 69.92C149.812 70.1013 149.758 70.24 149.652 70.336C149.545 70.4213 149.385 70.464 149.172 70.464H143.796V69.472H148.724L148.452 69.696C148.452 69.1627 148.372 68.7093 148.212 68.336C148.062 67.9627 147.833 67.68 147.524 67.488C147.225 67.2853 146.852 67.184 146.404 67.184C145.902 67.184 145.476 67.3013 145.124 67.536C144.782 67.7707 144.521 68.096 144.34 68.512C144.158 68.928 144.068 69.4133 144.068 69.968V70.064C144.068 71.0027 144.286 71.712 144.724 72.192C145.172 72.6613 145.817 72.896 146.66 72.896C146.98 72.896 147.316 72.8533 147.668 72.768C148.03 72.6827 148.372 72.5387 148.692 72.336C148.873 72.2293 149.033 72.1813 149.172 72.192C149.321 72.2027 149.438 72.2507 149.524 72.336C149.62 72.4213 149.678 72.528 149.7 72.656C149.721 72.784 149.7 72.9173 149.636 73.056C149.572 73.184 149.46 73.3013 149.3 73.408C148.937 73.6533 148.516 73.84 148.036 73.968C147.556 74.0853 147.092 74.144 146.644 74.144ZM161.024 74.144C159.883 74.144 158.907 73.9093 158.096 73.44C157.286 72.9707 156.662 72.304 156.224 71.44C155.798 70.5653 155.584 69.536 155.584 68.352C155.584 67.4667 155.707 66.672 155.952 65.968C156.198 65.2533 156.55 64.6453 157.008 64.144C157.478 63.632 158.048 63.2427 158.72 62.976C159.403 62.7093 160.171 62.576 161.024 62.576C161.654 62.576 162.256 62.6613 162.832 62.832C163.419 63.0027 163.926 63.248 164.352 63.568C164.534 63.6853 164.651 63.8293 164.704 64C164.768 64.16 164.779 64.3147 164.736 64.464C164.704 64.6133 164.635 64.7413 164.528 64.848C164.422 64.944 164.283 64.9973 164.112 65.008C163.952 65.0187 163.776 64.96 163.584 64.832C163.232 64.5653 162.843 64.368 162.416 64.24C161.99 64.112 161.542 64.048 161.072 64.048C160.262 64.048 159.579 64.2187 159.024 64.56C158.47 64.8907 158.048 65.376 157.76 66.016C157.472 66.656 157.328 67.4347 157.328 68.352C157.328 69.2693 157.472 70.0533 157.76 70.704C158.048 71.344 158.47 71.8347 159.024 72.176C159.579 72.5067 160.262 72.672 161.072 72.672C161.542 72.672 161.99 72.608 162.416 72.48C162.854 72.3413 163.264 72.1387 163.648 71.872C163.84 71.7547 164.011 71.7013 164.16 71.712C164.32 71.7227 164.454 71.776 164.56 71.872C164.667 71.968 164.736 72.0907 164.768 72.24C164.811 72.3787 164.806 72.528 164.752 72.688C164.71 72.8373 164.608 72.9653 164.448 73.072C164.011 73.424 163.494 73.6907 162.896 73.872C162.299 74.0533 161.675 74.144 161.024 74.144ZM167.421 74.112C167.154 74.112 166.951 74.0427 166.813 73.904C166.674 73.7547 166.605 73.552 166.605 73.296V66.896C166.605 66.6293 166.674 66.4267 166.813 66.288C166.951 66.1493 167.143 66.08 167.389 66.08C167.645 66.08 167.837 66.1493 167.965 66.288C168.103 66.4267 168.173 66.6293 168.173 66.896V68.064H168.013C168.183 67.424 168.498 66.9387 168.957 66.608C169.415 66.2773 170.002 66.0853 170.717 66.032C170.909 66.0213 171.058 66.0693 171.165 66.176C171.282 66.2827 171.346 66.448 171.357 66.672C171.378 66.896 171.33 67.0773 171.213 67.216C171.095 67.344 170.914 67.4187 170.669 67.44L170.365 67.472C169.671 67.536 169.143 67.7547 168.781 68.128C168.418 68.5013 168.237 69.0133 168.237 69.664V73.296C168.237 73.552 168.167 73.7547 168.029 73.904C167.901 74.0427 167.698 74.112 167.421 74.112ZM176.128 74.144C175.275 74.144 174.539 73.984 173.92 73.664C173.312 73.3333 172.837 72.8693 172.496 72.272C172.165 71.664 172 70.944 172 70.112C172 69.3013 172.165 68.592 172.496 67.984C172.827 67.376 173.28 66.9013 173.856 66.56C174.432 66.2187 175.088 66.048 175.824 66.048C176.368 66.048 176.853 66.1387 177.28 66.32C177.707 66.4907 178.069 66.7467 178.368 67.088C178.677 67.4187 178.907 67.824 179.056 68.304C179.216 68.784 179.296 69.3227 179.296 69.92C179.296 70.1013 179.243 70.24 179.136 70.336C179.029 70.4213 178.869 70.464 178.656 70.464H173.28V69.472H178.208L177.936 69.696C177.936 69.1627 177.856 68.7093 177.696 68.336C177.547 67.9627 177.317 67.68 177.008 67.488C176.709 67.2853 176.336 67.184 175.888 67.184C175.387 67.184 174.96 67.3013 174.608 67.536C174.267 67.7707 174.005 68.096 173.824 68.512C173.643 68.928 173.552 69.4133 173.552 69.968V70.064C173.552 71.0027 173.771 71.712 174.208 72.192C174.656 72.6613 175.301 72.896 176.144 72.896C176.464 72.896 176.8 72.8533 177.152 72.768C177.515 72.6827 177.856 72.5387 178.176 72.336C178.357 72.2293 178.517 72.1813 178.656 72.192C178.805 72.2027 178.923 72.2507 179.008 72.336C179.104 72.4213 179.163 72.528 179.184 72.656C179.205 72.784 179.184 72.9173 179.12 73.056C179.056 73.184 178.944 73.3013 178.784 73.408C178.421 73.6533 178 73.84 177.52 73.968C177.04 74.0853 176.576 74.144 176.128 74.144ZM183.554 74.144C183.01 74.144 182.519 74.0373 182.082 73.824C181.655 73.6107 181.319 73.3227 181.074 72.96C180.829 72.5973 180.706 72.1867 180.706 71.728C180.706 71.152 180.85 70.6987 181.138 70.368C181.437 70.0267 181.922 69.7867 182.594 69.648C183.277 69.4987 184.194 69.424 185.346 69.424H186.098V70.416H185.362C184.594 70.416 183.986 70.4533 183.538 70.528C183.09 70.6027 182.77 70.7307 182.578 70.912C182.397 71.0827 182.306 71.3227 182.306 71.632C182.306 72.0373 182.445 72.368 182.722 72.624C182.999 72.8693 183.383 72.992 183.874 72.992C184.269 72.992 184.615 72.9013 184.914 72.72C185.213 72.528 185.447 72.272 185.618 71.952C185.799 71.632 185.89 71.264 185.89 70.848V69.008C185.89 68.4 185.762 67.9627 185.506 67.696C185.25 67.4293 184.829 67.296 184.242 67.296C183.901 67.296 183.543 67.3387 183.17 67.424C182.807 67.5093 182.429 67.6533 182.034 67.856C181.853 67.9413 181.698 67.968 181.57 67.936C181.442 67.904 181.341 67.8347 181.266 67.728C181.191 67.6107 181.149 67.488 181.138 67.36C181.138 67.2213 181.17 67.088 181.234 66.96C181.309 66.832 181.431 66.736 181.602 66.672C182.071 66.448 182.535 66.288 182.994 66.192C183.453 66.096 183.885 66.048 184.29 66.048C185.005 66.048 185.591 66.16 186.05 66.384C186.519 66.608 186.866 66.9493 187.09 67.408C187.314 67.8667 187.426 68.4587 187.426 69.184V73.296C187.426 73.552 187.362 73.7547 187.234 73.904C187.106 74.0427 186.919 74.112 186.674 74.112C186.439 74.112 186.253 74.0427 186.114 73.904C185.975 73.7547 185.906 73.552 185.906 73.296V72.256H186.05C185.965 72.6507 185.805 72.992 185.57 73.28C185.346 73.5573 185.063 73.7707 184.722 73.92C184.381 74.0693 183.991 74.144 183.554 74.144ZM192.98 74.144C192.34 74.144 191.801 74.032 191.364 73.808C190.926 73.584 190.601 73.2533 190.388 72.816C190.174 72.3787 190.068 71.8453 190.068 71.216V67.44H189.108C188.894 67.44 188.729 67.3867 188.612 67.28C188.494 67.1627 188.436 67.008 188.436 66.816C188.436 66.6133 188.494 66.4587 188.612 66.352C188.729 66.2453 188.894 66.192 189.108 66.192H190.068V64.544C190.068 64.2773 190.137 64.0747 190.276 63.936C190.425 63.7973 190.628 63.728 190.884 63.728C191.14 63.728 191.337 63.7973 191.476 63.936C191.614 64.0747 191.684 64.2773 191.684 64.544V66.192H193.556C193.769 66.192 193.934 66.2453 194.052 66.352C194.169 66.4587 194.228 66.6133 194.228 66.816C194.228 67.008 194.169 67.1627 194.052 67.28C193.934 67.3867 193.769 67.44 193.556 67.44H191.684V71.088C191.684 71.6533 191.801 72.08 192.036 72.368C192.281 72.656 192.676 72.8 193.22 72.8C193.412 72.8 193.577 72.784 193.716 72.752C193.865 72.7093 193.988 72.6827 194.084 72.672C194.201 72.672 194.297 72.7147 194.372 72.8C194.446 72.8747 194.484 73.024 194.484 73.248C194.484 73.408 194.452 73.5573 194.388 73.696C194.334 73.8347 194.233 73.9253 194.084 73.968C193.956 74.0107 193.78 74.048 193.556 74.08C193.342 74.1227 193.15 74.144 192.98 74.144ZM199.081 74.144C198.228 74.144 197.492 73.984 196.873 73.664C196.265 73.3333 195.791 72.8693 195.449 72.272C195.119 71.664 194.953 70.944 194.953 70.112C194.953 69.3013 195.119 68.592 195.449 67.984C195.78 67.376 196.233 66.9013 196.809 66.56C197.385 66.2187 198.041 66.048 198.777 66.048C199.321 66.048 199.807 66.1387 200.233 66.32C200.66 66.4907 201.023 66.7467 201.321 67.088C201.631 67.4187 201.86 67.824 202.009 68.304C202.169 68.784 202.249 69.3227 202.249 69.92C202.249 70.1013 202.196 70.24 202.089 70.336C201.983 70.4213 201.823 70.464 201.609 70.464H196.233V69.472H201.161L200.889 69.696C200.889 69.1627 200.809 68.7093 200.649 68.336C200.5 67.9627 200.271 67.68 199.961 67.488C199.663 67.2853 199.289 67.184 198.841 67.184C198.34 67.184 197.913 67.3013 197.561 67.536C197.22 67.7707 196.959 68.096 196.777 68.512C196.596 68.928 196.505 69.4133 196.505 69.968V70.064C196.505 71.0027 196.724 71.712 197.161 72.192C197.609 72.6613 198.255 72.896 199.097 72.896C199.417 72.896 199.753 72.8533 200.105 72.768C200.468 72.6827 200.809 72.5387 201.129 72.336C201.311 72.2293 201.471 72.1813 201.609 72.192C201.759 72.2027 201.876 72.2507 201.961 72.336C202.057 72.4213 202.116 72.528 202.137 72.656C202.159 72.784 202.137 72.9173 202.073 73.056C202.009 73.184 201.897 73.3013 201.737 73.408C201.375 73.6533 200.953 73.84 200.473 73.968C199.993 74.0853 199.529 74.144 199.081 74.144ZM206.987 74.144C206.304 74.144 205.702 73.984 205.179 73.664C204.667 73.3333 204.267 72.864 203.979 72.256C203.691 71.6373 203.547 70.9173 203.547 70.096C203.547 69.2533 203.691 68.5333 203.979 67.936C204.267 67.3387 204.667 66.8747 205.179 66.544C205.702 66.2133 206.304 66.048 206.987 66.048C207.67 66.048 208.256 66.2187 208.747 66.56C209.248 66.8907 209.584 67.3387 209.755 67.904H209.579V63.424C209.579 63.1573 209.648 62.9547 209.787 62.816C209.926 62.6773 210.123 62.608 210.379 62.608C210.635 62.608 210.832 62.6773 210.971 62.816C211.12 62.9547 211.195 63.1573 211.195 63.424V73.296C211.195 73.552 211.126 73.7547 210.987 73.904C210.848 74.0427 210.651 74.112 210.395 74.112C210.139 74.112 209.942 74.0427 209.803 73.904C209.664 73.7547 209.595 73.552 209.595 73.296V71.888L209.771 72.24C209.6 72.816 209.264 73.28 208.763 73.632C208.272 73.9733 207.68 74.144 206.987 74.144ZM207.403 72.896C207.84 72.896 208.224 72.7893 208.555 72.576C208.886 72.3627 209.142 72.048 209.323 71.632C209.515 71.216 209.611 70.704 209.611 70.096C209.611 69.1787 209.408 68.4853 209.003 68.016C208.598 67.5467 208.064 67.312 207.403 67.312C206.955 67.312 206.566 67.4187 206.235 67.632C205.904 67.8347 205.643 68.144 205.451 68.56C205.27 68.976 205.179 69.488 205.179 70.096C205.179 71.0027 205.382 71.696 205.787 72.176C206.192 72.656 206.731 72.896 207.403 72.896Z" fill="#8F8CA7"/>
<path d="M107.224 104.264C106.408 104.264 105.568 104.16 104.704 103.952C103.84 103.744 103.048 103.432 102.328 103.016C101.96 102.808 101.704 102.552 101.56 102.248C101.432 101.944 101.392 101.632 101.44 101.312C101.504 100.992 101.632 100.72 101.824 100.496C102.032 100.256 102.288 100.104 102.592 100.04C102.912 99.976 103.264 100.048 103.648 100.256C104.208 100.544 104.776 100.768 105.352 100.928C105.944 101.088 106.544 101.168 107.152 101.168C107.76 101.168 108.28 101.064 108.712 100.856C109.144 100.648 109.472 100.36 109.696 99.992C109.92 99.624 110.032 99.192 110.032 98.696C110.032 97.928 109.784 97.312 109.288 96.848C108.808 96.384 108.152 96.152 107.32 96.152C106.904 96.152 106.48 96.224 106.048 96.368C105.632 96.496 105.2 96.728 104.752 97.064C104.592 97.192 104.384 97.312 104.128 97.424C103.872 97.536 103.6 97.592 103.312 97.592C102.816 97.592 102.448 97.48 102.208 97.256C101.968 97.016 101.848 96.672 101.848 96.224V88.688C101.848 88.16 101.984 87.76 102.256 87.488C102.544 87.216 102.944 87.08 103.456 87.08H111.16C111.688 87.08 112.088 87.216 112.36 87.488C112.632 87.744 112.768 88.12 112.768 88.616C112.768 89.096 112.632 89.472 112.36 89.744C112.088 90 111.688 90.128 111.16 90.128H105.424V94.712H104.512C104.912 94.216 105.44 93.832 106.096 93.56C106.752 93.288 107.472 93.152 108.256 93.152C109.328 93.152 110.264 93.384 111.064 93.848C111.864 94.296 112.488 94.928 112.936 95.744C113.384 96.56 113.608 97.504 113.608 98.576C113.608 99.696 113.352 100.688 112.84 101.552C112.328 102.4 111.592 103.064 110.632 103.544C109.672 104.024 108.536 104.264 107.224 104.264ZM118.015 106.736C117.775 107.024 117.519 107.184 117.247 107.216C116.975 107.264 116.743 107.216 116.551 107.072C116.359 106.928 116.247 106.72 116.215 106.448C116.199 106.192 116.319 105.912 116.575 105.608C116.927 105.16 117.167 104.72 117.295 104.288C117.423 103.856 117.487 103.472 117.487 103.136L117.607 104.12C116.967 104.12 116.447 103.936 116.047 103.568C115.647 103.2 115.447 102.696 115.447 102.056C115.447 101.464 115.631 100.984 115.999 100.616C116.367 100.232 116.871 100.04 117.511 100.04C118.167 100.04 118.679 100.264 119.047 100.712C119.415 101.144 119.599 101.76 119.599 102.56C119.599 102.976 119.559 103.4 119.479 103.832C119.399 104.264 119.247 104.72 119.023 105.2C118.799 105.68 118.463 106.192 118.015 106.736ZM124.393 104C123.881 104 123.489 103.864 123.217 103.592C122.945 103.32 122.809 102.944 122.809 102.464C122.809 101.968 122.945 101.592 123.217 101.336C123.489 101.08 123.881 100.952 124.393 100.952H126.817V90.128H128.569L125.065 92.264C124.697 92.488 124.353 92.576 124.033 92.528C123.729 92.48 123.465 92.344 123.241 92.12C123.017 91.896 122.865 91.632 122.785 91.328C122.721 91.008 122.753 90.696 122.881 90.392C123.009 90.072 123.249 89.8 123.601 89.576L126.937 87.56C127.273 87.352 127.609 87.184 127.945 87.056C128.297 86.928 128.641 86.864 128.977 86.864C129.457 86.864 129.833 86.992 130.105 87.248C130.393 87.488 130.537 87.864 130.537 88.376V100.952H132.721C133.217 100.952 133.601 101.08 133.873 101.336C134.145 101.592 134.281 101.968 134.281 102.464C134.281 102.96 134.145 103.344 133.873 103.616C133.601 103.872 133.217 104 132.721 104H124.393ZM140.824 104.264C140.136 104.264 139.44 104.168 138.736 103.976C138.032 103.784 137.376 103.496 136.768 103.112C136.448 102.952 136.224 102.728 136.096 102.44C135.984 102.136 135.952 101.832 136 101.528C136.048 101.224 136.168 100.96 136.36 100.736C136.552 100.496 136.792 100.344 137.08 100.28C137.384 100.2 137.728 100.248 138.112 100.424C138.608 100.696 139.08 100.888 139.528 101C139.992 101.112 140.44 101.168 140.872 101.168C141.72 101.168 142.44 100.976 143.032 100.592C143.624 100.208 144.064 99.632 144.352 98.864C144.656 98.08 144.808 97.128 144.808 96.008V94.448H145.144C145.016 95.2 144.752 95.848 144.352 96.392C143.952 96.936 143.448 97.352 142.84 97.64C142.232 97.928 141.56 98.072 140.824 98.072C139.88 98.072 139.032 97.84 138.28 97.376C137.528 96.896 136.936 96.24 136.504 95.408C136.072 94.576 135.856 93.64 135.856 92.6C135.856 91.48 136.096 90.488 136.576 89.624C137.056 88.744 137.728 88.056 138.592 87.56C139.456 87.064 140.448 86.816 141.568 86.816C143.024 86.816 144.248 87.152 145.24 87.824C146.248 88.48 147.016 89.448 147.544 90.728C148.072 91.992 148.336 93.52 148.336 95.312C148.336 96.736 148.16 98 147.808 99.104C147.472 100.208 146.984 101.144 146.344 101.912C145.704 102.68 144.912 103.264 143.968 103.664C143.04 104.064 141.992 104.264 140.824 104.264ZM141.784 95.168C142.28 95.168 142.712 95.056 143.08 94.832C143.464 94.592 143.76 94.264 143.968 93.848C144.176 93.432 144.28 92.96 144.28 92.432C144.28 91.888 144.176 91.408 143.968 90.992C143.76 90.576 143.464 90.256 143.08 90.032C142.712 89.808 142.28 89.696 141.784 89.696C141.288 89.696 140.856 89.808 140.488 90.032C140.12 90.256 139.824 90.576 139.6 90.992C139.392 91.408 139.288 91.888 139.288 92.432C139.288 92.96 139.392 93.432 139.6 93.848C139.824 94.264 140.12 94.592 140.488 94.832C140.856 95.056 141.288 95.168 141.784 95.168ZM156.606 104.264C154.558 104.264 152.99 103.504 151.902 101.984C150.83 100.448 150.294 98.28 150.294 95.48C150.294 93.608 150.534 92.032 151.014 90.752C151.51 89.456 152.222 88.48 153.15 87.824C154.094 87.152 155.246 86.816 156.606 86.816C158.67 86.816 160.238 87.56 161.31 89.048C162.382 90.52 162.918 92.664 162.918 95.48C162.918 97.352 162.67 98.944 162.174 100.256C161.694 101.552 160.99 102.544 160.062 103.232C159.134 103.92 157.982 104.264 156.606 104.264ZM156.606 101.24C157.534 101.24 158.222 100.784 158.67 99.872C159.118 98.944 159.342 97.48 159.342 95.48C159.342 93.48 159.118 92.04 158.67 91.16C158.222 90.28 157.534 89.84 156.606 89.84C155.678 89.84 154.99 90.28 154.542 91.16C154.094 92.04 153.87 93.48 153.87 95.48C153.87 97.48 154.094 98.944 154.542 99.872C154.99 100.784 155.678 101.24 156.606 101.24Z" fill="#333333"/>
<path d="M103.6 125.616C103.424 125.616 103.288 125.568 103.192 125.472C103.096 125.368 103.048 125.228 103.048 125.052V123.084H101.116C100.948 123.084 100.816 123.04 100.72 122.952C100.624 122.856 100.576 122.724 100.576 122.556C100.576 122.388 100.624 122.26 100.72 122.172C100.816 122.076 100.948 122.028 101.116 122.028H103.048V120.12C103.048 119.944 103.096 119.808 103.192 119.712C103.288 119.616 103.428 119.568 103.612 119.568C103.788 119.568 103.92 119.616 104.008 119.712C104.104 119.808 104.152 119.944 104.152 120.12V122.028H106.084C106.26 122.028 106.392 122.076 106.48 122.172C106.576 122.26 106.624 122.388 106.624 122.556C106.624 122.724 106.576 122.856 106.48 122.952C106.392 123.04 106.26 123.084 106.084 123.084H104.152V125.052C104.152 125.228 104.104 125.368 104.008 125.472C103.92 125.568 103.784 125.616 103.6 125.616ZM109.067 126C108.859 126 108.695 125.944 108.575 125.832C108.463 125.712 108.407 125.552 108.407 125.352C108.407 125.144 108.463 124.988 108.575 124.884C108.695 124.78 108.859 124.728 109.067 124.728H110.411V118.836H111.155L109.391 119.904C109.239 119.992 109.095 120.028 108.959 120.012C108.831 119.988 108.719 119.932 108.623 119.844C108.535 119.748 108.475 119.636 108.443 119.508C108.411 119.38 108.419 119.252 108.467 119.124C108.523 118.988 108.627 118.876 108.779 118.788L110.435 117.792C110.595 117.696 110.755 117.616 110.915 117.552C111.075 117.48 111.223 117.444 111.359 117.444C111.527 117.444 111.667 117.492 111.779 117.588C111.891 117.676 111.947 117.824 111.947 118.032V124.728H113.171C113.379 124.728 113.539 124.78 113.651 124.884C113.771 124.988 113.831 125.144 113.831 125.352C113.831 125.56 113.771 125.72 113.651 125.832C113.539 125.944 113.379 126 113.171 126H109.067ZM115.987 126C115.731 126 115.543 125.944 115.423 125.832C115.311 125.712 115.255 125.54 115.255 125.316C115.255 125.18 115.291 125.048 115.363 124.92C115.435 124.792 115.539 124.656 115.675 124.512L118.087 121.944C118.455 121.56 118.719 121.212 118.879 120.9C119.039 120.58 119.119 120.26 119.119 119.94C119.119 119.54 118.991 119.236 118.735 119.028C118.487 118.82 118.123 118.716 117.643 118.716C117.371 118.716 117.099 118.756 116.827 118.836C116.555 118.908 116.279 119.036 115.999 119.22C115.855 119.316 115.719 119.356 115.591 119.34C115.471 119.324 115.363 119.272 115.267 119.184C115.179 119.096 115.119 118.988 115.087 118.86C115.055 118.732 115.059 118.604 115.099 118.476C115.147 118.34 115.243 118.224 115.387 118.128C115.731 117.896 116.115 117.72 116.539 117.6C116.971 117.48 117.403 117.42 117.835 117.42C118.443 117.42 118.955 117.512 119.371 117.696C119.787 117.88 120.103 118.148 120.319 118.5C120.535 118.852 120.643 119.28 120.643 119.784C120.643 120.12 120.587 120.448 120.475 120.768C120.371 121.088 120.207 121.412 119.983 121.74C119.767 122.068 119.483 122.416 119.131 122.784L116.875 125.136V124.728H120.403C120.619 124.728 120.783 124.78 120.895 124.884C121.007 124.988 121.063 125.144 121.063 125.352C121.063 125.56 121.007 125.72 120.895 125.832C120.783 125.944 120.619 126 120.403 126H115.987ZM125.534 125.904C125.454 126.048 125.354 126.14 125.234 126.18C125.122 126.228 125.006 126.236 124.886 126.204C124.774 126.18 124.678 126.124 124.598 126.036C124.518 125.956 124.47 125.856 124.454 125.736C124.438 125.608 124.47 125.472 124.55 125.328L128.978 117.648C129.058 117.504 129.154 117.408 129.266 117.36C129.386 117.312 129.502 117.304 129.614 117.336C129.726 117.36 129.822 117.416 129.902 117.504C129.982 117.592 130.03 117.7 130.046 117.828C130.07 117.948 130.042 118.076 129.962 118.212L125.534 125.904ZM124.25 122.592C123.578 122.592 123.054 122.36 122.678 121.896C122.302 121.432 122.114 120.8 122.114 120C122.114 119.464 122.198 119.004 122.366 118.62C122.534 118.236 122.778 117.94 123.098 117.732C123.418 117.524 123.802 117.42 124.25 117.42C124.922 117.42 125.446 117.652 125.822 118.116C126.198 118.572 126.386 119.2 126.386 120C126.386 120.536 126.302 121 126.134 121.392C125.966 121.776 125.722 122.072 125.402 122.28C125.082 122.488 124.698 122.592 124.25 122.592ZM124.25 121.584C124.442 121.584 124.606 121.528 124.742 121.416C124.878 121.296 124.982 121.12 125.054 120.888C125.126 120.656 125.162 120.36 125.162 120C125.162 119.464 125.082 119.068 124.922 118.812C124.762 118.556 124.538 118.428 124.25 118.428C124.058 118.428 123.894 118.484 123.758 118.596C123.622 118.708 123.518 118.88 123.446 119.112C123.374 119.344 123.338 119.64 123.338 120C123.338 120.544 123.418 120.944 123.578 121.2C123.738 121.456 123.962 121.584 124.25 121.584ZM130.274 126.12C129.602 126.12 129.078 125.888 128.702 125.424C128.326 124.96 128.138 124.328 128.138 123.528C128.138 122.992 128.222 122.532 128.39 122.148C128.558 121.764 128.802 121.468 129.122 121.26C129.442 121.052 129.826 120.948 130.274 120.948C130.946 120.948 131.47 121.18 131.846 121.644C132.222 122.1 132.41 122.728 132.41 123.528C132.41 124.064 132.326 124.528 132.158 124.92C131.99 125.304 131.746 125.6 131.426 125.808C131.106 126.016 130.722 126.12 130.274 126.12ZM130.274 125.112C130.466 125.112 130.63 125.056 130.766 124.944C130.902 124.832 131.006 124.66 131.078 124.428C131.15 124.188 131.186 123.888 131.186 123.528C131.186 122.992 131.106 122.596 130.946 122.34C130.786 122.084 130.562 121.956 130.274 121.956C130.082 121.956 129.918 122.012 129.782 122.124C129.646 122.236 129.542 122.408 129.47 122.64C129.398 122.872 129.362 123.168 129.362 123.528C129.362 124.072 129.442 124.472 129.602 124.728C129.762 124.984 129.986 125.112 130.274 125.112Z" fill="#3BCF3B"/>
<path d="M139.442 126.108C138.962 126.108 138.558 126.024 138.23 125.856C137.902 125.688 137.658 125.44 137.498 125.112C137.338 124.784 137.258 124.384 137.258 123.912V121.08H136.538C136.378 121.08 136.254 121.04 136.166 120.96C136.078 120.872 136.034 120.756 136.034 120.612C136.034 120.46 136.078 120.344 136.166 120.264C136.254 120.184 136.378 120.144 136.538 120.144H137.258V118.908C137.258 118.708 137.31 118.556 137.414 118.452C137.526 118.348 137.678 118.296 137.87 118.296C138.062 118.296 138.21 118.348 138.314 118.452C138.418 118.556 138.47 118.708 138.47 118.908V120.144H139.874C140.034 120.144 140.158 120.184 140.246 120.264C140.334 120.344 140.378 120.46 140.378 120.612C140.378 120.756 140.334 120.872 140.246 120.96C140.158 121.04 140.034 121.08 139.874 121.08H138.47V123.816C138.47 124.24 138.558 124.56 138.734 124.776C138.918 124.992 139.214 125.1 139.622 125.1C139.766 125.1 139.89 125.088 139.994 125.064C140.106 125.032 140.198 125.012 140.27 125.004C140.358 125.004 140.43 125.036 140.486 125.1C140.542 125.156 140.57 125.268 140.57 125.436C140.57 125.556 140.546 125.668 140.498 125.772C140.458 125.876 140.382 125.944 140.27 125.976C140.174 126.008 140.042 126.036 139.874 126.06C139.714 126.092 139.57 126.108 139.442 126.108ZM142.034 126.084C141.842 126.084 141.694 126.032 141.59 125.928C141.486 125.816 141.434 125.664 141.434 125.472V118.068C141.434 117.868 141.486 117.716 141.59 117.612C141.694 117.508 141.842 117.456 142.034 117.456C142.226 117.456 142.374 117.508 142.478 117.612C142.59 117.716 142.646 117.868 142.646 118.068V121.392H142.478C142.654 120.944 142.93 120.608 143.306 120.384C143.682 120.152 144.114 120.036 144.602 120.036C145.066 120.036 145.45 120.124 145.754 120.3C146.066 120.468 146.298 120.728 146.45 121.08C146.602 121.424 146.678 121.86 146.678 122.388V125.472C146.678 125.664 146.626 125.816 146.522 125.928C146.418 126.032 146.27 126.084 146.078 126.084C145.878 126.084 145.726 126.032 145.622 125.928C145.518 125.816 145.466 125.664 145.466 125.472V122.46C145.466 121.956 145.366 121.588 145.166 121.356C144.974 121.124 144.67 121.008 144.254 121.008C143.766 121.008 143.374 121.16 143.078 121.464C142.79 121.768 142.646 122.176 142.646 122.688V125.472C142.646 125.88 142.442 126.084 142.034 126.084ZM148.948 126.072C148.756 126.072 148.608 126.016 148.504 125.904C148.4 125.784 148.348 125.62 148.348 125.412V120.732C148.348 120.524 148.4 120.364 148.504 120.252C148.608 120.14 148.756 120.084 148.948 120.084C149.14 120.084 149.288 120.14 149.392 120.252C149.504 120.364 149.56 120.524 149.56 120.732V125.412C149.56 125.62 149.508 125.784 149.404 125.904C149.3 126.016 149.148 126.072 148.948 126.072ZM148.948 118.836C148.708 118.836 148.52 118.776 148.384 118.656C148.256 118.536 148.192 118.368 148.192 118.152C148.192 117.928 148.256 117.76 148.384 117.648C148.52 117.528 148.708 117.468 148.948 117.468C149.188 117.468 149.372 117.528 149.5 117.648C149.636 117.76 149.704 117.928 149.704 118.152C149.704 118.368 149.636 118.536 149.5 118.656C149.372 118.776 149.188 118.836 148.948 118.836ZM153.318 126.108C152.966 126.108 152.602 126.068 152.226 125.988C151.858 125.908 151.518 125.772 151.206 125.58C151.102 125.508 151.03 125.428 150.99 125.34C150.95 125.252 150.934 125.164 150.942 125.076C150.958 124.98 150.994 124.9 151.05 124.836C151.114 124.764 151.19 124.72 151.278 124.704C151.374 124.688 151.474 124.708 151.578 124.764C151.89 124.94 152.19 125.064 152.478 125.136C152.766 125.2 153.05 125.232 153.33 125.232C153.754 125.232 154.074 125.156 154.29 125.004C154.506 124.852 154.614 124.648 154.614 124.392C154.614 124.184 154.542 124.024 154.398 123.912C154.254 123.792 154.038 123.7 153.75 123.636L152.61 123.408C152.114 123.304 151.738 123.12 151.482 122.856C151.226 122.592 151.098 122.256 151.098 121.848C151.098 121.48 151.198 121.16 151.398 120.888C151.598 120.616 151.878 120.408 152.238 120.264C152.598 120.112 153.014 120.036 153.486 120.036C153.838 120.036 154.17 120.08 154.482 120.168C154.794 120.256 155.082 120.388 155.346 120.564C155.45 120.62 155.518 120.696 155.55 120.792C155.582 120.88 155.586 120.968 155.562 121.056C155.546 121.144 155.506 121.224 155.442 121.296C155.378 121.36 155.298 121.4 155.202 121.416C155.114 121.424 155.014 121.4 154.902 121.344C154.662 121.192 154.422 121.084 154.182 121.02C153.95 120.956 153.718 120.924 153.486 120.924C153.062 120.924 152.742 121.004 152.526 121.164C152.318 121.316 152.214 121.524 152.214 121.788C152.214 121.988 152.278 122.152 152.406 122.28C152.534 122.408 152.734 122.5 153.006 122.556L154.146 122.784C154.666 122.888 155.058 123.064 155.322 123.312C155.594 123.56 155.73 123.896 155.73 124.32C155.73 124.872 155.51 125.308 155.07 125.628C154.63 125.948 154.046 126.108 153.318 126.108ZM160.867 126.084C160.675 126.084 160.527 126.032 160.423 125.928C160.319 125.816 160.267 125.664 160.267 125.472V120.672C160.267 120.472 160.319 120.32 160.423 120.216C160.527 120.112 160.671 120.06 160.855 120.06C161.047 120.06 161.191 120.112 161.287 120.216C161.391 120.32 161.443 120.472 161.443 120.672V121.656L161.311 121.392C161.471 120.968 161.719 120.636 162.055 120.396C162.391 120.156 162.795 120.036 163.267 120.036C163.755 120.036 164.151 120.152 164.455 120.384C164.759 120.616 164.967 120.972 165.079 121.452H164.911C165.063 121.012 165.323 120.668 165.691 120.42C166.059 120.164 166.487 120.036 166.975 120.036C167.423 120.036 167.791 120.124 168.079 120.3C168.367 120.468 168.583 120.728 168.727 121.08C168.871 121.424 168.943 121.86 168.943 122.388V125.472C168.943 125.664 168.887 125.816 168.775 125.928C168.671 126.032 168.523 126.084 168.331 126.084C168.139 126.084 167.991 126.032 167.887 125.928C167.783 125.816 167.731 125.664 167.731 125.472V122.448C167.731 121.952 167.643 121.588 167.467 121.356C167.299 121.124 167.019 121.008 166.627 121.008C166.187 121.008 165.839 121.16 165.583 121.464C165.327 121.768 165.199 122.188 165.199 122.724V125.472C165.199 125.664 165.147 125.816 165.043 125.928C164.939 126.032 164.791 126.084 164.599 126.084C164.407 126.084 164.255 126.032 164.143 125.928C164.039 125.816 163.987 125.664 163.987 125.472V122.448C163.987 121.952 163.903 121.588 163.735 121.356C163.567 121.124 163.287 121.008 162.895 121.008C162.455 121.008 162.107 121.16 161.851 121.464C161.603 121.768 161.479 122.188 161.479 122.724V125.472C161.479 125.88 161.275 126.084 160.867 126.084ZM173.181 126.108C172.589 126.108 172.077 125.984 171.645 125.736C171.221 125.488 170.889 125.136 170.649 124.68C170.409 124.224 170.289 123.688 170.289 123.072C170.289 122.6 170.357 122.18 170.493 121.812C170.629 121.444 170.821 121.128 171.069 120.864C171.325 120.592 171.629 120.388 171.981 120.252C172.341 120.108 172.741 120.036 173.181 120.036C173.765 120.036 174.269 120.16 174.693 120.408C175.125 120.656 175.461 121.008 175.701 121.464C175.941 121.912 176.061 122.448 176.061 123.072C176.061 123.536 175.993 123.956 175.857 124.332C175.721 124.708 175.525 125.028 175.269 125.292C175.021 125.556 174.717 125.76 174.357 125.904C174.005 126.04 173.613 126.108 173.181 126.108ZM173.181 125.172C173.509 125.172 173.797 125.092 174.045 124.932C174.293 124.772 174.485 124.536 174.621 124.224C174.765 123.912 174.837 123.528 174.837 123.072C174.837 122.384 174.685 121.864 174.381 121.512C174.077 121.16 173.677 120.984 173.181 120.984C172.845 120.984 172.553 121.064 172.305 121.224C172.057 121.376 171.861 121.608 171.717 121.92C171.581 122.232 171.513 122.616 171.513 123.072C171.513 123.752 171.665 124.272 171.969 124.632C172.273 124.992 172.677 125.172 173.181 125.172ZM178.022 126.084C177.83 126.084 177.682 126.032 177.578 125.928C177.474 125.816 177.422 125.664 177.422 125.472V120.672C177.422 120.472 177.474 120.32 177.578 120.216C177.682 120.112 177.826 120.06 178.01 120.06C178.202 120.06 178.346 120.112 178.442 120.216C178.546 120.32 178.598 120.472 178.598 120.672V121.608L178.466 121.392C178.642 120.944 178.918 120.608 179.294 120.384C179.67 120.152 180.102 120.036 180.59 120.036C181.054 120.036 181.438 120.124 181.742 120.3C182.054 120.468 182.286 120.728 182.438 121.08C182.59 121.424 182.666 121.86 182.666 122.388V125.472C182.666 125.664 182.614 125.816 182.51 125.928C182.406 126.032 182.258 126.084 182.066 126.084C181.866 126.084 181.714 126.032 181.61 125.928C181.506 125.816 181.454 125.664 181.454 125.472V122.46C181.454 121.956 181.354 121.588 181.154 121.356C180.962 121.124 180.658 121.008 180.242 121.008C179.754 121.008 179.362 121.16 179.066 121.464C178.778 121.768 178.634 122.176 178.634 122.688V125.472C178.634 125.88 178.43 126.084 178.022 126.084ZM186.832 126.108C186.352 126.108 185.948 126.024 185.62 125.856C185.292 125.688 185.048 125.44 184.888 125.112C184.728 124.784 184.648 124.384 184.648 123.912V121.08H183.928C183.768 121.08 183.644 121.04 183.556 120.96C183.468 120.872 183.424 120.756 183.424 120.612C183.424 120.46 183.468 120.344 183.556 120.264C183.644 120.184 183.768 120.144 183.928 120.144H184.648V118.908C184.648 118.708 184.7 118.556 184.804 118.452C184.916 118.348 185.068 118.296 185.26 118.296C185.452 118.296 185.6 118.348 185.704 118.452C185.808 118.556 185.86 118.708 185.86 118.908V120.144H187.264C187.424 120.144 187.548 120.184 187.636 120.264C187.724 120.344 187.768 120.46 187.768 120.612C187.768 120.756 187.724 120.872 187.636 120.96C187.548 121.04 187.424 121.08 187.264 121.08H185.86V123.816C185.86 124.24 185.948 124.56 186.124 124.776C186.308 124.992 186.604 125.1 187.012 125.1C187.156 125.1 187.28 125.088 187.384 125.064C187.496 125.032 187.588 125.012 187.66 125.004C187.748 125.004 187.82 125.036 187.876 125.1C187.932 125.156 187.96 125.268 187.96 125.436C187.96 125.556 187.936 125.668 187.888 125.772C187.848 125.876 187.772 125.944 187.66 125.976C187.564 126.008 187.432 126.036 187.264 126.06C187.104 126.092 186.96 126.108 186.832 126.108ZM189.425 126.084C189.233 126.084 189.085 126.032 188.981 125.928C188.877 125.816 188.825 125.664 188.825 125.472V118.068C188.825 117.868 188.877 117.716 188.981 117.612C189.085 117.508 189.233 117.456 189.425 117.456C189.617 117.456 189.765 117.508 189.869 117.612C189.981 117.716 190.037 117.868 190.037 118.068V121.392H189.869C190.045 120.944 190.321 120.608 190.697 120.384C191.073 120.152 191.505 120.036 191.993 120.036C192.457 120.036 192.841 120.124 193.145 120.3C193.457 120.468 193.689 120.728 193.841 121.08C193.993 121.424 194.069 121.86 194.069 122.388V125.472C194.069 125.664 194.017 125.816 193.913 125.928C193.809 126.032 193.661 126.084 193.469 126.084C193.269 126.084 193.117 126.032 193.013 125.928C192.909 125.816 192.857 125.664 192.857 125.472V122.46C192.857 121.956 192.757 121.588 192.557 121.356C192.365 121.124 192.061 121.008 191.645 121.008C191.157 121.008 190.765 121.16 190.469 121.464C190.181 121.768 190.037 122.176 190.037 122.688V125.472C190.037 125.88 189.833 126.084 189.425 126.084Z" fill="#8F8CA7"/>
<g clip-path="url(#clip0_142_1673)">
<path d="M464.333 68L467 70.6667M467 70.6667L469.667 68M467 70.6667V65.3334M473.667 68C473.667 71.6819 470.682 74.6667 467 74.6667C463.318 74.6667 460.333 71.6819 460.333 68C460.333 64.3181 463.318 61.3334 467 61.3334C470.682 61.3334 473.667 64.3181 473.667 68Z" stroke="#8F8CA7" stroke-width="1.5" stroke-linecap="round" stroke-linejoin="round"/>
</g>
<path d="M134.432 263.072C134.248 263.08 134.104 263.032 134 262.928C133.896 262.824 133.844 262.692 133.844 262.532C133.844 262.412 133.884 262.304 133.964 262.208C134.036 262.112 134.144 262.06 134.288 262.052L134.66 262.028C135.044 261.996 135.336 261.868 135.536 261.644C135.736 261.412 135.836 261.092 135.836 260.684V255.08C135.836 254.872 135.888 254.716 135.992 254.612C136.096 254.508 136.248 254.456 136.448 254.456C136.648 254.456 136.8 254.508 136.904 254.612C137.016 254.716 137.072 254.872 137.072 255.08V260.684C137.072 261.164 136.984 261.576 136.808 261.92C136.64 262.256 136.392 262.52 136.064 262.712C135.736 262.904 135.328 263.016 134.84 263.048L134.432 263.072ZM140.995 263.108C140.523 263.108 140.127 263.02 139.807 262.844C139.495 262.668 139.259 262.408 139.099 262.064C138.947 261.712 138.871 261.272 138.871 260.744V257.672C138.871 257.464 138.923 257.312 139.027 257.216C139.131 257.112 139.279 257.06 139.471 257.06C139.663 257.06 139.811 257.112 139.915 257.216C140.027 257.312 140.083 257.464 140.083 257.672V260.756C140.083 261.228 140.179 261.576 140.371 261.8C140.563 262.024 140.867 262.136 141.283 262.136C141.739 262.136 142.107 261.984 142.387 261.68C142.675 261.368 142.819 260.96 142.819 260.456V257.672C142.819 257.464 142.871 257.312 142.975 257.216C143.079 257.112 143.231 257.06 143.431 257.06C143.623 257.06 143.771 257.112 143.875 257.216C143.979 257.312 144.031 257.464 144.031 257.672V262.472C144.031 262.88 143.835 263.084 143.443 263.084C143.259 263.084 143.115 263.032 143.011 262.928C142.907 262.816 142.855 262.664 142.855 262.472V261.452L143.011 261.716C142.851 262.164 142.595 262.508 142.243 262.748C141.891 262.988 141.475 263.108 140.995 263.108ZM146.339 263.084C146.147 263.084 145.999 263.032 145.895 262.928C145.791 262.816 145.739 262.664 145.739 262.472V257.672C145.739 257.472 145.791 257.32 145.895 257.216C145.999 257.112 146.143 257.06 146.327 257.06C146.519 257.06 146.663 257.112 146.759 257.216C146.863 257.32 146.915 257.472 146.915 257.672V258.608L146.783 258.392C146.959 257.944 147.235 257.608 147.611 257.384C147.987 257.152 148.419 257.036 148.907 257.036C149.371 257.036 149.755 257.124 150.059 257.3C150.371 257.468 150.603 257.728 150.755 258.08C150.907 258.424 150.983 258.86 150.983 259.388V262.472C150.983 262.664 150.931 262.816 150.827 262.928C150.723 263.032 150.575 263.084 150.383 263.084C150.183 263.084 150.031 263.032 149.927 262.928C149.823 262.816 149.771 262.664 149.771 262.472V259.46C149.771 258.956 149.671 258.588 149.471 258.356C149.279 258.124 148.975 258.008 148.559 258.008C148.071 258.008 147.679 258.16 147.383 258.464C147.095 258.768 146.951 259.176 146.951 259.688V262.472C146.951 262.88 146.747 263.084 146.339 263.084ZM156.537 263C156.321 263 156.165 262.952 156.069 262.856C155.973 262.752 155.925 262.612 155.925 262.436C155.925 262.324 155.953 262.216 156.009 262.112C156.065 262.008 156.145 261.9 156.249 261.788L158.805 259.052C159.197 258.636 159.477 258.256 159.645 257.912C159.821 257.56 159.909 257.208 159.909 256.856C159.909 256.408 159.773 256.068 159.501 255.836C159.229 255.604 158.829 255.488 158.301 255.488C157.981 255.488 157.673 255.536 157.377 255.632C157.081 255.728 156.785 255.884 156.489 256.1C156.369 256.18 156.257 256.216 156.153 256.208C156.049 256.2 155.957 256.16 155.877 256.088C155.805 256.016 155.757 255.928 155.733 255.824C155.709 255.72 155.713 255.612 155.745 255.5C155.777 255.388 155.853 255.292 155.973 255.212C156.301 254.964 156.681 254.772 157.113 254.636C157.545 254.5 157.985 254.432 158.433 254.432C159.017 254.432 159.509 254.524 159.909 254.708C160.317 254.884 160.625 255.144 160.833 255.488C161.041 255.832 161.145 256.252 161.145 256.748C161.145 257.084 161.089 257.412 160.977 257.732C160.873 258.052 160.709 258.38 160.485 258.716C160.269 259.044 159.985 259.392 159.633 259.76L157.209 262.304V261.956H161.025C161.201 261.956 161.337 262 161.433 262.088C161.529 262.176 161.577 262.304 161.577 262.472C161.577 262.64 161.529 262.772 161.433 262.868C161.337 262.956 161.201 263 161.025 263H156.537ZM165.76 263.108C164.776 263.108 164.024 262.736 163.504 261.992C162.992 261.24 162.736 260.164 162.736 258.764C162.736 257.812 162.852 257.016 163.084 256.376C163.316 255.736 163.656 255.252 164.104 254.924C164.552 254.596 165.104 254.432 165.76 254.432C166.752 254.432 167.504 254.8 168.016 255.536C168.528 256.264 168.784 257.336 168.784 258.752C168.784 259.688 168.668 260.48 168.436 261.128C168.204 261.776 167.864 262.268 167.416 262.604C166.968 262.94 166.416 263.108 165.76 263.108ZM165.76 262.076C166.376 262.076 166.828 261.808 167.116 261.272C167.412 260.728 167.56 259.888 167.56 258.752C167.56 257.608 167.412 256.776 167.116 256.256C166.828 255.728 166.376 255.464 165.76 255.464C165.152 255.464 164.7 255.728 164.404 256.256C164.108 256.776 163.96 257.608 163.96 258.752C163.96 259.888 164.108 260.728 164.404 261.272C164.7 261.808 165.152 262.076 165.76 262.076ZM170.927 263C170.711 263 170.555 262.952 170.459 262.856C170.363 262.752 170.315 262.612 170.315 262.436C170.315 262.324 170.343 262.216 170.399 262.112C170.455 262.008 170.535 261.9 170.639 261.788L173.195 259.052C173.587 258.636 173.867 258.256 174.035 257.912C174.211 257.56 174.299 257.208 174.299 256.856C174.299 256.408 174.163 256.068 173.891 255.836C173.619 255.604 173.219 255.488 172.691 255.488C172.371 255.488 172.063 255.536 171.767 255.632C171.471 255.728 171.175 255.884 170.879 256.1C170.759 256.18 170.647 256.216 170.543 256.208C170.439 256.2 170.347 256.16 170.267 256.088C170.195 256.016 170.147 255.928 170.123 255.824C170.099 255.72 170.103 255.612 170.135 255.5C170.167 255.388 170.243 255.292 170.363 255.212C170.691 254.964 171.071 254.772 171.503 254.636C171.935 254.5 172.375 254.432 172.823 254.432C173.407 254.432 173.899 254.524 174.299 254.708C174.707 254.884 175.015 255.144 175.223 255.488C175.431 255.832 175.535 256.252 175.535 256.748C175.535 257.084 175.479 257.412 175.367 257.732C175.263 258.052 175.099 258.38 174.875 258.716C174.659 259.044 174.375 259.392 174.023 259.76L171.599 262.304V261.956H175.415C175.591 261.956 175.727 262 175.823 262.088C175.919 262.176 175.967 262.304 175.967 262.472C175.967 262.64 175.919 262.772 175.823 262.868C175.727 262.956 175.591 263 175.415 263H170.927ZM181.543 263.084C181.351 263.084 181.199 263.032 181.087 262.928C180.975 262.816 180.919 262.664 180.919 262.472V261.284H177.703C177.503 261.284 177.343 261.24 177.223 261.152C177.103 261.064 177.043 260.928 177.043 260.744C177.043 260.64 177.067 260.528 177.115 260.408C177.171 260.288 177.267 260.132 177.403 259.94L180.895 254.864C180.983 254.728 181.083 254.628 181.195 254.564C181.307 254.492 181.435 254.456 181.579 254.456C181.747 254.456 181.883 254.508 181.987 254.612C182.099 254.708 182.155 254.86 182.155 255.068V260.24H182.911C183.103 260.24 183.243 260.284 183.331 260.372C183.427 260.46 183.475 260.588 183.475 260.756C183.475 260.932 183.427 261.064 183.331 261.152C183.243 261.24 183.103 261.284 182.911 261.284H182.155V262.472C182.155 262.664 182.099 262.816 181.987 262.928C181.883 263.032 181.735 263.084 181.543 263.084ZM180.919 260.24V256.004H181.243L178.111 260.576V260.24H180.919Z" fill="#8F8CA7"/>
<path d="M101.572 163C101.356 163 101.2 162.952 101.104 162.856C101.008 162.752 100.96 162.612 100.96 162.436C100.96 162.324 100.988 162.216 101.044 162.112C101.1 162.008 101.18 161.9 101.284 161.788L103.84 159.052C104.232 158.636 104.512 158.256 104.68 157.912C104.856 157.56 104.944 157.208 104.944 156.856C104.944 156.408 104.808 156.068 104.536 155.836C104.264 155.604 103.864 155.488 103.336 155.488C103.016 155.488 102.708 155.536 102.412 155.632C102.116 155.728 101.82 155.884 101.524 156.1C101.404 156.18 101.292 156.216 101.188 156.208C101.084 156.2 100.992 156.16 100.912 156.088C100.84 156.016 100.792 155.928 100.768 155.824C100.744 155.72 100.748 155.612 100.78 155.5C100.812 155.388 100.888 155.292 101.008 155.212C101.336 154.964 101.716 154.772 102.148 154.636C102.58 154.5 103.02 154.432 103.468 154.432C104.052 154.432 104.544 154.524 104.944 154.708C105.352 154.884 105.66 155.144 105.868 155.488C106.076 155.832 106.18 156.252 106.18 156.748C106.18 157.084 106.124 157.412 106.012 157.732C105.908 158.052 105.744 158.38 105.52 158.716C105.304 159.044 105.02 159.392 104.668 159.76L102.244 162.304V161.956H106.06C106.236 161.956 106.372 162 106.468 162.088C106.564 162.176 106.612 162.304 106.612 162.472C106.612 162.64 106.564 162.772 106.468 162.868C106.372 162.956 106.236 163 106.06 163H101.572ZM108.803 163.084C108.603 163.084 108.447 163.028 108.335 162.916C108.231 162.804 108.179 162.648 108.179 162.448V155.08C108.179 154.872 108.231 154.716 108.335 154.612C108.447 154.508 108.603 154.456 108.803 154.456C109.003 154.456 109.155 154.508 109.259 154.612C109.371 154.716 109.427 154.872 109.427 155.08V158.344H109.451L113.135 154.78C113.255 154.668 113.367 154.588 113.471 154.54C113.583 154.484 113.707 154.456 113.843 154.456C114.027 154.456 114.159 154.504 114.239 154.6C114.327 154.688 114.363 154.796 114.347 154.924C114.331 155.052 114.263 155.176 114.143 155.296L110.315 158.944L110.339 158.332L114.323 162.172C114.467 162.308 114.543 162.448 114.551 162.592C114.559 162.736 114.515 162.856 114.419 162.952C114.323 163.04 114.187 163.084 114.011 163.084C113.851 163.084 113.723 163.052 113.627 162.988C113.531 162.924 113.419 162.832 113.291 162.712L109.451 159.052H109.427V162.448C109.427 162.648 109.375 162.804 109.271 162.916C109.167 163.028 109.011 163.084 108.803 163.084Z" fill="#8F8CA7"/>
<path d="M101.86 203C101.692 203 101.56 202.952 101.464 202.856C101.368 202.76 101.32 202.632 101.32 202.472C101.32 202.304 101.368 202.176 101.464 202.088C101.56 202 101.692 201.956 101.86 201.956H103.324V195.572H103.948L102.196 196.688C102.068 196.76 101.948 196.788 101.836 196.772C101.732 196.756 101.64 196.712 101.56 196.64C101.488 196.568 101.436 196.48 101.404 196.376C101.38 196.272 101.388 196.164 101.428 196.052C101.476 195.94 101.56 195.848 101.68 195.776L103.336 194.732C103.472 194.652 103.6 194.588 103.72 194.54C103.848 194.484 103.968 194.456 104.08 194.456C104.216 194.456 104.328 194.496 104.416 194.576C104.512 194.648 104.56 194.772 104.56 194.948V201.956H105.904C106.08 201.956 106.216 202 106.312 202.088C106.408 202.176 106.456 202.304 106.456 202.472C106.456 202.64 106.408 202.772 106.312 202.868C106.216 202.956 106.08 203 105.904 203H101.86ZM108.803 203.084C108.603 203.084 108.447 203.028 108.335 202.916C108.231 202.804 108.179 202.648 108.179 202.448V195.08C108.179 194.872 108.231 194.716 108.335 194.612C108.447 194.508 108.603 194.456 108.803 194.456C109.003 194.456 109.155 194.508 109.259 194.612C109.371 194.716 109.427 194.872 109.427 195.08V198.344H109.451L113.135 194.78C113.255 194.668 113.367 194.588 113.471 194.54C113.583 194.484 113.707 194.456 113.843 194.456C114.027 194.456 114.159 194.504 114.239 194.6C114.327 194.688 114.363 194.796 114.347 194.924C114.331 195.052 114.263 195.176 114.143 195.296L110.315 198.944L110.339 198.332L114.323 202.172C114.467 202.308 114.543 202.448 114.551 202.592C114.559 202.736 114.515 202.856 114.419 202.952C114.323 203.04 114.187 203.084 114.011 203.084C113.851 203.084 113.723 203.052 113.627 202.988C113.531 202.924 113.419 202.832 113.291 202.712L109.451 199.052H109.427V202.448C109.427 202.648 109.375 202.804 109.271 202.916C109.167 203.028 109.011 203.084 108.803 203.084Z" fill="#8F8CA7"/>
<path d="M110.6 242.108C109.616 242.108 108.864 241.736 108.344 240.992C107.832 240.24 107.576 239.164 107.576 237.764C107.576 236.812 107.692 236.016 107.924 235.376C108.156 234.736 108.496 234.252 108.944 233.924C109.392 233.596 109.944 233.432 110.6 233.432C111.592 233.432 112.344 233.8 112.856 234.536C113.368 235.264 113.624 236.336 113.624 237.752C113.624 238.688 113.508 239.48 113.276 240.128C113.044 240.776 112.704 241.268 112.256 241.604C111.808 241.94 111.256 242.108 110.6 242.108ZM110.6 241.076C111.216 241.076 111.668 240.808 111.956 240.272C112.252 239.728 112.4 238.888 112.4 237.752C112.4 236.608 112.252 235.776 111.956 235.256C111.668 234.728 111.216 234.464 110.6 234.464C109.992 234.464 109.54 234.728 109.244 235.256C108.948 235.776 108.8 236.608 108.8 237.752C108.8 238.888 108.948 239.728 109.244 240.272C109.54 240.808 109.992 241.076 110.6 241.076Z" fill="#8F8CA7"/>
<path d="M251.756 263.072C251.14 263.096 250.832 262.884 250.832 262.436C250.832 262.244 250.884 262.1 250.988 262.004C251.084 261.9 251.24 261.84 251.456 261.824L251.84 261.8C252.168 261.784 252.416 261.68 252.584 261.488C252.752 261.296 252.836 261.004 252.836 260.612V255.248C252.836 255.016 252.904 254.832 253.04 254.696C253.184 254.552 253.372 254.48 253.604 254.48C253.844 254.48 254.032 254.552 254.168 254.696C254.312 254.832 254.384 255.016 254.384 255.248V260.612C254.384 262.124 253.636 262.936 252.14 263.048L251.756 263.072ZM260.713 257.012C260.945 257.012 261.129 257.076 261.265 257.204C261.401 257.332 261.469 257.504 261.469 257.72V262.376C261.469 262.584 261.397 262.752 261.253 262.88C261.117 263.008 260.937 263.072 260.713 263.072C260.497 263.072 260.325 263.012 260.197 262.892C260.069 262.772 260.005 262.608 260.005 262.4V262.1C259.821 262.42 259.573 262.668 259.261 262.844C258.949 263.012 258.597 263.096 258.205 263.096C256.765 263.096 256.045 262.288 256.045 260.672V257.72C256.045 257.504 256.113 257.332 256.249 257.204C256.385 257.076 256.565 257.012 256.789 257.012C257.021 257.012 257.205 257.076 257.341 257.204C257.477 257.332 257.545 257.504 257.545 257.72V260.684C257.545 261.1 257.629 261.408 257.797 261.608C257.965 261.808 258.229 261.908 258.589 261.908C259.005 261.908 259.337 261.772 259.585 261.5C259.841 261.22 259.969 260.852 259.969 260.396V257.72C259.969 257.504 260.037 257.332 260.173 257.204C260.309 257.076 260.489 257.012 260.713 257.012ZM263.774 263.072C263.558 263.072 263.378 263.012 263.234 262.892C263.098 262.764 263.03 262.584 263.03 262.352V255.188C263.03 254.956 263.098 254.78 263.234 254.66C263.378 254.54 263.558 254.48 263.774 254.48C263.99 254.48 264.17 254.54 264.314 254.66C264.458 254.78 264.53 254.956 264.53 255.188V262.352C264.53 262.584 264.458 262.764 264.314 262.892C264.17 263.012 263.99 263.072 263.774 263.072ZM274.531 261.752C275.011 261.752 275.251 261.956 275.251 262.364C275.251 262.788 275.011 263 274.531 263H269.971C269.763 263 269.599 262.94 269.479 262.82C269.359 262.692 269.299 262.536 269.299 262.352C269.299 262.112 269.391 261.896 269.575 261.704L272.311 258.764C272.647 258.396 272.891 258.06 273.043 257.756C273.203 257.444 273.283 257.136 273.283 256.832C273.283 256.456 273.175 256.168 272.959 255.968C272.743 255.768 272.435 255.668 272.035 255.668C271.707 255.668 271.387 255.732 271.075 255.86C270.771 255.98 270.463 256.148 270.151 256.364C270.071 256.42 269.991 256.468 269.911 256.508C269.831 256.54 269.751 256.556 269.671 256.556C269.535 256.556 269.415 256.492 269.311 256.364C269.215 256.236 269.167 256.084 269.167 255.908C269.167 255.788 269.187 255.684 269.227 255.596C269.275 255.508 269.347 255.424 269.443 255.344C269.795 255.064 270.207 254.844 270.679 254.684C271.151 254.516 271.623 254.432 272.095 254.432C272.919 254.432 273.575 254.64 274.063 255.056C274.559 255.472 274.807 256.032 274.807 256.736C274.807 257.224 274.703 257.684 274.495 258.116C274.287 258.54 273.935 259.016 273.439 259.544L271.363 261.752H274.531ZM279.362 263.108C278.362 263.108 277.598 262.74 277.07 262.004C276.542 261.26 276.278 260.18 276.278 258.764C276.278 257.356 276.542 256.284 277.07 255.548C277.598 254.804 278.362 254.432 279.362 254.432C280.362 254.432 281.126 254.804 281.654 255.548C282.182 256.284 282.446 257.356 282.446 258.764C282.446 260.172 282.182 261.248 281.654 261.992C281.126 262.736 280.362 263.108 279.362 263.108ZM279.362 261.896C279.906 261.896 280.302 261.648 280.55 261.152C280.798 260.648 280.922 259.852 280.922 258.764C280.922 257.668 280.798 256.876 280.55 256.388C280.302 255.892 279.906 255.644 279.362 255.644C278.818 255.644 278.422 255.892 278.174 256.388C277.926 256.884 277.802 257.676 277.802 258.764C277.802 259.852 277.926 260.648 278.174 261.152C278.422 261.648 278.818 261.896 279.362 261.896ZM288.933 261.752C289.413 261.752 289.653 261.956 289.653 262.364C289.653 262.788 289.413 263 288.933 263H284.373C284.165 263 284.001 262.94 283.881 262.82C283.761 262.692 283.701 262.536 283.701 262.352C283.701 262.112 283.793 261.896 283.977 261.704L286.713 258.764C287.049 258.396 287.293 258.06 287.445 257.756C287.605 257.444 287.685 257.136 287.685 256.832C287.685 256.456 287.577 256.168 287.361 255.968C287.145 255.768 286.837 255.668 286.437 255.668C286.109 255.668 285.789 255.732 285.477 255.86C285.173 255.98 284.865 256.148 284.553 256.364C284.473 256.42 284.393 256.468 284.313 256.508C284.233 256.54 284.153 256.556 284.073 256.556C283.937 256.556 283.817 256.492 283.713 256.364C283.617 256.236 283.569 256.084 283.569 255.908C283.569 255.788 283.589 255.684 283.629 255.596C283.677 255.508 283.749 255.424 283.845 255.344C284.197 255.064 284.609 254.844 285.081 254.684C285.553 254.516 286.025 254.432 286.497 254.432C287.321 254.432 287.977 254.64 288.465 255.056C288.961 255.472 289.209 256.032 289.209 256.736C289.209 257.224 289.105 257.684 288.897 258.116C288.689 258.54 288.337 259.016 287.841 259.544L285.765 261.752H288.933ZM296.464 260.144C296.704 260.144 296.884 260.196 297.004 260.3C297.124 260.404 297.184 260.552 297.184 260.744C297.184 261.144 296.944 261.344 296.464 261.344H295.852V262.292C295.852 262.54 295.78 262.732 295.636 262.868C295.5 263.004 295.32 263.072 295.096 263.072C294.872 263.072 294.688 263.004 294.544 262.868C294.408 262.732 294.34 262.54 294.34 262.292V261.344H291.196C290.98 261.344 290.812 261.284 290.692 261.164C290.572 261.036 290.512 260.88 290.512 260.696C290.512 260.504 290.576 260.32 290.704 260.144L294.412 254.816C294.492 254.704 294.592 254.62 294.712 254.564C294.832 254.5 294.956 254.468 295.084 254.468C295.292 254.468 295.472 254.536 295.624 254.672C295.776 254.808 295.852 255 295.852 255.248V260.144H296.464ZM294.34 260.144V256.916L292.108 260.144H294.34Z" fill="#1E1E1E"/>
<path d="M364.936 263.084C364.776 263.084 364.648 263.048 364.552 262.976C364.456 262.904 364.4 262.808 364.384 262.688C364.368 262.568 364.392 262.432 364.456 262.28L367.708 254.984C367.788 254.792 367.888 254.656 368.008 254.576C368.136 254.496 368.276 254.456 368.428 254.456C368.572 254.456 368.704 254.496 368.824 254.576C368.952 254.656 369.056 254.792 369.136 254.984L372.388 262.28C372.46 262.432 372.488 262.572 372.472 262.7C372.456 262.82 372.404 262.916 372.316 262.988C372.228 263.052 372.104 263.084 371.944 263.084C371.768 263.084 371.628 263.04 371.524 262.952C371.42 262.864 371.328 262.728 371.248 262.544L370.408 260.6L370.972 260.936H365.86L366.412 260.6L365.584 262.544C365.504 262.736 365.416 262.876 365.32 262.964C365.224 263.044 365.096 263.084 364.936 263.084ZM368.404 255.92L366.592 260.216L366.292 259.928H370.528L370.252 260.216L368.428 255.92H368.404ZM375.776 263.108C375.304 263.108 374.908 263.02 374.588 262.844C374.276 262.668 374.04 262.408 373.88 262.064C373.728 261.712 373.652 261.272 373.652 260.744V257.672C373.652 257.464 373.704 257.312 373.808 257.216C373.912 257.112 374.06 257.06 374.252 257.06C374.444 257.06 374.592 257.112 374.696 257.216C374.808 257.312 374.864 257.464 374.864 257.672V260.756C374.864 261.228 374.96 261.576 375.152 261.8C375.344 262.024 375.648 262.136 376.064 262.136C376.52 262.136 376.888 261.984 377.168 261.68C377.456 261.368 377.6 260.96 377.6 260.456V257.672C377.6 257.464 377.652 257.312 377.756 257.216C377.86 257.112 378.012 257.06 378.212 257.06C378.404 257.06 378.552 257.112 378.656 257.216C378.76 257.312 378.812 257.464 378.812 257.672V262.472C378.812 262.88 378.616 263.084 378.224 263.084C378.04 263.084 377.896 263.032 377.792 262.928C377.688 262.816 377.636 262.664 377.636 262.472V261.452L377.792 261.716C377.632 262.164 377.376 262.508 377.024 262.748C376.672 262.988 376.256 263.108 375.776 263.108ZM383.172 265.268C382.74 265.268 382.32 265.224 381.912 265.136C381.512 265.048 381.148 264.904 380.82 264.704C380.7 264.64 380.62 264.56 380.58 264.464C380.54 264.376 380.528 264.284 380.544 264.188C380.568 264.092 380.612 264.008 380.676 263.936C380.74 263.864 380.816 263.816 380.904 263.792C381 263.768 381.1 263.784 381.204 263.84C381.556 264.032 381.888 264.16 382.2 264.224C382.52 264.296 382.816 264.332 383.088 264.332C383.648 264.332 384.068 264.188 384.348 263.9C384.628 263.62 384.768 263.204 384.768 262.652V261.428H384.876C384.756 261.868 384.504 262.216 384.12 262.472C383.736 262.728 383.292 262.856 382.788 262.856C382.26 262.856 381.8 262.736 381.408 262.496C381.016 262.248 380.712 261.908 380.496 261.476C380.28 261.036 380.172 260.524 380.172 259.94C380.172 259.5 380.232 259.104 380.352 258.752C380.48 258.4 380.656 258.096 380.88 257.84C381.112 257.584 381.388 257.388 381.708 257.252C382.036 257.108 382.396 257.036 382.788 257.036C383.3 257.036 383.744 257.164 384.12 257.42C384.504 257.676 384.752 258.024 384.864 258.464L384.744 258.668V257.672C384.744 257.472 384.796 257.32 384.9 257.216C385.012 257.112 385.16 257.06 385.344 257.06C385.536 257.06 385.684 257.112 385.788 257.216C385.892 257.32 385.944 257.472 385.944 257.672V262.508C385.944 263.42 385.708 264.108 385.236 264.572C384.764 265.036 384.076 265.268 383.172 265.268ZM383.076 261.908C383.428 261.908 383.728 261.828 383.976 261.668C384.224 261.508 384.416 261.28 384.552 260.984C384.688 260.688 384.756 260.34 384.756 259.94C384.756 259.34 384.604 258.864 384.3 258.512C384.004 258.16 383.596 257.984 383.076 257.984C382.732 257.984 382.436 258.064 382.188 258.224C381.94 258.384 381.744 258.612 381.6 258.908C381.464 259.196 381.396 259.54 381.396 259.94C381.396 260.548 381.548 261.028 381.852 261.38C382.156 261.732 382.564 261.908 383.076 261.908ZM391.529 263C391.313 263 391.157 262.952 391.061 262.856C390.965 262.752 390.917 262.612 390.917 262.436C390.917 262.324 390.945 262.216 391.001 262.112C391.057 262.008 391.137 261.9 391.241 261.788L393.797 259.052C394.189 258.636 394.469 258.256 394.637 257.912C394.813 257.56 394.901 257.208 394.901 256.856C394.901 256.408 394.765 256.068 394.493 255.836C394.221 255.604 393.821 255.488 393.293 255.488C392.973 255.488 392.665 255.536 392.369 255.632C392.073 255.728 391.777 255.884 391.481 256.1C391.361 256.18 391.249 256.216 391.145 256.208C391.041 256.2 390.949 256.16 390.869 256.088C390.797 256.016 390.749 255.928 390.725 255.824C390.701 255.72 390.705 255.612 390.737 255.5C390.769 255.388 390.845 255.292 390.965 255.212C391.293 254.964 391.673 254.772 392.105 254.636C392.537 254.5 392.977 254.432 393.425 254.432C394.009 254.432 394.501 254.524 394.901 254.708C395.309 254.884 395.617 255.144 395.825 255.488C396.033 255.832 396.137 256.252 396.137 256.748C396.137 257.084 396.081 257.412 395.969 257.732C395.865 258.052 395.701 258.38 395.477 258.716C395.261 259.044 394.977 259.392 394.625 259.76L392.201 262.304V261.956H396.017C396.193 261.956 396.329 262 396.425 262.088C396.521 262.176 396.569 262.304 396.569 262.472C396.569 262.64 396.521 262.772 396.425 262.868C396.329 262.956 396.193 263 396.017 263H391.529ZM400.752 263.108C399.768 263.108 399.016 262.736 398.496 261.992C397.984 261.24 397.728 260.164 397.728 258.764C397.728 257.812 397.844 257.016 398.076 256.376C398.308 255.736 398.648 255.252 399.096 254.924C399.544 254.596 400.096 254.432 400.752 254.432C401.744 254.432 402.496 254.8 403.008 255.536C403.52 256.264 403.776 257.336 403.776 258.752C403.776 259.688 403.66 260.48 403.428 261.128C403.196 261.776 402.856 262.268 402.408 262.604C401.96 262.94 401.408 263.108 400.752 263.108ZM400.752 262.076C401.368 262.076 401.82 261.808 402.108 261.272C402.404 260.728 402.552 259.888 402.552 258.752C402.552 257.608 402.404 256.776 402.108 256.256C401.82 255.728 401.368 255.464 400.752 255.464C400.144 255.464 399.692 255.728 399.396 256.256C399.1 256.776 398.952 257.608 398.952 258.752C398.952 259.888 399.1 260.728 399.396 261.272C399.692 261.808 400.144 262.076 400.752 262.076ZM405.92 263C405.704 263 405.548 262.952 405.452 262.856C405.356 262.752 405.308 262.612 405.308 262.436C405.308 262.324 405.336 262.216 405.392 262.112C405.448 262.008 405.528 261.9 405.632 261.788L408.188 259.052C408.58 258.636 408.86 258.256 409.028 257.912C409.204 257.56 409.292 257.208 409.292 256.856C409.292 256.408 409.156 256.068 408.884 255.836C408.612 255.604 408.212 255.488 407.684 255.488C407.364 255.488 407.056 255.536 406.76 255.632C406.464 255.728 406.168 255.884 405.872 256.1C405.752 256.18 405.64 256.216 405.536 256.208C405.432 256.2 405.34 256.16 405.26 256.088C405.188 256.016 405.14 255.928 405.116 255.824C405.092 255.72 405.096 255.612 405.128 255.5C405.16 255.388 405.236 255.292 405.356 255.212C405.684 254.964 406.064 254.772 406.496 254.636C406.928 254.5 407.368 254.432 407.816 254.432C408.4 254.432 408.892 254.524 409.292 254.708C409.7 254.884 410.008 255.144 410.216 255.488C410.424 255.832 410.528 256.252 410.528 256.748C410.528 257.084 410.472 257.412 410.36 257.732C410.256 258.052 410.092 258.38 409.868 258.716C409.652 259.044 409.368 259.392 409.016 259.76L406.592 262.304V261.956H410.408C410.584 261.956 410.72 262 410.816 262.088C410.912 262.176 410.96 262.304 410.96 262.472C410.96 262.64 410.912 262.772 410.816 262.868C410.72 262.956 410.584 263 410.408 263H405.92ZM416.535 263.084C416.343 263.084 416.191 263.032 416.079 262.928C415.967 262.816 415.911 262.664 415.911 262.472V261.284H412.695C412.495 261.284 412.335 261.24 412.215 261.152C412.095 261.064 412.035 260.928 412.035 260.744C412.035 260.64 412.059 260.528 412.107 260.408C412.163 260.288 412.259 260.132 412.395 259.94L415.887 254.864C415.975 254.728 416.075 254.628 416.187 254.564C416.299 254.492 416.427 254.456 416.571 254.456C416.739 254.456 416.875 254.508 416.979 254.612C417.091 254.708 417.147 254.86 417.147 255.068V260.24H417.903C418.095 260.24 418.235 260.284 418.323 260.372C418.419 260.46 418.467 260.588 418.467 260.756C418.467 260.932 418.419 261.064 418.323 261.152C418.235 261.24 418.095 261.284 417.903 261.284H417.147V262.472C417.147 262.664 417.091 262.816 416.979 262.928C416.875 263.032 416.727 263.084 416.535 263.084ZM415.911 260.24V256.004H416.235L413.103 260.576V260.24H415.911Z" fill="#8F8CA7"/>
<path d="M134 159H464" stroke="#D4D2DF" stroke-dasharray="2 2"/>
<path d="M134 199H464" stroke="#D4D2DF" stroke-dasharray="2 2"/>
<path d="M134 238H464" stroke="#D4D2DF" stroke-dasharray="2 2"/>
<path d="M179 192L133.5 220V238.5H463.5V195L446 214L362.5 192L331 208L263.5 176L205 201.5L179 192Z" fill="url(#paint0_linear_142_1673)"/>
<path d="M133.5 220L179 192L205 201.5L263.5 176L331 208L362.5 192L446 214L463.5 195" stroke="#8379CD" stroke-width="3"/>
<path d="M294 190L294 238" stroke="#1E1E1E" stroke-dasharray="2 2"/>
<g filter="url(#filter0_d_142_1673)">
<rect x="243" y="142" width="102" height="50" rx="4" fill="white" shape-rendering="crispEdges"/>
<path d="M280.516 163.336C281.156 163.336 281.476 163.608 281.476 164.152C281.476 164.717 281.156 165 280.516 165H275.108C274.457 165 274.132 164.717 274.132 164.152C274.132 163.608 274.457 163.336 275.108 163.336H276.772V156.04L275.236 156.984C275.087 157.069 274.953 157.112 274.836 157.112C274.612 157.112 274.42 157.016 274.26 156.824C274.111 156.632 274.036 156.419 274.036 156.184C274.036 155.875 274.175 155.635 274.452 155.464L276.932 153.928C277.252 153.736 277.556 153.64 277.844 153.64C278.143 153.64 278.383 153.731 278.564 153.912C278.745 154.093 278.836 154.344 278.836 154.664V163.336H280.516ZM284.046 162.696C284.408 162.696 284.702 162.829 284.926 163.096C285.15 163.363 285.262 163.752 285.262 164.264C285.262 165.277 284.91 166.152 284.206 166.888C284.067 167.027 283.918 167.096 283.758 167.096C283.598 167.096 283.459 167.043 283.342 166.936C283.224 166.829 283.166 166.701 283.166 166.552C283.166 166.424 283.219 166.301 283.326 166.184C283.646 165.843 283.854 165.459 283.95 165.032C283.64 165 283.384 164.883 283.182 164.68C282.99 164.467 282.894 164.205 282.894 163.896C282.894 163.555 283 163.272 283.214 163.048C283.438 162.813 283.715 162.696 284.046 162.696ZM294.031 163.336C294.671 163.336 294.991 163.608 294.991 164.152C294.991 164.717 294.671 165 294.031 165H287.951C287.673 165 287.455 164.92 287.295 164.76C287.135 164.589 287.055 164.381 287.055 164.136C287.055 163.816 287.177 163.528 287.423 163.272L291.071 159.352C291.519 158.861 291.844 158.413 292.047 158.008C292.26 157.592 292.367 157.181 292.367 156.776C292.367 156.275 292.223 155.891 291.935 155.624C291.647 155.357 291.236 155.224 290.703 155.224C290.265 155.224 289.839 155.309 289.423 155.48C289.017 155.64 288.607 155.864 288.191 156.152C288.084 156.227 287.977 156.291 287.871 156.344C287.764 156.387 287.657 156.408 287.551 156.408C287.369 156.408 287.209 156.323 287.071 156.152C286.943 155.981 286.879 155.779 286.879 155.544C286.879 155.384 286.905 155.245 286.959 155.128C287.023 155.011 287.119 154.899 287.247 154.792C287.716 154.419 288.265 154.125 288.895 153.912C289.524 153.688 290.153 153.576 290.783 153.576C291.881 153.576 292.756 153.853 293.407 154.408C294.068 154.963 294.399 155.709 294.399 156.648C294.399 157.299 294.26 157.912 293.983 158.488C293.705 159.053 293.236 159.688 292.575 160.392L289.807 163.336H294.031ZM302.2 159.208C302.872 159.379 303.384 159.704 303.736 160.184C304.099 160.653 304.28 161.24 304.28 161.944C304.28 162.915 303.923 163.688 303.208 164.264C302.493 164.84 301.528 165.128 300.312 165.128C299.619 165.128 298.952 165.021 298.312 164.808C297.672 164.595 297.128 164.296 296.68 163.912C296.435 163.699 296.312 163.448 296.312 163.16C296.312 162.925 296.376 162.728 296.504 162.568C296.643 162.397 296.803 162.312 296.984 162.312C297.091 162.312 297.187 162.333 297.272 162.376C297.357 162.408 297.475 162.467 297.624 162.552C298.072 162.851 298.499 163.08 298.904 163.24C299.309 163.4 299.752 163.48 300.232 163.48C300.936 163.48 301.459 163.341 301.8 163.064C302.141 162.776 302.312 162.344 302.312 161.768C302.312 161.203 302.131 160.787 301.768 160.52C301.416 160.243 300.867 160.104 300.12 160.104H299.208C298.963 160.104 298.771 160.024 298.632 159.864C298.504 159.693 298.44 159.501 298.44 159.288C298.44 159.064 298.504 158.872 298.632 158.712C298.771 158.552 298.963 158.472 299.208 158.472H299.848C301.309 158.472 302.04 157.923 302.04 156.824C302.04 156.312 301.885 155.917 301.576 155.64C301.267 155.363 300.84 155.224 300.296 155.224C299.517 155.224 298.685 155.533 297.8 156.152C297.651 156.237 297.533 156.301 297.448 156.344C297.363 156.376 297.267 156.392 297.16 156.392C296.979 156.392 296.819 156.312 296.68 156.152C296.552 155.981 296.488 155.779 296.488 155.544C296.488 155.384 296.515 155.251 296.568 155.144C296.632 155.027 296.728 154.909 296.856 154.792C297.304 154.419 297.837 154.125 298.456 153.912C299.085 153.688 299.725 153.576 300.376 153.576C301.485 153.576 302.365 153.848 303.016 154.392C303.677 154.936 304.008 155.661 304.008 156.568C303.997 157.187 303.832 157.731 303.512 158.2C303.203 158.659 302.765 158.995 302.2 159.208ZM310.066 165.144C308.732 165.144 307.714 164.653 307.01 163.672C306.306 162.68 305.954 161.24 305.954 159.352C305.954 157.475 306.306 156.045 307.01 155.064C307.714 154.072 308.732 153.576 310.066 153.576C311.399 153.576 312.418 154.072 313.122 155.064C313.826 156.045 314.178 157.475 314.178 159.352C314.178 161.229 313.826 162.664 313.122 163.656C312.418 164.648 311.399 165.144 310.066 165.144ZM310.066 163.528C310.791 163.528 311.319 163.197 311.65 162.536C311.98 161.864 312.146 160.803 312.146 159.352C312.146 157.891 311.98 156.835 311.65 156.184C311.319 155.523 310.791 155.192 310.066 155.192C309.34 155.192 308.812 155.523 308.482 156.184C308.151 156.845 307.986 157.901 307.986 159.352C307.986 160.803 308.151 161.864 308.482 162.536C308.812 163.197 309.34 163.528 310.066 163.528Z" fill="#333333"/>
<path d="M256.154 177.04C256.306 177.04 256.43 177.092 256.526 177.196C256.63 177.292 256.682 177.416 256.682 177.568C256.682 177.72 256.63 177.848 256.526 177.952C256.43 178.048 256.306 178.096 256.154 178.096H254.282V179.956C254.282 180.108 254.23 180.236 254.126 180.34C254.03 180.444 253.906 180.496 253.754 180.496C253.602 180.496 253.474 180.444 253.37 180.34C253.274 180.236 253.226 180.108 253.226 179.956V178.096H251.354C251.202 178.096 251.074 178.048 250.97 177.952C250.874 177.848 250.826 177.72 250.826 177.568C250.826 177.416 250.874 177.292 250.97 177.196C251.074 177.092 251.202 177.04 251.354 177.04H253.226V175.168C253.226 175.016 253.274 174.892 253.37 174.796C253.474 174.692 253.602 174.64 253.754 174.64C253.906 174.64 254.03 174.692 254.126 174.796C254.23 174.892 254.282 175.016 254.282 175.168V177.04H256.154ZM261.394 175.588C261.922 175.588 262.386 175.704 262.786 175.936C263.194 176.16 263.51 176.476 263.734 176.884C263.958 177.292 264.07 177.76 264.07 178.288C264.07 178.84 263.942 179.328 263.686 179.752C263.438 180.176 263.082 180.508 262.618 180.748C262.162 180.98 261.634 181.096 261.034 181.096C260.538 181.096 260.05 181.016 259.57 180.856C259.098 180.688 258.694 180.464 258.358 180.184C258.174 180.024 258.082 179.836 258.082 179.62C258.082 179.444 258.13 179.296 258.226 179.176C258.33 179.048 258.45 178.984 258.586 178.984C258.666 178.984 258.742 179 258.814 179.032C258.886 179.056 258.97 179.1 259.066 179.164C259.386 179.388 259.698 179.56 260.002 179.68C260.306 179.8 260.63 179.86 260.974 179.86C261.502 179.86 261.906 179.728 262.186 179.464C262.466 179.2 262.606 178.824 262.606 178.336C262.606 177.864 262.462 177.492 262.174 177.22C261.894 176.94 261.506 176.8 261.01 176.8C260.698 176.8 260.418 176.844 260.17 176.932C259.93 177.02 259.682 177.168 259.426 177.376C259.274 177.48 259.118 177.532 258.958 177.532C258.798 177.532 258.662 177.484 258.55 177.388C258.438 177.292 258.382 177.164 258.382 177.004V173.26C258.382 173.036 258.446 172.86 258.574 172.732C258.702 172.604 258.882 172.54 259.114 172.54H263.11C263.59 172.54 263.83 172.74 263.83 173.14C263.83 173.54 263.59 173.74 263.11 173.74H259.894V176.02C260.302 175.732 260.802 175.588 261.394 175.588ZM268.529 180.832C268.457 180.96 268.369 181.056 268.265 181.12C268.161 181.184 268.057 181.216 267.953 181.216C267.809 181.216 267.681 181.164 267.569 181.06C267.465 180.956 267.413 180.824 267.413 180.664C267.413 180.528 267.453 180.392 267.533 180.256L271.901 172.708C271.973 172.58 272.061 172.484 272.165 172.42C272.269 172.356 272.373 172.324 272.477 172.324C272.621 172.324 272.745 172.376 272.849 172.48C272.961 172.584 273.017 172.716 273.017 172.876C273.017 173.012 272.977 173.148 272.897 173.284L268.529 180.832ZM267.197 177.592C266.525 177.592 266.001 177.372 265.625 176.932C265.249 176.492 265.061 175.848 265.061 175C265.061 174.16 265.249 173.52 265.625 173.08C266.001 172.64 266.525 172.42 267.197 172.42C267.869 172.42 268.393 172.64 268.769 173.08C269.153 173.52 269.345 174.16 269.345 175C269.345 175.848 269.153 176.492 268.769 176.932C268.393 177.372 267.869 177.592 267.197 177.592ZM267.197 176.62C267.501 176.62 267.721 176.496 267.857 176.248C268.001 175.992 268.073 175.576 268.073 175C268.073 174.44 268.001 174.032 267.857 173.776C267.713 173.52 267.493 173.392 267.197 173.392C266.901 173.392 266.681 173.52 266.537 173.776C266.401 174.024 266.333 174.432 266.333 175C266.333 175.576 266.401 175.992 266.537 176.248C266.681 176.496 266.901 176.62 267.197 176.62ZM273.233 181.084C272.561 181.084 272.037 180.864 271.661 180.424C271.285 179.984 271.097 179.336 271.097 178.48C271.097 177.64 271.285 177.004 271.661 176.572C272.045 176.132 272.569 175.912 273.233 175.912C273.905 175.912 274.429 176.132 274.805 176.572C275.181 177.012 275.369 177.652 275.369 178.492C275.369 179.34 275.181 179.984 274.805 180.424C274.429 180.864 273.905 181.084 273.233 181.084ZM273.233 180.112C273.529 180.112 273.749 179.988 273.893 179.74C274.037 179.484 274.109 179.068 274.109 178.492C274.109 177.932 274.037 177.524 273.893 177.268C273.749 177.012 273.529 176.884 273.233 176.884C272.937 176.884 272.717 177.012 272.573 177.268C272.429 177.524 272.357 177.932 272.357 178.492C272.357 179.068 272.429 179.484 272.573 179.74C272.717 179.988 272.937 180.112 273.233 180.112Z" fill="#3BCF3B"/>
<path d="M282.401 181.108C281.921 181.108 281.517 181.024 281.189 180.856C280.861 180.688 280.617 180.44 280.457 180.112C280.297 179.784 280.217 179.384 280.217 178.912V176.08H279.497C279.337 176.08 279.213 176.04 279.125 175.96C279.037 175.872 278.993 175.756 278.993 175.612C278.993 175.46 279.037 175.344 279.125 175.264C279.213 175.184 279.337 175.144 279.497 175.144H280.217V173.908C280.217 173.708 280.269 173.556 280.373 173.452C280.485 173.348 280.637 173.296 280.829 173.296C281.021 173.296 281.169 173.348 281.273 173.452C281.377 173.556 281.429 173.708 281.429 173.908V175.144H282.833C282.993 175.144 283.117 175.184 283.205 175.264C283.293 175.344 283.337 175.46 283.337 175.612C283.337 175.756 283.293 175.872 283.205 175.96C283.117 176.04 282.993 176.08 282.833 176.08H281.429V178.816C281.429 179.24 281.517 179.56 281.693 179.776C281.877 179.992 282.173 180.1 282.581 180.1C282.725 180.1 282.849 180.088 282.953 180.064C283.065 180.032 283.157 180.012 283.229 180.004C283.317 180.004 283.389 180.036 283.445 180.1C283.501 180.156 283.529 180.268 283.529 180.436C283.529 180.556 283.505 180.668 283.457 180.772C283.417 180.876 283.341 180.944 283.229 180.976C283.133 181.008 283.001 181.036 282.833 181.06C282.673 181.092 282.529 181.108 282.401 181.108ZM284.993 181.084C284.801 181.084 284.653 181.032 284.549 180.928C284.445 180.816 284.393 180.664 284.393 180.472V173.068C284.393 172.868 284.445 172.716 284.549 172.612C284.653 172.508 284.801 172.456 284.993 172.456C285.185 172.456 285.333 172.508 285.437 172.612C285.549 172.716 285.605 172.868 285.605 173.068V176.392H285.437C285.613 175.944 285.889 175.608 286.265 175.384C286.641 175.152 287.073 175.036 287.561 175.036C288.025 175.036 288.409 175.124 288.713 175.3C289.025 175.468 289.257 175.728 289.409 176.08C289.561 176.424 289.637 176.86 289.637 177.388V180.472C289.637 180.664 289.585 180.816 289.481 180.928C289.377 181.032 289.229 181.084 289.037 181.084C288.837 181.084 288.685 181.032 288.581 180.928C288.477 180.816 288.425 180.664 288.425 180.472V177.46C288.425 176.956 288.325 176.588 288.125 176.356C287.933 176.124 287.629 176.008 287.213 176.008C286.725 176.008 286.333 176.16 286.037 176.464C285.749 176.768 285.605 177.176 285.605 177.688V180.472C285.605 180.88 285.401 181.084 284.993 181.084ZM291.907 181.072C291.715 181.072 291.567 181.016 291.463 180.904C291.359 180.784 291.307 180.62 291.307 180.412V175.732C291.307 175.524 291.359 175.364 291.463 175.252C291.567 175.14 291.715 175.084 291.907 175.084C292.099 175.084 292.247 175.14 292.351 175.252C292.463 175.364 292.519 175.524 292.519 175.732V180.412C292.519 180.62 292.467 180.784 292.363 180.904C292.259 181.016 292.107 181.072 291.907 181.072ZM291.907 173.836C291.667 173.836 291.479 173.776 291.343 173.656C291.215 173.536 291.151 173.368 291.151 173.152C291.151 172.928 291.215 172.76 291.343 172.648C291.479 172.528 291.667 172.468 291.907 172.468C292.147 172.468 292.331 172.528 292.459 172.648C292.595 172.76 292.663 172.928 292.663 173.152C292.663 173.368 292.595 173.536 292.459 173.656C292.331 173.776 292.147 173.836 291.907 173.836ZM296.277 181.108C295.925 181.108 295.561 181.068 295.185 180.988C294.817 180.908 294.477 180.772 294.165 180.58C294.061 180.508 293.989 180.428 293.949 180.34C293.909 180.252 293.893 180.164 293.901 180.076C293.917 179.98 293.953 179.9 294.009 179.836C294.073 179.764 294.149 179.72 294.237 179.704C294.333 179.688 294.433 179.708 294.537 179.764C294.849 179.94 295.149 180.064 295.437 180.136C295.725 180.2 296.009 180.232 296.289 180.232C296.713 180.232 297.033 180.156 297.249 180.004C297.465 179.852 297.573 179.648 297.573 179.392C297.573 179.184 297.501 179.024 297.357 178.912C297.213 178.792 296.997 178.7 296.709 178.636L295.569 178.408C295.073 178.304 294.697 178.12 294.441 177.856C294.185 177.592 294.057 177.256 294.057 176.848C294.057 176.48 294.157 176.16 294.357 175.888C294.557 175.616 294.837 175.408 295.197 175.264C295.557 175.112 295.973 175.036 296.445 175.036C296.797 175.036 297.129 175.08 297.441 175.168C297.753 175.256 298.041 175.388 298.305 175.564C298.409 175.62 298.477 175.696 298.509 175.792C298.541 175.88 298.545 175.968 298.521 176.056C298.505 176.144 298.465 176.224 298.401 176.296C298.337 176.36 298.257 176.4 298.161 176.416C298.073 176.424 297.973 176.4 297.861 176.344C297.621 176.192 297.381 176.084 297.141 176.02C296.909 175.956 296.677 175.924 296.445 175.924C296.021 175.924 295.701 176.004 295.485 176.164C295.277 176.316 295.173 176.524 295.173 176.788C295.173 176.988 295.237 177.152 295.365 177.28C295.493 177.408 295.693 177.5 295.965 177.556L297.105 177.784C297.625 177.888 298.017 178.064 298.281 178.312C298.553 178.56 298.689 178.896 298.689 179.32C298.689 179.872 298.469 180.308 298.029 180.628C297.589 180.948 297.005 181.108 296.277 181.108ZM303.826 181.084C303.634 181.084 303.486 181.032 303.382 180.928C303.278 180.816 303.226 180.664 303.226 180.472V175.672C303.226 175.472 303.278 175.32 303.382 175.216C303.486 175.112 303.63 175.06 303.814 175.06C304.006 175.06 304.15 175.112 304.246 175.216C304.35 175.32 304.402 175.472 304.402 175.672V176.656L304.27 176.392C304.43 175.968 304.678 175.636 305.014 175.396C305.35 175.156 305.754 175.036 306.226 175.036C306.714 175.036 307.11 175.152 307.414 175.384C307.718 175.616 307.926 175.972 308.038 176.452H307.87C308.022 176.012 308.282 175.668 308.65 175.42C309.018 175.164 309.446 175.036 309.934 175.036C310.382 175.036 310.75 175.124 311.038 175.3C311.326 175.468 311.542 175.728 311.686 176.08C311.83 176.424 311.902 176.86 311.902 177.388V180.472C311.902 180.664 311.846 180.816 311.734 180.928C311.63 181.032 311.482 181.084 311.29 181.084C311.098 181.084 310.95 181.032 310.846 180.928C310.742 180.816 310.69 180.664 310.69 180.472V177.448C310.69 176.952 310.602 176.588 310.426 176.356C310.258 176.124 309.978 176.008 309.586 176.008C309.146 176.008 308.798 176.16 308.542 176.464C308.286 176.768 308.158 177.188 308.158 177.724V180.472C308.158 180.664 308.106 180.816 308.002 180.928C307.898 181.032 307.75 181.084 307.558 181.084C307.366 181.084 307.214 181.032 307.102 180.928C306.998 180.816 306.946 180.664 306.946 180.472V177.448C306.946 176.952 306.862 176.588 306.694 176.356C306.526 176.124 306.246 176.008 305.854 176.008C305.414 176.008 305.066 176.16 304.81 176.464C304.562 176.768 304.438 177.188 304.438 177.724V180.472C304.438 180.88 304.234 181.084 303.826 181.084ZM316.14 181.108C315.548 181.108 315.036 180.984 314.604 180.736C314.18 180.488 313.848 180.136 313.608 179.68C313.368 179.224 313.248 178.688 313.248 178.072C313.248 177.6 313.316 177.18 313.452 176.812C313.588 176.444 313.78 176.128 314.028 175.864C314.284 175.592 314.588 175.388 314.94 175.252C315.3 175.108 315.7 175.036 316.14 175.036C316.724 175.036 317.228 175.16 317.652 175.408C318.084 175.656 318.42 176.008 318.66 176.464C318.9 176.912 319.02 177.448 319.02 178.072C319.02 178.536 318.952 178.956 318.816 179.332C318.68 179.708 318.484 180.028 318.228 180.292C317.98 180.556 317.676 180.76 317.316 180.904C316.964 181.04 316.572 181.108 316.14 181.108ZM316.14 180.172C316.468 180.172 316.756 180.092 317.004 179.932C317.252 179.772 317.444 179.536 317.58 179.224C317.724 178.912 317.796 178.528 317.796 178.072C317.796 177.384 317.644 176.864 317.34 176.512C317.036 176.16 316.636 175.984 316.14 175.984C315.804 175.984 315.512 176.064 315.264 176.224C315.016 176.376 314.82 176.608 314.676 176.92C314.54 177.232 314.472 177.616 314.472 178.072C314.472 178.752 314.624 179.272 314.928 179.632C315.232 179.992 315.636 180.172 316.14 180.172ZM320.981 181.084C320.789 181.084 320.641 181.032 320.537 180.928C320.433 180.816 320.381 180.664 320.381 180.472V175.672C320.381 175.472 320.433 175.32 320.537 175.216C320.641 175.112 320.785 175.06 320.969 175.06C321.161 175.06 321.305 175.112 321.401 175.216C321.505 175.32 321.557 175.472 321.557 175.672V176.608L321.425 176.392C321.601 175.944 321.877 175.608 322.253 175.384C322.629 175.152 323.061 175.036 323.549 175.036C324.013 175.036 324.397 175.124 324.701 175.3C325.013 175.468 325.245 175.728 325.397 176.08C325.549 176.424 325.625 176.86 325.625 177.388V180.472C325.625 180.664 325.573 180.816 325.469 180.928C325.365 181.032 325.217 181.084 325.025 181.084C324.825 181.084 324.673 181.032 324.569 180.928C324.465 180.816 324.413 180.664 324.413 180.472V177.46C324.413 176.956 324.313 176.588 324.113 176.356C323.921 176.124 323.617 176.008 323.201 176.008C322.713 176.008 322.321 176.16 322.025 176.464C321.737 176.768 321.593 177.176 321.593 177.688V180.472C321.593 180.88 321.389 181.084 320.981 181.084ZM329.791 181.108C329.311 181.108 328.907 181.024 328.579 180.856C328.251 180.688 328.007 180.44 327.847 180.112C327.687 179.784 327.607 179.384 327.607 178.912V176.08H326.887C326.727 176.08 326.603 176.04 326.515 175.96C326.427 175.872 326.383 175.756 326.383 175.612C326.383 175.46 326.427 175.344 326.515 175.264C326.603 175.184 326.727 175.144 326.887 175.144H327.607V173.908C327.607 173.708 327.659 173.556 327.763 173.452C327.875 173.348 328.027 173.296 328.219 173.296C328.411 173.296 328.559 173.348 328.663 173.452C328.767 173.556 328.819 173.708 328.819 173.908V175.144H330.223C330.383 175.144 330.507 175.184 330.595 175.264C330.683 175.344 330.727 175.46 330.727 175.612C330.727 175.756 330.683 175.872 330.595 175.96C330.507 176.04 330.383 176.08 330.223 176.08H328.819V178.816C328.819 179.24 328.907 179.56 329.083 179.776C329.267 179.992 329.563 180.1 329.971 180.1C330.115 180.1 330.239 180.088 330.343 180.064C330.455 180.032 330.547 180.012 330.619 180.004C330.707 180.004 330.779 180.036 330.835 180.1C330.891 180.156 330.919 180.268 330.919 180.436C330.919 180.556 330.895 180.668 330.847 180.772C330.807 180.876 330.731 180.944 330.619 180.976C330.523 181.008 330.391 181.036 330.223 181.06C330.063 181.092 329.919 181.108 329.791 181.108ZM332.384 181.084C332.192 181.084 332.044 181.032 331.94 180.928C331.836 180.816 331.784 180.664 331.784 180.472V173.068C331.784 172.868 331.836 172.716 331.94 172.612C332.044 172.508 332.192 172.456 332.384 172.456C332.576 172.456 332.724 172.508 332.828 172.612C332.94 172.716 332.996 172.868 332.996 173.068V176.392H332.828C333.004 175.944 333.28 175.608 333.656 175.384C334.032 175.152 334.464 175.036 334.952 175.036C335.416 175.036 335.8 175.124 336.104 175.3C336.416 175.468 336.648 175.728 336.8 176.08C336.952 176.424 337.028 176.86 337.028 177.388V180.472C337.028 180.664 336.976 180.816 336.872 180.928C336.768 181.032 336.62 181.084 336.428 181.084C336.228 181.084 336.076 181.032 335.972 180.928C335.868 180.816 335.816 180.664 335.816 180.472V177.46C335.816 176.956 335.716 176.588 335.516 176.356C335.324 176.124 335.02 176.008 334.604 176.008C334.116 176.008 333.724 176.16 333.428 176.464C333.14 176.768 332.996 177.176 332.996 177.688V180.472C332.996 180.88 332.792 181.084 332.384 181.084Z" fill="#8F8CA7"/>
</g>
<defs>
<filter id="filter0_d_142_1673" x="223" y="126" width="142" height="90" filterUnits="userSpaceOnUse" color-interpolation-filters="sRGB">
<feFlood flood-opacity="0" result="BackgroundImageFix"/>
<feColorMatrix in="SourceAlpha" type="matrix" values="0 0 0 0 0 0 0 0 0 0 0 0 0 0 0 0 0 0 127 0" result="hardAlpha"/>
<feOffset dy="4"/>
<feGaussianBlur stdDeviation="10"/>
<feComposite in2="hardAlpha" operator="out"/>
<feColorMatrix type="matrix" values="0 0 0 0 0.513726 0 0 0 0 0.47451 0 0 0 0 0.803922 0 0 0 0.3 0"/>
<feBlend mode="normal" in2="BackgroundImageFix" result="effect1_dropShadow_142_1673"/>
<feBlend mode="normal" in="SourceGraphic" in2="effect1_dropShadow_142_1673" result="shape"/>
</filter>
<linearGradient id="paint0_linear_142_1673" x1="319.5" y1="156" x2="321.5" y2="229.5" gradientUnits="userSpaceOnUse">
<stop stop-color="#D6CBFF"/>
<stop offset="0.465" stop-color="#D6CBFF" stop-opacity="0.535"/>
<stop offset="1" stop-color="#D6CBFF" stop-opacity="0"/>
</linearGradient>
<clipPath id="clip0_142_1673">
<rect width="16" height="16" fill="white" transform="translate(459 60)"/>
</clipPath>
</defs>
</svg>
