<svg width="106" height="106" viewBox="0 0 106 106" fill="none" xmlns="http://www.w3.org/2000/svg">
<rect width="106" height="106" rx="53" fill="white"/>
<g clip-path="url(#clip0_267_3271)">
<path d="M47.2908 64.2955C48.4872 66.0499 49.6029 67.6913 50.7185 69.3302C52.2027 71.5087 53.6945 73.6822 55.1711 75.8657C57.5008 79.3167 55.7163 83.4177 51.5868 83.9573C49.459 84.2334 47.8436 83.1567 46.6774 81.4776C43.8505 77.4042 41.079 73.2932 38.2848 69.1972C38.1207 68.9562 37.9466 68.7228 37.8406 68.5747C36.7426 68.9387 35.7254 69.418 34.6577 69.6063C29.8518 70.4571 26.0909 67.1391 25.1973 63.1184C24.4653 59.8205 25.8056 56.6808 28.6225 54.7758C30.3061 53.6364 32.0048 52.517 33.6733 51.3575C33.9989 51.1316 34.2967 50.7953 34.4734 50.4414C37.6538 44.0715 40.8493 37.7092 43.9514 31.3016C44.9005 29.3415 46.8188 28.2522 49.0652 28.4003C51.4278 28.5559 53.4723 29.5473 55.3907 30.8223C59.7725 33.7387 63.0765 37.659 65.8076 42.0838C67.9178 45.4996 69.5736 49.1137 70.293 53.0943C70.6791 55.2326 70.8154 57.381 69.985 59.4541C69.1521 61.5372 67.6628 62.7118 65.3154 62.8524C61.9407 63.0532 58.5735 63.3995 55.2013 63.6706C52.8363 63.8613 50.4661 64.032 48.101 64.2127C47.8764 64.2303 47.6518 64.2604 47.2883 64.3005L47.2908 64.2955ZM68.1399 55.461C67.8799 54.0756 67.7613 52.6852 67.3499 51.3851C65.116 44.3476 61.0598 38.5148 55.3275 33.8466C53.7273 32.544 51.9579 31.5024 49.9108 31.0155C47.7149 30.4935 46.1196 31.4773 45.7031 33.6885C45.3018 35.8343 45.683 37.9426 46.3291 39.983C48.4418 46.6365 52.2179 52.2234 57.4806 56.8113C59.2399 58.3448 61.1835 59.6273 63.4905 60.2397C65.2801 60.714 66.7895 60.0339 67.466 58.3121C67.8168 57.4187 67.9203 56.4273 68.1399 55.4585V55.461ZM43.28 38.3015C43.227 38.3868 43.1563 38.4822 43.1033 38.5901C41.0058 42.8392 38.9158 47.0933 36.8006 51.3324C36.6088 51.7164 36.7426 51.9473 36.9369 52.2309C39.0648 55.338 41.1976 58.4401 43.2952 61.5674C43.5905 62.0091 43.8959 62.0919 44.3805 62.0518C48.0228 61.7481 51.6676 61.472 55.3099 61.1834C56.4281 61.0955 57.5462 60.9951 58.6972 60.8972C50.8069 55.1724 45.6678 47.6731 43.275 38.3015H43.28ZM34.8243 53.541C32.9564 54.8461 31.1189 56.1161 29.299 57.4136C29.0163 57.6144 28.7917 57.9131 28.5822 58.1992C26.944 60.4405 27.209 63.3895 29.2233 65.5253C31.1189 67.5332 33.9938 67.9096 36.3286 66.4063C37.8784 65.4074 39.3878 64.3507 40.9124 63.3167C41.0437 63.2289 41.1598 63.1209 41.2961 63.0155C39.138 59.8582 37.0076 56.736 34.8243 53.5435V53.541ZM39.8195 67.0563C40.3091 67.7766 40.7559 68.4317 41.2027 69.0867C43.752 72.8188 46.2963 76.5534 48.8507 80.283C49.5398 81.2894 50.6277 81.7286 51.6802 81.4601C53.5758 80.9782 54.2901 78.9678 53.1467 77.2863C50.3702 73.2028 47.5836 69.1269 44.7995 65.0485C44.4335 64.5114 43.8555 64.3532 43.3128 64.7071C42.1543 65.4626 41.0184 66.2507 39.8195 67.0588V67.0563Z" fill="black"/>
<path d="M71.1641 36.138C71.4897 35.7164 71.6739 35.3148 71.9869 35.1065C74.7937 33.2392 77.6207 31.402 80.4502 29.5674C81.1368 29.1206 81.8789 29.2486 82.2853 29.8409C82.6942 30.4358 82.5452 31.1837 81.8637 31.6329C79.0468 33.4877 76.2198 35.3249 73.3928 37.162C72.936 37.4582 72.4059 37.526 71.9743 37.2047C71.6563 36.9688 71.472 36.5572 71.1641 36.1405V36.138Z" fill="black"/>
<path d="M74.5886 43.0726C76.3201 43.3788 77.8876 43.6549 79.4551 43.9335C81.2295 44.2497 83.0014 44.5735 84.7759 44.8797C85.5634 45.0152 86.0934 45.6075 85.9824 46.2827C85.8638 47.008 85.1696 47.4824 84.3872 47.3443C82.0549 46.9327 79.7251 46.5111 77.3954 46.0944C76.4665 45.9288 75.5376 45.7707 74.6113 45.6C74.0636 45.4996 73.5537 45.2587 73.483 44.6689C73.4376 44.2974 73.5436 43.8306 73.7582 43.5294C73.9424 43.2684 74.374 43.1831 74.5886 43.0726Z" fill="black"/>
<path d="M65.1221 30.4031C65.3719 27.9335 65.6244 25.4638 65.8768 22.9942C65.9373 22.3918 66.0055 21.792 66.0686 21.1896C66.1544 20.394 66.7097 19.9272 67.472 20.01C68.1762 20.0878 68.6179 20.6827 68.5397 21.4456C68.2217 24.475 67.9061 27.5043 67.5881 30.5336C67.5048 31.3167 66.9975 31.766 66.2554 31.7258C65.5713 31.6882 65.0968 31.1335 65.1221 30.4031Z" fill="black"/>
<path d="M68.1399 55.461C67.9203 56.4298 67.8168 57.4212 67.4659 58.3147C66.7895 60.0364 65.2801 60.714 63.4905 60.2422C61.1834 59.6323 59.2399 58.3498 57.4806 56.8138C52.2178 52.2259 48.4418 46.6365 46.3291 39.9856C45.6804 37.9451 45.2992 35.8368 45.7031 33.691C46.1171 31.4773 47.7123 30.496 49.9108 31.018C51.9578 31.5049 53.7272 32.5465 55.3275 33.8491C61.0623 38.5173 65.1185 44.3501 67.3498 51.3876C67.7612 52.6852 67.8799 54.0756 68.1399 55.4635V55.461ZM54.5425 40.4825C53.1845 40.485 51.9376 40.864 50.8094 41.6169C50.2793 41.9708 50.0925 42.6108 50.3298 43.1579C50.5544 43.6775 51.1653 44.0038 51.7357 43.8557C52.0134 43.7829 52.2632 43.6097 52.5232 43.4792C54.0604 42.7062 55.5799 42.7438 56.9934 43.7227C58.4044 44.699 58.9976 46.0869 58.7704 47.8011C58.6063 49.0384 57.945 49.957 56.9707 50.7024C56.4305 51.1165 56.2917 51.7339 56.5719 52.2585C56.8647 52.8081 57.3518 53.034 57.9425 52.8935C58.2529 52.8207 58.5508 52.6174 58.8057 52.4116C61.0698 50.5845 61.9154 47.6455 60.9638 44.9675C59.9996 42.2519 57.4806 40.495 54.54 40.485L54.5425 40.4825Z" fill="#F1FFF1"/>
<path d="M43.2804 38.3015C45.6732 47.6731 50.8123 55.1724 58.7027 60.8972C57.5517 60.9951 56.4335 61.0955 55.3153 61.1834C51.673 61.472 48.0282 61.7506 44.3859 62.0518C43.9013 62.0919 43.5959 62.0091 43.3006 61.5674C41.203 58.4427 39.0677 55.338 36.9424 52.2309C36.748 51.9448 36.6142 51.7164 36.8061 51.3324C38.9213 47.0908 41.0112 42.8392 43.1087 38.5901C43.1617 38.4847 43.2324 38.3868 43.2854 38.3015H43.2804Z" fill="#E1DDFC"/>
<path d="M34.8248 53.541C37.0081 56.736 39.1385 59.8557 41.2966 63.013C41.1603 63.1209 41.0442 63.2264 40.9129 63.3142C39.3883 64.3482 37.8789 65.4074 36.3291 66.4038C33.9943 67.9071 31.1219 67.5307 29.2238 65.5228C27.207 63.387 26.9445 60.438 28.5827 58.1967C28.7896 57.9106 29.0168 57.6144 29.2995 57.4111C31.1194 56.1161 32.9569 54.8436 34.8248 53.5385V53.541Z" fill="#E1DDFC"/>
<path d="M39.8203 67.0563C41.0193 66.2456 42.1551 65.4576 43.3137 64.7046C43.8564 64.3507 44.4344 64.5114 44.8004 65.0459C47.5845 69.1244 50.3711 73.2003 53.1476 77.2838C54.291 78.9653 53.5767 80.9757 51.6811 81.4576C50.6285 81.7261 49.5432 81.2894 48.8516 80.2805C46.2972 76.5509 43.7529 72.8163 41.2035 69.0842C40.7568 68.4292 40.31 67.7741 39.8203 67.0538V67.0563Z" fill="white"/>
<path d="M54.5421 40.4825C57.4827 40.4925 60.0017 42.2494 60.9659 44.965C61.9175 47.643 61.0719 50.5819 58.8078 52.4091C58.5529 52.6149 58.255 52.8182 57.9446 52.891C57.3539 53.0315 56.8668 52.8056 56.574 52.256C56.2938 51.7314 56.4326 51.114 56.9728 50.6999C57.9446 49.9545 58.6084 49.0334 58.7725 47.7986C58.9997 46.0869 58.4065 44.699 56.9955 43.7201C55.582 42.7413 54.0625 42.7037 52.5253 43.4767C52.2653 43.6072 52.0129 43.7829 51.7378 43.8532C51.1674 44.0012 50.5565 43.6725 50.3319 43.1554C50.0946 42.6083 50.2814 41.9683 50.8115 41.6144C51.9372 40.8615 53.1841 40.4825 54.5446 40.48L54.5421 40.4825Z" fill="black"/>
</g>
<defs>
<clipPath id="clip0_267_3271">
<rect width="61" height="64" fill="white" transform="translate(25 20)"/>
</clipPath>
</defs>
</svg>
