<svg width="20" height="20" viewBox="0 0 20 20" fill="none" xmlns="http://www.w3.org/2000/svg">
<path d="M7.82888 16.1426L8.31591 17.238C8.4607 17.564 8.69698 17.8411 8.9961 18.0355C9.29522 18.2299 9.64434 18.3334 10.0011 18.3333C10.3579 18.3334 10.707 18.2299 11.0061 18.0355C11.3052 17.8411 11.5415 17.564 11.6863 17.238L12.1733 16.1426C12.3467 15.7539 12.6383 15.4299 13.0067 15.2167C13.3773 15.0029 13.8061 14.9118 14.2317 14.9565L15.4233 15.0833C15.778 15.1208 16.136 15.0547 16.4539 14.8928C16.7717 14.7309 17.0358 14.4803 17.2141 14.1713C17.3925 13.8625 17.4776 13.5086 17.4588 13.1524C17.4401 12.7962 17.3184 12.4532 17.1085 12.1648L16.403 11.1954C16.1517 10.8476 16.0175 10.429 16.0196 9.99999C16.0195 9.57215 16.155 9.15528 16.4067 8.80925L17.1122 7.8398C17.3221 7.55145 17.4438 7.20838 17.4625 6.85222C17.4813 6.49605 17.3962 6.14211 17.2178 5.83332C17.0395 5.52435 16.7754 5.27373 16.4576 5.11185C16.1397 4.94996 15.7817 4.88377 15.427 4.92129L14.2354 5.04814C13.8098 5.09283 13.381 5.00176 13.0104 4.78795C12.6413 4.57353 12.3496 4.24779 12.177 3.8574L11.6863 2.76203C11.5415 2.43597 11.3052 2.15892 11.0061 1.96449C10.707 1.77006 10.3579 1.6666 10.0011 1.66666C9.64434 1.6666 9.29522 1.77006 8.9961 1.96449C8.69698 2.15892 8.4607 2.43597 8.31591 2.76203L7.82888 3.8574C7.65632 4.24779 7.3646 4.57353 6.99554 4.78795C6.62489 5.00176 6.1961 5.09283 5.77054 5.04814L4.57517 4.92129C4.22045 4.88377 3.86246 4.94996 3.5446 5.11185C3.22675 5.27373 2.96269 5.52435 2.78443 5.83332C2.60595 6.14211 2.52092 6.49605 2.53965 6.85222C2.55839 7.20838 2.68009 7.55145 2.88999 7.8398L3.59554 8.80925C3.84716 9.15528 3.98266 9.57215 3.98258 9.99999C3.98266 10.4278 3.84716 10.8447 3.59554 11.1907L2.88999 12.1602C2.68009 12.4485 2.55839 12.7916 2.53965 13.1478C2.52092 13.5039 2.60595 13.8579 2.78443 14.1667C2.96286 14.4755 3.22696 14.726 3.54476 14.8878C3.86257 15.0497 4.22047 15.116 4.57517 15.0787L5.76684 14.9518C6.1924 14.9072 6.62119 14.9982 6.99184 15.212C7.36228 15.4258 7.65535 15.7517 7.82888 16.1426Z" stroke="#312D51" stroke-width="1.5" stroke-linecap="round" stroke-linejoin="round"/>
<path d="M9.99961 12.5C11.3803 12.5 12.4996 11.3807 12.4996 9.99999C12.4996 8.61928 11.3803 7.49999 9.99961 7.49999C8.6189 7.49999 7.49961 8.61928 7.49961 9.99999C7.49961 11.3807 8.6189 12.5 9.99961 12.5Z" stroke="#312D51" stroke-width="1.5" stroke-linecap="round" stroke-linejoin="round"/>
</svg>
