<svg width="68" height="68" viewBox="0 0 68 68" fill="none" xmlns="http://www.w3.org/2000/svg">
<path d="M34 42.5001C38.6944 42.5001 42.5 38.6945 42.5 34.0001C42.5 29.3057 38.6944 25.5001 34 25.5001C29.3055 25.5001 25.5 29.3057 25.5 34.0001C25.5 38.6945 29.3055 42.5001 34 42.5001Z" stroke="#8379CD" stroke-width="4" stroke-linecap="round" stroke-linejoin="round"/>
<path d="M53.0606 41.7274C52.7177 42.5042 52.6154 43.366 52.7669 44.2016C52.9184 45.0372 53.3168 45.8082 53.9106 46.4152L54.0651 46.5698C54.5441 47.0482 54.9241 47.6164 55.1833 48.2418C55.4425 48.8671 55.576 49.5375 55.576 50.2145C55.576 50.8915 55.4425 51.5618 55.1833 52.1872C54.9241 52.8126 54.5441 53.3807 54.0651 53.8592C53.5867 54.3381 53.0185 54.7181 52.3931 54.9774C51.7678 55.2366 51.0974 55.37 50.4204 55.37C49.7434 55.37 49.0731 55.2366 48.4477 54.9774C47.8223 54.7181 47.2542 54.3381 46.7757 53.8592L46.6212 53.7046C46.0141 53.1108 45.2431 52.7125 44.4075 52.561C43.572 52.4095 42.7102 52.5118 41.9333 52.8546C41.1715 53.1811 40.5217 53.7233 40.0641 54.4143C39.6064 55.1054 39.3608 55.9152 39.3575 56.744V57.1819C39.3575 58.5482 38.8148 59.8585 37.8487 60.8246C36.8826 61.7907 35.5723 62.3334 34.206 62.3334C32.8398 62.3334 31.5294 61.7907 30.5633 60.8246C29.5973 59.8585 29.0545 58.5482 29.0545 57.1819V56.9501C29.0346 56.0975 28.7586 55.2707 28.2625 54.577C27.7664 53.8834 27.0731 53.3551 26.2727 53.0607C25.4958 52.7178 24.634 52.6155 23.7984 52.767C22.9629 52.9185 22.1919 53.3169 21.5848 53.9107L21.4303 54.0652C20.9518 54.5442 20.3837 54.9242 19.7583 55.1834C19.1329 55.4427 18.4626 55.5761 17.7856 55.5761C17.1086 55.5761 16.4382 55.4427 15.8128 55.1834C15.1875 54.9242 14.6193 54.5442 14.1409 54.0652C13.6619 53.5868 13.2819 53.0186 13.0227 52.3933C12.7634 51.7679 12.63 51.0975 12.63 50.4205C12.63 49.7435 12.7634 49.0732 13.0227 48.4478C13.2819 47.8224 13.6619 47.2543 14.1409 46.7758L14.2954 46.6213C14.8892 46.0142 15.2876 45.2432 15.4391 44.4077C15.5906 43.5721 15.4883 42.7103 15.1454 41.9334C14.8189 41.1716 14.2768 40.5219 13.5857 40.0642C12.8947 39.6066 12.0849 39.361 11.256 39.3577H10.8181C9.45187 39.3577 8.14157 38.8149 7.17547 37.8488C6.20937 36.8827 5.66663 35.5724 5.66663 34.2061C5.66663 32.8399 6.20937 31.5296 7.17547 30.5635C8.14157 29.5974 9.45187 29.0546 10.8181 29.0546H11.05C11.9025 29.0347 12.7294 28.7587 13.423 28.2626C14.1166 27.7665 14.645 27.0732 14.9394 26.2728C15.2822 25.4959 15.3845 24.6341 15.233 23.7986C15.0815 22.963 14.6832 22.192 14.0894 21.5849L13.9348 21.4304C13.4558 20.9519 13.0759 20.3838 12.8166 19.7584C12.5574 19.133 12.4239 18.4627 12.4239 17.7857C12.4239 17.1087 12.5574 16.4383 12.8166 15.813C13.0759 15.1876 13.4558 14.6194 13.9348 14.141C14.4132 13.662 14.9814 13.2821 15.6068 13.0228C16.2322 12.7636 16.9025 12.6301 17.5795 12.6301C18.2565 12.6301 18.9268 12.7636 19.5522 13.0228C20.1776 13.2821 20.7458 13.662 21.2242 14.141L21.3787 14.2955C21.9858 14.8893 22.7568 15.2877 23.5924 15.4392C24.4279 15.5907 25.2897 15.4884 26.0666 15.1455H26.2727C27.0345 14.819 27.6842 14.2769 28.1419 13.5858C28.5995 12.8948 28.8451 12.085 28.8484 11.2561V10.8183C28.8484 9.452 29.3912 8.14169 30.3573 7.17559C31.3234 6.2095 32.6337 5.66675 34 5.66675C35.3662 5.66675 36.6765 6.2095 37.6426 7.17559C38.6087 8.14169 39.1515 9.452 39.1515 10.8183V11.0501C39.1548 11.8789 39.4004 12.6887 39.858 13.3798C40.3157 14.0708 40.9654 14.613 41.7272 14.9395C42.5041 15.2823 43.3659 15.3846 44.2015 15.2331C45.037 15.0816 45.8081 14.6833 46.4151 14.0895L46.5697 13.9349C47.0481 13.456 47.6162 13.076 48.2416 12.8167C48.867 12.5575 49.5374 12.4241 50.2144 12.4241C50.8913 12.4241 51.5617 12.5575 52.1871 12.8167C52.8125 13.076 53.3806 13.456 53.859 13.9349C54.338 14.4134 54.718 14.9815 54.9772 15.6069C55.2365 16.2323 55.3699 16.9026 55.3699 17.5796C55.3699 18.2566 55.2365 18.927 54.9772 19.5523C54.718 20.1777 54.338 20.7459 53.859 21.2243L53.7045 21.3789C53.1107 21.9859 52.7124 22.7569 52.5609 23.5925C52.4094 24.4281 52.5116 25.2899 52.8545 26.0667V26.2728C53.181 27.0346 53.7232 27.6844 54.4142 28.142C55.1053 28.5997 55.9151 28.8453 56.7439 28.8486H57.1818C58.548 28.8486 59.8583 29.3913 60.8244 30.3574C61.7905 31.3235 62.3333 32.6338 62.3333 34.0001C62.3333 35.3663 61.7905 36.6767 60.8244 37.6428C59.8583 38.6088 58.548 39.1516 57.1818 39.1516H56.95C56.1211 39.1549 55.3113 39.4005 54.6203 39.8581C53.9292 40.3158 53.3871 40.9655 53.0606 41.7274Z" stroke="#8379CD" stroke-width="4" stroke-linecap="round" stroke-linejoin="round"/>
</svg>
