<svg width="126" height="126" viewBox="0 0 126 126" fill="none" xmlns="http://www.w3.org/2000/svg">
<path d="M104.772 72.2278C102.851 76.8553 101.03 81.2385 99.0251 86.0639C100.122 87.8155 101.497 89.9966 102.855 92.1861C104.322 94.5524 104.225 96.4009 102.367 98.4936C101.161 99.8536 99.8616 101.15 98.508 102.363C96.3009 104.342 94.5899 104.422 92.076 102.852C89.9446 101.521 87.8048 100.207 85.9929 99.0872C81.3475 101.028 77.0385 102.83 72.2418 104.835C71.7836 106.742 71.1909 109.176 70.6233 111.614C69.9003 114.734 68.5802 115.875 65.4021 115.963C63.7205 116.01 62.0389 116.018 60.3573 115.951C57.4314 115.833 56.0525 114.633 55.4009 111.791C54.9006 109.605 54.3836 107.42 53.8623 105.239C53.7992 104.969 53.6521 104.725 53.6857 104.797C49.0572 102.864 44.6851 101.041 39.9977 99.0788C38.106 100.254 35.8442 101.521 33.7339 103.007C31.7454 104.409 29.8494 104.254 28.1426 102.835C26.3728 101.365 24.7206 99.7146 23.2367 97.9546C21.7106 96.144 21.7863 94.4135 23.0601 92.3461C24.4222 90.1397 25.7884 87.9376 26.9697 86.0344C25.0149 81.3438 23.1652 76.9016 21.2146 72.2278C19.0495 71.7099 16.6029 71.133 14.1562 70.5436C11.5413 69.912 10.3811 68.7919 10.1372 66.1435C9.94384 64.0592 9.94384 61.9287 10.1372 59.8402C10.3768 57.2086 11.5413 56.0801 14.1604 55.4443C16.6029 54.8548 19.0495 54.278 21.5173 53.6927C22.316 51.3727 22.9802 49.0863 23.8883 46.8968C24.8005 44.7031 25.9482 42.6062 27.1295 40.1977C25.8809 38.1935 24.5147 36.0082 23.1568 33.8187C21.6812 31.4354 21.7695 29.5996 23.6192 27.5154C24.8257 26.1553 26.1206 24.8585 27.4742 23.6416C29.6939 21.65 31.4007 21.5574 33.9062 23.1195C35.8695 24.3406 37.8369 25.5532 39.8085 26.7617C39.9809 26.8669 40.1995 26.8964 40.4307 26.9722C42.5537 25.9364 44.6431 24.7911 46.8249 23.8774C48.9479 22.989 51.1675 22.3321 53.6815 21.4563C54.1944 19.3257 54.7703 16.9594 55.3336 14.593C56.1702 11.0814 57.402 10.0708 61.0089 10.0203C62.619 9.99925 64.2334 9.96557 65.8435 10.054C68.5634 10.2014 69.9087 11.3677 70.5393 13.9951C71.1404 16.5131 71.7248 19.031 72.2292 21.1616C76.9376 23.1279 81.3097 24.9511 85.9971 26.9048C87.83 25.7722 89.9782 24.4627 92.1096 23.1279C94.5269 21.6163 96.0991 21.591 98.2095 23.4016C99.7986 24.7658 101.295 26.269 102.653 27.8649C104.259 29.7512 104.251 31.5112 102.939 33.646C101.581 35.8524 100.219 38.0587 99.0335 39.9788C100.967 44.602 102.8 48.981 104.801 53.7643C106.857 54.2569 109.363 54.8548 111.864 55.457C114.521 56.097 115.685 57.318 115.904 60.076C116.059 62.0255 116.043 64.0087 115.895 65.9624C115.736 68.0888 114.706 70.1309 111.834 70.5941C109.358 70.9941 106.937 71.7183 104.784 72.232L104.772 72.2278ZM23.8336 70.2362C24.9561 75.8826 27.1421 80.9353 30.19 85.6302C28.542 88.2955 26.9445 90.8471 25.3849 93.424C24.4516 94.9609 24.4894 95.6767 25.6749 96.9946C26.7049 98.1399 27.8021 99.2304 28.9372 100.275C30.4758 101.689 30.9929 101.698 32.7922 100.586C35.3398 99.0115 37.8916 97.4325 40.4644 95.8451C45.2148 99.0915 50.3436 101.066 55.7709 102.254C56.5149 105.386 57.2927 108.296 57.877 111.247C58.1587 112.679 58.9028 113.37 60.248 113.433C61.9927 113.513 63.7499 113.584 65.4903 113.466C67.3443 113.344 67.689 112.94 68.1304 111.1C68.8367 108.182 69.5303 105.26 70.2576 102.228C75.811 101.091 80.8851 98.982 85.5851 95.8703C88.7086 97.7988 91.7355 99.6641 94.8169 101.567C97.1585 100.843 98.4407 98.8978 100 97.3483C101.627 95.7356 101.627 95.0619 100.438 93.125C98.9031 90.6281 97.3603 88.1355 95.7922 85.5923C99.004 80.8595 101.014 75.7394 102.228 70.2235C105.268 69.5162 108.194 68.8467 111.116 68.1477C112.902 67.7224 113.314 67.2593 113.398 65.4024C113.47 63.8613 113.461 62.316 113.411 60.7749C113.344 58.716 112.953 58.2949 110.884 57.8023C109.249 57.4149 107.614 57.0359 105.978 56.6443C104.705 56.3412 103.435 56.0296 102.174 55.7222C101.014 50.0884 98.9031 45.082 95.8175 40.4125C96.2463 39.6882 96.6246 39.0272 97.024 38.3787C98.2389 36.4124 99.5253 34.4839 100.648 32.4628C101.014 31.8018 101.358 30.6481 101.039 30.1681C99.4581 27.7891 97.5747 25.6501 94.8968 24.3869C91.706 26.3532 88.675 28.2185 85.5641 30.1344C80.8599 26.9722 75.7689 24.9048 70.2576 23.7721C69.5093 20.6395 68.7316 17.6626 68.1094 14.6478C67.8361 13.3172 67.1257 12.6646 65.8729 12.5677C64.5487 12.4667 63.216 12.433 61.8918 12.4456C58.6758 12.4709 58.3689 12.7361 57.6458 15.8141C57.0236 18.4584 56.393 21.0984 55.7582 23.7806C50.1082 24.9006 45.0677 27.0859 40.4307 30.1344C37.694 28.4375 35.0875 26.9259 32.5988 25.2374C31.2956 24.3532 30.2572 24.5048 29.2188 25.469C28.088 26.5175 26.9824 27.5954 25.9272 28.7154C24.46 30.2691 24.4096 30.9428 25.532 32.7828C27.0622 35.2882 28.6093 37.785 30.2194 40.404C27.0791 45.0736 25.0023 50.1684 23.821 55.7475C20.8236 56.4549 17.9061 57.137 14.9886 57.8317C13.0968 58.2823 12.6932 58.7412 12.6133 60.7076C12.5545 62.1097 12.5713 63.5118 12.6007 64.914C12.6512 67.2761 12.9917 67.6761 15.2534 68.2067C18.0406 68.8635 20.8278 69.5204 23.8462 70.232L23.8336 70.2362Z" fill="#3D3362"/>
<path d="M23.8348 70.2362C20.8164 69.5246 18.0292 68.8677 15.242 68.2109C12.9803 67.6803 12.6398 67.2761 12.5893 64.9182C12.5599 63.516 12.5431 62.1097 12.6019 60.7118C12.6818 58.7454 13.0896 58.2865 14.9771 57.8359C17.8947 57.1412 20.8122 56.4591 23.8096 55.7517C24.9909 50.1726 27.0676 45.0778 30.208 40.4082C28.5979 37.7892 27.0508 35.2965 25.5206 32.787C24.3982 30.9512 24.4486 30.2775 25.9158 28.7196C26.9752 27.5996 28.0766 26.5216 29.2074 25.4732C30.2458 24.509 31.2842 24.3574 32.5874 25.2416C35.0719 26.9301 37.6784 28.4417 40.4193 30.1386C45.0562 27.0943 50.0926 24.909 55.7468 23.7848C56.3816 21.1026 57.0122 18.4625 57.6344 15.8183C58.3575 12.7403 58.6644 12.4793 61.8804 12.4498C63.2088 12.4372 64.5415 12.4709 65.8615 12.5719C67.1143 12.6687 67.8247 13.3172 68.098 14.6519C68.7202 17.6625 69.4979 20.6436 70.2462 23.7763C75.7617 24.9132 80.8527 26.9806 85.5527 30.1386C88.6636 28.2227 91.6946 26.3574 94.8854 24.3911C97.5675 25.65 99.4509 27.789 101.027 30.1722C101.347 30.6522 101.002 31.806 100.636 32.467C99.5139 34.4881 98.2275 36.4166 97.0126 38.3829C96.6132 39.0314 96.2349 39.6924 95.8061 40.4166C98.8917 45.0862 100.998 50.0926 102.162 55.7264C103.424 56.0338 104.693 56.3454 105.967 56.6485C107.602 57.0359 109.238 57.4149 110.873 57.8064C112.937 58.2991 113.328 58.7201 113.399 60.7791C113.45 62.3202 113.463 63.8655 113.387 65.4066C113.299 67.2635 112.887 67.7224 111.104 68.1519C108.187 68.8509 105.261 69.5161 102.217 70.2277C101.002 75.7436 98.9926 80.8637 95.7808 85.5965C97.3531 88.1397 98.896 90.6323 100.426 93.1292C101.616 95.0661 101.612 95.7398 99.989 97.3525C98.4293 98.902 97.1471 100.847 94.8055 101.571C91.7241 99.6725 88.6972 97.803 85.5737 95.8745C80.8695 98.9862 75.7954 101.096 70.2462 102.233C69.5189 105.264 68.8253 108.186 68.119 111.104C67.6734 112.944 67.3287 113.349 65.4789 113.471C63.7385 113.584 61.9813 113.517 60.2366 113.437C58.8914 113.374 58.1515 112.687 57.8656 111.252C57.2855 108.304 56.5077 105.391 55.7594 102.258C50.3322 101.075 45.2076 99.0956 40.4529 95.8493C37.8801 97.4409 35.3326 99.0156 32.7808 100.59C30.9815 101.702 30.4644 101.694 28.9258 100.279C27.7907 99.2388 26.6935 98.1441 25.6635 96.9988C24.478 95.6766 24.4402 94.965 25.3735 93.4282C26.9331 90.8555 28.5306 88.3039 30.1785 85.6343C27.1307 80.9395 24.9489 75.8868 23.8222 70.2404L23.8348 70.2362ZM93.7672 62.9055C93.9479 47.3347 81.3908 32.2565 63.0112 32.1344C45.9769 32.0207 32.2048 46.0083 32.2301 63.095C32.2595 80.0553 46.0652 93.8829 62.986 93.8998C79.9741 93.9124 93.8008 79.9879 93.7629 62.9097L93.7672 62.9055Z" fill="#DDFFDD"/>
<path d="M93.7649 62.9069C93.8069 79.9851 79.976 93.9096 62.9879 93.8969C46.0671 93.8843 32.2572 80.0567 32.232 63.0921C32.2026 46.0055 45.9746 32.0179 63.0131 32.1315C81.3885 32.2537 93.9498 47.3318 93.7691 62.9027L93.7649 62.9069ZM91.1963 62.9911C91.1963 47.3613 78.6223 34.6958 63.093 34.679C47.4082 34.6621 34.809 47.2813 34.8048 63.0163C34.8048 78.6377 47.3703 91.3032 62.9038 91.3285C78.5761 91.3537 91.1963 78.7177 91.1963 62.9911Z" fill="#3D3362"/>
<path d="M91.1967 62.9899C91.1967 78.7165 78.5765 91.3525 62.9042 91.3272C47.3665 91.302 34.801 78.6365 34.8052 63.0151C34.8052 47.2843 47.4085 34.6609 63.0934 34.6778C78.6227 34.6946 91.1967 47.3643 91.1967 62.9899ZM77.2859 54.7708C77.2859 52.2191 77.3069 49.9959 77.2775 47.7727C77.2648 46.7622 77.5255 45.3222 76.0667 45.3011C74.423 45.2758 74.7719 46.8043 74.7551 47.8612C74.7173 50.0801 74.7425 52.2991 74.7425 54.7623C73.5023 54.7623 72.5396 54.7202 71.5853 54.7708C69.9963 54.8508 69.2774 55.4697 69.1134 57.0445C68.9915 58.2235 68.9789 59.4277 69.0714 60.6067C69.2143 62.4046 69.9458 63.0278 71.7745 63.1499C72.7162 63.213 73.6579 63.2678 74.7467 63.3351C74.7467 64.3373 74.7467 65.0994 74.7467 65.8615C74.7467 69.8532 74.7467 73.8448 74.7467 77.8365C74.7467 78.3965 74.6164 79.0239 74.8224 79.4997C75.0368 79.9965 75.5791 80.6618 75.9911 80.6702C76.3988 80.6786 76.9748 80.0302 77.1976 79.5418C77.412 79.0744 77.2859 78.4428 77.2859 77.8828C77.2859 73.8195 77.2859 69.7605 77.2943 65.6973C77.2943 64.9478 77.3657 64.1983 77.4036 63.3688C78.0342 63.2846 78.5008 63.1962 78.9758 63.1625C79.4635 63.1288 79.9554 63.1751 80.443 63.1288C82.0321 62.9857 82.7552 62.3372 82.8603 60.7877C82.9443 59.533 82.9443 58.2656 82.8603 57.0108C82.7594 55.5666 82.0363 54.8802 80.5901 54.775C79.6232 54.7076 78.6479 54.7623 77.2901 54.7623L77.2859 54.7708ZM48.5184 48.8885C47.5431 48.8885 46.6518 48.8549 45.7606 48.897C43.9403 48.9812 43.2172 49.6633 43.1205 51.4444C43.0617 52.5602 43.0617 53.6886 43.129 54.8044C43.2298 56.4803 43.9487 57.1666 45.6261 57.2887C46.5762 57.3603 47.5347 57.3813 48.7118 57.4403C48.7118 58.4593 48.7118 59.2845 48.7118 60.1098C48.7118 66.131 48.7076 72.1521 48.7118 78.1775C48.7118 80.047 49.1784 80.9397 50.0822 80.746C51.5284 80.4344 51.2467 79.1965 51.2467 78.1902C51.2636 72.03 51.2467 65.8657 51.2593 59.7056C51.2593 58.9645 51.335 58.2235 51.3771 57.495C51.8815 57.415 52.1506 57.3434 52.4238 57.3266C56.7665 57.0992 57.1196 56.7161 56.9809 52.3665C56.9683 52.017 56.9641 51.6633 56.9136 51.3181C56.6782 49.6254 56.0182 48.9896 54.324 48.9012C53.3739 48.8549 52.4196 48.8928 51.4023 48.8928C51.335 48.038 51.2636 47.4906 51.2509 46.9432C51.2299 46.0969 51.0029 45.2969 50.057 45.2674C48.964 45.2295 48.758 46.1095 48.7076 47.019C48.6781 47.5622 48.5983 48.1012 48.5142 48.8928L48.5184 48.8885ZM61.7229 65.6594C60.5626 65.7099 59.6714 65.7394 58.7844 65.7941C56.9178 65.912 56.241 66.5394 56.1443 68.35C56.0855 69.47 56.077 70.5984 56.1443 71.7142C56.2452 73.428 56.9136 74.068 58.6499 74.1564C59.5999 74.2069 60.5584 74.1648 61.5716 74.1648C61.6388 75.0364 61.7061 75.5838 61.7187 76.1312C61.7439 77.1838 61.6052 78.2617 61.7986 79.2765C61.9037 79.8239 62.5553 80.2702 62.9589 80.7628C63.3877 80.2997 63.9594 79.8997 64.2074 79.3523C64.4218 78.8849 64.2705 78.2491 64.2747 77.6891C64.2747 76.5901 64.2747 75.4912 64.2747 74.1606C65.5485 74.1606 66.5154 74.2111 67.4781 74.148C69.0798 74.0427 69.7524 73.3774 69.8533 71.7985C69.9206 70.75 69.9038 69.6931 69.8701 68.6447C69.8071 66.5394 69.1681 65.9036 67.0955 65.7899C66.2169 65.7436 65.3383 65.6804 64.2789 65.6173C64.2789 64.6404 64.2789 63.8783 64.2789 63.1204C64.2789 58.8424 64.2789 54.5644 64.2789 50.2823C64.2789 49.3686 64.2873 48.4591 64.2789 47.5454C64.2663 46.5685 64.3882 45.3222 63.0472 45.2758C61.6851 45.2337 61.7355 46.4548 61.7313 47.4527C61.7229 48.9264 61.7313 50.4002 61.7313 51.8739C61.7313 56.3582 61.7313 60.8425 61.7313 65.6594H61.7229Z" fill="#FFFCFF"/>
<path d="M77.2862 54.7721C78.6441 54.7721 79.6194 54.7174 80.5863 54.7847C82.0366 54.89 82.7597 55.5763 82.8564 57.0206C82.9405 58.2753 82.9447 59.5427 82.8564 60.7975C82.7513 62.347 82.0282 62.9954 80.4391 63.1386C79.9515 63.1807 79.4596 63.1386 78.972 63.1722C78.5011 63.2059 78.0303 63.2944 77.3997 63.3786C77.3577 64.2038 77.2904 64.9533 77.2904 65.707C77.2778 69.7703 77.2904 73.8293 77.282 77.8925C77.282 78.4525 77.4081 79.0841 77.1937 79.5515C76.9709 80.0399 76.395 80.6884 75.9872 80.6799C75.5752 80.6715 75.0329 80.0063 74.8185 79.5094C74.6125 79.0336 74.7428 78.4062 74.7428 77.8462C74.7428 73.8546 74.7428 69.8629 74.7428 65.8712C74.7428 65.1091 74.7428 64.347 74.7428 63.3449C73.654 63.2775 72.7123 63.2228 71.7706 63.1596C69.9419 63.0375 69.2147 62.4143 69.0675 60.6164C68.975 59.4374 68.9876 58.229 69.1096 57.0542C69.2735 55.4753 69.9924 54.8605 71.5815 54.7805C72.54 54.73 73.4985 54.7721 74.7386 54.7721C74.7386 52.3047 74.7134 50.0857 74.7512 47.8709C74.768 46.8098 74.4191 45.2856 76.0629 45.3109C77.5216 45.3319 77.261 46.7719 77.2736 47.7825C77.303 50.0057 77.282 52.2331 77.282 54.7805L77.2862 54.7721ZM71.7538 57.4753V60.4859H80.1533V57.4753H71.7538Z" fill="#3D3362"/>
<path d="M48.5195 48.8882C48.6036 48.0924 48.6876 47.5535 48.7129 47.0145C48.7633 46.105 48.9693 45.225 50.0623 45.2629C51.0082 45.2966 51.2352 46.0966 51.2562 46.9387C51.2688 47.4861 51.3403 48.0335 51.4076 48.8882C52.4207 48.8882 53.3792 48.8503 54.3293 48.8967C56.0235 48.9809 56.6835 49.6209 56.9189 51.3135C56.9652 51.6588 56.9736 52.0125 56.9862 52.362C57.1249 56.7115 56.7718 57.0947 52.4291 57.3221C52.1559 57.3347 51.8826 57.4063 51.3823 57.4905C51.3403 58.2189 51.2688 58.96 51.2646 59.7011C51.2562 65.8612 51.2646 72.0255 51.252 78.1856C51.252 79.1962 51.5337 80.4341 50.0875 80.7415C49.1837 80.9352 48.7213 80.0425 48.7171 78.173C48.7087 72.1518 48.7171 66.1307 48.7171 60.1053C48.7171 59.28 48.7171 58.4589 48.7171 57.4358C47.54 57.381 46.5815 57.3558 45.6314 57.2842C43.954 57.1621 43.2393 56.4715 43.1342 54.7999C43.067 53.6841 43.0628 52.5557 43.1258 51.4399C43.2225 49.6588 43.9498 48.9767 45.7659 48.8924C46.6529 48.8503 47.5442 48.884 48.5237 48.884L48.5195 48.8882ZM54.2789 51.6167H45.6944C45.7491 52.7199 45.7911 53.642 45.8374 54.602H54.2789V51.6167Z" fill="#3D3362"/>
<path d="M61.7237 65.6619C61.7237 60.845 61.7237 56.3607 61.7237 51.8764C61.7237 50.4027 61.7237 48.929 61.7237 47.4553C61.7279 46.4574 61.6775 45.2363 63.0395 45.2784C64.3806 45.3205 64.2587 46.5668 64.2713 47.5479C64.2839 48.4616 64.2713 49.3711 64.2713 50.2848C64.2713 54.5628 64.2713 58.8408 64.2713 63.123C64.2713 63.8809 64.2713 64.643 64.2713 65.6198C65.3307 65.6872 66.2093 65.7462 67.0879 65.7925C69.1605 65.9062 69.7995 66.542 69.8625 68.6473C69.8962 69.6999 69.9088 70.7526 69.8457 71.801C69.7448 73.38 69.0722 74.0495 67.4705 74.1505C66.512 74.2137 65.5451 74.1632 64.2671 74.1632C64.2671 75.4937 64.2671 76.5927 64.2671 77.6917C64.2671 78.2517 64.4142 78.8875 64.1998 79.3548C63.9518 79.9022 63.3801 80.3022 62.9513 80.7654C62.5477 80.2728 61.8961 79.8264 61.791 79.279C61.5976 78.2643 61.7363 77.1864 61.7111 76.1337C61.6985 75.5863 61.6312 75.039 61.564 74.1674C60.5508 74.1674 59.5923 74.2095 58.6422 74.159C56.906 74.0663 56.2376 73.4263 56.1367 71.7168C56.0694 70.5968 56.0778 69.4725 56.1367 68.3525C56.2334 66.5462 56.9102 65.9146 58.7768 65.7967C59.6638 65.742 60.555 65.7167 61.7153 65.6619H61.7237ZM58.76 68.4452V71.4347H67.4369C67.3822 70.3147 67.336 69.3841 67.2939 68.4452H58.76Z" fill="#3D3362"/>
</svg>
