<svg width="50" height="50" viewBox="0 0 50 50" fill="none" xmlns="http://www.w3.org/2000/svg">
<g clip-path="url(#clip0_143_3411)">
<path d="M48.3433 44.9933H49.9645C49.9645 46.0134 50.0605 47.0064 49.9395 47.9723C49.7893 49.1739 48.7397 49.9687 47.5212 50C47.3814 50.0042 47.2437 50 47.1039 50C32.3666 50 17.6272 50 2.88987 50C0.970246 50 0 49.0362 0 47.1295C0 46.439 0 45.7485 0 45.0184H1.66715V44.3821C1.66715 35.8624 1.66715 27.3427 1.66715 18.8209C1.66715 16.7786 2.56646 15.8628 4.59667 15.8357C4.71352 15.8357 4.83036 15.8357 4.99937 15.8357C4.99937 14.874 5.00981 13.9582 4.98685 13.0445C4.98268 12.9005 4.84497 12.742 4.7323 12.6231C3.93106 11.7928 3.46993 10.7956 3.36978 9.65871C3.33639 9.2853 3.41151 8.85556 3.57635 8.51969C4.90339 5.81192 6.268 3.12291 7.60547 0.421395C7.75362 0.120995 7.91428 0 8.269 0C19.432 0.0104306 30.593 0.0104306 41.756 0C42.0774 0 42.2485 0.0938752 42.3924 0.383845C43.7612 3.14795 45.1759 5.89327 46.4946 8.68032C46.7116 9.13718 46.6135 9.79639 46.5175 10.3367C46.359 11.2212 45.8978 11.9806 45.2698 12.6356C45.1488 12.7608 45.0277 12.9485 45.0236 13.1112C44.9985 13.9937 45.0131 14.8782 45.0131 15.8336C45.2573 15.8336 45.4743 15.8336 45.6934 15.8336C47.2896 15.842 48.3412 16.8808 48.3454 18.4684C48.3516 21.0531 48.3454 23.6399 48.3454 26.2245C48.3454 32.2451 48.3454 38.2677 48.3454 44.2882V44.9871L48.3433 44.9933ZM37.4974 11.9722C36.4333 13.397 35.0707 14.1689 33.3368 14.1689C31.5883 14.1689 30.2216 13.372 29.17 11.968C28.1058 13.3887 26.7454 14.1647 25.0115 14.1668C23.265 14.1689 21.8983 13.3762 20.8425 11.9785C19.7742 13.397 18.4117 14.1689 16.6778 14.1689C14.9293 14.1689 13.5584 13.3783 12.511 11.9743C10.9836 13.9227 9.0598 14.5673 6.70409 13.9248V41.6263H43.3209V13.9248C40.9548 14.5757 39.031 13.929 37.4995 11.9722H37.4974ZM45.0173 43.2973H4.99103V17.5672C3.85803 17.3794 3.31761 17.563 3.32387 18.8981C3.35309 27.3844 3.33848 35.8707 3.33848 44.3571V44.9599H46.674C46.674 44.7847 46.674 44.647 46.674 44.5093C46.674 35.8853 46.674 27.2593 46.674 18.6353C46.674 18.531 46.6803 18.4267 46.6699 18.3223C46.6198 17.8405 46.3548 17.5609 45.8728 17.5171C45.6016 17.4921 45.3282 17.5129 45.0194 17.5129V43.2973H45.0173ZM48.337 46.7039H1.69637C1.60038 48.1413 1.77357 48.329 3.15486 48.329C17.7565 48.329 32.3603 48.329 46.962 48.329C47.1352 48.329 47.3104 48.3374 47.4836 48.3248C48.0053 48.2915 48.3099 47.989 48.3391 47.4654C48.3516 47.2234 48.3412 46.9814 48.3412 46.7019L48.337 46.7039ZM22.4262 1.70436C22.1863 4.09922 21.9609 6.44609 21.7126 8.7888C21.5645 10.1865 22.0611 11.2901 23.2296 12.0369C24.3813 12.7733 25.6124 12.7754 26.7683 12.0431C27.941 11.3026 28.448 10.1928 28.302 8.80132C28.2415 8.23181 28.1851 7.66439 28.1288 7.09488C27.9493 5.30499 27.7699 3.5151 27.5863 1.70436H22.4262ZM20.7466 1.67932C19.0669 1.67932 17.4728 1.67098 15.8786 1.69601C15.7535 1.69601 15.5657 1.9234 15.5177 2.07777C14.8103 4.37875 14.1197 6.68391 13.4353 8.98907C13.3769 9.18308 13.3393 9.40003 13.3581 9.59821C13.5313 11.2984 15.0419 12.6126 16.7467 12.5584C18.4847 12.5021 19.8681 11.1586 19.9996 9.44384C20.1018 8.1129 20.2479 6.78613 20.3752 5.45936C20.4941 4.22021 20.6172 2.98106 20.7445 1.68141L20.7466 1.67932ZM29.2722 1.70853C29.2889 1.92757 29.2993 2.11323 29.316 2.30098C29.5476 4.68333 29.7959 7.06358 30.0088 9.44801C30.1486 11.0063 31.4005 12.3373 32.9425 12.5C34.6013 12.6752 36.1516 11.651 36.5376 10.0697C36.6315 9.68583 36.6273 9.23732 36.5271 8.85556C36.2455 7.76661 35.8887 6.69643 35.5632 5.61791C35.1688 4.30991 34.7765 3.00192 34.3884 1.70853H29.2701H29.2722ZM36.1307 1.67932C36.5188 2.99357 36.8985 4.23064 37.247 5.47814C37.6518 6.9259 38.0587 8.37158 38.405 9.83394C38.7827 11.4257 40.1035 12.5229 41.7268 12.5063C43.323 12.4896 44.6689 11.338 44.9485 9.72547C44.9818 9.53563 44.961 9.30199 44.8754 9.13301C43.6944 6.74441 42.5009 4.35998 41.2949 1.9839C41.2261 1.8483 41.0257 1.69601 40.8859 1.69393C39.3273 1.67306 37.7666 1.68141 36.1286 1.68141L36.1307 1.67932ZM13.8797 1.67932C12.2355 1.67932 10.6748 1.66889 9.11614 1.69393C8.96799 1.69601 8.76142 1.88168 8.68422 2.03188C7.49489 4.37875 6.31599 6.73189 5.15169 9.09129C5.05988 9.27695 5.0265 9.52729 5.06197 9.73173C5.35409 11.4027 6.76251 12.5459 8.44427 12.5042C10.0697 12.4624 11.4155 11.217 11.6534 9.56901C11.7368 8.99115 11.8662 8.41539 12.031 7.85422C12.6278 5.814 13.2475 3.78213 13.8797 1.67724V1.67932Z" fill="#3D3362"/>
<path d="M37.4975 11.9719C39.0291 13.9287 40.9508 14.5733 43.319 13.9245V41.6282H6.70215V13.9245C9.05578 14.5671 10.9817 13.9225 12.509 11.974C13.5586 13.3759 14.9273 14.1686 16.6759 14.1686C18.4098 14.1686 19.7723 13.3968 20.8406 11.9782C21.8964 13.3759 23.2631 14.1707 25.0095 14.1665C26.7435 14.1645 28.1039 13.3884 29.168 11.9678C30.2197 13.3696 31.5863 14.1686 33.3349 14.1686C35.0709 14.1686 36.4334 13.3968 37.4955 11.9719H37.4975ZM37.4078 35.0027C38.04 30.2693 38.6639 25.5818 39.2982 20.8358C39.0416 20.8358 38.8371 20.8358 38.6326 20.8358C31.1669 20.8358 23.7013 20.8317 16.2356 20.8463C15.7995 20.8463 15.6451 20.7295 15.5721 20.2997C15.3634 19.0939 15.0984 17.8965 14.8585 16.7012H10.8732V18.3388C11.6201 18.3388 12.3296 18.3555 13.039 18.3325C13.377 18.3221 13.5064 18.416 13.5752 18.7685C14.316 22.5444 15.0796 26.3161 15.835 30.0878C16.1605 31.7149 16.4881 33.3421 16.8219 35.0047H20.2459C18.7603 35.7245 18.1406 36.73 18.3722 37.9274C18.5976 39.0768 19.5386 39.9238 20.6758 39.9926C21.7983 40.0615 22.8583 39.3522 23.2068 38.2883C23.4279 37.6103 23.4342 36.9073 23.0169 36.3378C22.6309 35.81 22.0842 35.399 21.6919 35.0193H32.6839C31.167 35.8225 30.6057 36.803 30.9124 38.063C31.1857 39.1832 32.1393 39.9676 33.266 39.9947C34.422 40.0239 35.436 39.2646 35.7448 38.1527C35.9326 37.4789 35.8888 36.7988 35.4798 36.2585C35.1022 35.7578 34.5639 35.3802 34.1549 35.0006H37.4057L37.4078 35.0027Z" fill="#F1F1F8"/>
<path d="M45.0168 43.2968V17.5124C45.3256 17.5124 45.599 17.4936 45.8702 17.5166C46.3522 17.5604 46.6193 17.842 46.6673 18.3218C46.6777 18.4241 46.6715 18.5304 46.6715 18.6348C46.6715 27.2588 46.6715 35.8848 46.6715 44.5088C46.6715 44.6465 46.6715 44.7842 46.6715 44.9594H3.33592V44.3566C3.33592 35.8702 3.35052 27.3839 3.32131 18.8976C3.31714 17.5625 3.85547 17.3768 4.98847 17.5667V43.2968H45.0148H45.0168Z" fill="#E2DEFF"/>
<path d="M48.3367 46.7041C48.3367 46.9836 48.3471 47.2256 48.3346 47.4676C48.3054 47.9912 48.0028 48.2937 47.4791 48.3271C47.3059 48.3375 47.1327 48.3313 46.9575 48.3313C32.3558 48.3313 17.752 48.3313 3.15034 48.3313C1.76904 48.3313 1.59586 48.1435 1.69184 46.7062H48.3346L48.3367 46.7041Z" fill="white"/>
<path d="M22.4265 1.7041H27.5866C27.7681 3.51694 27.9475 5.30682 28.1291 7.09462C28.1854 7.66413 28.2438 8.23364 28.3022 8.80106C28.4483 10.1925 27.9413 11.3023 26.7686 12.0429C25.6127 12.773 24.3816 12.7709 23.2298 12.0366C22.0635 11.2919 21.5648 10.1862 21.7129 8.78855C21.9612 6.44584 22.1866 4.09896 22.4265 1.7041Z" fill="white"/>
<path d="M20.7465 1.6792C20.6192 2.98094 20.4961 4.22009 20.3772 5.45716C20.2478 6.78601 20.1039 8.11278 20.0016 9.44164C19.8702 11.1564 18.4868 12.4999 16.7487 12.5562C15.0461 12.6104 13.5333 11.2983 13.3601 9.59601C13.3393 9.39783 13.3789 9.18087 13.4373 8.98686C14.1238 6.67962 14.8144 4.37446 15.5197 2.07556C15.5677 1.92119 15.7555 1.69589 15.8807 1.69381C17.4748 1.66877 19.0689 1.67712 20.7486 1.67712L20.7465 1.6792Z" fill="#DDFFDD"/>
<path d="M29.2725 1.70898H34.3908C34.7789 3.00029 35.1711 4.31037 35.5655 5.61836C35.891 6.69689 36.2457 7.76706 36.5295 8.85601C36.6296 9.23777 36.6338 9.68629 36.5399 10.0701C36.1539 11.6514 34.6015 12.6757 32.9448 12.5005C31.4028 12.3377 30.1509 11.0068 30.0111 9.44847C29.7983 7.06404 29.55 4.68378 29.3184 2.30144C29.2996 2.11578 29.2912 1.92803 29.2745 1.70898H29.2725Z" fill="#DDFFDD"/>
<path d="M36.1309 1.67884C37.7709 1.67884 39.3295 1.6705 40.8882 1.69136C41.028 1.69136 41.2283 1.84573 41.2972 1.98133C42.5032 4.35742 43.6946 6.74184 44.8777 9.13045C44.9611 9.29942 44.982 9.53515 44.9507 9.7229C44.6711 11.3334 43.3232 12.487 41.7291 12.5037C40.1057 12.5204 38.785 11.4231 38.4073 9.83138C38.0609 8.3711 37.654 6.92334 37.2493 5.47557C36.9008 4.22808 36.521 2.99101 36.1329 1.67676L36.1309 1.67884Z" fill="white"/>
<path d="M13.8802 1.67976C13.2479 3.78256 12.6282 5.81652 12.0315 7.85674C11.8666 8.41791 11.7373 8.99368 11.6538 9.57153C11.4159 11.2196 10.0701 12.465 8.4447 12.5067C6.76294 12.5484 5.35243 11.4052 5.0624 9.73425C5.02693 9.52981 5.0624 9.27947 5.15212 9.09381C6.31642 6.73441 7.49532 4.38128 8.68465 2.0344C8.76186 1.88211 8.96842 1.69853 9.11657 1.69645C10.6752 1.67141 12.236 1.68184 13.8802 1.68184V1.67976Z" fill="white"/>
<path d="M37.4076 35.0025H34.1567C34.5657 35.3822 35.104 35.7598 35.4817 36.2605C35.8907 36.8028 35.9345 37.4808 35.7467 38.1546C35.4379 39.2665 34.4217 40.0259 33.2679 39.9967C32.1411 39.9675 31.1876 39.1852 30.9142 38.0649C30.6075 36.807 31.1709 35.8245 32.6857 35.0213H21.6938C22.086 35.401 22.6327 35.8119 23.0187 36.3397C23.436 36.9092 23.4298 37.6143 23.2086 38.2902C22.8601 39.3542 21.8002 40.0634 20.6776 39.9946C19.5425 39.9237 18.5994 39.0788 18.3741 37.9293C18.1404 36.734 18.7622 35.7264 20.2478 35.0067H16.8238C16.4899 33.342 16.1644 31.7148 15.8368 30.0897C15.0794 26.318 14.3157 22.5463 13.5771 18.7705C13.5082 18.4158 13.3789 18.3219 13.0408 18.3345C12.3314 18.3574 11.622 18.3407 10.875 18.3407V16.7031H14.8603C15.1024 17.8985 15.3653 19.0959 15.5739 20.3017C15.649 20.7314 15.8013 20.8482 16.2374 20.8482C23.7031 20.8336 31.1688 20.8378 38.6345 20.8378C38.8389 20.8378 39.0434 20.8378 39.3001 20.8378C38.6679 25.5816 38.0419 30.2691 37.4097 35.0046L37.4076 35.0025ZM37.3804 22.5359H16.0622C16.0622 22.6173 16.0538 22.6715 16.0622 22.7195C16.7361 26.0823 17.4205 29.4409 18.0715 32.8079C18.1571 33.246 18.3198 33.3441 18.7413 33.342C24.2936 33.3274 29.8438 33.3315 35.3961 33.3315C35.5672 33.3315 35.7362 33.3315 35.9366 33.3315C36.4185 29.7205 36.8943 26.1511 37.3784 22.5338L37.3804 22.5359ZM20.8487 36.6735C20.3959 36.6672 20.0162 37.0365 20.0099 37.4892C20.0016 37.9398 20.3751 38.3215 20.8258 38.3278C21.2765 38.334 21.6583 37.9627 21.6646 37.5121C21.6708 37.0615 21.2994 36.6798 20.8487 36.6735ZM34.1672 37.5121C34.1734 37.0615 33.802 36.6798 33.3513 36.6735C32.8985 36.6672 32.5188 37.0365 32.5125 37.4892C32.5042 37.9398 32.8756 38.3215 33.3284 38.3278C33.7791 38.334 34.1609 37.9627 34.1672 37.5121Z" fill="#3D3362"/>
<path d="M37.3804 22.5361C36.8984 26.1535 36.4206 29.7228 35.9386 33.3339C35.7383 33.3339 35.5672 33.3339 35.3982 33.3339C29.8459 33.3339 24.2956 33.3297 18.7433 33.3443C18.3219 33.3443 18.157 33.2483 18.0736 32.8102C17.4226 29.4433 16.7361 26.0846 16.0642 22.7218C16.0538 22.6717 16.0642 22.6196 16.0642 22.5382H37.3825L37.3804 22.5361Z" fill="#E2DEFF"/>
<path d="M20.8487 36.6739C21.2994 36.6802 21.6708 37.0619 21.6645 37.5125C21.6583 37.9631 21.2744 38.3345 20.8257 38.3282C20.375 38.3219 20.0016 37.9402 20.0099 37.4896C20.0182 37.0369 20.398 36.6676 20.8487 36.6739Z" fill="white"/>
<path d="M34.1675 37.5125C34.1612 37.9631 33.7773 38.3345 33.3287 38.3282C32.878 38.3219 32.5045 37.9381 32.5128 37.4896C32.5212 37.0369 32.9009 36.6676 33.3516 36.6739C33.8023 36.6802 34.1737 37.0619 34.1675 37.5125Z" fill="white"/>
</g>
<defs>
<clipPath id="clip0_143_3411">
<rect width="50" height="50" fill="white"/>
</clipPath>
</defs>
</svg>
