<svg width="127" height="126" viewBox="0 0 127 126" fill="none" xmlns="http://www.w3.org/2000/svg">
<g clip-path="url(#clip0_142_1785)">
<path d="M106.883 11.6738H21.1223C16.3415 11.6738 12.4658 15.5547 12.4658 20.342V52.11C12.4658 56.8973 16.3415 60.7782 21.1223 60.7782H106.883C111.664 60.7782 115.54 56.8973 115.54 52.11V20.342C115.54 15.5547 111.664 11.6738 106.883 11.6738Z" fill="#FFFCFF"/>
<path d="M29.6305 83.0806L22.9613 76.141L17.2983 78.5189L16.751 82.6337L24.7001 102.209L27.9884 106.965L31.9167 111.446V114.65H58.4967V111.358L63.2165 102.942L64.9849 87.3894L63.2165 78.3333L56.6694 77.9708L51.9201 75.0406L47.7182 76.141L42.8763 74.2185L39.6806 75.6814L39.1332 53.8212L35.845 51.4434L31.7314 53.1762L30.5441 58.7624L30.4557 82.2669L29.6305 83.0806Z" fill="#E1DDFC"/>
<path d="M32.8935 116C31.8998 116 31.323 115.882 31.0788 115.625C30.843 115.376 30.7504 114.807 30.7967 113.884C30.8809 112.21 30.3673 111.017 29.0831 109.895C26.0853 107.281 23.7612 103.896 22.1781 99.8441L21.9465 99.2496C20.0056 94.2789 18.0056 89.148 16.1068 84.0803C15.3236 81.9849 15.5805 79.7588 16.8141 77.9712C18.0141 76.2342 19.9256 75.2392 22.0518 75.2392C22.1528 75.2392 22.2539 75.2392 22.3549 75.2476C24.4391 75.3404 26.1401 76.2679 27.4074 78.0091C27.5632 78.2242 27.9631 78.7638 27.9631 78.7638L29.8241 81.2935V62.2285H27.3442C26.7632 62.2285 26.1822 62.2285 25.6053 62.2327H25.4075C24.7633 62.2369 24.1191 62.2411 23.4791 62.2411C22.2623 62.2411 21.2729 62.2285 20.3719 62.1989C15.151 62.0261 11.0543 57.8269 11.0333 52.6327C10.9912 42.0378 10.9912 31.27 11.0333 19.7054C11.0501 14.254 15.2058 10.1054 20.6961 10.0548C24.9822 10.0169 29.542 10 35.045 10C38.6659 10 42.2826 10.0084 45.9035 10.0169H46.434C49.0655 10.0253 51.6969 10.0295 54.3284 10.0337C54.8421 10.0337 55.2547 10.1729 55.5157 10.4343C55.7263 10.6493 55.8399 10.9528 55.8357 11.3154C55.8273 12.3357 54.9936 12.5465 54.2947 12.5507H40.0511C34.1229 12.5507 27.7568 12.5549 21.3866 12.5929C19.9171 12.6013 18.4646 12.9259 17.2899 13.5078C14.89 14.6925 13.5679 16.868 13.5595 19.6379C13.5258 31.2869 13.5258 42.0968 13.5595 52.6791C13.5721 56.5115 16.5994 59.585 20.4561 59.6735C21.4245 59.6946 22.4644 59.7073 23.7275 59.7073C24.5106 59.7073 25.298 59.7073 26.098 59.6988H26.3253C27.2221 59.6946 28.1316 59.6862 29.0578 59.6862H29.8999V58.843C29.8999 58.5057 29.8999 58.1684 29.8957 57.8396V57.7426C29.8873 56.9668 29.8789 56.2375 29.9083 55.4912C30.0136 52.7128 32.0725 50.55 34.9102 50.2422C35.0829 50.2254 35.2597 50.2127 35.4281 50.2127C37.8027 50.2127 40.009 51.9371 40.5605 54.2222C40.7458 54.9853 40.7626 55.8116 40.7837 56.6886C40.7921 57.1102 40.8005 57.5276 40.83 57.9407C40.8426 58.1178 40.8511 58.2907 40.8637 58.5057L40.931 59.6988H76.1633C86.3735 59.6988 96.5794 59.6988 106.789 59.6988C111.526 59.6988 114.473 56.7349 114.473 51.9624C114.473 41.4054 114.473 30.8484 114.473 20.2914C114.473 15.5315 111.509 12.5676 106.747 12.5634C102.112 12.5634 97.4804 12.5634 92.8448 12.5634H74.3697C72.2814 12.5634 72.2645 11.7328 72.2561 11.3323C72.2477 10.9866 72.3319 10.7378 72.5214 10.5439C72.8456 10.2108 73.5108 10.0295 74.3992 10.0295H93.0511C97.6277 10.0295 102.2 10.0295 106.773 10.0295C112.17 10.0337 116.048 13.2674 116.894 18.4616C116.957 18.8579 116.991 19.3133 116.991 19.8993V26.0547C117 34.6555 117.008 43.5471 116.991 52.4093C116.983 57.3041 113.774 61.1913 109.008 62.0767C108.217 62.2242 107.345 62.2242 106.499 62.2242H106.44C91.0091 62.2285 75.5739 62.2327 60.1387 62.2327H40.8805V73.7425L41.9289 73.4769C42.5815 73.3125 43.2089 73.2281 43.7983 73.2281C45.2719 73.2281 46.5435 73.7467 47.575 74.7628L47.9076 75.0916L48.3623 74.982C48.8465 74.864 49.3181 74.7333 49.7349 74.6152C50.6275 74.3623 51.4696 74.1219 52.2738 74.0798C52.3622 74.0756 52.4464 74.0714 52.5348 74.0714C53.9874 74.0714 55.3052 74.7459 56.3452 76.0192C56.5599 76.2806 57.0062 76.8329 57.7767 76.8329C58.0209 76.8329 58.2735 76.7823 58.5725 76.6684C59.263 76.4071 59.9745 76.2764 60.6734 76.2764C63.6586 76.2764 65.9574 78.591 66.0206 81.6602C66.1343 87.2634 66.0964 92.2678 65.9069 96.9645C65.7174 101.627 64.0122 106.042 60.8334 110.076C60.1219 110.983 59.8061 111.906 59.8103 113.078C59.8103 114.208 59.7935 115.338 59.4735 115.654C59.1577 115.975 58.0083 116 56.863 116H43.1331H32.8935ZM33.8787 113.361L34.3039 113.403H57.4946L57.3304 112.421C57.1199 111.156 57.4735 110.14 58.6061 108.795C61.5997 105.228 63.2038 101.219 63.3765 96.876C63.5196 93.3261 63.5154 89.7171 63.5154 86.2305V86.0534C63.5154 84.6747 63.5154 83.2919 63.5238 81.9132C63.5238 81.6265 63.4817 81.3145 63.3849 80.9646C63.0354 79.6618 61.9028 78.7891 60.5724 78.7891C60.4755 78.7891 60.3787 78.7933 60.2776 78.8018C58.8756 78.9367 57.8062 80.016 57.6841 81.4199C57.6462 81.8373 57.6504 82.2463 57.6504 82.6384C57.6504 82.8787 57.6504 83.119 57.6462 83.3551C57.6251 83.9369 57.4314 84.9108 56.3662 84.9108C55.3557 84.9108 55.1326 84.0718 55.1242 83.372C55.1157 82.7733 55.1157 82.1704 55.12 81.5717C55.12 80.9435 55.12 80.3153 55.1157 79.6914C55.0947 78.2663 54.4084 77.225 53.1916 76.7654C52.8464 76.6347 52.4885 76.5673 52.1306 76.5673C50.5601 76.5673 49.3265 77.8068 49.2633 79.451C49.2381 80.1298 49.2423 80.8044 49.2465 81.4537C49.2465 82.1746 49.2549 82.9208 49.217 83.646C49.1791 84.4175 48.6865 84.915 47.9623 84.915H47.8908C47.1834 84.8855 46.754 84.4007 46.7203 83.5786C46.7034 83.1401 46.7077 82.6848 46.7077 82.2463C46.7077 81.9132 46.7077 81.6012 46.7077 81.2892C46.7077 81.0236 46.7077 80.7538 46.7077 80.4882C46.7077 79.763 46.7161 79.0126 46.6235 78.2579C46.4424 76.7865 45.2677 75.762 43.7646 75.762C43.7141 75.762 43.6636 75.762 43.613 75.762C42.0973 75.8337 40.9647 76.9636 40.8553 78.5024C40.8258 78.9409 40.8258 79.3752 40.83 79.7968C40.83 79.9865 40.83 80.1678 40.83 80.3448C40.83 80.6821 40.83 81.0194 40.83 81.3567V81.4242C40.8384 82.1999 40.8426 82.9967 40.7837 83.7556C40.729 84.4639 40.2406 84.9193 39.5458 84.9193H39.4701C38.7796 84.8855 38.3543 84.4175 38.308 83.6418C38.2912 83.3804 38.2954 83.1148 38.2954 82.8281V74.2442C38.2954 68.2068 38.2954 62.1652 38.2912 56.1278C38.2912 54.1421 37.1165 52.7845 35.3776 52.7592H35.3313C33.6471 52.7592 32.4472 54.121 32.4177 56.0688C32.4177 56.3176 32.4177 56.5663 32.4177 56.8151V63.9233C32.4177 71.0232 32.4177 78.123 32.4177 85.2228C32.4177 86.378 32.0767 86.7153 31.4914 86.905C31.3441 86.9556 31.2093 86.9767 31.083 86.9767C30.9188 86.9767 30.4767 86.9767 29.8199 86.0196C29.2852 85.2397 28.7547 84.4597 28.2242 83.6797L28.0052 83.3593C27.1716 82.1324 26.3337 80.9056 25.4917 79.6829C24.637 78.4434 23.4496 77.7646 22.1528 77.7646C21.8623 77.7646 21.5718 77.7983 21.2813 77.8658C20.115 78.1356 19.1845 78.8228 18.6709 79.7968C18.1151 80.8466 18.0772 82.1367 18.574 83.431C20.0856 87.3814 21.6097 91.3277 23.1339 95.2781L24.4643 98.7226C26.039 102.808 28.3842 106.13 31.4241 108.592C32.8724 109.769 33.6134 110.7 33.3777 112.277C33.3313 112.564 33.4282 112.838 33.664 113.087L33.8871 113.369L33.8787 113.361Z" fill="#3D3362"/>
<path d="M60.9129 45.8035C60.0792 45.7993 59.6582 45.2427 59.654 44.1592C59.6413 38.5181 59.6455 32.9192 59.654 28.1846C59.654 26.8481 60.2392 26.6542 60.5171 26.5614C60.6729 26.5108 60.816 26.4855 60.9508 26.4855C61.3886 26.4855 61.8013 26.7806 62.2139 27.3835C63.5991 29.4325 64.9843 31.4858 66.3695 33.5348L68.8536 37.2196C68.9925 37.422 69.1357 37.6201 69.2831 37.8183L69.822 38.5519L71.1904 38.1345V37.8225C71.1904 37.8225 71.1904 30.8997 71.1904 28.5809V28.3574C71.1904 28.1003 71.1819 27.86 71.2114 27.6449C71.304 26.9493 71.8303 26.4434 72.4619 26.4434C73.1734 26.4602 73.6997 26.9957 73.6997 27.7208C73.725 33.6191 73.7124 39.5806 73.6997 44.1128C73.6997 44.8591 73.3755 45.3186 72.685 45.5632C72.5208 45.6222 72.3608 45.6475 72.2093 45.6475C71.624 45.6475 71.1946 45.2006 70.9377 44.8211C69.4978 42.7131 68.0747 40.5966 66.6474 38.4844C66.6474 38.4844 65.2116 36.3595 64.5296 35.3434C64.4075 35.1622 64.2769 34.9851 64.117 34.7616L63.7843 34.3021L62.4328 32.4259L62.2602 34.7363C62.2476 34.9092 62.2349 35.0568 62.2223 35.1875C62.2012 35.4404 62.1802 35.6597 62.1802 35.8873C62.1802 36.8233 62.1802 37.7592 62.1802 38.6952V39.0999C62.1802 40.7948 62.1802 42.4939 62.1718 44.1887C62.1676 45.2596 61.7465 45.7993 60.9255 45.7993H60.9087L60.9129 45.8035Z" fill="#3D3362"/>
<path d="M49.554 45.7895C49.335 45.7895 49.1119 45.7768 48.8929 45.7558C46.2446 45.4944 44.0089 43.2135 43.7984 40.57C43.7226 39.5835 43.7394 38.5505 43.7605 37.5471C43.7689 37.0665 43.7773 36.5901 43.7773 36.1179V35.2747H43.7605C43.7605 35.0892 43.7521 34.9079 43.7521 34.7224C43.731 33.7484 43.7142 32.7366 43.7858 31.7711C43.9963 28.9632 46.1478 26.8341 49.1371 26.4673C49.3308 26.442 49.5287 26.4336 49.7308 26.4336C52.1181 26.4336 54.4295 28.0947 55.2337 30.3798C55.5411 31.2568 55.3137 31.9271 54.6106 32.218C54.4422 32.2897 54.278 32.3234 54.118 32.3234C53.6296 32.3234 53.1833 31.9651 52.897 31.3411C52.0002 29.3975 50.6781 28.9885 49.7266 28.9885C49.4992 28.9885 49.2676 29.0138 49.0319 29.0602C47.2846 29.4143 46.2783 30.7508 46.2614 32.7282L46.253 33.6388C46.2362 35.6836 46.2151 37.8001 46.2867 39.9123C46.3499 41.8391 47.7856 43.2894 49.6255 43.2894C50.1434 43.2894 50.6486 43.1713 51.1286 42.9352C52.5601 42.2396 53.217 40.8314 52.8086 39.3431C52.6991 38.9384 52.3707 38.5927 51.8318 38.3144C50.7455 37.7537 50.9139 37.0285 50.9686 36.7882C51.1497 36.0083 51.9286 35.8607 52.3749 35.8438C52.7159 35.8312 53.0317 35.8227 53.3264 35.8227C54.2948 35.8227 54.7916 35.9281 55.0358 36.1895C55.3516 36.5226 55.4737 37.3658 55.3979 38.6939C55.3769 39.0818 55.3811 39.4696 55.3811 39.8406C55.3895 40.5321 55.3937 41.1813 55.2379 41.7463C54.5727 44.1663 52.2865 45.7937 49.554 45.7937V45.7895Z" fill="#3D3362"/>
<path d="M87.2325 45.8113C86.2094 45.8113 85.2199 45.5583 84.3695 45.0735C82.319 43.9098 81.3464 42.2824 81.3885 40.0943C81.4138 38.741 81.4096 37.3834 81.4012 36.0722C81.4012 35.4777 81.3969 34.8833 81.3969 34.293V32.4886C81.3927 31.0214 81.3885 29.5584 81.3969 28.0912C81.3969 27.5979 81.5275 26.4512 82.6348 26.4512C83.7884 26.4638 83.9189 27.6275 83.9189 28.1292C83.9274 30.545 83.9274 32.9565 83.9274 35.3723C83.9274 35.3723 83.9274 38.5386 83.9274 39.8076C83.9274 41.5362 84.5252 42.4764 85.9862 43.0498C86.3694 43.2015 86.8115 43.2817 87.262 43.2817C88.3903 43.2817 89.4556 42.7926 90.0366 42.0084C90.4366 41.4688 90.6808 40.6719 90.6892 39.8751C90.7313 35.9036 90.7187 31.8688 90.706 28.0786C90.706 27.2143 90.9587 26.8812 91.3418 26.6451C91.5439 26.5228 91.7755 26.4554 92.007 26.4554C92.5923 26.4554 93.1986 26.8896 93.207 27.6148L93.2365 29.5542C93.2912 33.3065 93.3502 37.1599 93.1691 40.9207C93.0217 43.9436 89.9777 45.8113 87.2409 45.8113H87.2325Z" fill="#3D3362"/>
<path d="M25.8417 45.8705C23.7365 45.7736 21.9303 45.1369 20.3261 43.9227C19.9009 43.5981 19.2735 42.9235 19.8925 42.0592C20.1409 41.7093 20.4566 41.5322 20.8314 41.5322C21.1303 41.5322 21.4587 41.6545 21.7829 41.8779C23.1008 42.8097 24.3933 43.2608 25.728 43.2608C25.947 43.2608 26.1701 43.2481 26.3933 43.2228C27.1511 43.1385 27.9216 42.8645 28.5069 42.4766C29.3237 41.9327 29.7742 41.1907 29.7784 40.377C29.7826 39.5633 29.3363 38.8129 28.5237 38.2606C27.9385 37.8642 27.3027 37.5944 26.688 37.3372L26.4059 37.2192C25.8543 36.9831 25.2901 36.7596 24.7302 36.5362C24.0144 36.2495 23.3113 35.967 22.6376 35.6677C21.0714 34.9762 20.023 33.5934 19.8419 31.9744C19.6567 30.3386 20.3767 28.7407 21.7703 27.7036C22.9071 26.8519 24.1744 26.4219 25.5301 26.4219C26.1154 26.4219 26.7259 26.5062 27.3322 26.6664C28.7216 27.0374 30.0815 27.771 31.1089 28.3697C31.4499 28.5678 31.673 28.8461 31.7446 29.1707C31.8204 29.4954 31.7446 29.8495 31.5299 30.1615C31.2983 30.503 30.9699 30.6843 30.5784 30.6843C30.2752 30.6843 29.9468 30.5747 29.631 30.3681C28.5911 29.6893 27.3237 28.9979 25.808 28.9979C25.3786 28.9979 24.9491 29.0569 24.5239 29.1665C23.926 29.3267 23.3618 29.6387 22.9744 30.0266C22.4692 30.5367 22.2503 31.2029 22.3724 31.8522C22.4987 32.5141 22.9618 33.0579 23.6355 33.3531C24.6039 33.7705 25.6143 34.1752 26.5027 34.5336C26.9743 34.7233 27.4501 34.913 27.9216 35.1069L28.069 35.166C28.4016 35.3009 28.7132 35.4274 29.0079 35.5791C31.3657 36.7891 32.5193 38.7075 32.2625 40.9799C32.0225 43.0669 30.2499 44.943 27.9427 45.5459C27.4879 45.6639 27.008 45.723 26.4943 45.7904H26.4438C26.2417 45.8242 26.0396 45.8494 25.8375 45.879L25.8417 45.8705Z" fill="#3D3362"/>
<path d="M98.824 45.7904C98.0704 45.7904 97.6199 45.2634 97.6115 44.378C97.5946 41.9918 97.5988 39.5675 97.5988 37.2192V34.2848V32.3496C97.5988 30.8951 97.5946 29.4364 97.6072 27.9818C97.6157 26.8814 98.0325 26.4514 99.0893 26.4387L99.6451 26.4303C99.9945 26.4303 100.344 26.4219 100.698 26.4219C101.477 26.4219 102.495 26.4387 103.476 26.5737C106.533 26.991 108.723 29.664 108.575 32.7923C108.436 35.7689 106.036 38.1931 103.001 38.4292C102.563 38.4629 102.125 38.484 101.653 38.5051L100.129 38.581V40.8872C100.138 41.9833 100.142 43.1174 100.125 44.2389C100.117 44.8713 99.9229 45.6555 99.0598 45.7736C98.9798 45.7862 98.8998 45.7904 98.8198 45.7904H98.824ZM102.066 28.9557C101.75 28.9557 101.397 28.9768 100.963 29.019L100.205 29.0949V35.8237L100.976 35.8869C101.397 35.9206 101.75 35.9459 102.104 35.9459C103.068 35.9459 104.457 35.7815 105.434 34.3649C106.238 33.1971 106.264 31.8522 105.506 30.6801C104.394 28.9557 102.639 28.9557 102.062 28.9557H102.066Z" fill="#3D3362"/>
<path d="M38.1363 45.7865C37.5006 45.7865 37.0164 45.4029 36.8985 44.8084C36.869 44.6566 36.869 44.4627 36.869 44.2561V44.1339C36.869 38.809 36.869 33.4883 36.869 28.1634C36.869 27.0884 37.3322 26.4475 38.1111 26.4475C39.2647 26.4686 39.391 27.6322 39.3952 28.1339C39.4037 30.0775 39.3994 32.0211 39.3952 33.9647V36.1149C39.3952 36.819 39.3952 38.6488 39.3952 38.6488C39.3952 40.5333 39.4037 42.4769 39.3826 44.4037C39.3742 45.23 38.9574 45.7317 38.2374 45.7781C38.1995 45.7781 38.1658 45.7781 38.1321 45.7781L38.1363 45.7865Z" fill="#3D3362"/>
<path d="M63.9917 12.5428C63.3096 12.5386 62.7622 12.0031 62.7496 11.3286C62.7454 11.0039 62.8801 10.6751 63.1201 10.4305C63.3601 10.186 63.6843 10.0469 64.0043 10.0469C64.6737 10.0553 65.2506 10.6245 65.2632 11.2906C65.2674 11.6279 65.1453 11.9399 64.9179 12.1718C64.6822 12.4121 64.358 12.5428 64.0043 12.5428H63.9917Z" fill="#3D3362"/>
</g>
<defs>
<clipPath id="clip0_142_1785">
<rect width="106" height="106" fill="white" transform="translate(11 10)"/>
</clipPath>
</defs>
</svg>
