<svg width="127" height="126" viewBox="0 0 127 126" fill="none" xmlns="http://www.w3.org/2000/svg">
<g clip-path="url(#clip0_142_1815)">
<path d="M98.3007 93.926L89.441 86.2838L79.8926 94.4981L69.7451 86.4745L60.8901 94.8843L50.6813 86.4745L41.2603 93.1632V25.6656C41.2603 21.9994 44.1993 19.0293 47.8271 19.0293H91.7432C95.371 19.0293 98.3101 21.9994 98.3101 25.6656V93.926H98.3007Z" fill="#FFFCFF"/>
<path d="M85.7958 105.879L76.9361 98.2369L67.3877 106.451L57.2402 98.4276L48.3853 106.837L38.1764 98.4276L28.7554 105.116V37.6187C28.7554 33.9525 31.6944 30.9824 35.3223 30.9824H79.2383C82.8661 30.9824 85.8052 33.9525 85.8052 37.6187V105.879H85.7958Z" fill="#E2DEFF"/>
<path d="M48.182 108C47.5168 108 46.8328 107.662 46.026 106.932C44.356 105.426 42.686 103.919 40.9924 102.398L38.5062 100.162L33.1612 105.02L32.779 105.373C32.4347 105.693 32.0903 106.007 31.7317 106.312C31.1798 106.784 30.5854 107.023 29.9674 107.023C29.6041 107.023 29.2314 106.942 28.854 106.78C27.7973 106.327 27.184 105.497 27.033 104.315C27.0047 104.086 27.0047 103.848 27.0094 103.595V103.404C27 81.8171 27 60.2349 27 38.6574C27 33.3131 30.6844 29.5754 35.9634 29.5706H39.5016V29.0939C39.5016 28.7744 39.5063 28.4598 39.5111 28.1547C39.5205 27.4968 39.5299 26.8722 39.4922 26.2429C39.3176 23.3252 40.6527 21.4326 41.8085 20.3599C43.2663 18.9964 45.2854 18.143 47.347 18.0191C47.6159 18 47.8848 18 48.1537 18H72.9069C79.4926 18 86.0737 18 92.6594 18C96.2825 18 99.1037 20.2645 99.8443 23.7686C99.967 24.3407 99.9811 24.9509 99.9811 25.5183C99.9811 34.4048 99.9811 43.2961 99.9859 52.1826C99.9859 65.3456 99.9858 78.5133 99.9953 91.6762C99.9953 93.0683 99.533 93.9169 98.5423 94.346C98.2356 94.4795 97.9337 94.5462 97.6365 94.5462C96.9949 94.5462 96.3533 94.2411 95.674 93.6166C94.2587 92.3103 92.834 91.0136 91.4093 89.7216L89.3949 87.8861L89.126 87.9862C87.6305 88.5488 87.4418 89.6596 87.4559 90.6751C87.5267 95.6046 87.4937 100.472 87.4559 104.162C87.4512 104.811 87.2861 105.473 87.0125 105.936C86.602 106.637 85.9888 107.023 85.2811 107.023C84.7339 107.023 84.1725 106.78 83.7007 106.341C82.2477 104.987 80.79 103.633 79.3134 102.265L77.0772 100.191L76.5677 100.596C76.4168 100.711 76.2752 100.825 76.1384 100.949L73.3645 103.442C72.0577 104.62 70.7509 105.793 69.4394 106.97C68.6941 107.638 68.0053 107.962 67.3307 107.962C66.6419 107.962 65.9343 107.623 65.17 106.923C63.6038 105.492 62.0376 104.057 60.4524 102.613L57.7587 100.158L56.5416 101.264C55.9424 101.802 55.3527 102.341 54.7583 102.88L53.0175 104.472C52.1212 105.292 51.2248 106.112 50.3285 106.927C49.5171 107.662 48.833 108.005 48.1631 108.005L48.182 108ZM57.7681 96.725C58.4805 96.725 59.1881 97.0396 59.8769 97.6642C60.6459 98.3602 61.4101 99.0706 62.1696 99.7809C62.6131 100.196 63.0565 100.61 63.5047 101.02C64.2926 101.75 65.0851 102.475 65.8824 103.209L67.2552 104.472L74.6524 97.8072C75.5157 97.0301 76.2092 96.6678 76.8414 96.6678C77.4735 96.6678 78.1859 97.0539 79.0256 97.8882C79.9267 98.7797 84.2763 103.056 84.2763 103.056V91.805C84.2763 74.0605 84.2763 56.3208 84.2763 38.5763C84.2763 38.0996 84.2668 37.4703 84.1772 36.8314C83.8375 34.3047 82.1911 32.8602 79.6625 32.8602H35.8974C32.4394 32.8602 30.2032 35.1152 30.2032 38.6002V102.889L30.9675 102.27L31.293 102.007C31.4864 101.855 31.6327 101.736 31.7789 101.612C32.3497 101.101 32.9206 100.591 33.4914 100.081C34.3453 99.3185 35.1992 98.5509 36.0578 97.7929C36.9164 97.0349 37.6712 96.6773 38.4024 96.6773C39.1336 96.6773 39.9309 97.0587 40.7942 97.8358C42.3605 99.247 43.9314 100.658 45.5165 102.084L48.1678 104.463L48.7339 103.972C48.9132 103.819 49.0783 103.676 49.2434 103.523L51.8334 101.159C53.1024 100 54.3667 98.8417 55.6358 97.688C56.334 97.0539 57.0511 96.7297 57.7681 96.7297V96.725ZM89.0505 84.2724C89.8053 84.2724 90.4752 84.6299 91.296 85.4738C92.2396 86.4463 93.2539 87.3617 94.2351 88.2532C94.6172 88.5965 94.9946 88.9445 95.372 89.2925C95.4994 89.4117 95.6315 89.5023 95.7872 89.6072C95.8627 89.6596 95.9429 89.7168 96.0372 89.7836L96.7826 90.327V78.1081C96.7826 60.5448 96.7826 42.9862 96.7826 25.4229C96.7826 22.9439 95.1362 21.28 92.6877 21.28H48.2339C47.8565 21.28 47.4979 21.28 47.1347 21.3181C44.941 21.5279 43.0634 23.0201 42.8558 24.7126C42.7332 25.709 42.7615 26.6863 42.7898 27.7256C42.8039 28.1737 42.8134 28.6267 42.8134 29.0891V29.5658H64.1416C69.3357 29.5658 74.5297 29.5658 79.7191 29.5658C83.262 29.5658 85.8991 31.4824 86.9464 34.8148C87.2861 35.8923 87.4606 37.1318 87.4606 38.5048C87.489 50.166 87.489 62.0227 87.4842 73.4836V84.649L88.107 84.4345C88.4372 84.3201 88.7533 84.2628 89.0458 84.2628L89.0505 84.2724Z" fill="#3D3362"/>
<path d="M61.3242 79.782H50.5445C48.6857 79.782 46.827 79.782 44.9683 79.7724C44.2984 79.7724 43.7181 79.4625 43.4162 78.9524C43.1614 78.5281 43.152 78.0418 43.3879 77.5842C43.5813 77.2123 44.105 76.8977 44.5673 76.6211L44.6899 76.5449C44.7182 76.5306 44.789 76.502 44.9871 76.502C45.0626 76.502 45.1428 76.502 45.223 76.5067C45.3127 76.5067 45.3976 76.5115 45.4825 76.5115H55.1252C60.107 76.5115 65.0888 76.5115 70.0706 76.502C71.2877 76.502 71.8538 76.788 72.1652 77.5508C72.3728 78.0514 72.3256 78.5853 72.0472 79.0144C71.7406 79.4816 71.2122 79.7534 70.5989 79.7629C69.4478 79.7772 68.2968 79.782 67.1457 79.782H61.3194H61.3242Z" fill="#3D3362"/>
<path d="M63.9664 66.0952H50.4599C48.6389 66.0952 46.8179 66.0952 45.0017 66.0904C44.3459 66.0904 43.794 65.8139 43.4779 65.3324C43.1995 64.9081 43.1571 64.3741 43.3646 63.8735C43.6005 63.3014 43.9921 62.982 44.5676 62.901C44.9073 62.8533 45.2706 62.8438 45.5489 62.8438C49.9598 62.8438 54.3708 62.8438 58.777 62.8438H69.9577C70.2738 62.8438 70.571 62.8438 70.854 62.8867C71.7174 63.0058 72.3212 63.6971 72.2929 64.5219C72.2646 65.4039 71.5853 66.0761 70.7172 66.0856C69.6935 66.0999 68.6745 66.1047 67.6508 66.1047H63.9616L63.9664 66.0952Z" fill="#3D3362"/>
<path d="M47.6868 52.4161C46.8424 52.4161 46.0027 52.4161 45.1582 52.4161C43.9835 52.4113 43.2665 51.8202 43.2381 50.8333C43.224 50.3899 43.3655 49.999 43.6486 49.7082C43.9882 49.3554 44.5166 49.1552 45.1346 49.1552C47.2575 49.1456 49.3805 49.1409 51.5034 49.1409C53.6263 49.1409 55.7492 49.1409 57.8721 49.1552C58.5043 49.1552 59.0421 49.3506 59.3817 49.7034C59.6601 49.9895 59.8016 50.3756 59.7969 50.819C59.778 51.8154 59.0374 52.4161 57.8108 52.4161C56.9899 52.4161 56.1738 52.4161 55.3529 52.4161H51.4845H47.6868Z" fill="#3D3362"/>
</g>
<defs>
<clipPath id="clip0_142_1815">
<rect width="73" height="90" fill="white" transform="translate(27 18)"/>
</clipPath>
</defs>
</svg>
