<svg width="51" height="58" viewBox="0 0 51 58" fill="none" xmlns="http://www.w3.org/2000/svg">
<g clip-path="url(#clip0_143_3263)">
<path d="M9.8817 41.4456C10.6788 41.1644 11.4578 40.8356 12.2639 40.6111C15.2507 39.7766 18.1832 39.9852 20.9368 41.4093C22.6781 42.3096 24.4557 42.7677 26.4009 42.7587C28.1513 42.7496 29.9017 42.8562 31.6544 42.8879C33.9619 42.9287 35.7417 43.8971 36.9759 45.8564C37.0144 45.9199 37.0642 45.9766 37.1321 46.0696C38.1375 45.5956 39.1384 45.1239 40.137 44.6522C41.6678 43.9288 43.1895 43.185 44.7316 42.4843C46.8896 41.5069 49.4349 42.2598 50.7075 44.2214C51.1785 44.9448 51.0925 45.4278 50.3792 45.8904C44.8494 49.4757 39.349 53.1087 33.7671 56.6124C31.7563 57.8755 29.3945 58.2247 27.0598 57.8641C25.0626 57.5557 23.1106 56.9457 21.1519 56.4219C18.7901 55.7892 16.4396 55.1156 14.0891 54.4421C13.0723 54.1518 12.119 54.2471 11.2064 54.78C10.9618 54.9229 10.7195 55.0703 10.4591 55.1769C9.82282 55.4399 9.34729 55.7529 9.39484 56.5919C9.42428 57.1203 8.99177 57.4287 8.44151 57.4174C5.97552 57.363 3.50726 57.3085 1.04128 57.2292C0.300799 57.2042 -0.0184886 56.8119 0.00189148 56.0386C0.121907 51.5893 0.250981 47.14 0.373262 42.6906C0.398171 41.7677 0.416286 40.8424 0.445724 39.9194C0.470633 39.1167 0.812566 38.7765 1.60059 38.7946C3.95563 38.8468 6.30839 38.9035 8.66116 38.9715C9.61676 38.9987 9.91793 39.3502 9.88396 40.3254C9.87038 40.6973 9.88396 41.0692 9.88396 41.4456H9.8817ZM9.56694 53.4829C9.87717 53.3241 10.1263 53.2017 10.3686 53.0679C11.7068 52.3308 13.1063 52.1902 14.5714 52.6075C16.4509 53.1427 18.3326 53.6779 20.2189 54.1904C22.4494 54.7959 24.664 55.508 26.9285 55.932C29.0616 56.3289 31.2083 56.0001 33.0742 54.814C38.1081 51.6097 43.1012 48.3351 48.1079 45.0899C48.2732 44.9833 48.4317 44.8631 48.6016 44.7452C47.7116 43.8948 46.5251 43.7406 45.3249 44.3053C42.9767 45.4119 40.6398 46.5413 38.2825 47.6275C37.8454 47.8294 37.7209 48.0312 37.8001 48.5119C37.9609 49.4735 37.6643 50.1016 36.4098 50.054C33.0402 49.927 29.6707 49.8635 26.3012 49.7705C25.982 49.7615 25.6559 49.7615 25.3456 49.6912C24.886 49.5869 24.6391 49.2444 24.6459 48.7841C24.6527 48.301 24.9154 47.9631 25.4113 47.8747C25.6128 47.8384 25.8234 47.8543 26.0318 47.8611C29.0639 47.9405 32.0937 48.0244 35.1258 48.1037C35.3455 48.1105 35.5629 48.1037 35.7893 48.1037C35.5085 46.3576 33.9007 44.9221 32.1231 44.8268C30.957 44.7656 29.7885 44.7475 28.6223 44.7112C27.3044 44.6704 25.9865 44.6477 24.6686 44.591C22.9883 44.5184 21.53 43.7814 20.0378 43.0852C16.7203 41.5341 13.4392 41.711 10.2417 43.5025C9.91114 43.6884 9.76847 43.9039 9.75942 44.2962C9.70733 46.861 9.62808 49.4236 9.56241 51.9884C9.55109 52.4556 9.56241 52.925 9.56241 53.4829H9.56694ZM2.33201 40.8265C2.20067 45.6319 2.06707 50.4758 1.9312 55.4036H7.55837C7.68971 50.5847 7.82331 45.7544 7.95691 40.8265H2.33201Z" fill="#312D51"/>
<path d="M26.0682 40.2166C18.4596 40.1985 12.3003 34.0166 12.3184 26.4151C12.3365 18.8136 18.5275 12.6453 26.1248 12.6612C33.7311 12.677 39.8949 18.8657 39.8745 26.4672C39.8541 34.0778 33.6744 40.2348 26.0704 40.2166H26.0682ZM26.0885 38.3208C32.626 38.3298 37.9543 33.0074 37.9633 26.4627C37.9724 19.9021 32.6917 14.5933 26.1338 14.5683C19.5692 14.5434 14.2273 19.8749 14.2273 26.4468C14.2273 32.9938 19.5397 38.3117 26.0863 38.3208H26.0885Z" fill="#312D51"/>
<path d="M27.0368 5.46551C27.0368 6.95315 27.0391 8.4408 27.0368 9.92617C27.0368 10.4137 26.8149 10.7607 26.3281 10.8854C25.8729 11.0011 25.5015 10.8446 25.2819 10.4319C25.1913 10.2595 25.1573 10.0373 25.1573 9.83546C25.1505 6.91687 25.1483 4.00054 25.1573 1.08194C25.1573 0.40162 25.5468 -0.011111 26.1152 0.000227757C26.6836 0.0115665 27.0346 0.419762 27.0391 1.11596C27.0482 2.56505 27.0414 4.01415 27.0414 5.46551C27.0414 5.46551 27.0414 5.46551 27.0391 5.46551H27.0368Z" fill="#312D51"/>
<path d="M19.9182 7.8468C19.9182 8.52258 19.9295 9.20064 19.9159 9.87643C19.9024 10.5159 19.5287 10.9219 18.9807 10.9241C18.4327 10.9287 18.0432 10.525 18.0364 9.88777C18.0229 8.51578 18.0206 7.14379 18.0364 5.76954C18.0432 5.13457 18.4418 4.73771 18.9966 4.75132C19.5287 4.76492 19.8978 5.15044 19.9137 5.7582C19.9318 6.4544 19.9182 7.14833 19.9182 7.84453V7.8468Z" fill="#312D51"/>
<path d="M34.1589 7.80782C34.1589 8.48361 34.1679 9.16167 34.1566 9.83746C34.1453 10.5155 33.7694 10.9328 33.2055 10.9237C32.6575 10.9169 32.2816 10.5155 32.2748 9.87147C32.2613 8.51762 32.2613 7.16378 32.2748 5.80993C32.2816 5.15909 32.6485 4.76223 33.1987 4.75316C33.7694 4.74182 34.1453 5.15455 34.1566 5.83261C34.1679 6.49025 34.1589 7.1479 34.1589 7.80782Z" fill="#312D51"/>
<path d="M9.56656 53.4827C9.56656 52.9248 9.55523 52.4554 9.56656 51.9882C9.63222 49.4234 9.71148 46.8608 9.76356 44.296C9.77036 43.9037 9.91528 43.686 10.2459 43.5023C13.4433 41.7108 16.7245 41.5339 20.0419 43.085C21.5319 43.7812 22.9925 44.5182 24.6727 44.5908C25.9906 44.6475 27.3085 44.6702 28.6265 44.711C29.7926 44.7473 30.9611 44.7632 32.1273 44.8267C33.9026 44.9219 35.5127 46.3551 35.7934 48.1036C35.567 48.1036 35.3474 48.1081 35.13 48.1036C32.0979 48.0219 29.068 47.9403 26.0359 47.8609C25.8299 47.8564 25.617 47.8382 25.4155 47.8745C24.9195 47.9652 24.6569 48.3009 24.6501 48.7839C24.6433 49.242 24.8901 49.5867 25.3498 49.691C25.6578 49.7613 25.9861 49.7613 26.3054 49.7704C29.6749 49.8633 33.0467 49.9268 36.4139 50.0538C37.6684 50.1015 37.9651 49.471 37.8043 48.5118C37.725 48.031 37.8473 47.8292 38.2866 47.6273C40.6439 46.5411 42.9808 45.4117 45.3291 44.3051C46.5292 43.7404 47.7158 43.8946 48.6057 44.745C48.4359 44.8629 48.2774 44.9831 48.1121 45.0897C43.1031 48.3371 38.1122 51.6095 33.0784 54.8138C31.2125 56.0021 29.0635 56.331 26.9326 55.9318C24.6659 55.51 22.4536 54.798 20.2231 54.1902C18.3368 53.6777 16.455 53.1425 14.5755 52.6073C13.1082 52.19 11.711 52.3306 10.3727 53.0677C10.1304 53.2015 9.87905 53.3239 9.57108 53.4827H9.56656Z" fill="#F6FFF6"/>
<path d="M2.33245 40.8262H7.95735C7.82148 45.754 7.69014 50.5843 7.55881 55.4033H1.93164C2.06751 50.4755 2.20111 45.6315 2.33245 40.8262Z" fill="#E1DDFC"/>
<path d="M26.0884 38.3209C19.5419 38.3118 14.2295 32.9939 14.2295 26.4469C14.2295 19.8727 19.5713 14.5435 26.136 14.5684C32.6938 14.5934 37.9745 19.9022 37.9655 26.4628C37.9564 33.0098 32.6282 38.3299 26.0907 38.3209H26.0884ZM23.9485 23.2381C23.9553 22.0883 24.852 21.1631 26.0137 21.1041C27.164 21.0474 28.131 21.925 28.2442 23.1292C28.3099 23.839 28.7175 24.2631 29.2813 24.2087C29.8565 24.152 30.2188 23.6553 30.1463 22.9705C29.981 21.4307 29.2451 20.2333 27.8162 19.6142C27.1686 19.333 26.8221 19.0699 26.8878 18.3125C26.9308 17.8181 26.5345 17.5279 26.0545 17.4802C25.5948 17.4349 25.2483 17.6639 25.0943 18.1061C25.0287 18.2966 25.0128 18.5189 25.0355 18.7207C25.083 19.1561 24.9313 19.3647 24.5033 19.5462C23.0246 20.1743 22.1868 21.349 22.06 22.9387C21.9354 24.5057 22.574 25.7621 23.8851 26.6533C24.5962 27.1363 25.3978 27.2656 26.2379 27.3336C27.4675 27.4357 28.2895 28.3949 28.2419 29.5719C28.1989 30.674 27.2954 31.5766 26.2062 31.6083C24.9653 31.6446 24.064 30.8305 23.9463 29.5719C23.8829 28.8961 23.4934 28.4924 22.934 28.5265C22.3521 28.5605 21.9762 29.0458 22.0441 29.7352C22.1981 31.3022 22.9612 32.4882 24.4014 33.1345C24.9041 33.359 25.0377 33.6062 25.0536 34.1233C25.0649 34.4702 25.2461 34.9238 25.5065 35.1256C26.1133 35.595 26.915 35.0848 26.9036 34.2435C26.8968 33.7219 26.9784 33.4339 27.5581 33.232C29.2202 32.6583 30.2867 30.9099 30.1441 29.1932C29.9923 27.3631 28.6926 25.8618 26.924 25.499C26.5572 25.4242 26.1745 25.4264 25.8008 25.3743C24.7049 25.2223 23.9349 24.3288 23.944 23.2313L23.9485 23.2381Z" fill="white"/>
<path d="M23.9488 23.2377C23.942 24.3353 24.7096 25.2265 25.8056 25.3807C26.1792 25.4329 26.5597 25.4283 26.9288 25.5054C28.6973 25.866 29.9971 27.3672 30.1488 29.1996C30.2915 30.9185 29.2249 32.6647 27.5628 33.2385C26.9831 33.4403 26.9016 33.7283 26.9084 34.2499C26.9197 35.0889 26.1181 35.6015 25.5112 35.132C25.2486 34.9302 25.0697 34.4766 25.0583 34.1297C25.0402 33.6149 24.9066 33.3677 24.4062 33.1409C22.966 32.4946 22.2029 31.3086 22.0489 29.7416C21.981 29.0522 22.3591 28.5669 22.9388 28.5329C23.4981 28.4989 23.8899 28.9025 23.951 29.5783C24.0665 30.8369 24.97 31.6488 26.2109 31.6147C27.3002 31.583 28.2014 30.6804 28.2467 29.5783C28.2942 28.4013 27.4722 27.4398 26.2427 27.34C25.4025 27.2697 24.6009 27.1427 23.8899 26.6597C22.5765 25.7685 21.9379 24.5121 22.0647 22.9451C22.1915 21.3554 23.0294 20.1807 24.5081 19.5526C24.9361 19.3712 25.0878 19.1625 25.0402 18.7271C25.0176 18.5253 25.0334 18.303 25.0991 18.1126C25.2508 17.6681 25.5995 17.439 26.0592 17.4867C26.537 17.5343 26.9356 17.8246 26.8925 18.3189C26.8269 19.0741 27.1733 19.3394 27.821 19.6206C29.2498 20.2397 29.9858 21.4371 30.1511 22.9769C30.2258 23.6617 29.8635 24.1606 29.2861 24.2151C28.7222 24.2695 28.3146 23.8454 28.249 23.1356C28.1357 21.9314 27.1688 21.0538 26.0185 21.1105C24.8591 21.1695 23.9623 22.0947 23.9533 23.2445L23.9488 23.2377Z" fill="#312D51"/>
</g>
<defs>
<clipPath id="clip0_143_3263">
<rect width="51" height="58" fill="white"/>
</clipPath>
</defs>
</svg>
