<svg width="44" height="53" viewBox="0 0 44 53" fill="none" xmlns="http://www.w3.org/2000/svg">
<g clip-path="url(#clip0_143_3284)">
<path d="M24.1916 31.1571C32.5746 31.1571 39.3704 24.4025 39.3704 16.0703C39.3704 7.73802 32.5746 0.983398 24.1916 0.983398C15.8085 0.983398 9.0127 7.73802 9.0127 16.0703C9.0127 24.4025 15.8085 31.1571 24.1916 31.1571Z" fill="#E1DDFC"/>
<path d="M40.8529 29.4481C40.1769 29.2689 39.5844 29.4413 39.0977 29.925C36.4842 32.516 33.8706 35.1115 31.2683 37.7159C31.1241 37.8615 31.0363 38.0922 30.9845 38.2982C30.6059 39.7717 29.4456 40.7794 27.9225 40.9295C27.7175 40.9496 27.5102 40.9564 27.3052 40.9564C24.1554 40.9586 21.0057 40.9586 17.8559 40.9564C17.6689 40.9564 17.4774 40.9608 17.2971 40.9272C16.8014 40.8332 16.5423 40.5197 16.5581 40.0248C16.5739 39.5522 16.8397 39.2634 17.3106 39.1917C17.5314 39.1581 17.759 39.1648 17.9843 39.1648C21.1138 39.1626 24.2456 39.1671 27.3751 39.1604C28.425 39.1581 29.0829 38.661 29.2248 37.8078C29.3713 36.9165 28.8283 36.1192 27.9338 35.9468C27.6792 35.8953 27.4134 35.8931 27.152 35.8931C22.2403 35.8908 17.3287 35.902 12.417 35.8841C10.9052 35.8796 9.65924 36.3813 8.5958 37.4584C6.36302 39.7202 4.09644 41.9462 1.84112 44.1833C1.69468 44.3289 1.55273 44.4857 1.3815 44.5909C1.33419 44.62 1.28687 44.6447 1.2373 44.6626L8.44484 51.5779C8.50342 51.486 8.57777 51.3942 8.6679 51.3046C9.32804 50.6395 9.99495 49.9856 10.6551 49.325C11.9641 48.0172 13.5458 47.3745 15.4023 47.3767C18.4394 47.3812 21.4765 47.3633 24.5137 47.3857C25.9263 47.3969 27.0979 46.9109 28.0915 45.9234C32.5548 41.4781 37.0069 37.024 41.5017 32.6123C42.6012 31.5307 42.243 29.8131 40.8529 29.4481Z" fill="#F6FFF6"/>
<path d="M30.6958 35.9472C30.8738 35.7009 30.9729 35.515 31.1171 35.3717C33.3521 33.1412 35.5804 30.8996 37.838 28.6915C39.859 26.7164 43.1755 27.6032 43.8717 30.2972C44.2164 31.6274 43.8649 32.8053 42.8871 33.7817C41.3392 35.3269 39.7869 36.8654 38.2345 38.4083C35.3168 41.3061 32.3878 44.1905 29.4904 47.1106C28.0665 48.5461 26.3924 49.2426 24.3579 49.2134C21.4335 49.1731 18.509 49.2179 15.5845 49.1978C14.0953 49.1888 12.8425 49.6725 11.8129 50.7519C11.2068 51.3879 10.5737 51.997 9.94511 52.6106C9.46747 53.0764 8.94926 53.1234 8.55723 52.7517C8.14492 52.362 8.18548 51.8313 8.67889 51.3342C9.33679 50.6713 10.0059 50.0174 10.6661 49.3568C11.9751 48.049 13.5568 47.4062 15.411 47.4085C18.4482 47.413 21.4853 47.3928 24.5224 47.4174C25.9373 47.4286 27.1089 46.9427 28.1025 45.9551C32.5658 41.5099 37.0179 37.0557 41.5127 32.6441C42.6122 31.5647 42.2517 29.8471 40.8638 29.4798C40.1879 29.3007 39.5954 29.4731 39.1087 29.9568C36.4929 32.5478 33.8816 35.1433 31.2793 37.7499C31.1329 37.8955 31.0473 38.1262 30.9932 38.3322C30.6147 39.8057 29.4544 40.8112 27.9313 40.9635C27.7263 40.9836 27.519 40.9903 27.314 40.9903C24.1642 40.9903 21.0144 40.9903 17.8646 40.9903C17.6776 40.9903 17.4861 40.9926 17.3059 40.959C16.8124 40.8672 16.5533 40.5537 16.5691 40.0565C16.5849 39.5862 16.8485 39.2951 17.3216 39.2257C17.5424 39.1921 17.77 39.1988 17.9953 39.1988C21.127 39.1988 24.2565 39.2011 27.3883 39.1943C28.436 39.1921 29.0961 38.695 29.2358 37.8417C29.3823 36.9527 28.8393 36.1532 27.9448 35.9808C27.6902 35.9315 27.4243 35.9293 27.163 35.9271C22.2513 35.9248 17.3397 35.936 12.428 35.9181C10.9162 35.9136 9.67024 36.4152 8.6068 37.4924C6.37402 39.7542 4.10744 41.9779 1.85213 44.2173C1.70793 44.3607 1.56373 44.5197 1.3925 44.6249C0.995962 44.8645 0.590412 44.8399 0.263718 44.5017C-0.0629755 44.1658 -0.0764938 43.7672 0.175849 43.3753C0.265971 43.2365 0.396649 43.1245 0.516061 43.0058C2.79616 40.7395 5.08752 38.4845 7.34959 36.2003C8.74423 34.7939 10.4025 34.1176 12.3852 34.1243C17.2968 34.1423 22.2085 34.1467 27.1202 34.1199C28.5779 34.1131 29.7675 34.5409 30.6958 35.9494V35.9472Z" fill="#3D3362"/>
<path d="M24.4118 8.36772e-06C15.4491 -0.00894925 8.17175 7.17506 8.15823 16.0453C8.14246 24.9268 15.359 32.1735 24.2451 32.2027C33.2506 32.234 40.5437 25.0343 40.5595 16.0969C40.5752 7.25568 33.3046 0.00896599 24.4118 8.36772e-06ZM24.2879 30.4111C16.3121 30.3731 9.91787 23.9169 9.96068 15.9491C10.0035 8.15592 16.5081 1.76466 24.369 1.79377C32.3583 1.82064 38.7841 8.25445 38.7548 16.1999C38.7255 24.0557 32.2164 30.4492 24.2879 30.4111Z" fill="#3D3362"/>
<path d="M17.2133 19.8706C16.988 19.8706 16.8055 19.8213 16.6613 19.7183C16.5171 19.6153 16.3954 19.4652 16.2985 19.2637L13.6579 13.4099C13.5678 13.1949 13.5385 13.0068 13.5746 12.8455C13.6106 12.6843 13.6962 12.5589 13.8314 12.4693C13.9689 12.3797 14.1266 12.335 14.3091 12.335C14.5614 12.335 14.7484 12.3865 14.8723 12.4917C14.994 12.597 15.0977 12.7493 15.1833 12.953L17.5084 18.3052H16.9812L19.2951 12.953C19.392 12.7515 19.5046 12.597 19.6263 12.4917C19.748 12.3865 19.926 12.335 20.158 12.335C20.3405 12.335 20.496 12.3797 20.6222 12.4693C20.7483 12.5611 20.8272 12.6843 20.8587 12.8455C20.8903 13.0045 20.8587 13.1927 20.7596 13.4099L18.11 19.2637C18.0266 19.4652 17.914 19.6175 17.7743 19.7183C17.6346 19.8191 17.4476 19.8706 17.2178 19.8706H17.2133Z" fill="#3D3362"/>
<path d="M21.9767 19.8706C21.7807 19.8706 21.6207 19.828 21.4991 19.7407C21.3751 19.6533 21.3008 19.5324 21.2738 19.3801C21.2445 19.2278 21.2738 19.0554 21.3571 18.8673L24.0608 12.9933C24.1734 12.7627 24.3086 12.597 24.4663 12.4917C24.624 12.3865 24.802 12.335 24.9981 12.335C25.1941 12.335 25.3788 12.3865 25.5343 12.4917C25.6897 12.597 25.8227 12.7627 25.9331 12.9933L28.6367 18.8673C28.7291 19.0621 28.7607 19.2346 28.7359 19.3846C28.7111 19.5346 28.6367 19.6533 28.5151 19.7407C28.3912 19.828 28.2402 19.8706 28.0577 19.8706C27.8189 19.8706 27.6364 19.8168 27.5057 19.7093C27.3773 19.6018 27.2624 19.4294 27.1632 19.192L26.5324 17.7386L27.1835 18.1888H22.7991L23.4502 17.7386L22.8306 19.192C22.718 19.4294 22.6053 19.6018 22.4949 19.7093C22.3845 19.8168 22.211 19.8706 21.979 19.8706H21.9767ZM24.9845 14.1422L23.6282 17.3423L23.3443 16.9235H26.636L26.3612 17.3423L25.0048 14.1422H24.9845Z" fill="#3D3362"/>
<path d="M32.2728 19.8707C32.0137 19.8707 31.8131 19.799 31.6735 19.6557C31.5338 19.5146 31.4639 19.3086 31.4639 19.0444V13.7549H29.6119C29.3866 13.7549 29.2154 13.6944 29.096 13.578C28.9765 13.4615 28.918 13.2913 28.918 13.0764C28.918 12.8614 28.9788 12.7046 29.096 12.5904C29.2131 12.4762 29.3866 12.418 29.6119 12.418H34.9539C35.1702 12.418 35.3392 12.4762 35.4586 12.5904C35.578 12.7046 35.6366 12.8658 35.6366 13.0764C35.6366 13.2869 35.5758 13.4593 35.4586 13.578C35.3414 13.6967 35.1702 13.7549 34.9539 13.7549H33.0929V19.0444C33.0929 19.3086 33.0253 19.5124 32.8879 19.6557C32.7504 19.799 32.5454 19.8707 32.2728 19.8707Z" fill="#3D3362"/>
</g>
<defs>
<clipPath id="clip0_143_3284">
<rect width="44" height="53" fill="white"/>
</clipPath>
</defs>
</svg>
