<svg width="36" height="55" viewBox="0 0 36 55" fill="none" xmlns="http://www.w3.org/2000/svg">
<g clip-path="url(#clip0_97_1961)">
<path d="M0.00605037 17.7175C0.143478 13.9653 0.906966 10.4164 3.23102 7.2891C5.69251 3.96746 8.91749 1.70419 12.9121 0.577048C15.5995 -0.182357 18.345 -0.13153 21.1211 0.388692C23.2314 0.786332 25.1676 1.51285 26.9511 2.62206C29.8523 4.4249 32.3199 6.69115 33.6545 9.84836C34.5035 11.8605 33.795 13.8547 31.474 14.5124C30.4814 14.7935 29.5072 14.5692 28.8109 13.8278C27.852 12.8082 26.9999 11.6901 26.1051 10.6108C23.6528 7.64489 20.3942 6.44599 16.6104 6.76589C11.9043 7.16353 8.11735 10.4523 7.04541 14.916C6.17809 18.5187 6.9202 21.7955 9.55882 24.4953C12.1028 27.0964 14.7902 29.563 17.3892 32.1133C18.6962 33.3959 19.9575 34.7263 21.228 36.0448C21.9976 36.8401 22.2969 37.7849 22.3182 38.8941C22.3579 40.8225 20.2477 41.8749 18.5161 41.4324C17.3586 41.1394 16.3936 40.5265 15.5446 39.7103C12.2127 36.5112 8.86557 33.3271 5.54287 30.1221C3.73798 28.379 2.2446 26.4088 1.27649 24.1006C0.41528 22.0646 -0.0519747 19.9419 0.00605037 17.7175Z" fill="#8379CD"/>
<path d="M35.9999 37.0015C35.9266 40.7567 35.2211 44.3175 32.9551 47.4807C30.5486 50.8412 27.3633 53.1553 23.3871 54.3512C20.7118 55.1555 17.9663 55.1495 15.1841 54.6741C13.0678 54.3124 11.1193 53.6157 9.3175 52.5364C6.3857 50.7814 3.88146 48.557 2.49497 45.4207C1.61237 43.4236 2.2873 41.4174 4.59609 40.7208C5.58251 40.4218 6.56283 40.6341 7.27135 41.3606C8.24861 42.3652 9.11899 43.4684 10.0321 44.5328C12.5364 47.4598 15.8133 48.6049 19.591 48.2222C24.288 47.7498 28.0199 44.3982 29.0185 39.9166C29.8217 36.2989 29.0277 33.0341 26.3402 30.3792C23.7505 27.8199 21.0233 25.3982 18.3816 22.8928C17.0501 21.6311 15.7705 20.3215 14.4756 19.024C13.6938 18.2407 13.3793 17.3019 13.3365 16.1927C13.2663 14.2642 15.3552 13.179 17.0959 13.5915C18.2595 13.8666 19.2337 14.4646 20.098 15.2658C23.4848 18.4111 26.8838 21.5384 30.2615 24.6896C32.0969 26.4028 33.6209 28.3491 34.6317 30.6393C35.5235 32.6604 36.0243 34.7771 36.006 37.0015H35.9999Z" fill="#8379CD"/>
</g>
<defs>
<clipPath id="clip0_97_1961">
<rect width="36" height="55" fill="white"/>
</clipPath>
</defs>
</svg>
