<svg width="21" height="18" viewBox="0 0 21 18" fill="none" xmlns="http://www.w3.org/2000/svg">
<g clip-path="url(#clip0_143_4157)">
<path d="M1.12381 17.6016L2.19046 14.2588C-2.33086 7.84797 2.80499 -0.87746 10.6443 0.0712611C14.6434 0.554969 17.945 3.8568 18.4287 7.85615C19.3575 15.5359 10.9948 20.6651 4.52706 16.5302L1.12497 17.6016H1.12381ZM5.88813 4.12553C4.71866 4.29611 4.17541 5.9073 4.27822 6.94248C4.47449 8.9147 7.1055 11.7527 8.75047 12.7563C9.76339 13.3744 11.8219 14.2343 12.9867 13.9784C13.8688 13.7845 14.745 13.1617 14.8817 12.2189C14.9097 12.0214 14.9506 11.4828 14.8046 11.3671C14.2859 11.1977 12.7975 10.2081 12.3418 10.2385C11.8862 10.2688 11.4633 11.484 10.9749 11.5751C10.448 11.6732 8.9631 10.6357 8.54368 10.2653C8.20604 9.9674 6.96764 8.58638 6.97582 8.18329C6.98283 7.83161 7.85205 7.3222 7.87308 6.83499C7.88359 6.60599 7.23752 5.10813 7.09265 4.80201C6.78656 4.15941 6.68959 4.00752 5.8893 4.12436L5.88813 4.12553Z" fill="#4EAF4F"/>
</g>
<defs>
<clipPath id="clip0_143_4157">
<rect width="20" height="18" fill="white" transform="translate(0.5)"/>
</clipPath>
</defs>
</svg>
